<svg version="1.1" viewBox="0.0 0.0 243.2230971128609 237.002624671916" fill="none" stroke="none" stroke-linecap="square" stroke-miterlimit="10" xmlns:xlink="http://www.w3.org/1999/xlink" xmlns="http://www.w3.org/2000/svg"><clipPath id="p.0"><path d="m0 0l243.2231 0l0 237.00262l-243.2231 0l0 -237.00262z" clip-rule="nonzero"/></clipPath><g clip-path="url(#p.0)"><path fill="#000000" fill-opacity="0.0" d="m0 0l243.2231 0l0 237.00262l-243.2231 0z" fill-rule="evenodd"/><path fill="#000000" fill-opacity="0.0" d="m5.1929135 120.45407l0 0c0 -12.559044 10.329178 -22.740158 23.070866 -22.740158l0 0c6.1187744 0 11.986938 2.3958282 16.313568 6.6604385c4.326626 4.2646027 6.7572975 10.048653 6.7572975 16.07972l0 0c0 12.559036 -10.329178 22.740158 -23.070866 22.740158l0 0c-12.741687 0 -23.070866 -10.181122 -23.070866 -22.740158z" fill-rule="evenodd"/><path stroke="#000000" stroke-width="1.0" stroke-linejoin="round" stroke-linecap="butt" d="m5.1929135 120.45407l0 0c0 -12.559044 10.329178 -22.740158 23.070866 -22.740158l0 0c6.1187744 0 11.986938 2.3958282 16.313568 6.6604385c4.326626 4.2646027 6.7572975 10.048653 6.7572975 16.07972l0 0c0 12.559036 -10.329178 22.740158 -23.070866 22.740158l0 0c-12.741687 0 -23.070866 -10.181122 -23.070866 -22.740158z" fill-rule="evenodd"/><path fill="#000000" d="m20.93459 125.25407l3.65625 -9.546875l1.359375 0l3.90625 9.546875l-1.4375 0l-1.109375 -2.890625l-3.984375 0l-1.046875 2.890625l-1.34375 0zm2.75 -3.921875l3.234375 0l-1.0 -2.640625q-0.453125 -1.203125 -0.671875 -1.96875q-0.1875 0.90625 -0.515625 1.8125l-1.046875 2.796875z" fill-rule="nonzero"/><path fill="#000000" d="m33.15247 130.25407l-0.78125 0l0 -4.9687576q-0.28125 0.265625 -0.75 0.53125q-0.453125 0.265625 -0.8125 0.40625l0 -0.75q0.65625 -0.3125 1.140625 -0.75q0.484375 -0.4375 0.6875 -0.84375l0.515625 0l0 6.3750076z" fill-rule="nonzero"/><path fill="#000000" fill-opacity="0.0" d="m191.88583 120.45538l0 0c0 -12.559044 10.329178 -22.740158 23.070862 -22.740158l0 0c6.1187744 0 11.986938 2.3958282 16.313568 6.6604385c4.3266144 4.2646027 6.7572937 10.048653 6.7572937 16.07972l0 0c0 12.559036 -10.329178 22.740158 -23.070862 22.740158l0 0c-12.741684 0 -23.070862 -10.181122 -23.070862 -22.740158z" fill-rule="evenodd"/><path stroke="#000000" stroke-width="1.0" stroke-linejoin="round" stroke-linecap="butt" d="m191.88583 120.45538l0 0c0 -12.559044 10.329178 -22.740158 23.070862 -22.740158l0 0c6.1187744 0 11.986938 2.3958282 16.313568 6.6604385c4.3266144 4.2646027 6.7572937 10.048653 6.7572937 16.07972l0 0c0 12.559036 -10.329178 22.740158 -23.070862 22.740158l0 0c-12.741684 0 -23.070862 -10.181122 -23.070862 -22.740158z" fill-rule="evenodd"/><path fill="#000000" d="m207.6275 125.25538l3.65625 -9.546875l1.359375 0l3.90625 9.546875l-1.4375 0l-1.109375 -2.890625l-3.984375 0l-1.046875 2.890625l-1.34375 0zm2.75 -3.921875l3.234375 0l-1.0 -2.640625q-0.453125 -1.203125 -0.671875 -1.96875q-0.1875 0.90625 -0.515625 1.8125l-1.046875 2.796875z" fill-rule="nonzero"/><path fill="#000000" d="m221.00163 129.50539l0 0.75l-4.203125 0q0 -0.28125 0.09375 -0.546875q0.15625 -0.421875 0.5 -0.828125q0.359375 -0.421875 1.03125 -0.9687576q1.03125 -0.859375 1.390625 -1.34375q0.375 -0.5 0.375 -0.9375q0 -0.46875 -0.328125 -0.78125q-0.328125 -0.328125 -0.859375 -0.328125q-0.578125 0 -0.921875 0.34375q-0.328125 0.328125 -0.328125 0.9375l-0.796875 -0.09375q0.078125 -0.890625 0.609375 -1.359375q0.546875 -0.46875 1.453125 -0.46875q0.90625 0 1.4375 0.515625q0.53125 0.5 0.53125 1.25q0 0.375 -0.15625 0.75q-0.15625 0.359375 -0.515625 0.765625q-0.359375 0.40625 -1.203125 1.1250076q-0.703125 0.59375 -0.90625 0.796875q-0.1875 0.203125 -0.3125 0.421875l3.109375 0z" fill-rule="nonzero"/><path fill="#000000" fill-opacity="0.0" d="m95.58399 210.62993l0 0c0 -12.5590515 10.329178 -22.740158 23.070862 -22.740158l0 0c6.1187744 0 11.986946 2.3958282 16.31356 6.660431c4.3266296 4.2646027 6.757309 10.04866 6.757309 16.079727l0 0c0 12.559036 -10.329178 22.740143 -23.07087 22.740143l0 0c-12.741684 0 -23.070862 -10.181107 -23.070862 -22.740143z" fill-rule="evenodd"/><path stroke="#000000" stroke-width="1.0" stroke-linejoin="round" stroke-linecap="butt" d="m95.58399 210.62993l0 0c0 -12.5590515 10.329178 -22.740158 23.070862 -22.740158l0 0c6.1187744 0 11.986946 2.3958282 16.31356 6.660431c4.3266296 4.2646027 6.757309 10.04866 6.757309 16.079727l0 0c0 12.559036 -10.329178 22.740143 -23.07087 22.740143l0 0c-12.741684 0 -23.070862 -10.181107 -23.070862 -22.740143z" fill-rule="evenodd"/><path fill="#000000" d="m112.37254 215.42992l0 -9.546875l3.59375 0q0.953125 0 1.453125 0.09375q0.703125 0.125 1.171875 0.453125q0.484375 0.328125 0.765625 0.921875q0.296875 0.59375 0.296875 1.296875q0 1.21875 -0.78125 2.0625q-0.765625 0.84375 -2.796875 0.84375l-2.4375 0l0 3.875l-1.265625 0zm1.265625 -5.0l2.453125 0q1.234375 0 1.75 -0.453125q0.515625 -0.46875 0.515625 -1.28125q0 -0.609375 -0.3125 -1.03125q-0.296875 -0.421875 -0.796875 -0.5625q-0.3125 -0.09375 -1.171875 -0.09375l-2.4375 0l0 3.421875z" fill-rule="nonzero"/><path fill="#000000" d="m124.6998 219.67992l0 0.75l-4.203125 0q0 -0.28125 0.09375 -0.546875q0.15625 -0.421875 0.5 -0.828125q0.359375 -0.421875 1.03125 -0.96875q1.03125 -0.859375 1.390625 -1.34375q0.375 -0.5 0.375 -0.9375q0 -0.46875 -0.328125 -0.78125q-0.328125 -0.328125 -0.859375 -0.328125q-0.578125 0 -0.921875 0.34375q-0.328125 0.328125 -0.328125 0.9375l-0.796875 -0.09375q0.078125 -0.890625 0.609375 -1.359375q0.546875 -0.46875 1.453125 -0.46875q0.90625 0 1.4375 0.515625q0.53125 0.5 0.53125 1.25q0 0.375 -0.15625 0.75q-0.15625 0.359375 -0.515625 0.765625q-0.359375 0.40625 -1.203125 1.125q-0.703125 0.59375 -0.90625 0.796875q-0.1875 0.203125 -0.3125 0.421875l3.109375 0z" fill-rule="nonzero"/><path fill="#000000" fill-opacity="0.0" d="m95.58399 30.28084l0 0c0 -12.559042 10.329178 -22.740158 23.070862 -22.740158l0 0c6.1187744 0 11.986946 2.3958316 16.31356 6.660438c4.3266296 4.2646065 6.757309 10.048655 6.757309 16.07972l0 0c0 12.559042 -10.329178 22.740156 -23.07087 22.740156l0 0c-12.741684 0 -23.070862 -10.181114 -23.070862 -22.740156z" fill-rule="evenodd"/><path stroke="#000000" stroke-width="1.0" stroke-linejoin="round" stroke-linecap="butt" d="m95.58399 30.28084l0 0c0 -12.559042 10.329178 -22.740158 23.070862 -22.740158l0 0c6.1187744 0 11.986946 2.3958316 16.31356 6.660438c4.3266296 4.2646065 6.757309 10.048655 6.757309 16.07972l0 0c0 12.559042 -10.329178 22.740156 -23.07087 22.740156l0 0c-12.741684 0 -23.070862 -10.181114 -23.070862 -22.740156z" fill-rule="evenodd"/><path fill="#000000" d="m112.37254 35.080837l0 -9.546873l3.59375 0q0.953125 0 1.453125 0.09375q0.703125 0.125 1.171875 0.453125q0.484375 0.328125 0.765625 0.921875q0.296875 0.59375 0.296875 1.296875q0 1.21875 -0.78125 2.0625q-0.765625 0.84375 -2.796875 0.84375l-2.4375 0l0 3.874998l-1.265625 0zm1.265625 -4.999998l2.453125 0q1.234375 0 1.75 -0.453125q0.515625 -0.46875 0.515625 -1.28125q0 -0.609375 -0.3125 -1.03125q-0.296875 -0.421875 -0.796875 -0.5625q-0.3125 -0.09375 -1.171875 -0.09375l-2.4375 0l0 3.421875z" fill-rule="nonzero"/><path fill="#000000" d="m123.54355 40.080837l-0.78125 0l0 -4.96875q-0.28125 0.265625 -0.75 0.53125q-0.453125 0.265625 -0.8125 0.40625l0 -0.75q0.65625 -0.3125 1.140625 -0.75q0.484375 -0.4375 0.6875 -0.84375l0.515625 0l0 6.375z" fill-rule="nonzero"/><path fill="#000000" fill-opacity="0.0" d="m214.9567 187.88977l0 -44.692917" fill-rule="evenodd"/><path stroke="#000000" stroke-width="1.0" stroke-linejoin="round" stroke-linecap="butt" d="m214.9567 187.88977l0 -44.692917" fill-rule="evenodd"/><path fill="#000000" fill-opacity="0.0" d="m51.334644 210.62993l44.251972 0" fill-rule="evenodd"/><path stroke="#000000" stroke-width="1.0" stroke-linejoin="round" stroke-linecap="butt" d="m51.334644 210.62993l44.251972 0" fill-rule="evenodd"/><path fill="#000000" fill-opacity="0.0" d="m51.334644 30.28084l44.251972 0" fill-rule="evenodd"/><path stroke="#000000" stroke-width="1.0" stroke-linejoin="round" stroke-linecap="butt" d="m51.334644 30.28084l44.251972 0" fill-rule="evenodd"/><path fill="#000000" fill-opacity="0.0" d="m141.72572 30.28084l50.173233 0" fill-rule="evenodd"/><path stroke="#000000" stroke-width="1.0" stroke-linejoin="round" stroke-linecap="butt" d="m141.72572 30.28084l50.173233 0" fill-rule="evenodd"/><path fill="#000000" fill-opacity="0.0" d="m5.1929135 30.28084l0 0c0 -12.559042 10.329178 -22.740158 23.070866 -22.740158l0 0c6.1187744 0 11.986938 2.3958316 16.313568 6.660438c4.326626 4.2646065 6.7572975 10.048655 6.7572975 16.07972l0 0c0 12.559042 -10.329178 22.740156 -23.070866 22.740156l0 0c-12.741687 0 -23.070866 -10.181114 -23.070866 -22.740156z" fill-rule="evenodd"/><path stroke="#000000" stroke-width="1.0" stroke-linejoin="round" stroke-linecap="butt" d="m5.1929135 30.28084l0 0c0 -12.559042 10.329178 -22.740158 23.070866 -22.740158l0 0c6.1187744 0 11.986938 2.3958316 16.313568 6.660438c4.326626 4.2646065 6.7572975 10.048655 6.7572975 16.07972l0 0c0 12.559042 -10.329178 22.740156 -23.070866 22.740156l0 0c-12.741687 0 -23.070866 -10.181114 -23.070866 -22.740156z" fill-rule="evenodd"/><path fill="#000000" d="m28.012714 31.785215l1.125 0.2968731q-0.359375 1.390625 -1.28125 2.125q-0.921875 0.734375 -2.265625 0.734375q-1.390625 0 -2.265625 -0.5625q-0.875 -0.5625 -1.328125 -1.625q-0.453125 -1.0781231 -0.453125 -2.312498q0 -1.34375 0.515625 -2.34375q0.515625 -1.0 1.453125 -1.515625q0.953125 -0.515625 2.09375 -0.515625q1.28125 0 2.15625 0.65625q0.890625 0.65625 1.234375 1.84375l-1.125 0.265625q-0.296875 -0.9375 -0.875 -1.359375q-0.5625 -0.4375 -1.421875 -0.4375q-0.984375 0 -1.65625 0.484375q-0.65625 0.46875 -0.9375 1.265625q-0.265625 0.796875 -0.265625 1.65625q0 1.09375 0.3125 1.9062481q0.328125 0.8125 1.0 1.21875q0.671875 0.40625 1.46875 0.40625q0.953125 0 1.609375 -0.546875q0.671875 -0.546875 0.90625 -1.6406231z" fill-rule="nonzero"/><path fill="#000000" d="m32.600605 39.30084l-0.703125 0l0 -4.484375q-0.25 0.25 -0.671875 0.5q-0.40625 0.234375 -0.734375 0.34375l0 -0.671875q0.59375 -0.28125 1.03125 -0.671875q0.4375 -0.390625 0.625 -0.765625l0.453125 0l0 5.75z" fill-rule="nonzero"/><path fill="#000000" fill-opacity="0.0" d="m191.88583 30.28084l0 0c0 -12.559042 10.329178 -22.740158 23.070862 -22.740158l0 0c6.1187744 0 11.986938 2.3958316 16.313568 6.660438c4.3266144 4.2646065 6.7572937 10.048655 6.7572937 16.07972l0 0c0 12.559042 -10.329178 22.740156 -23.070862 22.740156l0 0c-12.741684 0 -23.070862 -10.181114 -23.070862 -22.740156z" fill-rule="evenodd"/><path stroke="#000000" stroke-width="1.0" stroke-linejoin="round" stroke-linecap="butt" d="m191.88583 30.28084l0 0c0 -12.559042 10.329178 -22.740158 23.070862 -22.740158l0 0c6.1187744 0 11.986938 2.3958316 16.313568 6.660438c4.3266144 4.2646065 6.7572937 10.048655 6.7572937 16.07972l0 0c0 12.559042 -10.329178 22.740156 -23.070862 22.740156l0 0c-12.741684 0 -23.070862 -10.181114 -23.070862 -22.740156z" fill-rule="evenodd"/><path fill="#000000" d="m214.70563 31.785215l1.125 0.2968731q-0.359375 1.390625 -1.28125 2.125q-0.921875 0.734375 -2.265625 0.734375q-1.390625 0 -2.265625 -0.5625q-0.875 -0.5625 -1.328125 -1.625q-0.453125 -1.0781231 -0.453125 -2.312498q0 -1.34375 0.515625 -2.34375q0.515625 -1.0 1.453125 -1.515625q0.953125 -0.515625 2.09375 -0.515625q1.28125 0 2.15625 0.65625q0.890625 0.65625 1.234375 1.84375l-1.125 0.265625q-0.296875 -0.9375 -0.875 -1.359375q-0.5625 -0.4375 -1.421875 -0.4375q-0.984375 0 -1.65625 0.484375q-0.65625 0.46875 -0.9375 1.265625q-0.265625 0.796875 -0.265625 1.65625q0 1.09375 0.3125 1.9062481q0.328125 0.8125 1.0 1.21875q0.671875 0.40625 1.46875 0.40625q0.953125 0 1.609375 -0.546875q0.671875 -0.546875 0.90625 -1.6406231z" fill-rule="nonzero"/><path fill="#000000" d="m220.3404 38.628963l0 0.671875l-3.78125 0q-0.015625 -0.25 0.078125 -0.484375q0.140625 -0.390625 0.453125 -0.765625q0.328125 -0.375 0.921875 -0.875q0.9375 -0.765625 1.265625 -1.203125q0.328125 -0.453125 0.328125 -0.84375q0 -0.421875 -0.296875 -0.703125q-0.296875 -0.296875 -0.78125 -0.296875q-0.5 0 -0.8125 0.3125q-0.296875 0.296875 -0.3125 0.84375l-0.71875 -0.078125q0.078125 -0.8125 0.5625 -1.234375q0.484375 -0.421875 1.296875 -0.421875q0.828125 0 1.296875 0.453125q0.484375 0.453125 0.484375 1.140625q0 0.34375 -0.140625 0.671875q-0.140625 0.328125 -0.46875 0.703125q-0.3125 0.359375 -1.078125 1.0q-0.625 0.53125 -0.8125 0.71875q-0.171875 0.1875 -0.296875 0.390625l2.8125 0z" fill-rule="nonzero"/><path fill="#000000" fill-opacity="0.0" d="m191.88583 210.62993l0 0c0 -12.5590515 10.329178 -22.740158 23.070862 -22.740158l0 0c6.1187744 0 11.986938 2.3958282 16.313568 6.660431c4.3266144 4.2646027 6.7572937 10.04866 6.7572937 16.079727l0 0c0 12.559036 -10.329178 22.740143 -23.070862 22.740143l0 0c-12.741684 0 -23.070862 -10.181107 -23.070862 -22.740143z" fill-rule="evenodd"/><path stroke="#000000" stroke-width="1.0" stroke-linejoin="round" stroke-linecap="butt" d="m191.88583 210.62993l0 0c0 -12.5590515 10.329178 -22.740158 23.070862 -22.740158l0 0c6.1187744 0 11.986938 2.3958282 16.313568 6.660431c4.3266144 4.2646027 6.7572937 10.04866 6.7572937 16.079727l0 0c0 12.559036 -10.329178 22.740143 -23.070862 22.740143l0 0c-12.741684 0 -23.070862 -10.181107 -23.070862 -22.740143z" fill-rule="evenodd"/><path fill="#000000" d="m214.70563 212.1343l1.125 0.296875q-0.359375 1.390625 -1.28125 2.125q-0.921875 0.734375 -2.265625 0.734375q-1.390625 0 -2.265625 -0.5625q-0.875 -0.5625 -1.328125 -1.625q-0.453125 -1.078125 -0.453125 -2.3125q0 -1.34375 0.515625 -2.34375q0.515625 -1.0 1.453125 -1.515625q0.953125 -0.515625 2.09375 -0.515625q1.28125 0 2.15625 0.65625q0.890625 0.65625 1.234375 1.84375l-1.125 0.265625q-0.296875 -0.9375 -0.875 -1.359375q-0.5625 -0.4375 -1.421875 -0.4375q-0.984375 0 -1.65625 0.484375q-0.65625 0.46875 -0.9375 1.265625q-0.265625 0.796875 -0.265625 1.65625q0 1.09375 0.3125 1.90625q0.328125 0.8125 1.0 1.21875q0.671875 0.40625 1.46875 0.40625q0.953125 0 1.609375 -0.546875q0.671875 -0.546875 0.90625 -1.640625z" fill-rule="nonzero"/><path fill="#000000" d="m216.6529 218.1343l0.703125 -0.09375q0.109375 0.59375 0.40625 0.859375q0.296875 0.265625 0.703125 0.265625q0.5 0 0.84375 -0.34375q0.34375 -0.34375 0.34375 -0.84375q0 -0.484375 -0.328125 -0.796875q-0.3125 -0.328125 -0.796875 -0.328125q-0.203125 0 -0.5 0.078125l0.078125 -0.609375q0.078125 0 0.125 0q0.4375 0 0.796875 -0.234375q0.359375 -0.234375 0.359375 -0.71875q0 -0.390625 -0.265625 -0.640625q-0.25 -0.25 -0.671875 -0.25q-0.40625 0 -0.6875 0.265625q-0.265625 0.25 -0.34375 0.765625l-0.703125 -0.125q0.125 -0.703125 0.578125 -1.09375q0.46875 -0.390625 1.140625 -0.390625q0.46875 0 0.859375 0.203125q0.40625 0.203125 0.609375 0.546875q0.21875 0.34375 0.21875 0.734375q0 0.375 -0.203125 0.6875q-0.203125 0.296875 -0.59375 0.46875q0.515625 0.125 0.796875 0.5q0.28125 0.359375 0.28125 0.921875q0 0.75 -0.546875 1.28125q-0.546875 0.515625 -1.390625 0.515625q-0.75 0 -1.25 -0.453125q-0.5 -0.453125 -0.5625 -1.171875z" fill-rule="nonzero"/><path fill="#000000" fill-opacity="0.0" d="m5.1929135 210.62993l0 0c0 -12.5590515 10.329178 -22.740158 23.070866 -22.740158l0 0c6.1187744 0 11.986938 2.3958282 16.313568 6.660431c4.326626 4.2646027 6.7572975 10.04866 6.7572975 16.079727l0 0c0 12.559036 -10.329178 22.740143 -23.070866 22.740143l0 0c-12.741687 0 -23.070866 -10.181107 -23.070866 -22.740143z" fill-rule="evenodd"/><path stroke="#000000" stroke-width="1.0" stroke-linejoin="round" stroke-linecap="butt" d="m5.1929135 210.62993l0 0c0 -12.5590515 10.329178 -22.740158 23.070866 -22.740158l0 0c6.1187744 0 11.986938 2.3958282 16.313568 6.660431c4.326626 4.2646027 6.7572975 10.04866 6.7572975 16.079727l0 0c0 12.559036 -10.329178 22.740143 -23.070866 22.740143l0 0c-12.741687 0 -23.070866 -10.181107 -23.070866 -22.740143z" fill-rule="evenodd"/><path fill="#000000" d="m28.012714 212.1343l1.125 0.296875q-0.359375 1.390625 -1.28125 2.125q-0.921875 0.734375 -2.265625 0.734375q-1.390625 0 -2.265625 -0.5625q-0.875 -0.5625 -1.328125 -1.625q-0.453125 -1.078125 -0.453125 -2.3125q0 -1.34375 0.515625 -2.34375q0.515625 -1.0 1.453125 -1.515625q0.953125 -0.515625 2.09375 -0.515625q1.28125 0 2.15625 0.65625q0.890625 0.65625 1.234375 1.84375l-1.125 0.265625q-0.296875 -0.9375 -0.875 -1.359375q-0.5625 -0.4375 -1.421875 -0.4375q-0.984375 0 -1.65625 0.484375q-0.65625 0.46875 -0.9375 1.265625q-0.265625 0.796875 -0.265625 1.65625q0 1.09375 0.3125 1.90625q0.328125 0.8125 1.0 1.21875q0.671875 0.40625 1.46875 0.40625q0.953125 0 1.609375 -0.546875q0.671875 -0.546875 0.90625 -1.640625z" fill-rule="nonzero"/><path fill="#000000" d="m32.20998 219.64992l0 -1.375l-2.484375 0l0 -0.640625l2.609375 -3.71875l0.578125 0l0 3.71875l0.765625 0l0 0.640625l-0.765625 0l0 1.375l-0.703125 0zm0 -2.015625l0 -2.578125l-1.796875 2.578125l1.796875 0z" fill-rule="nonzero"/><path fill="#000000" fill-opacity="0.0" d="m28.263779 143.19423l0 44.692917" fill-rule="evenodd"/><path stroke="#000000" stroke-width="1.0" stroke-linejoin="round" stroke-linecap="butt" d="m28.263779 143.19423l0 44.692917" fill-rule="evenodd"/><path fill="#000000" fill-opacity="0.0" d="m28.263779 53.020996l0 44.692917" fill-rule="evenodd"/><path stroke="#000000" stroke-width="1.0" stroke-linejoin="round" stroke-linecap="butt" d="m28.263779 53.020996l0 44.692917" fill-rule="evenodd"/><path fill="#000000" fill-opacity="0.0" d="m191.88583 210.62993l-50.173233 0" fill-rule="evenodd"/><path stroke="#000000" stroke-width="1.0" stroke-linejoin="round" stroke-linecap="butt" d="m191.88583 210.62993l-50.173233 0" fill-rule="evenodd"/><path fill="#000000" fill-opacity="0.0" d="m214.9567 97.715225l0 -44.692917" fill-rule="evenodd"/><path stroke="#000000" stroke-width="1.0" stroke-linejoin="round" stroke-linecap="butt" d="m214.9567 97.715225l0 -44.692917" fill-rule="evenodd"/></g></svg>