<svg version="1.1" viewBox="0.0 0.0 243.2230971128609 237.002624671916" fill="none" stroke="none" stroke-linecap="square" stroke-miterlimit="10" xmlns:xlink="http://www.w3.org/1999/xlink" xmlns="http://www.w3.org/2000/svg"><clipPath id="p.0"><path d="m0 0l243.2231 0l0 237.00262l-243.2231 0l0 -237.00262z" clip-rule="nonzero"/></clipPath><g clip-path="url(#p.0)"><path fill="#000000" fill-opacity="0.0" d="m0 0l243.2231 0l0 237.00262l-243.2231 0z" fill-rule="evenodd"/><path fill="#000000" fill-opacity="0.0" d="m3.9475067 116.98425l0 0c0 -12.559044 10.329178 -22.740158 23.070868 -22.740158l0 0c6.1187725 0 11.986937 2.3958282 16.313566 6.6604385c4.326626 4.2646027 6.7572975 10.048653 6.7572975 16.07972l0 0c0 12.559036 -10.329178 22.740158 -23.070864 22.740158l0 0c-12.741689 0 -23.070868 -10.181122 -23.070868 -22.740158z" fill-rule="evenodd"/><path stroke="#000000" stroke-width="1.0" stroke-linejoin="round" stroke-linecap="butt" d="m3.9475067 116.98425l0 0c0 -12.559044 10.329178 -22.740158 23.070868 -22.740158l0 0c6.1187725 0 11.986937 2.3958282 16.313566 6.6604385c4.326626 4.2646027 6.7572975 10.048653 6.7572975 16.07972l0 0c0 12.559036 -10.329178 22.740158 -23.070864 22.740158l0 0c-12.741689 0 -23.070868 -10.181122 -23.070868 -22.740158z" fill-rule="evenodd"/><path fill="#000000" d="m19.673557 123.90425l5.125 -13.359375l1.90625 0l5.46875 13.359375l-2.015625 0l-1.546875 -4.046875l-5.59375 0l-1.46875 4.046875l-1.875 0zm3.859375 -5.484375l4.53125 0l-1.40625 -3.703125q-0.625 -1.6875 -0.9375 -2.765625q-0.265625 1.28125 -0.71875 2.546875l-1.46875 3.921875z" fill-rule="nonzero"/><path fill="#000000" fill-opacity="0.0" d="m43.33194 133.06396l55.2126 46.204727" fill-rule="evenodd"/><path stroke="#000000" stroke-width="1.0" stroke-linejoin="round" stroke-linecap="butt" d="m43.33194 133.06398l50.611237 42.354065" fill-rule="evenodd"/><path fill="#000000" stroke="#000000" stroke-width="1.0" stroke-linecap="butt" d="m92.88314 176.68475l4.5402756 1.6457367l-2.4201965 -4.179138z" fill-rule="evenodd"/><path fill="#000000" fill-opacity="0.0" d="m43.33194 100.90453l56.7874 -53.102364" fill-rule="evenodd"/><path stroke="#000000" stroke-width="1.0" stroke-linejoin="round" stroke-linecap="butt" d="m43.33194 100.904526l52.404945 -49.004288" fill-rule="evenodd"/><path fill="#000000" stroke="#000000" stroke-width="1.0" stroke-linecap="butt" d="m96.86504 53.106674l2.1865082 -4.3060074l-4.44281 1.8931274z" fill-rule="evenodd"/><path fill="#000000" fill-opacity="0.0" d="m144.68242 179.25984l53.259842 -46.204727" fill-rule="evenodd"/><path stroke="#000000" stroke-width="1.0" stroke-linejoin="round" stroke-linecap="butt" d="m144.68242 179.25984l48.727646 -42.27289" fill-rule="evenodd"/><path fill="#000000" stroke="#000000" stroke-width="1.0" stroke-linecap="butt" d="m194.49246 138.2346l2.34552 -4.2214966l-4.5102997 1.726181z" fill-rule="evenodd"/><path fill="#000000" fill-opacity="0.0" d="m191.1811 116.98425l0 0c0 -12.559044 10.329178 -22.740158 23.070862 -22.740158l0 0c6.1187744 0 11.986938 2.3958282 16.313568 6.6604385c4.3266296 4.2646027 6.7572937 10.048653 6.7572937 16.07972l0 0c0 12.559036 -10.329178 22.740158 -23.070862 22.740158l0 0c-12.741684 0 -23.070862 -10.181122 -23.070862 -22.740158z" fill-rule="evenodd"/><path stroke="#000000" stroke-width="1.0" stroke-linejoin="round" stroke-linecap="butt" d="m191.1811 116.98425l0 0c0 -12.559044 10.329178 -22.740158 23.070862 -22.740158l0 0c6.1187744 0 11.986938 2.3958282 16.313568 6.6604385c4.3266296 4.2646027 6.7572937 10.048653 6.7572937 16.07972l0 0c0 12.559036 -10.329178 22.740158 -23.070862 22.740158l0 0c-12.741684 0 -23.070862 -10.181122 -23.070862 -22.740158z" fill-rule="evenodd"/><path fill="#000000" d="m217.90715 119.21675l1.765625 0.453125q-0.5625 2.171875 -2.0 3.328125q-1.4375 1.140625 -3.53125 1.140625q-2.15625 0 -3.515625 -0.875q-1.34375 -0.890625 -2.0625 -2.546875q-0.703125 -1.671875 -0.703125 -3.59375q0 -2.078125 0.796875 -3.625q0.796875 -1.5625 2.265625 -2.359375q1.484375 -0.8125 3.25 -0.8125q2.0 0 3.359375 1.015625q1.375 1.015625 1.90625 2.875l-1.734375 0.40625q-0.46875 -1.453125 -1.359375 -2.109375q-0.875 -0.671875 -2.203125 -0.671875q-1.546875 0 -2.578125 0.734375q-1.03125 0.734375 -1.453125 1.984375q-0.421875 1.234375 -0.421875 2.5625q0 1.703125 0.5 2.96875q0.5 1.265625 1.546875 1.90625q1.046875 0.625 2.265625 0.625q1.484375 0 2.515625 -0.859375q1.03125 -0.859375 1.390625 -2.546875z" fill-rule="nonzero"/><path fill="#000000" fill-opacity="0.0" d="m146.26772 47.792652l51.685043 53.10236" fill-rule="evenodd"/><path stroke="#000000" stroke-width="1.0" stroke-linejoin="round" stroke-linecap="butt" d="m146.26772 47.792652l47.500168 48.80273" fill-rule="evenodd"/><path fill="#000000" stroke="#000000" stroke-width="1.0" stroke-linecap="butt" d="m192.58424 97.74743l4.3488617 2.0999756l-1.9815826 -4.404068z" fill-rule="evenodd"/><path fill="#000000" fill-opacity="0.0" d="m100.125984 47.792652l0 0c0 -12.559044 10.329178 -22.740158 23.07087 -22.740158l0 0c6.1187744 0 11.986938 2.3958302 16.313568 6.6604366c4.3266144 4.2646084 6.7572937 10.048655 6.7572937 16.079721l0 0c0 12.55904 -10.329178 22.740154 -23.070862 22.740154l0 0c-12.741692 0 -23.07087 -10.181114 -23.07087 -22.740154z" fill-rule="evenodd"/><path stroke="#000000" stroke-width="1.0" stroke-linejoin="round" stroke-linecap="butt" d="m100.125984 47.792652l0 0c0 -12.559044 10.329178 -22.740158 23.07087 -22.740158l0 0c6.1187744 0 11.986938 2.3958302 16.313568 6.6604366c4.3266144 4.2646084 6.7572937 10.048655 6.7572937 16.079721l0 0c0 12.55904 -10.329178 22.740154 -23.070862 22.740154l0 0c-12.741692 0 -23.07087 -10.181114 -23.07087 -22.740154z" fill-rule="evenodd"/><path fill="#000000" d="m116.852036 52.59265l0 -9.546875l3.59375 0q1.09375 0 1.75 0.296875q0.65625 0.28125 1.03125 0.890625q0.375 0.609375 0.375 1.265625q0 0.609375 -0.34375 1.15625q-0.328125 0.53125 -0.984375 0.859375q0.859375 0.25 1.328125 0.875q0.46875 0.609375 0.46875 1.4375q0 0.671875 -0.296875 1.25q-0.28125 0.578125 -0.703125 0.890625q-0.40625 0.3125 -1.03125 0.46875q-0.625 0.15625 -1.546875 0.15625l-3.640625 0zm1.265625 -5.53125l2.0625 0q0.84375 0 1.203125 -0.109375q0.484375 -0.140625 0.71875 -0.46875q0.25 -0.34375 0.25 -0.84375q0 -0.46875 -0.234375 -0.828125q-0.21875 -0.359375 -0.640625 -0.5q-0.421875 -0.140625 -1.453125 -0.140625l-1.90625 0l0 2.890625zm0 4.40625l2.375 0q0.609375 0 0.859375 -0.046875q0.4375 -0.078125 0.734375 -0.25q0.296875 -0.1875 0.484375 -0.53125q0.1875 -0.359375 0.1875 -0.8125q0 -0.53125 -0.28125 -0.921875q-0.265625 -0.40625 -0.75 -0.5625q-0.484375 -0.15625 -1.40625 -0.15625l-2.203125 0l0 3.28125z" fill-rule="nonzero"/><path fill="#000000" d="m128.08554 57.59265l-0.78125 0l0 -4.96875q-0.28125 0.265625 -0.75 0.53125q-0.453125 0.265625 -0.8125 0.40625l0 -0.75q0.65625 -0.3125 1.140625 -0.75q0.484375 -0.4375 0.6875 -0.84375l0.515625 0l0 6.375z" fill-rule="nonzero"/><path fill="#000000" fill-opacity="0.0" d="m98.54068 179.25984l0 0c0 -12.559036 10.329178 -22.740158 23.07087 -22.740158l0 0c6.1187744 0 11.986931 2.3958282 16.31356 6.660446c4.3266296 4.2646027 6.757309 10.048645 6.757309 16.079712l0 0c0 12.559036 -10.329178 22.740158 -23.07087 22.740158l0 0c-12.741692 0 -23.07087 -10.181122 -23.07087 -22.740158z" fill-rule="evenodd"/><path stroke="#000000" stroke-width="1.0" stroke-linejoin="round" stroke-linecap="butt" d="m98.54068 179.25984l0 0c0 -12.559036 10.329178 -22.740158 23.07087 -22.740158l0 0c6.1187744 0 11.986931 2.3958282 16.31356 6.660446c4.3266296 4.2646027 6.757309 10.048645 6.757309 16.079712l0 0c0 12.559036 -10.329178 22.740158 -23.07087 22.740158l0 0c-12.741692 0 -23.07087 -10.181122 -23.07087 -22.740158z" fill-rule="evenodd"/><path fill="#000000" d="m115.26673 184.05984l0 -9.546875l3.59375 0q1.09375 0 1.75 0.296875q0.65625 0.28125 1.03125 0.890625q0.375 0.609375 0.375 1.265625q0 0.609375 -0.34375 1.15625q-0.328125 0.53125 -0.984375 0.859375q0.859375 0.25 1.328125 0.875q0.46875 0.609375 0.46875 1.4375q0 0.671875 -0.296875 1.25q-0.28125 0.578125 -0.703125 0.890625q-0.40625 0.3125 -1.03125 0.46875q-0.625 0.15625 -1.546875 0.15625l-3.640625 0zm1.265625 -5.53125l2.0625 0q0.84375 0 1.203125 -0.109375q0.484375 -0.140625 0.71875 -0.46875q0.25 -0.34375 0.25 -0.84375q0 -0.46875 -0.234375 -0.828125q-0.21875 -0.359375 -0.640625 -0.5q-0.421875 -0.140625 -1.453125 -0.140625l-1.90625 0l0 2.890625zm0 4.40625l2.375 0q0.609375 0 0.859375 -0.046875q0.4375 -0.078125 0.734375 -0.25q0.296875 -0.1875 0.484375 -0.53125q0.1875 -0.359375 0.1875 -0.8125q0 -0.53125 -0.28125 -0.921875q-0.265625 -0.40625 -0.75 -0.5625q-0.484375 -0.15625 -1.40625 -0.15625l-2.203125 0l0 3.28125z" fill-rule="nonzero"/><path fill="#000000" d="m127.65649 188.30984l0 0.75l-4.203125 0q0 -0.28125 0.09375 -0.546875q0.15625 -0.421875 0.5 -0.828125q0.359375 -0.421875 1.03125 -0.96875q1.03125 -0.859375 1.390625 -1.34375q0.375 -0.5 0.375 -0.9375q0 -0.46875 -0.328125 -0.78125q-0.328125 -0.328125 -0.859375 -0.328125q-0.578125 0 -0.921875 0.34375q-0.328125 0.328125 -0.328125 0.9375l-0.796875 -0.09375q0.078125 -0.890625 0.609375 -1.359375q0.546875 -0.46875 1.453125 -0.46875q0.90625 0 1.4375 0.515625q0.53125 0.5 0.53125 1.25q0 0.375 -0.15625 0.75q-0.15625 0.359375 -0.515625 0.765625q-0.359375 0.40625 -1.203125 1.125q-0.703125 0.59375 -0.90625 0.796875q-0.1875 0.203125 -0.3125 0.421875l3.109375 0z" fill-rule="nonzero"/></g></svg>