<?xml version="1.0" encoding="utf-8" standalone="no"?>
<!DOCTYPE svg PUBLIC "-//W3C//DTD SVG 1.1//EN"
  "http://www.w3.org/Graphics/SVG/1.1/DTD/svg11.dtd">
<!-- Created with matplotlib (http://matplotlib.org/) -->
<svg height="345pt" version="1.1" viewBox="0 0 460 345" width="460pt" xmlns="http://www.w3.org/2000/svg" xmlns:xlink="http://www.w3.org/1999/xlink">
 <defs>
  <style type="text/css">
*{stroke-linecap:butt;stroke-linejoin:round;}
  </style>
 </defs>
 <g id="figure_1">
  <g id="patch_1">
   <path d="M 0 345.6 
L 460.8 345.6 
L 460.8 0 
L 0 0 
z
" style="fill:#ffffff;"/>
  </g>
  <g id="axes_1">
   <g id="patch_2">
    <path d="M 65.861026 288.981871 
L 441 288.981871 
L 441 20.805597 
L 65.861026 20.805597 
z
" style="fill:#ffffff;"/>
   </g>
   <g id="PathCollection_1">
    <defs>
     <path d="M 0 3 
C 0.795609 3 1.55874 2.683901 2.12132 2.12132 
C 2.683901 1.55874 3 0.795609 3 0 
C 3 -0.795609 2.683901 -1.55874 2.12132 -2.12132 
C 1.55874 -2.683901 0.795609 -3 0 -3 
C -0.795609 -3 -1.55874 -2.683901 -2.12132 -2.12132 
C -2.683901 -1.55874 -3 -0.795609 -3 0 
C -3 0.795609 -2.683901 1.55874 -2.12132 2.12132 
C -1.55874 2.683901 -0.795609 3 0 3 
z
" id="m50de87b811" style="stroke:#2ca02c;"/>
    </defs>
    <g clip-path="url(#pe28a2ed312)">
     <use style="fill:#2ca02c;stroke:#2ca02c;" x="85.181387" xlink:href="#m50de87b811" y="276.32126"/>
     <use style="fill:#2ca02c;stroke:#2ca02c;" x="98.36017" xlink:href="#m50de87b811" y="271.698029"/>
     <use style="fill:#2ca02c;stroke:#2ca02c;" x="112.417538" xlink:href="#m50de87b811" y="267.11051"/>
     <use style="fill:#2ca02c;stroke:#2ca02c;" x="126.474906" xlink:href="#m50de87b811" y="262.849984"/>
     <use style="fill:#2ca02c;stroke:#2ca02c;" x="140.532275" xlink:href="#m50de87b811" y="259.651775"/>
     <use style="fill:#2ca02c;stroke:#2ca02c;" x="168.647011" xlink:href="#m50de87b811" y="249.939373"/>
     <use style="fill:#2ca02c;stroke:#2ca02c;" x="196.761747" xlink:href="#m50de87b811" y="245.775763"/>
     <use style="fill:#2ca02c;stroke:#2ca02c;" x="252.99122" xlink:href="#m50de87b811" y="239.132493"/>
     <use style="fill:#2ca02c;stroke:#2ca02c;" x="421.679638" xlink:href="#m50de87b811" y="224.065638"/>
    </g>
   </g>
   <g id="PathCollection_2">
    <defs>
     <path d="M 0 3 
C 0.795609 3 1.55874 2.683901 2.12132 2.12132 
C 2.683901 1.55874 3 0.795609 3 0 
C 3 -0.795609 2.683901 -1.55874 2.12132 -2.12132 
C 1.55874 -2.683901 0.795609 -3 0 -3 
C -0.795609 -3 -1.55874 -2.683901 -2.12132 -2.12132 
C -2.683901 -1.55874 -3 -0.795609 -3 0 
C -3 0.795609 -2.683901 1.55874 -2.12132 2.12132 
C -1.55874 2.683901 -0.795609 3 0 3 
z
" id="mdfb81cf75d" style="stroke:#ff7f0e;"/>
    </defs>
    <g clip-path="url(#pe28a2ed312)">
     <use style="fill:#ff7f0e;stroke:#ff7f0e;" x="85.181387" xlink:href="#mdfb81cf75d" y="276.32126"/>
     <use style="fill:#ff7f0e;stroke:#ff7f0e;" x="98.36017" xlink:href="#mdfb81cf75d" y="268.239084"/>
     <use style="fill:#ff7f0e;stroke:#ff7f0e;" x="112.417538" xlink:href="#mdfb81cf75d" y="259.712641"/>
     <use style="fill:#ff7f0e;stroke:#ff7f0e;" x="126.474906" xlink:href="#mdfb81cf75d" y="254.880517"/>
     <use style="fill:#ff7f0e;stroke:#ff7f0e;" x="140.532275" xlink:href="#mdfb81cf75d" y="261.517239"/>
     <use style="fill:#ff7f0e;stroke:#ff7f0e;" x="168.647011" xlink:href="#mdfb81cf75d" y="250.836256"/>
     <use style="fill:#ff7f0e;stroke:#ff7f0e;" x="196.761747" xlink:href="#mdfb81cf75d" y="248.026217"/>
     <use style="fill:#ff7f0e;stroke:#ff7f0e;" x="252.99122" xlink:href="#mdfb81cf75d" y="262.00617"/>
     <use style="fill:#ff7f0e;stroke:#ff7f0e;" x="421.679638" xlink:href="#mdfb81cf75d" y="258.684333"/>
    </g>
   </g>
   <g id="PathCollection_3">
    <defs>
     <path d="M 0 -3 
L -3 3 
L 3 3 
z
" id="mc7b95cc8db" style="stroke:#ff7f0e;"/>
    </defs>
    <g clip-path="url(#pe28a2ed312)">
     <use style="fill:#ff7f0e;stroke:#ff7f0e;" x="85.181387" xlink:href="#mc7b95cc8db" y="276.32126"/>
     <use style="fill:#ff7f0e;stroke:#ff7f0e;" x="98.36017" xlink:href="#mc7b95cc8db" y="265.883927"/>
     <use style="fill:#ff7f0e;stroke:#ff7f0e;" x="112.417538" xlink:href="#mc7b95cc8db" y="258.414181"/>
     <use style="fill:#ff7f0e;stroke:#ff7f0e;" x="126.474906" xlink:href="#mc7b95cc8db" y="253.162153"/>
     <use style="fill:#ff7f0e;stroke:#ff7f0e;" x="140.532275" xlink:href="#mc7b95cc8db" y="247.310081"/>
     <use style="fill:#ff7f0e;stroke:#ff7f0e;" x="168.647011" xlink:href="#mc7b95cc8db" y="237.141787"/>
     <use style="fill:#ff7f0e;stroke:#ff7f0e;" x="196.761747" xlink:href="#mc7b95cc8db" y="226.950586"/>
     <use style="fill:#ff7f0e;stroke:#ff7f0e;" x="252.99122" xlink:href="#mc7b95cc8db" y="186.679359"/>
     <use style="fill:#ff7f0e;stroke:#ff7f0e;" x="421.679638" xlink:href="#mc7b95cc8db" y="161.240773"/>
    </g>
   </g>
   <g id="matplotlib.axis_1">
    <g id="xtick_1">
     <g id="line2d_1">
      <defs>
       <path d="M 0 0 
L 0 3.5 
" id="mf4e9950a9b" style="stroke:#000000;stroke-width:0.8;"/>
      </defs>
      <g>
       <use style="stroke:#000000;stroke-width:0.8;" x="85.181387" xlink:href="#mf4e9950a9b" y="288.981871"/>
      </g>
     </g>
     <g id="text_1">
      <!-- $1$ -->
      <defs>
       <path d="M 26.59375 63.40625 
C 26.59375 65.5 26.5 65.5 25.09375 65.5 
C 21.203125 61.1875 15.296875 59.796875 9.703125 59.796875 
C 9.40625 59.796875 8.90625 59.796875 8.796875 59.5 
C 8.703125 59.296875 8.703125 59.09375 8.703125 57 
C 11.796875 57 17 57.59375 21 59.984375 
L 21 7.203125 
C 21 3.6875 20.796875 2.5 12.203125 2.5 
L 9.203125 2.5 
L 9.203125 0 
C 14 0 19 0 23.796875 0 
C 28.59375 0 33.59375 0 38.40625 0 
L 38.40625 2.5 
L 35.40625 2.5 
C 26.796875 2.5 26.59375 3.59375 26.59375 7.15625 
z
" id="CMR17-49"/>
      </defs>
      <g transform="translate(81.279394 307.051459)scale(0.16 -0.16)">
       <use transform="scale(0.996264)" xlink:href="#CMR17-49"/>
      </g>
     </g>
    </g>
    <g id="xtick_2">
     <g id="line2d_2">
      <g>
       <use style="stroke:#000000;stroke-width:0.8;" x="98.36017" xlink:href="#mf4e9950a9b" y="288.981871"/>
      </g>
     </g>
     <g id="text_2">
      <!-- $16$ -->
      <defs>
       <path d="M 10.59375 34 
C 10.59375 57.65625 21.796875 63 28.296875 63 
C 30.40625 63 35.5 62.640625 37.5 59 
C 35.90625 59 32.90625 59 32.90625 55.515625 
C 32.90625 52.828125 35.09375 51.921875 36.5 51.921875 
C 37.40625 51.921875 40.09375 52.3125 40.09375 55.625 
C 40.09375 61.78125 35.09375 65.296875 28.203125 65.296875 
C 16.296875 65.296875 3.796875 52.96875 3.796875 31 
C 3.796875 3.953125 15.09375 -2 23.09375 -2 
C 32.796875 -2 42 6.671875 42 20.046875 
C 42 32.515625 33.90625 41.59375 23.703125 41.59375 
C 17.59375 41.59375 13.09375 37.609375 10.59375 30.625 
z
M 23.09375 0.390625 
C 10.796875 0.390625 10.796875 18.75 10.796875 22.4375 
C 10.796875 29.625 14.203125 40 23.5 40 
C 25.203125 40 30.09375 40 33.40625 33.125 
C 35.203125 29.21875 35.203125 25.140625 35.203125 20.140625 
C 35.203125 14.75 35.203125 10.78125 33.09375 6.78125 
C 30.90625 2.671875 27.703125 0.390625 23.09375 0.390625 
z
" id="CMR17-54"/>
      </defs>
      <g transform="translate(90.556183 307.051459)scale(0.16 -0.16)">
       <use transform="scale(0.996264)" xlink:href="#CMR17-49"/>
       <use transform="translate(45.690477 0)scale(0.996264)" xlink:href="#CMR17-54"/>
      </g>
     </g>
    </g>
    <g id="xtick_3">
     <g id="line2d_3">
      <g>
       <use style="stroke:#000000;stroke-width:0.8;" x="126.474906" xlink:href="#mf4e9950a9b" y="288.981871"/>
      </g>
     </g>
     <g id="text_3">
      <!-- $48$ -->
      <defs>
       <path d="M 33.59375 64.40625 
C 33.59375 66.5 33.5 66.5 31.703125 66.5 
L 2 19.59375 
L 2 17 
L 27.796875 17 
L 27.796875 7.140625 
C 27.796875 3.5 27.59375 2.5 20.59375 2.5 
L 18.703125 2.5 
L 18.703125 0 
C 21.90625 0 27.296875 0 30.703125 0 
C 34.09375 0 39.5 0 42.703125 0 
L 42.703125 2.5 
L 40.796875 2.5 
C 33.796875 2.5 33.59375 3.5 33.59375 7.140625 
L 33.59375 17 
L 43.796875 17 
L 43.796875 19.59375 
L 33.59375 19.59375 
z
M 28.09375 57.859375 
L 28.09375 19.59375 
L 4 19.59375 
z
" id="CMR17-52"/>
       <path d="M 27.203125 35.375 
C 33.5 38.546875 39.90625 43.328125 39.90625 50.984375 
C 39.90625 60.015625 31.09375 65.296875 23 65.296875 
C 13.90625 65.296875 5.90625 58.734375 5.90625 49.6875 
C 5.90625 47.203125 6.5 42.921875 10.40625 39.140625 
C 11.40625 38.15625 15.59375 35.171875 18.296875 33.28125 
C 13.796875 30.984375 3.296875 25.53125 3.296875 14.59375 
C 3.296875 4.359375 13.09375 -2 22.796875 -2 
C 33.5 -2 42.5 5.65625 42.5 15.78125 
C 42.5 24.84375 36.40625 29.015625 32.40625 31.703125 
z
M 14.09375 44.09375 
C 13.296875 44.59375 9.296875 47.671875 9.296875 52.359375 
C 9.296875 58.421875 15.59375 63 22.796875 63 
C 30.703125 63 36.5 57.4375 36.5 50.96875 
C 36.5 41.703125 26.09375 36.421875 25.59375 36.421875 
C 25.5 36.421875 25.40625 36.421875 24.59375 37.03125 
z
M 32.5 23.734375 
C 34 22.640625 38.796875 19.375 38.796875 13.296875 
C 38.796875 5.953125 31.40625 0.390625 23 0.390625 
C 13.90625 0.390625 7 6.84375 7 14.6875 
C 7 22.546875 13.09375 29.09375 20 32.1875 
z
" id="CMR17-56"/>
      </defs>
      <g transform="translate(118.670919 307.051459)scale(0.16 -0.16)">
       <use transform="scale(0.996264)" xlink:href="#CMR17-52"/>
       <use transform="translate(45.690477 0)scale(0.996264)" xlink:href="#CMR17-56"/>
      </g>
     </g>
    </g>
    <g id="xtick_4">
     <g id="line2d_4">
      <g>
       <use style="stroke:#000000;stroke-width:0.8;" x="168.647011" xlink:href="#mf4e9950a9b" y="288.981871"/>
      </g>
     </g>
     <g id="text_4">
      <!-- $96$ -->
      <defs>
       <path d="M 35.203125 29.125 
C 35.203125 7.25 26.09375 0.484375 18.59375 0.484375 
C 16.296875 0.484375 10.703125 0.484375 8.40625 4.59375 
C 11 4.1875 12.90625 5.578125 12.90625 8.09375 
C 12.90625 10.8125 10.703125 11.703125 9.296875 11.703125 
C 8.40625 11.703125 5.703125 11.296875 5.703125 7.90625 
C 5.703125 1.109375 11.59375 -2 18.796875 -2 
C 30.296875 -2 42 10.53125 42 32.390625 
C 42 59.640625 30.796875 65.296875 23.203125 65.296875 
C 13.296875 65.296875 3.796875 56.6875 3.796875 43.40625 
C 3.796875 31.109375 11.90625 22 22.09375 22 
C 30.5 22 34.203125 29.734375 35.203125 33 
z
M 22.296875 23.59375 
C 19.59375 23.59375 15.796875 24.09375 12.703125 30.03125 
C 10.59375 33.890625 10.59375 38.453125 10.59375 43.296875 
C 10.59375 49.15625 10.59375 53.203125 13.40625 57.5625 
C 14.796875 59.640625 17.40625 63 23.203125 63 
C 35 63 35 45.078125 35 41.125 
C 35 34.09375 31.796875 23.59375 22.296875 23.59375 
z
" id="CMR17-57"/>
      </defs>
      <g transform="translate(160.843024 307.051459)scale(0.16 -0.16)">
       <use transform="scale(0.996264)" xlink:href="#CMR17-57"/>
       <use transform="translate(45.690477 0)scale(0.996264)" xlink:href="#CMR17-54"/>
      </g>
     </g>
    </g>
    <g id="xtick_5">
     <g id="line2d_5">
      <g>
       <use style="stroke:#000000;stroke-width:0.8;" x="196.761747" xlink:href="#mf4e9950a9b" y="288.981871"/>
      </g>
     </g>
     <g id="text_5">
      <!-- $128$ -->
      <defs>
       <path d="M 41.703125 15.453125 
L 39.90625 15.453125 
C 38.90625 8.375 38.09375 7.171875 37.703125 6.5625 
C 37.203125 5.765625 30 5.765625 28.59375 5.765625 
L 9.40625 5.765625 
C 13 9.671875 20 16.75 28.5 24.953125 
C 34.59375 30.734375 41.703125 37.53125 41.703125 47.421875 
C 41.703125 59.21875 32.296875 66 21.796875 66 
C 10.796875 66 4.09375 56.3125 4.09375 47.34375 
C 4.09375 43.4375 7 42.9375 8.203125 42.9375 
C 9.203125 42.9375 12.203125 43.546875 12.203125 47.03125 
C 12.203125 50.109375 9.59375 51 8.203125 51 
C 7.59375 51 7 50.90625 6.59375 50.703125 
C 8.5 59.21875 14.296875 63.40625 20.40625 63.40625 
C 29.09375 63.40625 34.796875 56.515625 34.796875 47.421875 
C 34.796875 38.734375 29.703125 31.25 24 24.75 
L 4.09375 2.28125 
L 4.09375 0 
L 39.296875 0 
z
" id="CMR17-50"/>
      </defs>
      <g transform="translate(185.055767 307.051459)scale(0.16 -0.16)">
       <use transform="scale(0.996264)" xlink:href="#CMR17-49"/>
       <use transform="translate(45.690477 0)scale(0.996264)" xlink:href="#CMR17-50"/>
       <use transform="translate(91.380954 0)scale(0.996264)" xlink:href="#CMR17-56"/>
      </g>
     </g>
    </g>
    <g id="xtick_6">
     <g id="line2d_6">
      <g>
       <use style="stroke:#000000;stroke-width:0.8;" x="252.99122" xlink:href="#mf4e9950a9b" y="288.981871"/>
      </g>
     </g>
     <g id="text_6">
      <!-- $192$ -->
      <g transform="translate(241.285239 307.051459)scale(0.16 -0.16)">
       <use transform="scale(0.996264)" xlink:href="#CMR17-49"/>
       <use transform="translate(45.690477 0)scale(0.996264)" xlink:href="#CMR17-57"/>
       <use transform="translate(91.380954 0)scale(0.996264)" xlink:href="#CMR17-50"/>
      </g>
     </g>
    </g>
    <g id="xtick_7">
     <g id="line2d_7">
      <g>
       <use style="stroke:#000000;stroke-width:0.8;" x="421.679638" xlink:href="#mf4e9950a9b" y="288.981871"/>
      </g>
     </g>
     <g id="text_7">
      <!-- $384$ -->
      <defs>
       <path d="M 22.09375 33.703125 
C 31 33.703125 34.90625 25.96875 34.90625 17.03125 
C 34.90625 5 28.5 0.390625 22.703125 0.390625 
C 17.40625 0.390625 8.796875 3.03125 6.09375 10.828125 
C 6.59375 10.625 7.09375 10.625 7.59375 10.625 
C 10 10.625 11.796875 12.21875 11.796875 14.8125 
C 11.796875 17.703125 9.59375 19 7.59375 19 
C 5.90625 19 3.296875 18.203125 3.296875 14.46875 
C 3.296875 5.234375 12.296875 -2 22.90625 -2 
C 34 -2 42.5 6.71875 42.5 16.953125 
C 42.5 26.671875 34.5 33.703125 25 34.796875 
C 32.59375 36.375 39.90625 43.0625 39.90625 52.015625 
C 39.90625 59.6875 32 65.296875 23 65.296875 
C 13.90625 65.296875 5.90625 59.828125 5.90625 52.015625 
C 5.90625 48.59375 8.5 48 9.796875 48 
C 11.90625 48 13.703125 49.296875 13.703125 51.890625 
C 13.703125 54.46875 11.90625 55.765625 9.796875 55.765625 
C 9.40625 55.765625 8.90625 55.765625 8.5 55.578125 
C 11.40625 61.859375 19.296875 63 22.796875 63 
C 26.296875 63 32.90625 61.328125 32.90625 51.875 
C 32.90625 49.109375 32.5 44.1875 29.09375 39.84375 
C 26.09375 36 22.703125 36 19.40625 35.6875 
C 18.90625 35.6875 16.59375 35.453125 16.203125 35.453125 
C 15.5 35.359375 15.09375 35.265625 15.09375 34.5 
C 15.09375 33.796875 15.203125 33.703125 17.203125 33.703125 
z
" id="CMR17-51"/>
      </defs>
      <g transform="translate(409.973658 307.051459)scale(0.16 -0.16)">
       <use transform="scale(0.996264)" xlink:href="#CMR17-51"/>
       <use transform="translate(45.690477 0)scale(0.996264)" xlink:href="#CMR17-56"/>
       <use transform="translate(91.380954 0)scale(0.996264)" xlink:href="#CMR17-52"/>
      </g>
     </g>
    </g>
    <g id="text_8">
     <!-- \# Workers -->
     <defs>
      <path d="M 48.5 14 
L 69.09375 14 
C 70.796875 14 72.5 14 72.5 15.796875 
C 72.5 17.484375 71 17.484375 69.5 17.484375 
L 49.5 17.484375 
L 52.90625 31.515625 
L 69.5 31.515625 
C 71 31.515625 72.5 31.515625 72.5 33.203125 
C 72.5 35 70.796875 35 69.09375 35 
L 53.90625 35 
L 61.59375 65.375 
C 61.90625 66.375 62 66.875 62 67.1875 
C 62 68.1875 61.203125 69 60.203125 69 
C 58.796875 69 58.5 67.59375 58.296875 66.796875 
L 50.296875 35 
L 32.203125 35 
L 39.90625 65.375 
C 40.203125 66.375 40.296875 66.875 40.296875 67.1875 
C 40.296875 68.1875 39.5 69 38.5 69 
C 37.09375 69 36.796875 67.59375 36.59375 66.796875 
L 28.59375 35 
L 8 35 
C 6.296875 35 4.59375 35 4.59375 33.203125 
C 4.59375 31.515625 6.09375 31.515625 7.59375 31.515625 
L 27.59375 31.515625 
L 24.203125 17.484375 
L 7.59375 17.484375 
C 6.09375 17.484375 4.59375 17.484375 4.59375 15.796875 
C 4.59375 14 6.296875 14 8 14 
L 23.203125 14 
L 15.5 -15.9375 
C 15.203125 -16.921875 15.09375 -17.40625 15.09375 -17.71875 
C 15.09375 -18.703125 15.90625 -19.5 16.90625 -19.5 
C 18.296875 -19.5 18.59375 -18.109375 18.796875 -17.328125 
L 26.796875 14 
L 44.90625 14 
L 37.203125 -15.9375 
C 36.90625 -16.921875 36.796875 -17.40625 36.796875 -17.71875 
C 36.796875 -18.703125 37.59375 -19.5 38.59375 -19.5 
C 40 -19.5 40.296875 -18.109375 40.5 -17.328125 
z
M 27.796875 17.484375 
L 31.203125 31.515625 
L 49.296875 31.515625 
L 45.90625 17.484375 
z
" id="CMR17-35"/>
      <path d="M 86.296875 58.8125 
C 87.203125 61.5 88.703125 65 94.5 65 
L 94.5 67.59375 
C 92.796875 67.59375 89.296875 67.59375 87.5 67.59375 
C 85 67.59375 80.59375 67.59375 78.203125 67.6875 
L 78.203125 65 
C 82.703125 65 84.59375 62.5 84.59375 60.109375 
C 84.59375 59.40625 84.5 59.015625 84.09375 57.921875 
L 68.59375 8.671875 
L 52.296875 60.515625 
C 52 61.515625 51.90625 61.921875 51.90625 62.3125 
C 51.90625 65 56.296875 65 58.203125 65 
L 58.203125 67.59375 
C 55.296875 67.59375 50.296875 67.59375 47.203125 67.59375 
C 44.703125 67.59375 40.203125 67.59375 37.90625 67.6875 
L 37.90625 65 
C 42.5 65 43.703125 64.703125 44.703125 62.921875 
C 45.09375 62.015625 46.703125 56.84375 46.703125 56.546875 
C 46.703125 56.140625 46.5 55.546875 46.40625 55.25 
L 31.703125 8.765625 
L 15.40625 60.421875 
C 14.90625 61.828125 14.90625 62.015625 14.90625 62.21875 
C 14.90625 65 19.296875 65 21.296875 65 
L 21.296875 67.59375 
C 18.40625 67.59375 13.40625 67.59375 10.296875 67.59375 
C 7.703125 67.59375 3.296875 67.59375 0.90625 67.6875 
L 0.90625 65 
C 6.90625 65 7.296875 64.40625 8.296875 61.21875 
L 27.796875 -0.3125 
C 28.296875 -1.796875 28.296875 -2 29.203125 -2 
C 30 -2 30.296875 -1.796875 30.703125 -0.40625 
L 47.703125 53.640625 
L 64.703125 -0.40625 
C 65.09375 -1.796875 65.40625 -2 66.203125 -2 
C 67.09375 -2 67.09375 -1.796875 67.59375 -0.3125 
z
" id="CMR17-87"/>
      <path d="M 43.09375 21.1875 
C 43.09375 34 33.796875 44 22.90625 44 
C 12 44 2.703125 34 2.703125 21.1875 
C 2.703125 8.609375 12 -1 22.90625 -1 
C 33.796875 -1 43.09375 8.609375 43.09375 21.1875 
z
M 22.90625 0.796875 
C 18.203125 0.796875 14.203125 3.59375 11.90625 7.5 
C 9.40625 11.984375 9.09375 17.59375 9.09375 22 
C 9.09375 26.203125 9.296875 31.40625 11.90625 35.90625 
C 13.90625 39.203125 17.796875 42.40625 22.90625 42.40625 
C 27.40625 42.40625 31.203125 39.90625 33.59375 36.40625 
C 36.703125 31.703125 36.703125 25.109375 36.703125 22 
C 36.703125 18.09375 36.5 12.109375 33.796875 7.296875 
C 31 2.703125 26.703125 0.796875 22.90625 0.796875 
z
" id="CMR17-111"/>
      <path d="M 15 23.390625 
C 15 33 19.09375 42 26.59375 42 
C 27.296875 42 28 41.90625 28.703125 41.59375 
C 28.703125 41.59375 26.5 40.890625 26.5 38.3125 
C 26.5 35.90625 28.40625 34.90625 29.90625 34.90625 
C 31.09375 34.90625 33.296875 35.609375 33.296875 38.40625 
C 33.296875 41.609375 30.09375 43.59375 26.703125 43.59375 
C 19.09375 43.59375 15.796875 36.203125 14.796875 32.703125 
L 14.703125 32.703125 
L 14.703125 43.59375 
L 3.09375 42.5 
L 3.09375 39.90625 
C 9 39.90625 9.90625 39.296875 9.90625 34.5 
L 9.90625 6.6875 
C 9.90625 2.875 9.5 2.390625 3.09375 2.390625 
L 3.09375 -0.203125 
C 5.5 0 10.09375 0 12.703125 0 
C 15.59375 0 20.703125 0 23.40625 -0.203125 
L 23.40625 2.390625 
C 16.203125 2.390625 15 2.390625 15 6.875 
z
" id="CMR17-114"/>
      <path d="M 26.09375 26.140625 
C 26 26.34375 25.5 26.9375 25.5 27.234375 
C 25.5 27.4375 32.59375 33.921875 33.5 34.71875 
C 39.203125 39.5 42.796875 40 45.40625 40 
L 45.40625 42.703125 
C 44.796875 42.703125 44.59375 42.703125 44.5 42.5 
L 39.59375 42.5 
C 36.796875 42.5 32.5 42.5 29.796875 42.703125 
L 29.796875 40.09375 
C 31.203125 39.984375 32.203125 39.1875 32.203125 37.796875 
C 32.203125 35.796875 30.203125 33.90625 30.09375 33.90625 
L 15 20.140625 
L 15 68.6875 
L 3.09375 67.59375 
L 3.09375 65 
C 9 65 9.90625 64.40625 9.90625 59.640625 
L 9.90625 6.65625 
C 9.90625 2.875 9.5 2.390625 3.09375 2.390625 
L 3.09375 -0.203125 
C 5.5 0 9.90625 0 12.40625 0 
C 14.90625 0 19.296875 0 21.703125 -0.203125 
L 21.703125 2.390625 
C 15.296875 2.390625 14.90625 2.78125 14.90625 6.6875 
L 14.90625 17.65625 
L 21.796875 23.9375 
L 31.90625 8.96875 
C 33.09375 7.171875 34.09375 5.765625 34.09375 4.46875 
C 34.09375 2.6875 32.296875 2.390625 31.09375 2.390625 
L 31.09375 -0.203125 
C 33.5 0 37.796875 0 40.296875 0 
C 42.09375 0 45.796875 0 47.5 0 
L 47.5 2.390625 
C 42.796875 2.390625 41.703125 3.28125 38.703125 7.671875 
z
" id="CMR17-107"/>
      <path d="M 38.09375 23 
C 38.5 23.40625 38.5 23.609375 38.5 24.625 
C 38.5 34.96875 33.09375 44 21.703125 44 
C 11.09375 44 2.703125 33.890625 2.703125 21.609375 
C 2.703125 8.609375 12.203125 -1 22.796875 -1 
C 34 -1 38.40625 9.484375 38.40625 11.5625 
C 38.40625 12.25 37.796875 12.25 37.59375 12.25 
C 36.90625 12.25 36.796875 12.046875 36.40625 10.875 
C 34.203125 4.140625 28.703125 0.796875 23.5 0.796875 
C 19.203125 0.796875 14.90625 3.171875 12.203125 7.5 
C 9.09375 12.546875 9.09375 18.375 9.09375 23 
z
M 9.203125 24.5 
C 9.90625 39.140625 17.59375 42.40625 21.59375 42.40625 
C 28.40625 42.40625 33 35.890625 33.09375 24.5 
z
" id="CMR17-101"/>
      <path d="M 30.90625 42.140625 
C 30.90625 43.953125 30.796875 44.046875 30.203125 44.046875 
C 29.796875 44.046875 29.703125 43.953125 28.5 42.453125 
C 28.203125 42.046875 27.296875 41.03125 27 40.640625 
C 23.796875 44.046875 19.296875 44.046875 17.59375 44.046875 
C 6.5 44.046875 2.5 38.234375 2.5 32.4375 
C 2.5 23.40625 12.703125 21.328125 15.59375 20.703125 
C 21.90625 19.421875 24.09375 19.015625 26.203125 17.203125 
C 27.5 16.015625 29.703125 13.8125 29.703125 10.21875 
C 29.703125 6 27.296875 0.59375 18.09375 0.59375 
C 9.40625 0.59375 6.296875 7.1875 4.5 15.953125 
C 4.203125 17.34375 4.203125 17.453125 3.40625 17.453125 
C 2.59375 17.453125 2.5 17.34375 2.5 15.359375 
L 2.5 0.984375 
C 2.5 -0.796875 2.59375 -0.90625 3.203125 -0.90625 
C 3.703125 -0.90625 3.796875 -0.796875 4.296875 0 
C 4.90625 0.890625 6.40625 3.296875 7 4.3125 
C 9 1.609375 12.5 -1 18.09375 -1 
C 28 -1 33.296875 4.421875 33.296875 12.25 
C 33.296875 17.375 30.59375 20.078125 29.296875 21.28125 
C 26.296875 24.390625 22.796875 25.09375 18.59375 25.890625 
C 13.09375 27.109375 6.09375 28.515625 6.09375 34.640625 
C 6.09375 37.234375 7.5 42.765625 17.59375 42.765625 
C 28.296875 42.765625 28.90625 32.71875 29.09375 29.5 
C 29.203125 29 29.703125 28.890625 30 28.890625 
C 30.90625 28.890625 30.90625 29.203125 30.90625 30.90625 
z
" id="CMR17-115"/>
     </defs>
     <g transform="translate(216.537756 325.220524)scale(0.16 -0.16)">
      <use transform="scale(0.996264)" xlink:href="#CMR17-35"/>
      <use transform="translate(106.995556 0)scale(0.996264)" xlink:href="#CMR17-87"/>
      <use transform="translate(194.284951 0)scale(0.996264)" xlink:href="#CMR17-111"/>
      <use transform="translate(239.975428 0)scale(0.996264)" xlink:href="#CMR17-114"/>
      <use transform="translate(275.256196 0)scale(0.996264)" xlink:href="#CMR17-107"/>
      <use transform="translate(320.946658 0)scale(0.996264)" xlink:href="#CMR17-101"/>
      <use transform="translate(361.432318 0)scale(0.996264)" xlink:href="#CMR17-114"/>
      <use transform="translate(396.713086 0)scale(0.996264)" xlink:href="#CMR17-115"/>
     </g>
    </g>
   </g>
   <g id="matplotlib.axis_2">
    <g id="ytick_1">
     <g id="line2d_8">
      <path clip-path="url(#pe28a2ed312)" d="M 65.861026 276.956575 
L 441 276.956575 
" style="fill:none;stroke:#b0b0b0;stroke-linecap:square;stroke-width:0.8;"/>
     </g>
     <g id="line2d_9">
      <defs>
       <path d="M 0 0 
L -3.5 0 
" id="md6c76b187e" style="stroke:#000000;stroke-width:0.8;"/>
      </defs>
      <g>
       <use style="stroke:#000000;stroke-width:0.8;" x="65.861026" xlink:href="#md6c76b187e" y="276.956575"/>
      </g>
     </g>
     <g id="text_9">
      <!-- $0$ -->
      <defs>
       <path d="M 42 31.640625 
C 42 37.75 41.90625 48.125 37.703125 56.109375 
C 34 63.109375 28.09375 65.59375 22.90625 65.59375 
C 18.09375 65.59375 12 63.40625 8.203125 56.203125 
C 4.203125 48.71875 3.796875 39.4375 3.796875 31.640625 
C 3.796875 25.953125 3.90625 17.28125 7 9.671875 
C 11.296875 -0.609375 19 -2 22.90625 -2 
C 27.5 -2 34.5 -0.109375 38.59375 9.375 
C 41.59375 16.28125 42 24.359375 42 31.640625 
z
M 22.90625 -0.40625 
C 16.5 -0.40625 12.703125 5.078125 11.296875 12.6875 
C 10.203125 18.5625 10.203125 27.15625 10.203125 32.75 
C 10.203125 40.4375 10.203125 46.828125 11.5 52.921875 
C 13.40625 61.390625 19 64 22.90625 64 
C 27 64 32.296875 61.296875 34.203125 53.125 
C 35.5 47.4375 35.59375 40.734375 35.59375 32.75 
C 35.59375 26.25 35.59375 18.265625 34.40625 12.375 
C 32.296875 1.484375 26.40625 -0.40625 22.90625 -0.40625 
z
" id="CMR17-48"/>
      </defs>
      <g transform="translate(51.057038 282.491369)scale(0.16 -0.16)">
       <use transform="scale(0.996264)" xlink:href="#CMR17-48"/>
      </g>
     </g>
    </g>
    <g id="ytick_2">
     <g id="line2d_10">
      <path clip-path="url(#pe28a2ed312)" d="M 65.861026 213.425026 
L 441 213.425026 
" style="fill:none;stroke:#b0b0b0;stroke-linecap:square;stroke-width:0.8;"/>
     </g>
     <g id="line2d_11">
      <g>
       <use style="stroke:#000000;stroke-width:0.8;" x="65.861026" xlink:href="#md6c76b187e" y="213.425026"/>
      </g>
     </g>
     <g id="text_10">
      <!-- $100$ -->
      <g transform="translate(35.449064 218.95982)scale(0.16 -0.16)">
       <use transform="scale(0.996264)" xlink:href="#CMR17-49"/>
       <use transform="translate(45.690477 0)scale(0.996264)" xlink:href="#CMR17-48"/>
       <use transform="translate(91.380954 0)scale(0.996264)" xlink:href="#CMR17-48"/>
      </g>
     </g>
    </g>
    <g id="ytick_3">
     <g id="line2d_12">
      <path clip-path="url(#pe28a2ed312)" d="M 65.861026 149.893477 
L 441 149.893477 
" style="fill:none;stroke:#b0b0b0;stroke-linecap:square;stroke-width:0.8;"/>
     </g>
     <g id="line2d_13">
      <g>
       <use style="stroke:#000000;stroke-width:0.8;" x="65.861026" xlink:href="#md6c76b187e" y="149.893477"/>
      </g>
     </g>
     <g id="text_11">
      <!-- $200$ -->
      <g transform="translate(35.449064 155.428272)scale(0.16 -0.16)">
       <use transform="scale(0.996264)" xlink:href="#CMR17-50"/>
       <use transform="translate(45.690477 0)scale(0.996264)" xlink:href="#CMR17-48"/>
       <use transform="translate(91.380954 0)scale(0.996264)" xlink:href="#CMR17-48"/>
      </g>
     </g>
    </g>
    <g id="ytick_4">
     <g id="line2d_14">
      <path clip-path="url(#pe28a2ed312)" d="M 65.861026 86.361929 
L 441 86.361929 
" style="fill:none;stroke:#b0b0b0;stroke-linecap:square;stroke-width:0.8;"/>
     </g>
     <g id="line2d_15">
      <g>
       <use style="stroke:#000000;stroke-width:0.8;" x="65.861026" xlink:href="#md6c76b187e" y="86.361929"/>
      </g>
     </g>
     <g id="text_12">
      <!-- $300$ -->
      <g transform="translate(35.449064 91.896723)scale(0.16 -0.16)">
       <use transform="scale(0.996264)" xlink:href="#CMR17-51"/>
       <use transform="translate(45.690477 0)scale(0.996264)" xlink:href="#CMR17-48"/>
       <use transform="translate(91.380954 0)scale(0.996264)" xlink:href="#CMR17-48"/>
      </g>
     </g>
    </g>
    <g id="ytick_5">
     <g id="line2d_16">
      <path clip-path="url(#pe28a2ed312)" d="M 65.861026 22.83038 
L 441 22.83038 
" style="fill:none;stroke:#b0b0b0;stroke-linecap:square;stroke-width:0.8;"/>
     </g>
     <g id="line2d_17">
      <g>
       <use style="stroke:#000000;stroke-width:0.8;" x="65.861026" xlink:href="#md6c76b187e" y="22.83038"/>
      </g>
     </g>
     <g id="text_13">
      <!-- $400$ -->
      <g transform="translate(35.449064 28.365174)scale(0.16 -0.16)">
       <use transform="scale(0.996264)" xlink:href="#CMR17-52"/>
       <use transform="translate(45.690477 0)scale(0.996264)" xlink:href="#CMR17-48"/>
       <use transform="translate(91.380954 0)scale(0.996264)" xlink:href="#CMR17-48"/>
      </g>
     </g>
    </g>
    <g id="text_14">
     <!-- Speedup -->
     <defs>
      <path d="M 43.796875 67.03125 
C 43.796875 68.8125 43.703125 68.921875 43.09375 68.921875 
C 42.5 68.921875 42.296875 68.515625 41.90625 67.625 
L 38.90625 61.046875 
C 35.09375 66.515625 29.296875 69 23 69 
C 12.796875 69 4.59375 60.953125 4.59375 50.828125 
C 4.59375 47.75 5.296875 43.375 8.703125 39.21875 
C 12.40625 34.65625 15.90625 33.859375 23.90625 31.765625 
C 26.90625 30.96875 31.90625 29.671875 32.90625 29.28125 
C 38.59375 26.90625 41.59375 20.953125 41.59375 15.390625 
C 41.59375 8.234375 36.5 0.59375 27.796875 0.59375 
C 17.09375 0.59375 7.09375 6.546875 6.40625 20.484375 
C 6.296875 22.078125 6.203125 22.171875 5.5 22.171875 
C 4.703125 22.171875 4.59375 22.078125 4.59375 20.078125 
L 4.59375 -0.015625 
C 4.59375 -1.796875 4.703125 -1.90625 5.296875 -1.90625 
C 6 -1.90625 6.203125 -1.40625 7.59375 1.6875 
C 7.703125 1.984375 7.703125 2.1875 9.59375 5.953125 
C 14.59375 -0.609375 23 -2 27.796875 -2 
C 38.703125 -2 46.40625 7.046875 46.40625 17.5625 
C 46.40625 22.71875 44.5 26.6875 43.40625 28.484375 
C 39.203125 34.84375 34.703125 36.03125 29.90625 37.21875 
C 29.203125 37.53125 29 37.53125 23.40625 38.90625 
C 18 40.296875 15.703125 41 13.203125 43.6875 
C 10.40625 46.75 9.40625 49.9375 9.40625 53.109375 
C 9.40625 59.5625 14.59375 66.609375 23.09375 66.609375 
C 33.703125 66.609375 40.296875 59.15625 41.796875 46.765625 
C 42.09375 44.96875 42.203125 44.875 42.90625 44.875 
C 43.796875 44.875 43.796875 45.171875 43.796875 46.859375 
z
" id="CMR17-83"/>
      <path d="M 22 -16.609375 
C 15.59375 -16.609375 15.203125 -16.203125 15.203125 -12.328125 
L 15.203125 6.28125 
C 18.09375 2.09375 22.296875 -0.59375 27.59375 -0.59375 
C 37.59375 -0.59375 47.703125 8.171875 47.703125 21.6875 
C 47.703125 34.234375 39 43.78125 28.703125 43.78125 
C 22.703125 43.78125 17.796875 40.5 15 36.53125 
L 15 43.78125 
L 3.09375 42.6875 
L 3.09375 40.109375 
C 9 40.109375 9.90625 39.5 9.90625 34.734375 
L 9.90625 -12.328125 
C 9.90625 -16.109375 9.5 -16.609375 3.09375 -16.609375 
L 3.09375 -19.1875 
C 5.5 -19 9.90625 -19 12.5 -19 
C 15.09375 -19 19.59375 -19 22 -19.1875 
z
M 15.203125 31.4375 
C 15.203125 32.84375 15.203125 34.921875 19.09375 38.609375 
C 19.59375 39.015625 23 42 28 42 
C 35.296875 42 41.296875 32.9375 41.296875 21.59375 
C 41.296875 10.25 34.90625 1 27 1 
C 23.40625 1 19.5 2.6875 16.5 7.375 
C 15.203125 9.5625 15.203125 10.15625 15.203125 11.75 
z
" id="CMR17-112"/>
      <path d="M 29.203125 67.59375 
L 29.203125 65 
C 35.09375 65 36 64.40625 36 59.6875 
L 36 36.640625 
C 35.59375 37.140625 31.5 43.59375 23.40625 43.59375 
C 13.203125 43.59375 3.296875 34.5 3.296875 21.3125 
C 3.296875 8.203125 12.59375 -1 22.40625 -1 
C 30.90625 -1 35.296875 5.265625 35.796875 5.9375 
L 35.796875 -0.984375 
L 47.90625 -0.984375 
L 47.90625 2 
C 42 2 41.09375 2.59375 41.09375 7.390625 
L 41.09375 68.6875 
z
M 35.796875 11.796875 
C 35.796875 8.796875 34 6.09375 31.703125 4.09375 
C 28.296875 1.09375 24.90625 0.59375 23 0.59375 
C 20.09375 0.59375 9.703125 2.09375 9.703125 21.1875 
C 9.703125 40.8125 21.296875 42 23.90625 42 
C 28.5 42 32.203125 39.40625 34.5 35.796875 
C 35.796875 33.703125 35.796875 33.40625 35.796875 31.609375 
z
" id="CMR17-100"/>
      <path d="M 29.40625 42.078125 
L 29.40625 39.5 
C 35.296875 39.5 36.203125 38.890625 36.203125 34.15625 
L 36.203125 16.125 
C 36.203125 7.8125 31.703125 0.59375 24.296875 0.59375 
C 16.09375 0.59375 15.40625 5.4375 15.40625 10.59375 
L 15.40625 43.171875 
L 3.296875 42.078125 
L 3.296875 39.5 
C 7.296875 39.5 10 39.5 10.09375 35.53125 
L 10.09375 16.53125 
C 10.09375 9.890625 10.09375 5.640625 12.703125 2.859375 
C 14 1.578125 16.5 -1 23.703125 -1 
C 32.203125 -1 35.5 5.890625 36.296875 7.90625 
L 36.40625 7.90625 
L 36.40625 -0.984375 
L 48.296875 -0.984375 
L 48.296875 2 
C 42.40625 2 41.5 2.59375 41.5 7.390625 
L 41.5 43.171875 
z
" id="CMR17-117"/>
     </defs>
     <g transform="translate(28.349588 183.72513)rotate(-90)scale(0.16 -0.16)">
      <use transform="scale(0.996264)" xlink:href="#CMR17-83"/>
      <use transform="translate(50.89537 0)scale(0.996264)" xlink:href="#CMR17-112"/>
      <use transform="translate(104.393178 0)scale(0.996264)" xlink:href="#CMR17-101"/>
      <use transform="translate(144.878839 0)scale(0.996264)" xlink:href="#CMR17-101"/>
      <use transform="translate(185.364499 0)scale(0.996264)" xlink:href="#CMR17-100"/>
      <use transform="translate(236.259869 0)scale(0.996264)" xlink:href="#CMR17-117"/>
      <use transform="translate(287.155239 0)scale(0.996264)" xlink:href="#CMR17-112"/>
     </g>
    </g>
   </g>
   <g id="line2d_18">
    <path clip-path="url(#pe28a2ed312)" d="M 85.181387 276.32126 
L 98.36017 266.791527 
L 112.417538 256.62648 
L 126.474906 246.461432 
L 140.532275 236.296384 
L 168.647011 215.966288 
L 196.761747 195.636193 
L 252.99122 154.976001 
L 421.679638 32.995428 
" style="fill:none;stroke:#7f7f7f;stroke-linecap:square;stroke-width:1.5;"/>
   </g>
   <g id="patch_3">
    <path d="M 65.861026 288.981871 
L 65.861026 20.805597 
" style="fill:none;stroke:#000000;stroke-linecap:square;stroke-linejoin:miter;stroke-width:0.8;"/>
   </g>
   <g id="patch_4">
    <path d="M 441 288.981871 
L 441 20.805597 
" style="fill:none;stroke:#000000;stroke-linecap:square;stroke-linejoin:miter;stroke-width:0.8;"/>
   </g>
   <g id="patch_5">
    <path d="M 65.861026 288.981871 
L 441 288.981871 
" style="fill:none;stroke:#000000;stroke-linecap:square;stroke-linejoin:miter;stroke-width:0.8;"/>
   </g>
   <g id="patch_6">
    <path d="M 65.861026 20.805597 
L 441 20.805597 
" style="fill:none;stroke:#000000;stroke-linecap:square;stroke-linejoin:miter;stroke-width:0.8;"/>
   </g>
   <g id="legend_1">
    <g id="patch_7">
     <path d="M 77.061026 122.803502 
L 239.251063 122.803502 
Q 242.451063 122.803502 242.451063 119.603502 
L 242.451063 32.005597 
Q 242.451063 28.805597 239.251063 28.805597 
L 77.061026 28.805597 
Q 73.861026 28.805597 73.861026 32.005597 
L 73.861026 119.603502 
Q 73.861026 122.803502 77.061026 122.803502 
z
" style="fill:#ffffff;opacity:0.8;stroke:#cccccc;stroke-linejoin:miter;"/>
    </g>
    <g id="line2d_19">
     <path d="M 80.261026 40.805597 
L 112.261026 40.805597 
" style="fill:none;stroke:#7f7f7f;stroke-linecap:square;stroke-width:1.5;"/>
    </g>
    <g id="line2d_20"/>
    <g id="text_15">
     <!-- linear -->
     <defs>
      <path d="M 15.296875 68.6875 
L 3.40625 67.59375 
L 3.40625 65 
C 9.296875 65 10.203125 64.40625 10.203125 59.640625 
L 10.203125 6.65625 
C 10.203125 2.875 9.796875 2.390625 3.40625 2.390625 
L 3.40625 -0.203125 
C 5.796875 0 10.203125 0 12.703125 0 
C 15.296875 0 19.703125 0 22.09375 -0.203125 
L 22.09375 2.390625 
C 15.703125 2.390625 15.296875 2.78125 15.296875 6.65625 
z
" id="CMR17-108"/>
      <path d="M 15.5 61.078125 
C 15.5 63.265625 13.703125 65.15625 11.40625 65.15625 
C 9.203125 65.15625 7.296875 63.375 7.296875 61.078125 
C 7.296875 58.890625 9.09375 57 11.40625 57 
C 13.59375 57 15.5 58.796875 15.5 61.078125 
z
M 3.796875 42.28125 
L 3.796875 39.703125 
C 9.40625 39.703125 10.203125 39.09375 10.203125 34.328125 
L 10.203125 6.671875 
C 10.203125 2.875 9.796875 2.390625 3.40625 2.390625 
L 3.40625 -0.203125 
C 5.796875 0 10.09375 0 12.59375 0 
C 15 0 19.09375 0 21.40625 -0.203125 
L 21.40625 2.390625 
C 15.5 2.390625 15.296875 2.984375 15.296875 6.5625 
L 15.296875 43.375 
z
" id="CMR17-105"/>
      <path d="M 41.5 30.203125 
C 41.5 35.296875 40.5 43.59375 28.703125 43.59375 
C 20.796875 43.59375 16.703125 37.5 15.203125 33.5 
L 15.09375 33.5 
L 15.09375 43.59375 
L 3.296875 42.5 
L 3.296875 39.90625 
C 9.203125 39.90625 10.09375 39.296875 10.09375 34.5 
L 10.09375 6.6875 
C 10.09375 2.875 9.703125 2.390625 3.296875 2.390625 
L 3.296875 -0.203125 
C 5.703125 0 10.09375 0 12.703125 0 
C 15.296875 0 19.796875 0 22.203125 -0.203125 
L 22.203125 2.390625 
C 15.796875 2.390625 15.40625 2.78125 15.40625 6.6875 
L 15.40625 25.90625 
C 15.40625 35.109375 21 42 28 42 
C 35.40625 42 36.203125 35.40625 36.203125 30.59375 
L 36.203125 6.6875 
C 36.203125 2.875 35.796875 2.390625 29.40625 2.390625 
L 29.40625 -0.203125 
C 31.796875 0 36.203125 0 38.796875 0 
C 41.40625 0 45.90625 0 48.296875 -0.203125 
L 48.296875 2.390625 
C 41.90625 2.390625 41.5 2.78125 41.5 6.6875 
z
" id="CMR17-110"/>
      <path d="M 36 25.828125 
C 36 32.375 36 35.84375 31.796875 39.734375 
C 28.09375 43 23.796875 44 20.40625 44 
C 12.5 44 6.796875 37.609375 6.796875 30.796875 
C 6.796875 27 9.796875 27 10.40625 27 
C 11.703125 27 14 27.78125 14 30.53125 
C 14 33 12.09375 34.078125 10.40625 34.078125 
C 10 34.078125 9.5 33.96875 9.203125 33.875 
C 11.296875 40.5 16.703125 42.40625 20.203125 42.40625 
C 25.203125 42.40625 30.703125 37.953125 30.703125 29.453125 
L 30.703125 25 
C 24.796875 25 17.703125 24.203125 12.09375 21.203125 
C 5.796875 17.703125 4 12.703125 4 8.90625 
C 4 1.203125 13 -1 18.296875 -1 
C 23.796875 -1 28.90625 2.171875 31.09375 7.984375 
C 31.296875 3.640625 34.09375 -0.28125 38.5 -0.28125 
C 40.59375 -0.28125 45.90625 1.09375 45.90625 8.859375 
L 45.90625 14.375 
L 44.09375 14.375 
L 44.09375 8.78125 
C 44.09375 2.78125 41.40625 2 40.09375 2 
C 36 2 36 7.15625 36 11.53125 
z
M 30.703125 13.59375 
C 30.703125 4.953125 24.5 0.59375 19 0.59375 
C 14 0.59375 10.09375 4.296875 10.09375 8.90625 
C 10.09375 11.890625 11.40625 17.1875 17.203125 20.390625 
C 22 23.09375 27.5 23.5 30.703125 23.5 
z
" id="CMR17-97"/>
     </defs>
     <g transform="translate(125.061026 46.405597)scale(0.16 -0.16)">
      <use transform="scale(0.996264)" xlink:href="#CMR17-108"/>
      <use transform="translate(24.871058 0)scale(0.996264)" xlink:href="#CMR17-105"/>
      <use transform="translate(49.742117 0)scale(0.996264)" xlink:href="#CMR17-110"/>
      <use transform="translate(100.637487 0)scale(0.996264)" xlink:href="#CMR17-101"/>
      <use transform="translate(141.123147 0)scale(0.996264)" xlink:href="#CMR17-97"/>
      <use transform="translate(186.813624 0)scale(0.996264)" xlink:href="#CMR17-114"/>
     </g>
    </g>
    <g id="PathCollection_4">
     <g>
      <use style="fill:#2ca02c;stroke:#2ca02c;" x="96.261026" xlink:href="#m50de87b811" y="64.505073"/>
     </g>
    </g>
    <g id="text_16">
     <!-- 3-clique batched -->
     <defs>
      <path d="M 25.5 19 
L 25.5 23.375 
L 0.40625 23.375 
L 0.40625 19 
z
" id="CMR17-45"/>
      <path d="M 34.90625 35 
C 33 35 30.203125 35 30.203125 31.515625 
C 30.203125 28.71875 32.5 27.921875 33.796875 27.921875 
C 34.5 27.921875 37.40625 28.234375 37.40625 31.625 
C 37.40625 38.546875 30.59375 43.796875 22.90625 43.796875 
C 12.296875 43.796875 3.296875 34.03125 3.296875 21.296875 
C 3.296875 8.0625 12.703125 -1 22.90625 -1 
C 35.296875 -1 38.40625 10.578125 38.40625 11.6875 
C 38.40625 12.09375 38.296875 12.390625 37.59375 12.390625 
C 36.90625 12.390625 36.796875 12.296875 36.40625 10.984375 
C 33.796875 2.8125 28.09375 0.796875 23.796875 0.796875 
C 17.40625 0.796875 9.703125 6.671875 9.703125 21.390625 
C 9.703125 36.53125 17.09375 42 23 42 
C 26.90625 42 32.703125 40.203125 34.90625 35 
z
" id="CMR17-99"/>
      <path d="M 41.09375 43.78125 
L 39.5 43.78125 
L 36.5 33.9375 
C 34.203125 39.203125 30 43.78125 23.296875 43.78125 
C 13.09375 43.78125 3.296875 34.734375 3.296875 21.609375 
C 3.296875 8.5625 12.5 -0.59375 22.5 -0.59375 
C 30.203125 -0.59375 34.5 5.28125 35.796875 7.46875 
L 35.796875 -12.328125 
C 35.796875 -16.109375 35.40625 -16.609375 29 -16.609375 
L 29 -19.1875 
C 31.40625 -19 35.796875 -19 38.40625 -19 
C 41 -19 45.5 -19 47.90625 -19.1875 
L 47.90625 -16.609375 
C 41.5 -16.609375 41.09375 -16.203125 41.09375 -12.328125 
z
M 36 13.84375 
C 36 9.5625 32.40625 5.578125 32.09375 5.28125 
C 29 1.796875 25.40625 1 23 1 
C 15.5 1 9.703125 10.453125 9.703125 21.484375 
C 9.703125 33.140625 16.296875 42 24 42 
C 32 42 36 32.9375 36 27.765625 
z
" id="CMR17-113"/>
      <path d="M 15 68.6875 
L 3.09375 67.59375 
L 3.09375 65 
C 9 65 9.90625 64.40625 9.90625 59.640625 
L 9.90625 -0.203125 
L 11.703125 -0.203125 
L 14.59375 6.890625 
C 17.5 2.203125 21.796875 -1 27.59375 -1 
C 37.59375 -1 47.703125 7.8125 47.703125 21.40625 
C 47.703125 34.1875 38.703125 43.59375 28.59375 43.59375 
C 22.40625 43.59375 18 40.296875 15 36.40625 
z
M 15.203125 31.3125 
C 15.203125 33.09375 15.203125 33.40625 16.59375 35.5 
C 20.5 41.515625 26.09375 42 28 42 
C 31 42 41.296875 40.390625 41.296875 21.5 
C 41.296875 1.6875 29.5 0.59375 27.09375 0.59375 
C 24 0.59375 19.5 1.78125 16.296875 7.59375 
C 15.203125 9.5 15.203125 9.703125 15.203125 11.484375 
z
" id="CMR17-98"/>
      <path d="M 15.09375 40 
L 29.09375 40 
L 29.09375 42.578125 
L 15.09375 42.578125 
L 15.09375 61 
L 13.296875 61 
C 13.09375 50.703125 9.59375 41.6875 1.09375 41.6875 
L 1.09375 40 
L 9.796875 40 
L 9.796875 12.046875 
C 9.796875 10.15625 9.796875 -1 21.40625 -1 
C 27.296875 -1 30.703125 4.78125 30.703125 12.140625 
L 30.703125 17.8125 
L 28.90625 17.8125 
L 28.90625 12.234375 
C 28.90625 5.375 26.203125 0.796875 22 0.796875 
C 19.09375 0.796875 15.09375 2.78125 15.09375 11.84375 
z
" id="CMR17-116"/>
      <path d="M 41.5 30.203125 
C 41.5 35.296875 40.5 43.59375 28.703125 43.59375 
C 20.5 43.59375 16.5 37 15.296875 33.703125 
L 15.203125 33.703125 
L 15.203125 68.6875 
L 3.296875 67.59375 
L 3.296875 65 
C 9.203125 65 10.09375 64.40625 10.09375 59.640625 
L 10.09375 6.65625 
C 10.09375 2.875 9.703125 2.390625 3.296875 2.390625 
L 3.296875 -0.203125 
C 5.703125 0 10.09375 0 12.703125 0 
C 15.296875 0 19.796875 0 22.203125 -0.203125 
L 22.203125 2.390625 
C 15.796875 2.390625 15.40625 2.78125 15.40625 6.6875 
L 15.40625 25.90625 
C 15.40625 35.109375 21 42 28 42 
C 35.40625 42 36.203125 35.40625 36.203125 30.59375 
L 36.203125 6.6875 
C 36.203125 2.875 35.796875 2.390625 29.40625 2.390625 
L 29.40625 -0.203125 
C 31.796875 0 36.203125 0 38.796875 0 
C 41.40625 0 45.90625 0 48.296875 -0.203125 
L 48.296875 2.390625 
C 41.90625 2.390625 41.5 2.78125 41.5 6.6875 
z
" id="CMR17-104"/>
     </defs>
     <g transform="translate(125.061026 68.705073)scale(0.16 -0.16)">
      <use transform="scale(0.996264)" xlink:href="#CMR17-51"/>
      <use transform="translate(45.690477 0)scale(0.996264)" xlink:href="#CMR17-45"/>
      <use transform="translate(75.766443 0)scale(0.996264)" xlink:href="#CMR17-99"/>
      <use transform="translate(116.252104 0)scale(0.996264)" xlink:href="#CMR17-108"/>
      <use transform="translate(141.123162 0)scale(0.996264)" xlink:href="#CMR17-105"/>
      <use transform="translate(165.994221 0)scale(0.996264)" xlink:href="#CMR17-113"/>
      <use transform="translate(214.287137 0)scale(0.996264)" xlink:href="#CMR17-117"/>
      <use transform="translate(265.182507 0)scale(0.996264)" xlink:href="#CMR17-101"/>
      <use transform="translate(335.744133 0)scale(0.996264)" xlink:href="#CMR17-98"/>
      <use transform="translate(386.639503 0)scale(0.996264)" xlink:href="#CMR17-97"/>
      <use transform="translate(432.32998 0)scale(0.996264)" xlink:href="#CMR17-116"/>
      <use transform="translate(467.610748 0)scale(0.996264)" xlink:href="#CMR17-99"/>
      <use transform="translate(505.493955 0)scale(0.996264)" xlink:href="#CMR17-104"/>
      <use transform="translate(556.389324 0)scale(0.996264)" xlink:href="#CMR17-101"/>
      <use transform="translate(596.874985 0)scale(0.996264)" xlink:href="#CMR17-100"/>
     </g>
    </g>
    <g id="PathCollection_5">
     <g>
      <use style="fill:#ff7f0e;stroke:#ff7f0e;" x="96.261026" xlink:href="#mdfb81cf75d" y="86.804549"/>
     </g>
    </g>
    <g id="text_17">
     <!-- 3-clique -->
     <g transform="translate(125.061026 91.004549)scale(0.16 -0.16)">
      <use transform="scale(0.996264)" xlink:href="#CMR17-51"/>
      <use transform="translate(45.690477 0)scale(0.996264)" xlink:href="#CMR17-45"/>
      <use transform="translate(75.766443 0)scale(0.996264)" xlink:href="#CMR17-99"/>
      <use transform="translate(116.252104 0)scale(0.996264)" xlink:href="#CMR17-108"/>
      <use transform="translate(141.123162 0)scale(0.996264)" xlink:href="#CMR17-105"/>
      <use transform="translate(165.994221 0)scale(0.996264)" xlink:href="#CMR17-113"/>
      <use transform="translate(214.287137 0)scale(0.996264)" xlink:href="#CMR17-117"/>
      <use transform="translate(265.182507 0)scale(0.996264)" xlink:href="#CMR17-101"/>
     </g>
    </g>
    <g id="PathCollection_6">
     <g>
      <use style="fill:#ff7f0e;stroke:#ff7f0e;" x="96.261026" xlink:href="#mc7b95cc8db" y="109.104026"/>
     </g>
    </g>
    <g id="text_18">
     <!-- 5-clique -->
     <defs>
      <path d="M 11.40625 57.6875 
C 12.40625 57.28125 16.5 56 20.703125 56 
C 30 56 35.09375 61.109375 38 64.0625 
C 38 64.953125 38 65.5 37.40625 65.5 
C 37.296875 65.5 37.09375 65.5 36.296875 65.046875 
C 32.796875 63.40625 28.703125 62.078125 23.703125 62.078125 
C 20.703125 62.078125 16.203125 62.484375 11.296875 64.671875 
C 10.203125 65.171875 10 65.171875 9.90625 65.171875 
C 9.40625 65.171875 9.296875 65.0625 9.296875 63.078125 
L 9.296875 34.421875 
C 9.296875 32.640625 9.296875 32.140625 10.296875 32.140625 
C 10.796875 32.140625 11 32.34375 11.5 33.03125 
C 14.703125 37.515625 19.09375 39.40625 24.09375 39.40625 
C 27.59375 39.40625 35.09375 37.21875 35.09375 20.140625 
C 35.09375 16.953125 35.09375 11.171875 32.09375 6.578125 
C 29.59375 2.484375 25.703125 0.390625 21.40625 0.390625 
C 14.796875 0.390625 8.09375 5 6.296875 12.71875 
C 6.703125 12.609375 7.5 12.421875 7.90625 12.421875 
C 9.203125 12.421875 11.703125 13.125 11.703125 16.21875 
C 11.703125 18.90625 9.796875 20 7.90625 20 
C 5.59375 20 4.09375 18.59375 4.09375 15.796875 
C 4.09375 7.09375 11 -2 21.59375 -2 
C 31.90625 -2 41.703125 6.875 41.703125 19.75 
C 41.703125 31.71875 33.90625 41 24.203125 41 
C 19.09375 41 14.796875 39.109375 11.40625 35.53125 
z
" id="CMR17-53"/>
     </defs>
     <g transform="translate(125.061026 113.304026)scale(0.16 -0.16)">
      <use transform="scale(0.996264)" xlink:href="#CMR17-53"/>
      <use transform="translate(45.690477 0)scale(0.996264)" xlink:href="#CMR17-45"/>
      <use transform="translate(75.766443 0)scale(0.996264)" xlink:href="#CMR17-99"/>
      <use transform="translate(116.252104 0)scale(0.996264)" xlink:href="#CMR17-108"/>
      <use transform="translate(141.123162 0)scale(0.996264)" xlink:href="#CMR17-105"/>
      <use transform="translate(165.994221 0)scale(0.996264)" xlink:href="#CMR17-113"/>
      <use transform="translate(214.287137 0)scale(0.996264)" xlink:href="#CMR17-117"/>
      <use transform="translate(265.182507 0)scale(0.996264)" xlink:href="#CMR17-101"/>
     </g>
    </g>
   </g>
  </g>
 </g>
 <defs>
  <clipPath id="pe28a2ed312">
   <rect height="268.176274" width="375.138974" x="65.861026" y="20.805597"/>
  </clipPath>
 </defs>
</svg>
