<svg version="1.1" viewBox="0.0 0.0 243.2230971128609 237.002624671916" fill="none" stroke="none" stroke-linecap="square" stroke-miterlimit="10" xmlns:xlink="http://www.w3.org/1999/xlink" xmlns="http://www.w3.org/2000/svg"><clipPath id="p.0"><path d="m0 0l243.2231 0l0 237.00262l-243.2231 0l0 -237.00262z" clip-rule="nonzero"/></clipPath><g clip-path="url(#p.0)"><path fill="#000000" fill-opacity="0.0" d="m0 0l243.2231 0l0 237.00262l-243.2231 0z" fill-rule="evenodd"/><path fill="#000000" fill-opacity="0.0" d="m33.972443 195.13911l0 0c0 -12.5590515 10.329178 -22.740158 23.070866 -22.740158l0 0c6.1187744 0 11.986935 2.3958282 16.313564 6.660431c4.3266296 4.2646027 6.7573013 10.04866 6.7573013 16.079727l0 0c0 12.559036 -10.329178 22.740158 -23.070866 22.740158l0 0c-12.741688 0 -23.070866 -10.181122 -23.070866 -22.740158z" fill-rule="evenodd"/><path stroke="#000000" stroke-width="1.0" stroke-linejoin="round" stroke-linecap="butt" d="m33.972443 195.13911l0 0c0 -12.5590515 10.329178 -22.740158 23.070866 -22.740158l0 0c6.1187744 0 11.986935 2.3958282 16.313564 6.660431c4.3266296 4.2646027 6.7573013 10.04866 6.7573013 16.079727l0 0c0 12.559036 -10.329178 22.740158 -23.070866 22.740158l0 0c-12.741688 0 -23.070866 -10.181122 -23.070866 -22.740158z" fill-rule="evenodd"/><path fill="#000000" d="m49.69849 202.05911l5.125 -13.359375l1.90625 0l5.46875 13.359375l-2.015625 0l-1.546875 -4.046875l-5.59375 0l-1.46875 4.046875l-1.875 0zm3.859375 -5.484375l4.53125 0l-1.40625 -3.703125q-0.625 -1.6875 -0.9375 -2.765625q-0.265625 1.28125 -0.71875 2.546875l-1.46875 3.921875z" fill-rule="nonzero"/><path fill="#000000" fill-opacity="0.0" d="m73.35687 179.05939l96.50394 -66.99213" fill-rule="evenodd"/><path stroke="#000000" stroke-width="1.0" stroke-linejoin="round" stroke-linecap="butt" d="m73.35687 179.05939l91.575134 -63.570602" fill-rule="evenodd"/><path fill="#000000" stroke="#000000" stroke-width="1.0" stroke-linecap="butt" d="m165.87392 116.845634l2.7859955 -3.9447174l-4.669815 1.2310257z" fill-rule="evenodd"/><path fill="#000000" fill-opacity="0.0" d="m57.04331 172.39896l0 -53.669296" fill-rule="evenodd"/><path stroke="#000000" stroke-width="1.0" stroke-linejoin="round" stroke-linecap="butt" d="m57.04331 172.39896l0 -47.669296" fill-rule="evenodd"/><path fill="#000000" stroke="#000000" stroke-width="1.0" stroke-linecap="butt" d="m58.695038 124.72966l-1.6517296 -4.538101l-1.6517334 4.538101z" fill-rule="evenodd"/><path fill="#000000" fill-opacity="0.0" d="m186.1798 73.25722l-48.25197 -21.82677" fill-rule="evenodd"/><path stroke="#000000" stroke-width="1.0" stroke-linejoin="round" stroke-linecap="butt" d="m186.1798 73.25722l-42.785263 -19.353905" fill-rule="evenodd"/><path fill="#000000" stroke="#000000" stroke-width="1.0" stroke-linecap="butt" d="m144.07529 52.398388l-4.815506 -0.3654251l3.4539948 3.3752747z" fill-rule="evenodd"/><path fill="#000000" fill-opacity="0.0" d="m98.54462 35.335957l0 0c0 -12.55904 10.329178 -22.740156 23.07087 -22.740156l0 0c6.1187744 0 11.986946 2.395831 16.31356 6.6604385c4.3266296 4.2646065 6.757309 10.048655 6.757309 16.079718l0 0c0 12.559044 -10.329178 22.740158 -23.07087 22.740158l0 0c-12.741692 0 -23.07087 -10.181114 -23.07087 -22.740158z" fill-rule="evenodd"/><path stroke="#000000" stroke-width="1.0" stroke-linejoin="round" stroke-linecap="butt" d="m98.54462 35.335957l0 0c0 -12.55904 10.329178 -22.740156 23.07087 -22.740156l0 0c6.1187744 0 11.986946 2.395831 16.31356 6.6604385c4.3266296 4.2646065 6.757309 10.048655 6.757309 16.079718l0 0c0 12.559044 -10.329178 22.740158 -23.07087 22.740158l0 0c-12.741692 0 -23.07087 -10.181114 -23.07087 -22.740158z" fill-rule="evenodd"/><path fill="#000000" d="m115.77067 42.255955l0 -13.359373l9.65625 0l0 1.578125l-7.875 0l0 4.093748l7.375 0l0 1.5625l-7.375 0l0 4.546875l8.1875 0l0 1.578125l-9.96875 0z" fill-rule="nonzero"/><path fill="#000000" fill-opacity="0.0" d="m57.04331 73.25722l48.251965 -21.82677" fill-rule="evenodd"/><path stroke="#000000" stroke-width="1.0" stroke-linejoin="round" stroke-linecap="butt" d="m57.04331 73.25722l42.78526 -19.353905" fill-rule="evenodd"/><path fill="#000000" stroke="#000000" stroke-width="1.0" stroke-linecap="butt" d="m100.509315 55.408237l3.4539948 -3.3752747l-4.8154984 0.3654251z" fill-rule="evenodd"/><path fill="#000000" fill-opacity="0.0" d="m163.10892 95.997375l0 0c0 -12.559044 10.329178 -22.740158 23.070877 -22.740158l0 0c6.1187744 0 11.986938 2.3958282 16.313568 6.6604385c4.3266144 4.2646103 6.7572937 10.048653 6.7572937 16.07972l0 0c0 12.559044 -10.329178 22.740158 -23.070862 22.740158l0 0c-12.741699 0 -23.070877 -10.181114 -23.070877 -22.740158z" fill-rule="evenodd"/><path stroke="#000000" stroke-width="1.0" stroke-linejoin="round" stroke-linecap="butt" d="m163.10892 95.997375l0 0c0 -12.559044 10.329178 -22.740158 23.070877 -22.740158l0 0c6.1187744 0 11.986938 2.3958282 16.313568 6.6604385c4.3266144 4.2646103 6.7572937 10.048653 6.7572937 16.07972l0 0c0 12.559044 -10.329178 22.740158 -23.070862 22.740158l0 0c-12.741699 0 -23.070877 -10.181114 -23.070877 -22.740158z" fill-rule="evenodd"/><path fill="#000000" d="m180.30373 102.91737l0 -13.359375l4.609375 0q1.546875 0 2.375 0.203125q1.140625 0.25 1.953125 0.953125q1.0625 0.890625 1.578125 2.28125q0.53125 1.390625 0.53125 3.171875q0 1.515625 -0.359375 2.703125q-0.359375 1.171875 -0.921875 1.9375q-0.546875 0.765625 -1.203125 1.21875q-0.65625 0.4375 -1.59375 0.671875q-0.9375 0.21875 -2.140625 0.21875l-4.828125 0zm1.765625 -1.578125l2.859375 0q1.3125 0 2.0625 -0.234375q0.75 -0.25 1.203125 -0.703125q0.625 -0.625 0.96875 -1.6875q0.359375 -1.0625 0.359375 -2.578125q0 -2.09375 -0.6875 -3.21875q-0.6875 -1.125 -1.671875 -1.5q-0.703125 -0.28125 -2.28125 -0.28125l-2.8125 0l0 10.203125z" fill-rule="nonzero"/><path fill="#000000" fill-opacity="0.0" d="m33.972443 95.997375l0 0c0 -12.559044 10.329178 -22.740158 23.070866 -22.740158l0 0c6.1187744 0 11.986935 2.3958282 16.313564 6.6604385c4.3266296 4.2646103 6.7573013 10.048653 6.7573013 16.07972l0 0c0 12.559044 -10.329178 22.740158 -23.070866 22.740158l0 0c-12.741688 0 -23.070866 -10.181114 -23.070866 -22.740158z" fill-rule="evenodd"/><path stroke="#000000" stroke-width="1.0" stroke-linejoin="round" stroke-linecap="butt" d="m33.972443 95.997375l0 0c0 -12.559044 10.329178 -22.740158 23.070866 -22.740158l0 0c6.1187744 0 11.986935 2.3958282 16.313564 6.6604385c4.3266296 4.2646103 6.7573013 10.048653 6.7573013 16.07972l0 0c0 12.559044 -10.329178 22.740158 -23.070866 22.740158l0 0c-12.741688 0 -23.070866 -10.181114 -23.070866 -22.740158z" fill-rule="evenodd"/><path fill="#000000" d="m60.69849 98.22987l1.765625 0.453125q-0.5625 2.171875 -2.0 3.328125q-1.4375 1.140625 -3.53125 1.140625q-2.15625 0 -3.515625 -0.875q-1.34375 -0.890625 -2.0625 -2.546875q-0.703125 -1.671875 -0.703125 -3.59375q0 -2.078125 0.796875 -3.625q0.796875 -1.5625 2.265625 -2.359375q1.484375 -0.8125 3.25 -0.8125q2.0 0 3.359375 1.015625q1.375 1.015625 1.90625 2.875l-1.734375 0.40625q-0.46875 -1.453125 -1.359375 -2.109375q-0.875 -0.671875 -2.203125 -0.671875q-1.546875 0 -2.578125 0.734375q-1.03125 0.734375 -1.453125 1.984375q-0.421875 1.234375 -0.421875 2.5625q0 1.703125 0.5 2.96875q0.5 1.265625 1.546875 1.90625q1.046875 0.625 2.265625 0.625q1.484375 0 2.515625 -0.859375q1.03125 -0.859375 1.390625 -2.546875z" fill-rule="nonzero"/><path fill="#000000" fill-opacity="0.0" d="m163.10892 195.13911l0 0c0 -12.5590515 10.329178 -22.740158 23.070877 -22.740158l0 0c6.1187744 0 11.986938 2.3958282 16.313568 6.660431c4.3266144 4.2646027 6.7572937 10.04866 6.7572937 16.079727l0 0c0 12.559036 -10.329178 22.740158 -23.070862 22.740158l0 0c-12.741699 0 -23.070877 -10.181122 -23.070877 -22.740158z" fill-rule="evenodd"/><path stroke="#000000" stroke-width="1.0" stroke-linejoin="round" stroke-linecap="butt" d="m163.10892 195.13911l0 0c0 -12.5590515 10.329178 -22.740158 23.070877 -22.740158l0 0c6.1187744 0 11.986938 2.3958282 16.313568 6.660431c4.3266144 4.2646027 6.7572937 10.04866 6.7572937 16.079727l0 0c0 12.559036 -10.329178 22.740158 -23.070862 22.740158l0 0c-12.741699 0 -23.070877 -10.181122 -23.070877 -22.740158z" fill-rule="evenodd"/><path fill="#000000" d="m180.2256 202.05911l0 -13.359375l5.015625 0q1.53125 0 2.453125 0.40625q0.921875 0.40625 1.4375 1.25q0.53125 0.84375 0.53125 1.765625q0 0.859375 -0.46875 1.625q-0.453125 0.75 -1.390625 1.203125q1.203125 0.359375 1.859375 1.21875q0.65625 0.859375 0.65625 2.015625q0 0.9375 -0.40625 1.75q-0.390625 0.796875 -0.984375 1.234375q-0.578125 0.4375 -1.453125 0.671875q-0.875 0.21875 -2.15625 0.21875l-5.09375 0zm1.78125 -7.75l2.875 0q1.1875 0 1.6875 -0.140625q0.671875 -0.203125 1.015625 -0.671875q0.34375 -0.46875 0.34375 -1.171875q0 -0.65625 -0.328125 -1.15625q-0.3125 -0.515625 -0.90625 -0.703125q-0.59375 -0.1875 -2.03125 -0.1875l-2.65625 0l0 4.03125zm0 6.171875l3.3125 0q0.859375 0 1.203125 -0.0625q0.609375 -0.109375 1.015625 -0.359375q0.421875 -0.265625 0.6875 -0.75q0.265625 -0.484375 0.265625 -1.125q0 -0.75 -0.390625 -1.296875q-0.375 -0.546875 -1.0625 -0.765625q-0.671875 -0.234375 -1.953125 -0.234375l-3.078125 0l0 4.59375z" fill-rule="nonzero"/><path fill="#000000" fill-opacity="0.0" d="m186.1798 172.39896l0 -53.669296" fill-rule="evenodd"/><path stroke="#000000" stroke-width="1.0" stroke-linejoin="round" stroke-linecap="butt" d="m186.1798 172.39896l0 -47.669296" fill-rule="evenodd"/><path fill="#000000" stroke="#000000" stroke-width="1.0" stroke-linecap="butt" d="m187.83153 124.72966l-1.6517334 -4.538101l-1.6517334 4.538101z" fill-rule="evenodd"/><path fill="#000000" fill-opacity="0.0" d="m80.114174 195.13911l82.99212 0" fill-rule="evenodd"/><path stroke="#000000" stroke-width="1.0" stroke-linejoin="round" stroke-linecap="butt" d="m80.114174 195.13911l76.99212 0" fill-rule="evenodd"/><path fill="#000000" stroke="#000000" stroke-width="1.0" stroke-linecap="butt" d="m157.1063 196.79083l4.538101 -1.6517181l-4.538101 -1.6517334z" fill-rule="evenodd"/><path fill="#000000" fill-opacity="0.0" d="m169.86623 179.05939l-96.50394 -66.99213" fill-rule="evenodd"/><path stroke="#000000" stroke-width="1.0" stroke-linejoin="round" stroke-linecap="butt" d="m169.86623 179.05939l-91.575134 -63.570602" fill-rule="evenodd"/><path fill="#000000" stroke="#000000" stroke-width="1.0" stroke-linecap="butt" d="m79.233 114.13194l-4.6698074 -1.2310257l2.7859879 3.9447174z" fill-rule="evenodd"/><path fill="#000000" fill-opacity="0.0" d="m80.114174 95.997375l82.99212 0" fill-rule="evenodd"/><path stroke="#000000" stroke-width="1.0" stroke-linejoin="round" stroke-linecap="butt" d="m80.114174 95.997375l76.99212 0" fill-rule="evenodd"/><path fill="#000000" stroke="#000000" stroke-width="1.0" stroke-linecap="butt" d="m157.1063 97.64911l4.538101 -1.6517334l-4.538101 -1.6517334z" fill-rule="evenodd"/></g></svg>