<svg version="1.1" viewBox="0.0 0.0 515.3175853018373 449.56167979002623" fill="none" stroke="none" stroke-linecap="square" stroke-miterlimit="10" xmlns:xlink="http://www.w3.org/1999/xlink" xmlns="http://www.w3.org/2000/svg"><clipPath id="p.0"><path d="m0 0l515.31757 0l0 449.56168l-515.31757 0l0 -449.56168z" clip-rule="nonzero"/></clipPath><g clip-path="url(#p.0)"><path fill="#000000" fill-opacity="0.0" d="m0 0l515.31757 0l0 449.56168l-515.31757 0z" fill-rule="evenodd"/><path fill="#000000" fill-opacity="0.0" d="m54.527557 144.58005l0 0c0 -8.401688 6.42313 -15.212601 14.346458 -15.212601l0 0c3.8049164 0 7.4539948 1.6027527 10.144478 4.455673c2.690483 2.8529205 4.2019806 6.7223053 4.2019806 10.7569275l0 0c0 8.401688 -6.423126 15.212601 -14.346458 15.212601l0 0c-7.9233284 0 -14.346458 -6.810913 -14.346458 -15.212601z" fill-rule="evenodd"/><path stroke="#000000" stroke-width="3.0" stroke-linejoin="round" stroke-linecap="butt" d="m54.527557 144.58005l0 0c0 -8.401688 6.42313 -15.212601 14.346458 -15.212601l0 0c3.8049164 0 7.4539948 1.6027527 10.144478 4.455673c2.690483 2.8529205 4.2019806 6.7223053 4.2019806 10.7569275l0 0c0 8.401688 -6.423126 15.212601 -14.346458 15.212601l0 0c-7.9233284 0 -14.346458 -6.810913 -14.346458 -15.212601z" fill-rule="evenodd"/><path fill="#000000" fill-opacity="0.0" d="m54.527557 341.0656l0 0c0 -8.401672 6.42313 -15.212585 14.346458 -15.212585l0 0c3.8049164 0 7.4539948 1.6027527 10.144478 4.455658c2.690483 2.8529053 4.2019806 6.72229 4.2019806 10.7569275l0 0c0 8.401703 -6.423126 15.212616 -14.346458 15.212616l0 0c-7.9233284 0 -14.346458 -6.810913 -14.346458 -15.212616z" fill-rule="evenodd"/><path stroke="#000000" stroke-width="3.0" stroke-linejoin="round" stroke-linecap="butt" d="m54.527557 341.0656l0 0c0 -8.401672 6.42313 -15.212585 14.346458 -15.212585l0 0c3.8049164 0 7.4539948 1.6027527 10.144478 4.455658c2.690483 2.8529053 4.2019806 6.72229 4.2019806 10.7569275l0 0c0 8.401703 -6.423126 15.212616 -14.346458 15.212616l0 0c-7.9233284 0 -14.346458 -6.810913 -14.346458 -15.212616z" fill-rule="evenodd"/><path fill="#000000" fill-opacity="0.0" d="m115.69029 277.0656l0 0c0 -8.401672 6.423126 -15.212585 14.346451 -15.212585l0 0c3.8049164 0 7.4539948 1.6027527 10.144485 4.455658c2.6904755 2.8529053 4.2019806 6.72229 4.2019806 10.7569275l0 0c0 8.401703 -6.4231415 15.212616 -14.346466 15.212616l0 0c-7.9233246 0 -14.346451 -6.810913 -14.346451 -15.212616z" fill-rule="evenodd"/><path stroke="#000000" stroke-width="3.0" stroke-linejoin="round" stroke-linecap="butt" d="m115.69029 277.0656l0 0c0 -8.401672 6.423126 -15.212585 14.346451 -15.212585l0 0c3.8049164 0 7.4539948 1.6027527 10.144485 4.455658c2.6904755 2.8529053 4.2019806 6.72229 4.2019806 10.7569275l0 0c0 8.401703 -6.4231415 15.212616 -14.346466 15.212616l0 0c-7.9233246 0 -14.346451 -6.810913 -14.346451 -15.212616z" fill-rule="evenodd"/><path fill="#000000" fill-opacity="0.0" d="m235.2126 277.0656l0 0c0 -8.401672 6.423126 -15.212585 14.346451 -15.212585l0 0c3.8049164 0 7.45401 1.6027527 10.14447 4.455658c2.6904907 2.8529053 4.201996 6.72229 4.201996 10.7569275l0 0c0 8.401703 -6.423126 15.212616 -14.346466 15.212616l0 0c-7.9233246 0 -14.346451 -6.810913 -14.346451 -15.212616z" fill-rule="evenodd"/><path stroke="#000000" stroke-width="3.0" stroke-linejoin="round" stroke-linecap="butt" d="m235.2126 277.0656l0 0c0 -8.401672 6.423126 -15.212585 14.346451 -15.212585l0 0c3.8049164 0 7.45401 1.6027527 10.14447 4.455658c2.6904907 2.8529053 4.201996 6.72229 4.201996 10.7569275l0 0c0 8.401703 -6.423126 15.212616 -14.346466 15.212616l0 0c-7.9233246 0 -14.346451 -6.810913 -14.346451 -15.212616z" fill-rule="evenodd"/><path fill="#000000" fill-opacity="0.0" d="m364.97113 277.0656l0 0c0 -8.401672 6.423126 -15.212585 14.346466 -15.212585l0 0c3.8049011 0 7.4539795 1.6027527 10.14447 4.455658c2.6904907 2.8529053 4.2019653 6.72229 4.2019653 10.7569275l0 0c0 8.401703 -6.423126 15.212616 -14.346436 15.212616l0 0c-7.92334 0 -14.346466 -6.810913 -14.346466 -15.212616z" fill-rule="evenodd"/><path stroke="#000000" stroke-width="3.0" stroke-linejoin="round" stroke-linecap="butt" d="m364.97113 277.0656l0 0c0 -8.401672 6.423126 -15.212585 14.346466 -15.212585l0 0c3.8049011 0 7.4539795 1.6027527 10.14447 4.455658c2.6904907 2.8529053 4.2019653 6.72229 4.2019653 10.7569275l0 0c0 8.401703 -6.423126 15.212616 -14.346436 15.212616l0 0c-7.92334 0 -14.346466 -6.810913 -14.346466 -15.212616z" fill-rule="evenodd"/><path fill="#000000" fill-opacity="0.0" d="m181.35957 341.0656l0 0c0 -8.401672 6.4231415 -15.212585 14.346466 -15.212585l0 0c3.8049164 0 7.4539948 1.6027527 10.14447 4.455658c2.6904907 2.8529053 4.2019806 6.72229 4.2019806 10.7569275l0 0c0 8.401703 -6.423126 15.212616 -14.346451 15.212616l0 0c-7.9233246 0 -14.346466 -6.810913 -14.346466 -15.212616z" fill-rule="evenodd"/><path stroke="#000000" stroke-width="3.0" stroke-linejoin="round" stroke-linecap="butt" d="m181.35957 341.0656l0 0c0 -8.401672 6.4231415 -15.212585 14.346466 -15.212585l0 0c3.8049164 0 7.4539948 1.6027527 10.14447 4.455658c2.6904907 2.8529053 4.2019806 6.72229 4.2019806 10.7569275l0 0c0 8.401703 -6.423126 15.212616 -14.346451 15.212616l0 0c-7.9233246 0 -14.346466 -6.810913 -14.346466 -15.212616z" fill-rule="evenodd"/><path fill="#000000" fill-opacity="0.0" d="m308.1916 341.0656l0 0c0 -8.401672 6.423126 -15.212585 14.346466 -15.212585l0 0c3.8049316 0 7.45401 1.6027527 10.14447 4.455658c2.6904907 2.8529053 4.201996 6.72229 4.201996 10.7569275l0 0c0 8.401703 -6.423126 15.212616 -14.346466 15.212616l0 0c-7.92334 0 -14.346466 -6.810913 -14.346466 -15.212616z" fill-rule="evenodd"/><path stroke="#000000" stroke-width="3.0" stroke-linejoin="round" stroke-linecap="butt" d="m308.1916 341.0656l0 0c0 -8.401672 6.423126 -15.212585 14.346466 -15.212585l0 0c3.8049316 0 7.45401 1.6027527 10.14447 4.455658c2.6904907 2.8529053 4.201996 6.72229 4.201996 10.7569275l0 0c0 8.401703 -6.423126 15.212616 -14.346466 15.212616l0 0c-7.92334 0 -14.346466 -6.810913 -14.346466 -15.212616z" fill-rule="evenodd"/><path fill="#000000" fill-opacity="0.0" d="m308.1916 144.58005l0 0c0 -8.401688 6.423126 -15.212601 14.346466 -15.212601l0 0c3.8049316 0 7.45401 1.6027527 10.14447 4.455673c2.6904907 2.8529205 4.201996 6.7223053 4.201996 10.7569275l0 0c0 8.401688 -6.423126 15.212601 -14.346466 15.212601l0 0c-7.92334 0 -14.346466 -6.810913 -14.346466 -15.212601z" fill-rule="evenodd"/><path stroke="#000000" stroke-width="3.0" stroke-linejoin="round" stroke-linecap="butt" d="m308.1916 144.58005l0 0c0 -8.401688 6.423126 -15.212601 14.346466 -15.212601l0 0c3.8049316 0 7.45401 1.6027527 10.14447 4.455673c2.6904907 2.8529205 4.201996 6.7223053 4.201996 10.7569275l0 0c0 8.401688 -6.423126 15.212601 -14.346466 15.212601l0 0c-7.92334 0 -14.346466 -6.810913 -14.346466 -15.212601z" fill-rule="evenodd"/><path fill="#000000" fill-opacity="0.0" d="m181.35957 144.58005l0 0c0 -8.401688 6.4231415 -15.212601 14.346466 -15.212601l0 0c3.8049164 0 7.4539948 1.6027527 10.14447 4.455673c2.6904907 2.8529205 4.2019806 6.7223053 4.2019806 10.7569275l0 0c0 8.401688 -6.423126 15.212601 -14.346451 15.212601l0 0c-7.9233246 0 -14.346466 -6.810913 -14.346466 -15.212601z" fill-rule="evenodd"/><path stroke="#000000" stroke-width="3.0" stroke-linejoin="round" stroke-linecap="butt" d="m181.35957 144.58005l0 0c0 -8.401688 6.4231415 -15.212601 14.346466 -15.212601l0 0c3.8049164 0 7.4539948 1.6027527 10.14447 4.455673c2.6904907 2.8529205 4.2019806 6.7223053 4.2019806 10.7569275l0 0c0 8.401688 -6.423126 15.212601 -14.346451 15.212601l0 0c-7.9233246 0 -14.346466 -6.810913 -14.346466 -15.212601z" fill-rule="evenodd"/><path fill="#000000" fill-opacity="0.0" d="m235.2126 53.84777l0 0c0 -8.401688 6.423126 -15.212601 14.346451 -15.212601l0 0c3.8049164 0 7.45401 1.6027527 10.14447 4.4556694c2.6904907 2.852913 4.201996 6.7222977 4.201996 10.756931l0 0c0 8.401684 -6.423126 15.212593 -14.346466 15.212593l0 0c-7.9233246 0 -14.346451 -6.8109093 -14.346451 -15.212593z" fill-rule="evenodd"/><path stroke="#000000" stroke-width="3.0" stroke-linejoin="round" stroke-linecap="butt" d="m235.2126 53.84777l0 0c0 -8.401688 6.423126 -15.212601 14.346451 -15.212601l0 0c3.8049164 0 7.45401 1.6027527 10.14447 4.4556694c2.6904907 2.852913 4.201996 6.7222977 4.201996 10.756931l0 0c0 8.401684 -6.423126 15.212593 -14.346466 15.212593l0 0c-7.9233246 0 -14.346451 -6.8109093 -14.346451 -15.212593z" fill-rule="evenodd"/><path fill="#000000" fill-opacity="0.0" d="m364.97113 53.84777l0 0c0 -8.401688 6.423126 -15.212601 14.346466 -15.212601l0 0c3.8049011 0 7.4539795 1.6027527 10.14447 4.4556694c2.6904907 2.852913 4.2019653 6.7222977 4.2019653 10.756931l0 0c0 8.401684 -6.423126 15.212593 -14.346436 15.212593l0 0c-7.92334 0 -14.346466 -6.8109093 -14.346466 -15.212593z" fill-rule="evenodd"/><path stroke="#000000" stroke-width="3.0" stroke-linejoin="round" stroke-linecap="butt" d="m364.97113 53.84777l0 0c0 -8.401688 6.423126 -15.212601 14.346466 -15.212601l0 0c3.8049011 0 7.4539795 1.6027527 10.14447 4.4556694c2.6904907 2.852913 4.2019653 6.7222977 4.2019653 10.756931l0 0c0 8.401684 -6.423126 15.212593 -14.346436 15.212593l0 0c-7.92334 0 -14.346466 -6.8109093 -14.346466 -15.212593z" fill-rule="evenodd"/><path fill="#000000" fill-opacity="0.0" d="m115.69029 53.84777l0 0c0 -8.401688 6.423126 -15.212601 14.346451 -15.212601l0 0c3.8049164 0 7.4539948 1.6027527 10.144485 4.4556694c2.6904755 2.852913 4.2019806 6.7222977 4.2019806 10.756931l0 0c0 8.401684 -6.4231415 15.212593 -14.346466 15.212593l0 0c-7.9233246 0 -14.346451 -6.8109093 -14.346451 -15.212593z" fill-rule="evenodd"/><path stroke="#000000" stroke-width="3.0" stroke-linejoin="round" stroke-linecap="butt" d="m115.69029 53.84777l0 0c0 -8.401688 6.423126 -15.212601 14.346451 -15.212601l0 0c3.8049164 0 7.4539948 1.6027527 10.144485 4.4556694c2.6904755 2.852913 4.2019806 6.7222977 4.2019806 10.756931l0 0c0 8.401684 -6.4231415 15.212593 -14.346466 15.212593l0 0c-7.9233246 0 -14.346451 -6.8109093 -14.346451 -15.212593z" fill-rule="evenodd"/><path fill="#000000" fill-opacity="0.0" d="m68.874016 159.79265l0 166.04726" fill-rule="evenodd"/><path stroke="#000000" stroke-width="3.0" stroke-linejoin="round" stroke-linecap="butt" d="m68.874016 159.79265l0 166.04726" fill-rule="evenodd"/><path fill="#000000" fill-opacity="0.0" d="m119.892265 64.6047l-40.88189 69.228355" fill-rule="evenodd"/><path stroke="#000000" stroke-width="3.0" stroke-linejoin="round" stroke-linecap="butt" d="m119.892265 64.6047l-40.88189 69.228355" fill-rule="evenodd"/><path fill="#000000" fill-opacity="0.0" d="m239.41458 64.6047l-33.574814 69.228355" fill-rule="evenodd"/><path stroke="#000000" stroke-width="3.0" stroke-linejoin="round" stroke-linecap="butt" d="m239.41458 64.6047l-33.574814 69.228355" fill-rule="evenodd"/><path fill="#000000" fill-opacity="0.0" d="m369.1731 64.6047l-36.503937 69.228355" fill-rule="evenodd"/><path stroke="#000000" stroke-width="3.0" stroke-linejoin="round" stroke-linecap="butt" d="m369.1731 64.6047l-36.503937 69.228355" fill-rule="evenodd"/><path fill="#000000" fill-opacity="0.0" d="m322.53806 159.79265l0 166.04726" fill-rule="evenodd"/><path stroke="#000000" stroke-width="3.0" stroke-linejoin="round" stroke-linecap="butt" d="m322.53806 159.79265l0 166.04726" fill-rule="evenodd"/><path fill="#000000" fill-opacity="0.0" d="m119.892265 287.82254l-40.88189 42.48819" fill-rule="evenodd"/><path stroke="#000000" stroke-width="3.0" stroke-linejoin="round" stroke-linecap="butt" d="m119.892265 287.82254l-40.88189 42.48819" fill-rule="evenodd"/><path fill="#000000" fill-opacity="0.0" d="m369.1731 287.82254l-36.503937 42.48819" fill-rule="evenodd"/><path stroke="#000000" stroke-width="3.0" stroke-linejoin="round" stroke-linecap="butt" d="m369.1731 287.82254l-36.503937 42.48819" fill-rule="evenodd"/><path fill="#000000" fill-opacity="0.0" d="m239.41458 287.82254l-33.574814 42.48819" fill-rule="evenodd"/><path stroke="#000000" stroke-width="3.0" stroke-linejoin="round" stroke-linecap="butt" d="m239.41458 287.82254l-33.574814 42.48819" fill-rule="evenodd"/><path fill="#000000" fill-opacity="0.0" d="m308.1916 341.0656l-98.14172 0" fill-rule="evenodd"/><path stroke="#000000" stroke-width="3.0" stroke-linejoin="round" stroke-linecap="butt" d="m308.1916 341.0656l-98.14172 0" fill-rule="evenodd"/><path fill="#000000" fill-opacity="0.0" d="m379.3176 69.06036l0 192.78741" fill-rule="evenodd"/><path stroke="#000000" stroke-width="3.0" stroke-linejoin="round" stroke-linecap="butt" d="m379.3176 69.06036l0 192.78741" fill-rule="evenodd"/><path fill="#000000" fill-opacity="0.0" d="m181.35957 341.0656l-98.14172 0" fill-rule="evenodd"/><path stroke="#000000" stroke-width="3.0" stroke-linejoin="round" stroke-linecap="butt" d="m181.35957 341.0656l-98.14172 0" fill-rule="evenodd"/><path fill="#000000" fill-opacity="0.0" d="m181.35957 144.58005l-98.14172 0" fill-rule="evenodd"/><path stroke="#000000" stroke-width="3.0" stroke-linejoin="round" stroke-linecap="butt" d="m181.35957 144.58005l-98.14172 0" fill-rule="evenodd"/><path fill="#000000" fill-opacity="0.0" d="m308.1916 144.58005l-98.14172 0" fill-rule="evenodd"/><path stroke="#000000" stroke-width="3.0" stroke-linejoin="round" stroke-linecap="butt" d="m308.1916 144.58005l-98.14172 0" fill-rule="evenodd"/><path fill="#000000" fill-opacity="0.0" d="m364.97113 53.84777l-101.07086 0" fill-rule="evenodd"/><path stroke="#000000" stroke-width="3.0" stroke-linejoin="round" stroke-linecap="butt" d="m364.97113 53.84777l-101.07086 0" fill-rule="evenodd"/><path fill="#000000" fill-opacity="0.0" d="m235.2126 53.84777l-90.83464 0" fill-rule="evenodd"/><path stroke="#000000" stroke-width="3.0" stroke-linejoin="round" stroke-linecap="butt" d="m235.2126 53.84777l-90.83464 0" fill-rule="evenodd"/><path fill="#000000" fill-opacity="0.0" d="m130.03674 69.06036l0 192.78741" fill-rule="evenodd"/><path stroke="#000000" stroke-width="3.0" stroke-linejoin="round" stroke-linecap="butt" d="m130.03674 69.06036l0 192.78741" fill-rule="evenodd"/><path fill="#000000" fill-opacity="0.0" d="m249.55905 69.06562l0 192.78741" fill-rule="evenodd"/><path stroke="#000000" stroke-width="3.0" stroke-linejoin="round" stroke-linecap="butt" d="m249.55905 69.06562l0 192.78741" fill-rule="evenodd"/><path fill="#000000" fill-opacity="0.0" d="m195.70604 159.79265l0 166.04726" fill-rule="evenodd"/><path stroke="#000000" stroke-width="3.0" stroke-linejoin="round" stroke-linecap="butt" d="m195.70604 159.79265l0 166.04726" fill-rule="evenodd"/><path fill="#000000" fill-opacity="0.0" d="m144.38321 277.0656l90.83464 0" fill-rule="evenodd"/><path stroke="#000000" stroke-width="3.0" stroke-linejoin="round" stroke-linecap="butt" d="m144.38321 277.0656l90.83464 0" fill-rule="evenodd"/><path fill="#000000" fill-opacity="0.0" d="m263.90552 277.0656l101.07086 0" fill-rule="evenodd"/><path stroke="#000000" stroke-width="3.0" stroke-linejoin="round" stroke-linecap="butt" d="m263.90552 277.0656l101.07086 0" fill-rule="evenodd"/><path fill="#000000" fill-opacity="0.0" d="m36.96063 410.1391l61.48032 -0.5984192" fill-rule="evenodd"/><path stroke="#000000" stroke-width="3.0" stroke-linejoin="round" stroke-linecap="butt" d="m36.96063 410.1391l43.481167 -0.42321777" fill-rule="evenodd"/><path fill="#000000" stroke="#000000" stroke-width="3.0" stroke-linecap="butt" d="m80.49003 414.67084l13.565414 -5.0874634l-13.661873 -4.8224487z" fill-rule="evenodd"/><path fill="#000000" fill-opacity="0.0" d="m39.330708 410.13647l-0.598423 -53.858246" fill-rule="evenodd"/><path stroke="#000000" stroke-width="3.0" stroke-linejoin="round" stroke-linecap="butt" d="m39.330708 410.13647l-0.3984375 -35.859375" fill-rule="evenodd"/><path fill="#000000" stroke="#000000" stroke-width="3.0" stroke-linecap="butt" d="m43.88716 374.22205l-5.1061516 -13.55838l-4.803631 13.668488z" fill-rule="evenodd"/><path fill="#000000" fill-opacity="0.0" d="m38.732162 407.79105l33.448822 -39.02362" fill-rule="evenodd"/><path stroke="#000000" stroke-width="3.0" stroke-linejoin="round" stroke-linecap="butt" d="m38.732162 407.79105l21.734577 -25.356995" fill-rule="evenodd"/><path fill="#000000" stroke="#000000" stroke-width="3.0" stroke-linecap="butt" d="m64.229004 385.65884l5.097801 -13.561523l-12.62233 7.1119385z" fill-rule="evenodd"/><path fill="#000000" fill-opacity="0.0" d="m42.81365 397.4252l33.44882 0l0 39.338593l-33.44882 0z" fill-rule="evenodd"/><path fill="#000000" d="m62.5949 430.32208q-1.3125 1.109375 -2.515625 1.5625q-1.203125 0.453125 -2.578125 0.453125q-2.28125 0 -3.5 -1.109375q-1.21875 -1.109375 -1.21875 -2.84375q0 -1.015625 0.453125 -1.859375q0.46875 -0.84375 1.21875 -1.34375q0.75 -0.515625 1.6875 -0.765625q0.6875 -0.1875 2.078125 -0.359375q2.828125 -0.328125 4.171875 -0.796875q0.015625 -0.484375 0.015625 -0.625q0 -1.421875 -0.65625 -2.015625q-0.90625 -0.796875 -2.671875 -0.796875q-1.65625 0 -2.453125 0.59375q-0.78125 0.578125 -1.15625 2.046875l-2.296875 -0.3125q0.3125 -1.46875 1.03125 -2.375q0.71875 -0.90625 2.0625 -1.390625q1.359375 -0.5 3.140625 -0.5q1.78125 0 2.875 0.421875q1.109375 0.421875 1.625 1.046875q0.5312538 0.625 0.7343788 1.59375q0.125 0.59375 0.125 2.15625l0 3.125q0 3.265625 0.140625 4.140625q0.15625 0.859375 0.59375 1.65625l-2.4375038 0q-0.375 -0.734375 -0.46875 -1.703125zm-0.203125 -5.234375q-1.265625 0.515625 -3.828125 0.890625q-1.4375 0.203125 -2.046875 0.46875q-0.59375 0.25 -0.921875 0.75q-0.3125 0.5 -0.3125 1.125q0 0.9375 0.703125 1.5625q0.703125 0.625 2.078125 0.625q1.34375 0 2.390625 -0.59375q1.0625 -0.59375 1.5625 -1.625q0.375 -0.796875 0.375 -2.34375l0 -0.859375z" fill-rule="nonzero"/><path fill="#000000" fill-opacity="0.0" d="m59.03937 358.0853l33.44882 0l0 39.338593l-33.44882 0z" fill-rule="evenodd"/><path fill="#000000" d="m78.82062 387.6228l2.296875 0.296875q-0.375 2.390625 -1.9375 3.734375q-1.546875 1.34375 -3.8125 1.34375q-2.84375 0 -4.5625 -1.84375q-1.71875 -1.859375 -1.71875 -5.328125q0 -2.234375 0.734375 -3.90625q0.75 -1.6875 2.265625 -2.53125q1.515625 -0.84375 3.296875 -0.84375q2.25 0 3.671875 1.140625q1.4375 1.140625 1.84375 3.234375l-2.28125 0.359375q-0.328125 -1.390625 -1.15625 -2.09375q-0.8125 -0.703125 -1.984375 -0.703125q-1.78125 0 -2.890625 1.265625q-1.09375 1.265625 -1.09375 4.015625q0 2.78125 1.0625 4.046875q1.0625 1.265625 2.78125 1.265625q1.390625 0 2.3125 -0.84375q0.921875 -0.859375 1.171875 -2.609375z" fill-rule="nonzero"/><path fill="#000000" fill-opacity="0.0" d="m9.364829 368.60892l33.44882 0l0 39.338593l-33.44882 0z" fill-rule="evenodd"/><path fill="#000000" d="m22.286705 403.20892l-2.171875 0l0 -19.078125l2.34375 0l0 6.796875q1.484375 -1.859375 3.78125 -1.859375q1.28125 0 2.40625 0.515625q1.140625 0.515625 1.875 1.453125q0.75 0.921875 1.15625 2.25q0.421875 1.3125 0.421875 2.796875q0 3.5625 -1.765625 5.5q-1.75 1.9375 -4.21875 1.9375q-2.4375 0 -3.828125 -2.046875l0 1.734375zm-0.03125 -7.015625q0 2.484375 0.671875 3.59375q1.109375 1.8125 3.0 1.8125q1.53125 0 2.65625 -1.328125q1.125 -1.34375 1.125 -3.984375q0 -2.703125 -1.078125 -3.984375q-1.078125 -1.296875 -2.59375 -1.296875q-1.546875 0 -2.671875 1.328125q-1.109375 1.328125 -1.109375 3.859375z" fill-rule="nonzero"/><path fill="#000000" fill-opacity="0.0" d="m67.40551 338.34384l125.25985 0l0 39.338562l-125.25985 0z" fill-rule="evenodd"/><path fill="#000000" d="m82.639885 378.5532q-1.9375 -2.453125 -3.28125 -5.71875q-1.34375 -3.28125 -1.34375 -6.796875q0 -3.109375 1.0 -5.9375q1.171875 -3.296875 3.625 -6.5625l1.671875 0q-1.5625 2.703125 -2.078125 3.859375q-0.796875 1.796875 -1.25 3.75q-0.5625 2.4375 -0.5625 4.90625q0 6.25 3.890625 12.5l-1.671875 0zm3.7517395 -15.015625q0 -3.390625 0.6875 -5.453125q0.703125 -2.0625 2.078125 -3.171875q1.375 -1.125 3.453125 -1.125q1.53125 0 2.6875 0.625q1.171875 0.609375 1.921875 1.78125q0.75 1.15625 1.171875 2.828125q0.4375 1.671875 0.4375 4.515625q0 3.359375 -0.6875 5.421875q-0.6875 2.0625 -2.0625 3.1875q-1.375 1.125 -3.46875 1.125q-2.765625 0 -4.328125 -1.984375q-1.890625 -2.375 -1.890625 -7.75zm2.40625 0q0 4.6875 1.09375 6.25q1.109375 1.5625 2.71875 1.5625q1.609375 0 2.703125 -1.5625q1.109375 -1.5625 1.109375 -6.25q0 -4.71875 -1.109375 -6.265625q-1.09375 -1.546875 -2.734375 -1.546875q-1.609375 0 -2.578125 1.359375q-1.203125 1.75 -1.203125 6.453125zm13.684311 9.40625l0 -2.671875l2.65625 0l0 2.671875q0 1.46875 -0.515625 2.375q-0.515625 0.90625 -1.65625 1.40625l-0.640625 -1.015625q0.734375 -0.3125 1.078125 -0.953125q0.359375 -0.625 0.40625 -1.8125l-1.328125 0zm13.546295 -9.40625q0 -3.390625 0.6875 -5.453125q0.703125 -2.0625 2.078125 -3.171875q1.375 -1.125 3.453125 -1.125q1.53125 0 2.6875 0.625q1.171875 0.609375 1.921875 1.78125q0.75 1.15625 1.1718826 2.828125q0.4375 1.671875 0.4375 4.515625q0 3.359375 -0.6875076 5.421875q-0.6875 2.0625 -2.0625 3.1875q-1.375 1.125 -3.46875 1.125q-2.765625 0 -4.328125 -1.984375q-1.890625 -2.375 -1.890625 -7.75zm2.40625 0q0 4.6875 1.09375 6.25q1.109375 1.5625 2.71875 1.5625q1.609375 0 2.703125 -1.5625q1.109375 -1.5625 1.109375 -6.25q0 -4.71875 -1.109375 -6.265625q-1.09375 -1.546875 -2.734375 -1.546875q-1.609375 0 -2.578125 1.359375q-1.203125 1.75 -1.203125 6.453125zm13.684319 9.40625l0 -2.671875l2.65625 0l0 2.671875q0 1.46875 -0.515625 2.375q-0.515625 0.90625 -1.65625 1.40625l-0.640625 -1.015625q0.734375 -0.3125 1.078125 -0.953125q0.359375 -0.625 0.40625 -1.8125l-1.328125 0zm13.546295 -9.40625q0 -3.390625 0.6875 -5.453125q0.703125 -2.0625 2.078125 -3.171875q1.375 -1.125 3.453125 -1.125q1.53125 0 2.6875 0.625q1.171875 0.609375 1.921875 1.78125q0.75 1.15625 1.171875 2.828125q0.4375 1.671875 0.4375 4.515625q0 3.359375 -0.6875 5.421875q-0.6875 2.0625 -2.0625 3.1875q-1.375 1.125 -3.46875 1.125q-2.765625 0 -4.328125 -1.984375q-1.890625 -2.375 -1.890625 -7.75zm2.40625 0q0 4.6875 1.09375 6.25q1.109375 1.5625 2.71875 1.5625q1.609375 0 2.703125 -1.5625q1.109375 -1.5625 1.109375 -6.25q0 -4.71875 -1.109375 -6.265625q-1.09375 -1.546875 -2.734375 -1.546875q-1.609375 0 -2.578125 1.359375q-1.203125 1.75 -1.203125 6.453125zm14.606186 15.015625l-1.6875 0q3.890625 -6.25 3.890625 -12.5q0 -2.453125 -0.546875 -4.859375q-0.453125 -1.953125 -1.25 -3.75q-0.5 -1.171875 -2.09375 -3.90625l1.6875 0q2.4375 3.265625 3.609375 6.5625q1.0 2.828125 1.0 5.9375q0 3.515625 -1.34375 6.796875q-1.34375 3.265625 -3.265625 5.71875z" fill-rule="nonzero"/><path fill="#000000" fill-opacity="0.0" d="m401.84384 8.393701l125.25986 0l0 39.338585l-125.25986 0z" fill-rule="evenodd"/><path fill="#000000" d="m417.07822 48.603073q-1.9375 -2.453125 -3.28125 -5.71875q-1.34375 -3.28125 -1.34375 -6.796875q0 -3.109375 1.0 -5.937498q1.171875 -3.296875 3.625 -6.5625l1.671875 0q-1.5625 2.703125 -2.078125 3.859375q-0.796875 1.796875 -1.25 3.75q-0.5625 2.437498 -0.5625 4.906248q0 6.25 3.890625 12.5l-1.671875 0zm16.06424 -7.859375l0 2.25l-12.609375 0q-0.03125 -0.84375 0.265625 -1.625q0.484375 -1.296875 1.546875 -2.546875q1.0625 -1.25 3.0625 -2.875q3.109375 -2.5625 4.203125 -4.046873q1.09375 -1.5 1.09375 -2.8125q0 -1.40625 -1.0 -2.359375q-0.984375 -0.953125 -2.59375 -0.953125q-1.6875 0 -2.703125 1.015625q-1.015625 1.015625 -1.03125 2.8125l-2.40625 -0.25q0.25 -2.6875 1.859375 -4.09375q1.609375 -1.421875 4.328125 -1.421875q2.75 0 4.34375 1.53125q1.609375 1.515625 1.609375 3.765625q0 1.140625 -0.46875 2.25q-0.46875 1.1093731 -1.5625 2.328123q-1.078125 1.21875 -3.609375 3.359375q-2.09375 1.765625 -2.703125 2.40625q-0.59375 0.625 -0.984375 1.265625l9.359375 0zm3.7780457 2.25l0 -2.671875l2.65625 0l0 2.671875q0 1.46875 -0.515625 2.375q-0.515625 0.90625 -1.65625 1.40625l-0.640625 -1.015625q0.734375 -0.3125 1.078125 -0.953125q0.359375 -0.625 0.40625 -1.8125l-1.328125 0zm22.37442 0l-2.34375 0l0 -14.921873q-0.859375 0.796875 -2.234375 1.609375q-1.359375 0.796875 -2.453125 1.203125l0 -2.265625q1.96875 -0.921875 3.4375 -2.234375q1.46875 -1.3125 2.078125 -2.546875l1.515625 0l0 19.156248zm7.262451 0l0 -2.671875l2.65625 0l0 2.671875q0 1.46875 -0.515625 2.375q-0.515625 0.90625 -1.65625 1.40625l-0.640625 -1.015625q0.734375 -0.3125 1.078125 -0.953125q0.359375 -0.625 0.40625 -1.8125l-1.328125 0zm22.37442 0l-2.34375 0l0 -14.921873q-0.859375 0.796875 -2.234375 1.609375q-1.359375 0.796875 -2.453125 1.203125l0 -2.265625q1.96875 -0.921875 3.4375 -2.234375q1.46875 -1.3125 2.078125 -2.546875l1.515625 0l0 19.156248zm8.184296 5.609375l-1.6875 0q3.890625 -6.25 3.890625 -12.5q0 -2.453125 -0.546875 -4.859373q-0.453125 -1.953125 -1.25 -3.75q-0.5 -1.171875 -2.09375 -3.90625l1.6875 0q2.4375 3.265625 3.609375 6.5625q1.0 2.828123 1.0 5.937498q0 3.515625 -1.34375 6.796875q-1.34375 3.265625 -3.265625 5.71875z" fill-rule="nonzero"/><path fill="#000000" fill-opacity="0.0" d="m345.36615 321.39633l125.25983 0l0 39.338562l-125.25983 0z" fill-rule="evenodd"/><path fill="#000000" d="m360.60052 361.6057q-1.9375 -2.453125 -3.28125 -5.71875q-1.34375 -3.28125 -1.34375 -6.796875q0 -3.109375 1.0 -5.9375q1.171875 -3.296875 3.625 -6.5625l1.671875 0q-1.5625 2.703125 -2.078125 3.859375q-0.796875 1.796875 -1.25 3.75q-0.5625 2.4375 -0.5625 4.90625q0 6.25 3.890625 12.5l-1.671875 0zm16.06424 -7.859375l0 2.25l-12.609375 0q-0.03125 -0.84375 0.265625 -1.625q0.484375 -1.296875 1.546875 -2.546875q1.0625 -1.25 3.0625 -2.875q3.109375 -2.5625 4.203125 -4.046875q1.09375 -1.5 1.09375 -2.8125q0 -1.40625 -1.0 -2.359375q-0.984375 -0.953125 -2.59375 -0.953125q-1.6875 0 -2.703125 1.015625q-1.015625 1.015625 -1.03125 2.8125l-2.40625 -0.25q0.25 -2.6875 1.859375 -4.09375q1.609375 -1.421875 4.328125 -1.421875q2.75 0 4.34375 1.53125q1.609375 1.515625 1.609375 3.765625q0 1.140625 -0.46875 2.25q-0.46875 1.109375 -1.5625 2.328125q-1.078125 1.21875 -3.609375 3.359375q-2.09375 1.765625 -2.703125 2.40625q-0.59375 0.625 -0.984375 1.265625l9.359375 0zm3.7780457 2.25l0 -2.671875l2.65625 0l0 2.671875q0 1.46875 -0.515625 2.375q-0.515625 0.90625 -1.65625 1.40625l-0.640625 -1.015625q0.734375 -0.3125 1.078125 -0.953125q0.359375 -0.625 0.40625 -1.8125l-1.328125 0zm13.546295 -9.40625q0 -3.390625 0.6875 -5.453125q0.703125 -2.0625 2.078125 -3.171875q1.375 -1.125 3.453125 -1.125q1.53125 0 2.6875 0.625q1.171875 0.609375 1.921875 1.78125q0.75 1.15625 1.171875 2.828125q0.4375 1.671875 0.4375 4.515625q0 3.359375 -0.6875 5.421875q-0.6875 2.0625 -2.0625 3.1875q-1.375 1.125 -3.46875 1.125q-2.765625 0 -4.328125 -1.984375q-1.890625 -2.375 -1.890625 -7.75zm2.40625 0q0 4.6875 1.09375 6.25q1.109375 1.5625 2.71875 1.5625q1.609375 0 2.703125 -1.5625q1.109375 -1.5625 1.109375 -6.25q0 -4.71875 -1.109375 -6.265625q-1.09375 -1.546875 -2.734375 -1.546875q-1.609375 0 -2.578125 1.359375q-1.203125 1.75 -1.203125 6.453125zm13.684326 9.40625l0 -2.671875l2.65625 0l0 2.671875q0 1.46875 -0.515625 2.375q-0.515625 0.90625 -1.65625 1.40625l-0.640625 -1.015625q0.734375 -0.3125 1.078125 -0.953125q0.359375 -0.625 0.40625 -1.8125l-1.328125 0zm13.546295 -9.40625q0 -3.390625 0.6875 -5.453125q0.703125 -2.0625 2.078125 -3.171875q1.375 -1.125 3.453125 -1.125q1.53125 0 2.6875 0.625q1.171875 0.609375 1.921875 1.78125q0.75 1.15625 1.171875 2.828125q0.4375 1.671875 0.4375 4.515625q0 3.359375 -0.6875 5.421875q-0.6875 2.0625 -2.0625 3.1875q-1.375 1.125 -3.46875 1.125q-2.765625 0 -4.328125 -1.984375q-1.890625 -2.375 -1.890625 -7.75zm2.40625 0q0 4.6875 1.09375 6.25q1.109375 1.5625 2.71875 1.5625q1.609375 0 2.703125 -1.5625q1.109375 -1.5625 1.109375 -6.25q0 -4.71875 -1.109375 -6.265625q-1.09375 -1.546875 -2.734375 -1.546875q-1.609375 0 -2.578125 1.359375q-1.203125 1.75 -1.203125 6.453125zm14.606171 15.015625l-1.6875 0q3.890625 -6.25 3.890625 -12.5q0 -2.453125 -0.546875 -4.859375q-0.453125 -1.953125 -1.25 -3.75q-0.5 -1.171875 -2.09375 -3.90625l1.6875 0q2.4375 3.265625 3.609375 6.5625q1.0 2.828125 1.0 5.9375q0 3.515625 -1.34375 6.796875q-1.34375 3.265625 -3.265625 5.71875z" fill-rule="nonzero"/><path fill="#ff0000" d="m293.83728 370.60892l10.425201 -9.874023l10.425171 9.874023l-10.425171 9.874023z" fill-rule="evenodd"/><path fill="#ff0000" d="m364.97113 306.83728l10.425201 -9.874023l10.425201 9.874023l-10.425201 9.873993z" fill-rule="evenodd"/><path fill="#0000ff" d="m390.979 306.83728l10.425201 -9.874023l10.425201 9.874023l-10.425201 9.873993z" fill-rule="evenodd"/><path fill="#0000ff" d="m256.02625 306.83728l10.425201 -9.874023l10.425201 9.874023l-10.425201 9.873993z" fill-rule="evenodd"/><path fill="#0000ff" d="m131.67455 307.7047l10.425186 -9.873993l10.425201 9.873993l-10.425201 9.874023z" fill-rule="evenodd"/><path fill="#00ff00" d="m416.98688 306.83728l10.425201 -9.874023l10.425201 9.874023l-10.425201 9.873993z" fill-rule="evenodd"/><path fill="#00ff00" d="m390.979 74.47769l10.425201 -9.874016l10.425201 9.874016l-10.425201 9.874016z" fill-rule="evenodd"/></g></svg>