<?xml version="1.0" encoding="utf-8" standalone="no"?>
<!DOCTYPE svg PUBLIC "-//W3C//DTD SVG 1.1//EN"
  "http://www.w3.org/Graphics/SVG/1.1/DTD/svg11.dtd">
<!-- Created with matplotlib (http://matplotlib.org/) -->
<svg height="345pt" version="1.1" viewBox="0 0 460 345" width="460pt" xmlns="http://www.w3.org/2000/svg" xmlns:xlink="http://www.w3.org/1999/xlink">
 <defs>
  <style type="text/css">
*{stroke-linecap:butt;stroke-linejoin:round;}
  </style>
 </defs>
 <g id="figure_1">
  <g id="patch_1">
   <path d="M 0 345.6 
L 460.8 345.6 
L 460.8 0 
L 0 0 
z
" style="fill:#ffffff;"/>
  </g>
  <g id="axes_1">
   <g id="patch_2">
    <path d="M 59.097325 259.715465 
L 437.76 259.715465 
L 437.76 23.04 
L 59.097325 23.04 
z
" style="fill:#ffffff;"/>
   </g>
   <g id="patch_3">
    <path clip-path="url(#p75f0598ac9)" d="M 76.309265 259.715465 
L 86.740744 259.715465 
L 86.740744 236.337895 
L 76.309265 236.337895 
z
" style="fill:#1f77b4;"/>
   </g>
   <g id="patch_4">
    <path clip-path="url(#p75f0598ac9)" d="M 128.466658 259.715465 
L 138.898137 259.715465 
L 138.898137 194.822556 
L 128.466658 194.822556 
z
" style="fill:#1f77b4;"/>
   </g>
   <g id="patch_5">
    <path clip-path="url(#p75f0598ac9)" d="M 180.624052 259.715465 
L 191.05553 259.715465 
L 191.05553 121.465354 
L 180.624052 121.465354 
z
" style="fill:#1f77b4;"/>
   </g>
   <g id="patch_6">
    <path clip-path="url(#p75f0598ac9)" d="M 232.781445 259.715465 
L 243.212923 259.715465 
L 243.212923 208.526648 
L 232.781445 208.526648 
z
" style="fill:#1f77b4;"/>
   </g>
   <g id="patch_7">
    <path clip-path="url(#p75f0598ac9)" d="M 284.938838 259.715465 
L 295.370317 259.715465 
L 295.370317 44.480598 
L 284.938838 44.480598 
z
" style="fill:#1f77b4;"/>
   </g>
   <g id="patch_8">
    <path clip-path="url(#p75f0598ac9)" d="M 337.096231 259.715465 
L 347.52771 259.715465 
L 347.52771 133.960262 
L 337.096231 133.960262 
z
" style="fill:#1f77b4;"/>
   </g>
   <g id="patch_9">
    <path clip-path="url(#p75f0598ac9)" d="M 389.253624 259.715465 
L 399.685103 259.715465 
L 399.685103 131.541893 
L 389.253624 131.541893 
z
" style="fill:#1f77b4;"/>
   </g>
   <g id="patch_10">
    <path clip-path="url(#p75f0598ac9)" d="M 86.740744 259.715465 
L 97.172222 259.715465 
L 97.172222 250.445049 
L 86.740744 250.445049 
z
" style="fill:#ff7f0e;"/>
   </g>
   <g id="patch_11">
    <path clip-path="url(#p75f0598ac9)" d="M 138.898137 259.715465 
L 149.329616 259.715465 
L 149.329616 245.205249 
L 138.898137 245.205249 
z
" style="fill:#ff7f0e;"/>
   </g>
   <g id="patch_12">
    <path clip-path="url(#p75f0598ac9)" d="M 191.05553 259.715465 
L 201.487009 259.715465 
L 201.487009 241.980757 
L 191.05553 241.980757 
z
" style="fill:#ff7f0e;"/>
   </g>
   <g id="patch_13">
    <path clip-path="url(#p75f0598ac9)" d="M 243.212923 259.715465 
L 253.644402 259.715465 
L 253.644402 238.756265 
L 243.212923 238.756265 
z
" style="fill:#ff7f0e;"/>
   </g>
   <g id="patch_14">
    <path clip-path="url(#p75f0598ac9)" d="M 295.370317 259.715465 
L 305.801795 259.715465 
L 305.801795 181.118463 
L 295.370317 181.118463 
z
" style="fill:#ff7f0e;"/>
   </g>
   <g id="patch_15">
    <path clip-path="url(#p75f0598ac9)" d="M 347.52771 259.715465 
L 357.959188 259.715465 
L 357.959188 186.761325 
L 347.52771 186.761325 
z
" style="fill:#ff7f0e;"/>
   </g>
   <g id="patch_16">
    <path clip-path="url(#p75f0598ac9)" d="M 399.685103 259.715465 
L 410.116582 259.715465 
L 410.116582 189.985817 
L 399.685103 189.985817 
z
" style="fill:#ff7f0e;"/>
   </g>
   <g id="patch_17">
    <path clip-path="url(#p75f0598ac9)" d="M 97.172222 259.715465 
L 107.603701 259.715465 
L 107.603701 252.057296 
L 97.172222 252.057296 
z
" style="fill:#2ca02c;"/>
   </g>
   <g id="patch_18">
    <path clip-path="url(#p75f0598ac9)" d="M 149.329616 259.715465 
L 159.761094 259.715465 
L 159.761094 248.832803 
L 149.329616 248.832803 
z
" style="fill:#2ca02c;"/>
   </g>
   <g id="patch_19">
    <path clip-path="url(#p75f0598ac9)" d="M 201.487009 259.715465 
L 211.918487 259.715465 
L 211.918487 243.189942 
L 201.487009 243.189942 
z
" style="fill:#2ca02c;"/>
   </g>
   <g id="patch_20">
    <path clip-path="url(#p75f0598ac9)" d="M 253.644402 259.715465 
L 264.075881 259.715465 
L 264.075881 241.577695 
L 253.644402 241.577695 
z
" style="fill:#2ca02c;"/>
   </g>
   <g id="patch_21">
    <path clip-path="url(#p75f0598ac9)" d="M 305.801795 259.715465 
L 316.233274 259.715465 
L 316.233274 188.776633 
L 305.801795 188.776633 
z
" style="fill:#2ca02c;"/>
   </g>
   <g id="patch_22">
    <path clip-path="url(#p75f0598ac9)" d="M 357.959188 259.715465 
L 368.390667 259.715465 
L 368.390667 191.195002 
L 357.959188 191.195002 
z
" style="fill:#2ca02c;"/>
   </g>
   <g id="patch_23">
    <path clip-path="url(#p75f0598ac9)" d="M 410.116582 259.715465 
L 420.54806 259.715465 
L 420.54806 200.465417 
L 410.116582 200.465417 
z
" style="fill:#2ca02c;"/>
   </g>
   <g id="matplotlib.axis_1">
    <g id="xtick_1">
     <g id="line2d_1">
      <defs>
       <path d="M 0 0 
L 0 3.5 
" id="m5086a9162b" style="stroke:#000000;stroke-width:1.1;"/>
      </defs>
      <g>
       <use style="stroke:#000000;stroke-width:1.1;" x="91.956483" xlink:href="#m5086a9162b" y="259.715465"/>
      </g>
     </g>
     <g id="text_1">
      <!-- 3-clique -->
      <defs>
       <path d="M 22.09375 33.703125 
C 31 33.703125 34.90625 25.96875 34.90625 17.03125 
C 34.90625 5 28.5 0.390625 22.703125 0.390625 
C 17.40625 0.390625 8.796875 3.03125 6.09375 10.828125 
C 6.59375 10.625 7.09375 10.625 7.59375 10.625 
C 10 10.625 11.796875 12.21875 11.796875 14.8125 
C 11.796875 17.703125 9.59375 19 7.59375 19 
C 5.90625 19 3.296875 18.203125 3.296875 14.46875 
C 3.296875 5.234375 12.296875 -2 22.90625 -2 
C 34 -2 42.5 6.71875 42.5 16.953125 
C 42.5 26.671875 34.5 33.703125 25 34.796875 
C 32.59375 36.375 39.90625 43.0625 39.90625 52.015625 
C 39.90625 59.6875 32 65.296875 23 65.296875 
C 13.90625 65.296875 5.90625 59.828125 5.90625 52.015625 
C 5.90625 48.59375 8.5 48 9.796875 48 
C 11.90625 48 13.703125 49.296875 13.703125 51.890625 
C 13.703125 54.46875 11.90625 55.765625 9.796875 55.765625 
C 9.40625 55.765625 8.90625 55.765625 8.5 55.578125 
C 11.40625 61.859375 19.296875 63 22.796875 63 
C 26.296875 63 32.90625 61.328125 32.90625 51.875 
C 32.90625 49.109375 32.5 44.1875 29.09375 39.84375 
C 26.09375 36 22.703125 36 19.40625 35.6875 
C 18.90625 35.6875 16.59375 35.453125 16.203125 35.453125 
C 15.5 35.359375 15.09375 35.265625 15.09375 34.5 
C 15.09375 33.796875 15.203125 33.703125 17.203125 33.703125 
z
" id="CMR17-51"/>
       <path d="M 25.5 19 
L 25.5 23.375 
L 0.40625 23.375 
L 0.40625 19 
z
" id="CMR17-45"/>
       <path d="M 34.90625 35 
C 33 35 30.203125 35 30.203125 31.515625 
C 30.203125 28.71875 32.5 27.921875 33.796875 27.921875 
C 34.5 27.921875 37.40625 28.234375 37.40625 31.625 
C 37.40625 38.546875 30.59375 43.796875 22.90625 43.796875 
C 12.296875 43.796875 3.296875 34.03125 3.296875 21.296875 
C 3.296875 8.0625 12.703125 -1 22.90625 -1 
C 35.296875 -1 38.40625 10.578125 38.40625 11.6875 
C 38.40625 12.09375 38.296875 12.390625 37.59375 12.390625 
C 36.90625 12.390625 36.796875 12.296875 36.40625 10.984375 
C 33.796875 2.8125 28.09375 0.796875 23.796875 0.796875 
C 17.40625 0.796875 9.703125 6.671875 9.703125 21.390625 
C 9.703125 36.53125 17.09375 42 23 42 
C 26.90625 42 32.703125 40.203125 34.90625 35 
z
" id="CMR17-99"/>
       <path d="M 15.296875 68.6875 
L 3.40625 67.59375 
L 3.40625 65 
C 9.296875 65 10.203125 64.40625 10.203125 59.640625 
L 10.203125 6.65625 
C 10.203125 2.875 9.796875 2.390625 3.40625 2.390625 
L 3.40625 -0.203125 
C 5.796875 0 10.203125 0 12.703125 0 
C 15.296875 0 19.703125 0 22.09375 -0.203125 
L 22.09375 2.390625 
C 15.703125 2.390625 15.296875 2.78125 15.296875 6.65625 
z
" id="CMR17-108"/>
       <path d="M 15.5 61.078125 
C 15.5 63.265625 13.703125 65.15625 11.40625 65.15625 
C 9.203125 65.15625 7.296875 63.375 7.296875 61.078125 
C 7.296875 58.890625 9.09375 57 11.40625 57 
C 13.59375 57 15.5 58.796875 15.5 61.078125 
z
M 3.796875 42.28125 
L 3.796875 39.703125 
C 9.40625 39.703125 10.203125 39.09375 10.203125 34.328125 
L 10.203125 6.671875 
C 10.203125 2.875 9.796875 2.390625 3.40625 2.390625 
L 3.40625 -0.203125 
C 5.796875 0 10.09375 0 12.59375 0 
C 15 0 19.09375 0 21.40625 -0.203125 
L 21.40625 2.390625 
C 15.5 2.390625 15.296875 2.984375 15.296875 6.5625 
L 15.296875 43.375 
z
" id="CMR17-105"/>
       <path d="M 41.09375 43.78125 
L 39.5 43.78125 
L 36.5 33.9375 
C 34.203125 39.203125 30 43.78125 23.296875 43.78125 
C 13.09375 43.78125 3.296875 34.734375 3.296875 21.609375 
C 3.296875 8.5625 12.5 -0.59375 22.5 -0.59375 
C 30.203125 -0.59375 34.5 5.28125 35.796875 7.46875 
L 35.796875 -12.328125 
C 35.796875 -16.109375 35.40625 -16.609375 29 -16.609375 
L 29 -19.1875 
C 31.40625 -19 35.796875 -19 38.40625 -19 
C 41 -19 45.5 -19 47.90625 -19.1875 
L 47.90625 -16.609375 
C 41.5 -16.609375 41.09375 -16.203125 41.09375 -12.328125 
z
M 36 13.84375 
C 36 9.5625 32.40625 5.578125 32.09375 5.28125 
C 29 1.796875 25.40625 1 23 1 
C 15.5 1 9.703125 10.453125 9.703125 21.484375 
C 9.703125 33.140625 16.296875 42 24 42 
C 32 42 36 32.9375 36 27.765625 
z
" id="CMR17-113"/>
       <path d="M 29.40625 42.078125 
L 29.40625 39.5 
C 35.296875 39.5 36.203125 38.890625 36.203125 34.15625 
L 36.203125 16.125 
C 36.203125 7.8125 31.703125 0.59375 24.296875 0.59375 
C 16.09375 0.59375 15.40625 5.4375 15.40625 10.59375 
L 15.40625 43.171875 
L 3.296875 42.078125 
L 3.296875 39.5 
C 7.296875 39.5 10 39.5 10.09375 35.53125 
L 10.09375 16.53125 
C 10.09375 9.890625 10.09375 5.640625 12.703125 2.859375 
C 14 1.578125 16.5 -1 23.703125 -1 
C 32.203125 -1 35.5 5.890625 36.296875 7.90625 
L 36.40625 7.90625 
L 36.40625 -0.984375 
L 48.296875 -0.984375 
L 48.296875 2 
C 42.40625 2 41.5 2.59375 41.5 7.390625 
L 41.5 43.171875 
z
" id="CMR17-117"/>
       <path d="M 38.09375 23 
C 38.5 23.40625 38.5 23.609375 38.5 24.625 
C 38.5 34.96875 33.09375 44 21.703125 44 
C 11.09375 44 2.703125 33.890625 2.703125 21.609375 
C 2.703125 8.609375 12.203125 -1 22.796875 -1 
C 34 -1 38.40625 9.484375 38.40625 11.5625 
C 38.40625 12.25 37.796875 12.25 37.59375 12.25 
C 36.90625 12.25 36.796875 12.046875 36.40625 10.875 
C 34.203125 4.140625 28.703125 0.796875 23.5 0.796875 
C 19.203125 0.796875 14.90625 3.171875 12.203125 7.5 
C 9.09375 12.546875 9.09375 18.375 9.09375 23 
z
M 9.203125 24.5 
C 9.90625 39.140625 17.59375 42.40625 21.59375 42.40625 
C 28.40625 42.40625 33 35.890625 33.09375 24.5 
z
" id="CMR17-101"/>
      </defs>
      <g transform="translate(74.768986 317.077051)rotate(-45)scale(0.19 -0.19)">
       <use transform="scale(0.996264)" xlink:href="#CMR17-51"/>
       <use transform="translate(45.690477 0)scale(0.996264)" xlink:href="#CMR17-45"/>
       <use transform="translate(75.766443 0)scale(0.996264)" xlink:href="#CMR17-99"/>
       <use transform="translate(116.252104 0)scale(0.996264)" xlink:href="#CMR17-108"/>
       <use transform="translate(141.123162 0)scale(0.996264)" xlink:href="#CMR17-105"/>
       <use transform="translate(165.994221 0)scale(0.996264)" xlink:href="#CMR17-113"/>
       <use transform="translate(214.287137 0)scale(0.996264)" xlink:href="#CMR17-117"/>
       <use transform="translate(265.182507 0)scale(0.996264)" xlink:href="#CMR17-101"/>
      </g>
     </g>
    </g>
    <g id="xtick_2">
     <g id="line2d_2">
      <g>
       <use style="stroke:#000000;stroke-width:1.1;" x="144.113876" xlink:href="#m5086a9162b" y="259.715465"/>
      </g>
     </g>
     <g id="text_2">
      <!-- 4-clique -->
      <defs>
       <path d="M 33.59375 64.40625 
C 33.59375 66.5 33.5 66.5 31.703125 66.5 
L 2 19.59375 
L 2 17 
L 27.796875 17 
L 27.796875 7.140625 
C 27.796875 3.5 27.59375 2.5 20.59375 2.5 
L 18.703125 2.5 
L 18.703125 0 
C 21.90625 0 27.296875 0 30.703125 0 
C 34.09375 0 39.5 0 42.703125 0 
L 42.703125 2.5 
L 40.796875 2.5 
C 33.796875 2.5 33.59375 3.5 33.59375 7.140625 
L 33.59375 17 
L 43.796875 17 
L 43.796875 19.59375 
L 33.59375 19.59375 
z
M 28.09375 57.859375 
L 28.09375 19.59375 
L 4 19.59375 
z
" id="CMR17-52"/>
      </defs>
      <g transform="translate(126.926379 317.077051)rotate(-45)scale(0.19 -0.19)">
       <use transform="scale(0.996264)" xlink:href="#CMR17-52"/>
       <use transform="translate(45.690477 0)scale(0.996264)" xlink:href="#CMR17-45"/>
       <use transform="translate(75.766443 0)scale(0.996264)" xlink:href="#CMR17-99"/>
       <use transform="translate(116.252104 0)scale(0.996264)" xlink:href="#CMR17-108"/>
       <use transform="translate(141.123162 0)scale(0.996264)" xlink:href="#CMR17-105"/>
       <use transform="translate(165.994221 0)scale(0.996264)" xlink:href="#CMR17-113"/>
       <use transform="translate(214.287137 0)scale(0.996264)" xlink:href="#CMR17-117"/>
       <use transform="translate(265.182507 0)scale(0.996264)" xlink:href="#CMR17-101"/>
      </g>
     </g>
    </g>
    <g id="xtick_3">
     <g id="line2d_3">
      <g>
       <use style="stroke:#000000;stroke-width:1.1;" x="196.271269" xlink:href="#m5086a9162b" y="259.715465"/>
      </g>
     </g>
     <g id="text_3">
      <!-- 5-clique -->
      <defs>
       <path d="M 11.40625 57.6875 
C 12.40625 57.28125 16.5 56 20.703125 56 
C 30 56 35.09375 61.109375 38 64.0625 
C 38 64.953125 38 65.5 37.40625 65.5 
C 37.296875 65.5 37.09375 65.5 36.296875 65.046875 
C 32.796875 63.40625 28.703125 62.078125 23.703125 62.078125 
C 20.703125 62.078125 16.203125 62.484375 11.296875 64.671875 
C 10.203125 65.171875 10 65.171875 9.90625 65.171875 
C 9.40625 65.171875 9.296875 65.0625 9.296875 63.078125 
L 9.296875 34.421875 
C 9.296875 32.640625 9.296875 32.140625 10.296875 32.140625 
C 10.796875 32.140625 11 32.34375 11.5 33.03125 
C 14.703125 37.515625 19.09375 39.40625 24.09375 39.40625 
C 27.59375 39.40625 35.09375 37.21875 35.09375 20.140625 
C 35.09375 16.953125 35.09375 11.171875 32.09375 6.578125 
C 29.59375 2.484375 25.703125 0.390625 21.40625 0.390625 
C 14.796875 0.390625 8.09375 5 6.296875 12.71875 
C 6.703125 12.609375 7.5 12.421875 7.90625 12.421875 
C 9.203125 12.421875 11.703125 13.125 11.703125 16.21875 
C 11.703125 18.90625 9.796875 20 7.90625 20 
C 5.59375 20 4.09375 18.59375 4.09375 15.796875 
C 4.09375 7.09375 11 -2 21.59375 -2 
C 31.90625 -2 41.703125 6.875 41.703125 19.75 
C 41.703125 31.71875 33.90625 41 24.203125 41 
C 19.09375 41 14.796875 39.109375 11.40625 35.53125 
z
" id="CMR17-53"/>
      </defs>
      <g transform="translate(179.083773 317.077051)rotate(-45)scale(0.19 -0.19)">
       <use transform="scale(0.996264)" xlink:href="#CMR17-53"/>
       <use transform="translate(45.690477 0)scale(0.996264)" xlink:href="#CMR17-45"/>
       <use transform="translate(75.766443 0)scale(0.996264)" xlink:href="#CMR17-99"/>
       <use transform="translate(116.252104 0)scale(0.996264)" xlink:href="#CMR17-108"/>
       <use transform="translate(141.123162 0)scale(0.996264)" xlink:href="#CMR17-105"/>
       <use transform="translate(165.994221 0)scale(0.996264)" xlink:href="#CMR17-113"/>
       <use transform="translate(214.287137 0)scale(0.996264)" xlink:href="#CMR17-117"/>
       <use transform="translate(265.182507 0)scale(0.996264)" xlink:href="#CMR17-101"/>
      </g>
     </g>
    </g>
    <g id="xtick_4">
     <g id="line2d_4">
      <g>
       <use style="stroke:#000000;stroke-width:1.1;" x="248.428663" xlink:href="#m5086a9162b" y="259.715465"/>
      </g>
     </g>
     <g id="text_4">
      <!-- kite -->
      <defs>
       <path d="M 26.09375 26.140625 
C 26 26.34375 25.5 26.9375 25.5 27.234375 
C 25.5 27.4375 32.59375 33.921875 33.5 34.71875 
C 39.203125 39.5 42.796875 40 45.40625 40 
L 45.40625 42.703125 
C 44.796875 42.703125 44.59375 42.703125 44.5 42.5 
L 39.59375 42.5 
C 36.796875 42.5 32.5 42.5 29.796875 42.703125 
L 29.796875 40.09375 
C 31.203125 39.984375 32.203125 39.1875 32.203125 37.796875 
C 32.203125 35.796875 30.203125 33.90625 30.09375 33.90625 
L 15 20.140625 
L 15 68.6875 
L 3.09375 67.59375 
L 3.09375 65 
C 9 65 9.90625 64.40625 9.90625 59.640625 
L 9.90625 6.65625 
C 9.90625 2.875 9.5 2.390625 3.09375 2.390625 
L 3.09375 -0.203125 
C 5.5 0 9.90625 0 12.40625 0 
C 14.90625 0 19.296875 0 21.703125 -0.203125 
L 21.703125 2.390625 
C 15.296875 2.390625 14.90625 2.78125 14.90625 6.6875 
L 14.90625 17.65625 
L 21.796875 23.9375 
L 31.90625 8.96875 
C 33.09375 7.171875 34.09375 5.765625 34.09375 4.46875 
C 34.09375 2.6875 32.296875 2.390625 31.09375 2.390625 
L 31.09375 -0.203125 
C 33.5 0 37.796875 0 40.296875 0 
C 42.09375 0 45.796875 0 47.5 0 
L 47.5 2.390625 
C 42.796875 2.390625 41.703125 3.28125 38.703125 7.671875 
z
" id="CMR17-107"/>
       <path d="M 15.09375 40 
L 29.09375 40 
L 29.09375 42.578125 
L 15.09375 42.578125 
L 15.09375 61 
L 13.296875 61 
C 13.09375 50.703125 9.59375 41.6875 1.09375 41.6875 
L 1.09375 40 
L 9.796875 40 
L 9.796875 12.046875 
C 9.796875 10.15625 9.796875 -1 21.40625 -1 
C 27.296875 -1 30.703125 4.78125 30.703125 12.140625 
L 30.703125 17.8125 
L 28.90625 17.8125 
L 28.90625 12.234375 
C 28.90625 5.375 26.203125 0.796875 22 0.796875 
C 19.09375 0.796875 15.09375 2.78125 15.09375 11.84375 
z
" id="CMR17-116"/>
      </defs>
      <g transform="translate(241.770041 296.019302)rotate(-45)scale(0.19 -0.19)">
       <use transform="scale(0.996264)" xlink:href="#CMR17-107"/>
       <use transform="translate(48.292916 0)scale(0.996264)" xlink:href="#CMR17-105"/>
       <use transform="translate(73.163974 0)scale(0.996264)" xlink:href="#CMR17-116"/>
       <use transform="translate(108.444742 0)scale(0.996264)" xlink:href="#CMR17-101"/>
      </g>
     </g>
    </g>
    <g id="xtick_5">
     <g id="line2d_5">
      <g>
       <use style="stroke:#000000;stroke-width:1.1;" x="300.586056" xlink:href="#m5086a9162b" y="259.715465"/>
      </g>
     </g>
     <g id="text_5">
      <!-- house -->
      <defs>
       <path d="M 41.5 30.203125 
C 41.5 35.296875 40.5 43.59375 28.703125 43.59375 
C 20.5 43.59375 16.5 37 15.296875 33.703125 
L 15.203125 33.703125 
L 15.203125 68.6875 
L 3.296875 67.59375 
L 3.296875 65 
C 9.203125 65 10.09375 64.40625 10.09375 59.640625 
L 10.09375 6.65625 
C 10.09375 2.875 9.703125 2.390625 3.296875 2.390625 
L 3.296875 -0.203125 
C 5.703125 0 10.09375 0 12.703125 0 
C 15.296875 0 19.796875 0 22.203125 -0.203125 
L 22.203125 2.390625 
C 15.796875 2.390625 15.40625 2.78125 15.40625 6.6875 
L 15.40625 25.90625 
C 15.40625 35.109375 21 42 28 42 
C 35.40625 42 36.203125 35.40625 36.203125 30.59375 
L 36.203125 6.6875 
C 36.203125 2.875 35.796875 2.390625 29.40625 2.390625 
L 29.40625 -0.203125 
C 31.796875 0 36.203125 0 38.796875 0 
C 41.40625 0 45.90625 0 48.296875 -0.203125 
L 48.296875 2.390625 
C 41.90625 2.390625 41.5 2.78125 41.5 6.6875 
z
" id="CMR17-104"/>
       <path d="M 43.09375 21.1875 
C 43.09375 34 33.796875 44 22.90625 44 
C 12 44 2.703125 34 2.703125 21.1875 
C 2.703125 8.609375 12 -1 22.90625 -1 
C 33.796875 -1 43.09375 8.609375 43.09375 21.1875 
z
M 22.90625 0.796875 
C 18.203125 0.796875 14.203125 3.59375 11.90625 7.5 
C 9.40625 11.984375 9.09375 17.59375 9.09375 22 
C 9.09375 26.203125 9.296875 31.40625 11.90625 35.90625 
C 13.90625 39.203125 17.796875 42.40625 22.90625 42.40625 
C 27.40625 42.40625 31.203125 39.90625 33.59375 36.40625 
C 36.703125 31.703125 36.703125 25.109375 36.703125 22 
C 36.703125 18.09375 36.5 12.109375 33.796875 7.296875 
C 31 2.703125 26.703125 0.796875 22.90625 0.796875 
z
" id="CMR17-111"/>
       <path d="M 30.90625 42.140625 
C 30.90625 43.953125 30.796875 44.046875 30.203125 44.046875 
C 29.796875 44.046875 29.703125 43.953125 28.5 42.453125 
C 28.203125 42.046875 27.296875 41.03125 27 40.640625 
C 23.796875 44.046875 19.296875 44.046875 17.59375 44.046875 
C 6.5 44.046875 2.5 38.234375 2.5 32.4375 
C 2.5 23.40625 12.703125 21.328125 15.59375 20.703125 
C 21.90625 19.421875 24.09375 19.015625 26.203125 17.203125 
C 27.5 16.015625 29.703125 13.8125 29.703125 10.21875 
C 29.703125 6 27.296875 0.59375 18.09375 0.59375 
C 9.40625 0.59375 6.296875 7.1875 4.5 15.953125 
C 4.203125 17.34375 4.203125 17.453125 3.40625 17.453125 
C 2.59375 17.453125 2.5 17.34375 2.5 15.359375 
L 2.5 0.984375 
C 2.5 -0.796875 2.59375 -0.90625 3.203125 -0.90625 
C 3.703125 -0.90625 3.796875 -0.796875 4.296875 0 
C 4.90625 0.890625 6.40625 3.296875 7 4.3125 
C 9 1.609375 12.5 -1 18.09375 -1 
C 28 -1 33.296875 4.421875 33.296875 12.25 
C 33.296875 17.375 30.59375 20.078125 29.296875 21.28125 
C 26.296875 24.390625 22.796875 25.09375 18.59375 25.890625 
C 13.09375 27.109375 6.09375 28.515625 6.09375 34.640625 
C 6.09375 37.234375 7.5 42.765625 17.59375 42.765625 
C 28.296875 42.765625 28.90625 32.71875 29.09375 29.5 
C 29.203125 29 29.703125 28.890625 30 28.890625 
C 30.90625 28.890625 30.90625 29.203125 30.90625 30.90625 
z
" id="CMR17-115"/>
      </defs>
      <g transform="translate(288.900187 306.073794)rotate(-45)scale(0.19 -0.19)">
       <use transform="scale(0.996264)" xlink:href="#CMR17-104"/>
       <use transform="translate(50.89537 0)scale(0.996264)" xlink:href="#CMR17-111"/>
       <use transform="translate(96.585847 0)scale(0.996264)" xlink:href="#CMR17-117"/>
       <use transform="translate(147.481217 0)scale(0.996264)" xlink:href="#CMR17-115"/>
       <use transform="translate(183.282554 0)scale(0.996264)" xlink:href="#CMR17-101"/>
      </g>
     </g>
    </g>
    <g id="xtick_6">
     <g id="line2d_6">
      <g>
       <use style="stroke:#000000;stroke-width:1.1;" x="352.743449" xlink:href="#m5086a9162b" y="259.715465"/>
      </g>
     </g>
     <g id="text_6">
      <!-- diamond -->
      <defs>
       <path d="M 29.203125 67.59375 
L 29.203125 65 
C 35.09375 65 36 64.40625 36 59.6875 
L 36 36.640625 
C 35.59375 37.140625 31.5 43.59375 23.40625 43.59375 
C 13.203125 43.59375 3.296875 34.5 3.296875 21.3125 
C 3.296875 8.203125 12.59375 -1 22.40625 -1 
C 30.90625 -1 35.296875 5.265625 35.796875 5.9375 
L 35.796875 -0.984375 
L 47.90625 -0.984375 
L 47.90625 2 
C 42 2 41.09375 2.59375 41.09375 7.390625 
L 41.09375 68.6875 
z
M 35.796875 11.796875 
C 35.796875 8.796875 34 6.09375 31.703125 4.09375 
C 28.296875 1.09375 24.90625 0.59375 23 0.59375 
C 20.09375 0.59375 9.703125 2.09375 9.703125 21.1875 
C 9.703125 40.8125 21.296875 42 23.90625 42 
C 28.5 42 32.203125 39.40625 34.5 35.796875 
C 35.796875 33.703125 35.796875 33.40625 35.796875 31.609375 
z
" id="CMR17-100"/>
       <path d="M 36 25.828125 
C 36 32.375 36 35.84375 31.796875 39.734375 
C 28.09375 43 23.796875 44 20.40625 44 
C 12.5 44 6.796875 37.609375 6.796875 30.796875 
C 6.796875 27 9.796875 27 10.40625 27 
C 11.703125 27 14 27.78125 14 30.53125 
C 14 33 12.09375 34.078125 10.40625 34.078125 
C 10 34.078125 9.5 33.96875 9.203125 33.875 
C 11.296875 40.5 16.703125 42.40625 20.203125 42.40625 
C 25.203125 42.40625 30.703125 37.953125 30.703125 29.453125 
L 30.703125 25 
C 24.796875 25 17.703125 24.203125 12.09375 21.203125 
C 5.796875 17.703125 4 12.703125 4 8.90625 
C 4 1.203125 13 -1 18.296875 -1 
C 23.796875 -1 28.90625 2.171875 31.09375 7.984375 
C 31.296875 3.640625 34.09375 -0.28125 38.5 -0.28125 
C 40.59375 -0.28125 45.90625 1.09375 45.90625 8.859375 
L 45.90625 14.375 
L 44.09375 14.375 
L 44.09375 8.78125 
C 44.09375 2.78125 41.40625 2 40.09375 2 
C 36 2 36 7.15625 36 11.53125 
z
M 30.703125 13.59375 
C 30.703125 4.953125 24.5 0.59375 19 0.59375 
C 14 0.59375 10.09375 4.296875 10.09375 8.90625 
C 10.09375 11.890625 11.40625 17.1875 17.203125 20.390625 
C 22 23.09375 27.5 23.5 30.703125 23.5 
z
" id="CMR17-97"/>
       <path d="M 67.59375 30.203125 
C 67.59375 35.1875 66.703125 43.59375 54.796875 43.59375 
C 48 43.59375 43.296875 39 41.5 33.609375 
L 41.40625 33.609375 
C 40.203125 41.8125 34.296875 43.59375 28.703125 43.59375 
C 20.796875 43.59375 16.703125 37.5 15.203125 33.5 
L 15.09375 33.5 
L 15.09375 43.59375 
L 3.296875 42.5 
L 3.296875 39.90625 
C 9.203125 39.90625 10.09375 39.296875 10.09375 34.5 
L 10.09375 6.6875 
C 10.09375 2.875 9.703125 2.390625 3.296875 2.390625 
L 3.296875 -0.203125 
C 5.703125 0 10.09375 0 12.703125 0 
C 15.296875 0 19.796875 0 22.203125 -0.203125 
L 22.203125 2.390625 
C 15.796875 2.390625 15.40625 2.78125 15.40625 6.6875 
L 15.40625 25.90625 
C 15.40625 35.109375 21 42 28 42 
C 35.40625 42 36.203125 35.40625 36.203125 30.59375 
L 36.203125 6.6875 
C 36.203125 2.875 35.796875 2.390625 29.40625 2.390625 
L 29.40625 -0.203125 
C 31.796875 0 36.203125 0 38.796875 0 
C 41.40625 0 45.90625 0 48.296875 -0.203125 
L 48.296875 2.390625 
C 41.90625 2.390625 41.5 2.78125 41.5 6.6875 
L 41.5 25.90625 
C 41.5 35.109375 47.09375 42 54.09375 42 
C 61.5 42 62.296875 35.40625 62.296875 30.59375 
L 62.296875 6.6875 
C 62.296875 2.875 61.90625 2.390625 55.5 2.390625 
L 55.5 -0.203125 
C 57.90625 0 62.296875 0 64.90625 0 
C 67.5 0 72 0 74.40625 -0.203125 
L 74.40625 2.390625 
C 68 2.390625 67.59375 2.78125 67.59375 6.6875 
z
" id="CMR17-109"/>
       <path d="M 41.5 30.203125 
C 41.5 35.296875 40.5 43.59375 28.703125 43.59375 
C 20.796875 43.59375 16.703125 37.5 15.203125 33.5 
L 15.09375 33.5 
L 15.09375 43.59375 
L 3.296875 42.5 
L 3.296875 39.90625 
C 9.203125 39.90625 10.09375 39.296875 10.09375 34.5 
L 10.09375 6.6875 
C 10.09375 2.875 9.703125 2.390625 3.296875 2.390625 
L 3.296875 -0.203125 
C 5.703125 0 10.09375 0 12.703125 0 
C 15.296875 0 19.796875 0 22.203125 -0.203125 
L 22.203125 2.390625 
C 15.796875 2.390625 15.40625 2.78125 15.40625 6.6875 
L 15.40625 25.90625 
C 15.40625 35.109375 21 42 28 42 
C 35.40625 42 36.203125 35.40625 36.203125 30.59375 
L 36.203125 6.6875 
C 36.203125 2.875 35.796875 2.390625 29.40625 2.390625 
L 29.40625 -0.203125 
C 31.796875 0 36.203125 0 38.796875 0 
C 41.40625 0 45.90625 0 48.296875 -0.203125 
L 48.296875 2.390625 
C 41.90625 2.390625 41.5 2.78125 41.5 6.6875 
z
" id="CMR17-110"/>
      </defs>
      <g transform="translate(332.856205 322.476545)rotate(-45)scale(0.19 -0.19)">
       <use transform="scale(0.996264)" xlink:href="#CMR17-100"/>
       <use transform="translate(50.89537 0)scale(0.996264)" xlink:href="#CMR17-105"/>
       <use transform="translate(75.766428 0)scale(0.996264)" xlink:href="#CMR17-97"/>
       <use transform="translate(121.456905 0)scale(0.996264)" xlink:href="#CMR17-109"/>
       <use transform="translate(198.376495 0)scale(0.996264)" xlink:href="#CMR17-111"/>
       <use transform="translate(244.066972 0)scale(0.996264)" xlink:href="#CMR17-110"/>
       <use transform="translate(294.962342 0)scale(0.996264)" xlink:href="#CMR17-100"/>
      </g>
     </g>
    </g>
    <g id="xtick_7">
     <g id="line2d_7">
      <g>
       <use style="stroke:#000000;stroke-width:1.1;" x="404.900842" xlink:href="#m5086a9162b" y="259.715465"/>
      </g>
     </g>
     <g id="text_7">
      <!-- 4-cycle -->
      <defs>
       <path d="M 39 34.328125 
C 41.5 40.40625 46 40.40625 47.40625 40.40625 
L 47.40625 43 
C 45.5 43 43 43 41.09375 43 
C 39 43 35.703125 43 33.703125 43.09375 
L 33.703125 40.5 
C 37.5 40.203125 37.59375 37.40625 37.59375 36.609375 
C 37.59375 35.625 37.40625 35.125 36.90625 33.921875 
L 26 7.015625 
L 14.09375 36.03125 
C 13.59375 37.21875 13.59375 37.90625 13.59375 38.015625 
C 13.59375 40.203125 15.90625 40.40625 18.296875 40.40625 
L 18.296875 43.09375 
C 15.90625 43 11.59375 43 9.09375 43 
C 6.40625 43 3.203125 43 1 43.09375 
L 1 40.40625 
C 6.40625 40.40625 7 39.90625 8.296875 36.71875 
L 23.203125 0.234375 
C 18.703125 -11.53125 16.09375 -18.40625 9.796875 -18.40625 
C 8.703125 -18.40625 6.203125 -18.109375 4.40625 -16.3125 
C 6.703125 -16.109375 7.703125 -14.71875 7.703125 -13.015625 
C 7.703125 -11.328125 6.5 -9.828125 4.5 -9.828125 
C 2.296875 -9.828125 1.203125 -11.328125 1.203125 -13.125 
C 1.203125 -17.109375 5.296875 -20 9.796875 -20 
C 15.59375 -20 19.203125 -14.40625 21.203125 -9.4375 
z
" id="CMR17-121"/>
      </defs>
      <g transform="translate(390.083331 312.337079)rotate(-45)scale(0.19 -0.19)">
       <use transform="scale(0.996264)" xlink:href="#CMR17-52"/>
       <use transform="translate(45.690477 0)scale(0.996264)" xlink:href="#CMR17-45"/>
       <use transform="translate(75.766443 0)scale(0.996264)" xlink:href="#CMR17-99"/>
       <use transform="translate(116.252104 0)scale(0.996264)" xlink:href="#CMR17-121"/>
       <use transform="translate(164.54502 0)scale(0.996264)" xlink:href="#CMR17-99"/>
       <use transform="translate(205.03068 0)scale(0.996264)" xlink:href="#CMR17-108"/>
       <use transform="translate(229.901739 0)scale(0.996264)" xlink:href="#CMR17-101"/>
      </g>
     </g>
    </g>
   </g>
   <g id="matplotlib.axis_2">
    <g id="ytick_1">
     <g id="line2d_8">
      <path clip-path="url(#p75f0598ac9)" d="M 59.097325 259.715465 
L 437.76 259.715465 
" style="fill:none;stroke:#b0b0b0;stroke-linecap:square;stroke-width:1.1;"/>
     </g>
     <g id="line2d_9">
      <defs>
       <path d="M 0 0 
L -3.5 0 
" id="m25838b7d83" style="stroke:#000000;stroke-width:1.1;"/>
      </defs>
      <g>
       <use style="stroke:#000000;stroke-width:1.1;" x="59.097325" xlink:href="#m25838b7d83" y="259.715465"/>
      </g>
     </g>
     <g id="text_8">
      <!-- $0$ -->
      <defs>
       <path d="M 42 31.640625 
C 42 37.75 41.90625 48.125 37.703125 56.109375 
C 34 63.109375 28.09375 65.59375 22.90625 65.59375 
C 18.09375 65.59375 12 63.40625 8.203125 56.203125 
C 4.203125 48.71875 3.796875 39.4375 3.796875 31.640625 
C 3.796875 25.953125 3.90625 17.28125 7 9.671875 
C 11.296875 -0.609375 19 -2 22.90625 -2 
C 27.5 -2 34.5 -0.109375 38.59375 9.375 
C 41.59375 16.28125 42 24.359375 42 31.640625 
z
M 22.90625 -0.40625 
C 16.5 -0.40625 12.703125 5.078125 11.296875 12.6875 
C 10.203125 18.5625 10.203125 27.15625 10.203125 32.75 
C 10.203125 40.4375 10.203125 46.828125 11.5 52.921875 
C 13.40625 61.390625 19 64 22.90625 64 
C 27 64 32.296875 61.296875 34.203125 53.125 
C 35.5 47.4375 35.59375 40.734375 35.59375 32.75 
C 35.59375 26.25 35.59375 18.265625 34.40625 12.375 
C 32.296875 1.484375 26.40625 -0.40625 22.90625 -0.40625 
z
" id="CMR17-48"/>
      </defs>
      <g transform="translate(43.416135 266.288039)scale(0.19 -0.19)">
       <use transform="scale(0.996264)" xlink:href="#CMR17-48"/>
      </g>
     </g>
    </g>
    <g id="ytick_2">
     <g id="line2d_10">
      <path clip-path="url(#p75f0598ac9)" d="M 59.097325 219.40931 
L 437.76 219.40931 
" style="fill:none;stroke:#b0b0b0;stroke-linecap:square;stroke-width:1.1;"/>
     </g>
     <g id="line2d_11">
      <g>
       <use style="stroke:#000000;stroke-width:1.1;" x="59.097325" xlink:href="#m25838b7d83" y="219.40931"/>
      </g>
     </g>
     <g id="text_9">
      <!-- $1$ -->
      <defs>
       <path d="M 26.59375 63.40625 
C 26.59375 65.5 26.5 65.5 25.09375 65.5 
C 21.203125 61.1875 15.296875 59.796875 9.703125 59.796875 
C 9.40625 59.796875 8.90625 59.796875 8.796875 59.5 
C 8.703125 59.296875 8.703125 59.09375 8.703125 57 
C 11.796875 57 17 57.59375 21 59.984375 
L 21 7.203125 
C 21 3.6875 20.796875 2.5 12.203125 2.5 
L 9.203125 2.5 
L 9.203125 0 
C 14 0 19 0 23.796875 0 
C 28.59375 0 33.59375 0 38.40625 0 
L 38.40625 2.5 
L 35.40625 2.5 
C 26.796875 2.5 26.59375 3.59375 26.59375 7.15625 
z
" id="CMR17-49"/>
      </defs>
      <g transform="translate(43.416135 225.981884)scale(0.19 -0.19)">
       <use transform="scale(0.996264)" xlink:href="#CMR17-49"/>
      </g>
     </g>
    </g>
    <g id="ytick_3">
     <g id="line2d_12">
      <path clip-path="url(#p75f0598ac9)" d="M 59.097325 179.103155 
L 437.76 179.103155 
" style="fill:none;stroke:#b0b0b0;stroke-linecap:square;stroke-width:1.1;"/>
     </g>
     <g id="line2d_13">
      <g>
       <use style="stroke:#000000;stroke-width:1.1;" x="59.097325" xlink:href="#m25838b7d83" y="179.103155"/>
      </g>
     </g>
     <g id="text_10">
      <!-- $2$ -->
      <defs>
       <path d="M 41.703125 15.453125 
L 39.90625 15.453125 
C 38.90625 8.375 38.09375 7.171875 37.703125 6.5625 
C 37.203125 5.765625 30 5.765625 28.59375 5.765625 
L 9.40625 5.765625 
C 13 9.671875 20 16.75 28.5 24.953125 
C 34.59375 30.734375 41.703125 37.53125 41.703125 47.421875 
C 41.703125 59.21875 32.296875 66 21.796875 66 
C 10.796875 66 4.09375 56.3125 4.09375 47.34375 
C 4.09375 43.4375 7 42.9375 8.203125 42.9375 
C 9.203125 42.9375 12.203125 43.546875 12.203125 47.03125 
C 12.203125 50.109375 9.59375 51 8.203125 51 
C 7.59375 51 7 50.90625 6.59375 50.703125 
C 8.5 59.21875 14.296875 63.40625 20.40625 63.40625 
C 29.09375 63.40625 34.796875 56.515625 34.796875 47.421875 
C 34.796875 38.734375 29.703125 31.25 24 24.75 
L 4.09375 2.28125 
L 4.09375 0 
L 39.296875 0 
z
" id="CMR17-50"/>
      </defs>
      <g transform="translate(43.416135 185.67573)scale(0.19 -0.19)">
       <use transform="scale(0.996264)" xlink:href="#CMR17-50"/>
      </g>
     </g>
    </g>
    <g id="ytick_4">
     <g id="line2d_14">
      <path clip-path="url(#p75f0598ac9)" d="M 59.097325 138.797001 
L 437.76 138.797001 
" style="fill:none;stroke:#b0b0b0;stroke-linecap:square;stroke-width:1.1;"/>
     </g>
     <g id="line2d_15">
      <g>
       <use style="stroke:#000000;stroke-width:1.1;" x="59.097325" xlink:href="#m25838b7d83" y="138.797001"/>
      </g>
     </g>
     <g id="text_11">
      <!-- $3$ -->
      <g transform="translate(43.416135 145.369575)scale(0.19 -0.19)">
       <use transform="scale(0.996264)" xlink:href="#CMR17-51"/>
      </g>
     </g>
    </g>
    <g id="ytick_5">
     <g id="line2d_16">
      <path clip-path="url(#p75f0598ac9)" d="M 59.097325 98.490846 
L 437.76 98.490846 
" style="fill:none;stroke:#b0b0b0;stroke-linecap:square;stroke-width:1.1;"/>
     </g>
     <g id="line2d_17">
      <g>
       <use style="stroke:#000000;stroke-width:1.1;" x="59.097325" xlink:href="#m25838b7d83" y="98.490846"/>
      </g>
     </g>
     <g id="text_12">
      <!-- $4$ -->
      <g transform="translate(43.416135 105.06342)scale(0.19 -0.19)">
       <use transform="scale(0.996264)" xlink:href="#CMR17-52"/>
      </g>
     </g>
    </g>
    <g id="ytick_6">
     <g id="line2d_18">
      <path clip-path="url(#p75f0598ac9)" d="M 59.097325 58.184691 
L 437.76 58.184691 
" style="fill:none;stroke:#b0b0b0;stroke-linecap:square;stroke-width:1.1;"/>
     </g>
     <g id="line2d_19">
      <g>
       <use style="stroke:#000000;stroke-width:1.1;" x="59.097325" xlink:href="#m25838b7d83" y="58.184691"/>
      </g>
     </g>
     <g id="text_13">
      <!-- $5$ -->
      <g transform="translate(43.416135 64.757265)scale(0.19 -0.19)">
       <use transform="scale(0.996264)" xlink:href="#CMR17-53"/>
      </g>
     </g>
    </g>
    <g id="text_14">
     <!-- Query runtime [s] -->
     <defs>
      <path d="M 47.296875 1.296875 
C 59.203125 6.375 67.296875 19.3125 67.296875 34.265625 
C 67.296875 54.671875 52.59375 70 36 70 
C 19 70 4.59375 54.5 4.59375 34.359375 
C 4.59375 14.5 19 -1 36 -1 
C 38.296875 -1 41.5 -0.703125 45.296875 0.59375 
C 47 -11.671875 48.09375 -19 56.703125 -19 
C 67.296875 -19 67.796875 -3.328125 67.796875 -0.515625 
C 67.796875 0.5 67.796875 1.1875 67.09375 1.1875 
C 66.59375 1.1875 66.5 0.484375 66.5 0.28125 
C 65.796875 -9.421875 60.40625 -11.4375 57.203125 -11.4375 
C 51.296875 -11.4375 49.203125 -6.15625 47.296875 1.296875 
z
M 30.59375 1.5625 
C 20.203125 4.84375 12 15.890625 12 34.359375 
C 12 57.984375 25.09375 68.203125 35.90625 68.203125 
C 47.09375 68.203125 59.90625 57.59375 59.90625 34.34375 
C 59.90625 17.5625 53.203125 8.234375 46.5 3.96875 
C 45 9.046875 42.59375 15 36.09375 15 
C 31.296875 15 28.59375 10.8125 28.59375 7.03125 
C 28.59375 4.75 29.5 2.859375 30.59375 1.5625 
z
M 44.90625 3 
C 40.90625 0.890625 37.703125 0.890625 36 0.890625 
C 31.5 0.890625 30.203125 4.921875 30.203125 7.09375 
C 30.203125 10.15625 32.296875 13.40625 36.09375 13.40625 
C 42.5 13.40625 44.09375 7.703125 44.90625 3 
z
" id="CMR17-81"/>
      <path d="M 15 23.390625 
C 15 33 19.09375 42 26.59375 42 
C 27.296875 42 28 41.90625 28.703125 41.59375 
C 28.703125 41.59375 26.5 40.890625 26.5 38.3125 
C 26.5 35.90625 28.40625 34.90625 29.90625 34.90625 
C 31.09375 34.90625 33.296875 35.609375 33.296875 38.40625 
C 33.296875 41.609375 30.09375 43.59375 26.703125 43.59375 
C 19.09375 43.59375 15.796875 36.203125 14.796875 32.703125 
L 14.703125 32.703125 
L 14.703125 43.59375 
L 3.09375 42.5 
L 3.09375 39.90625 
C 9 39.90625 9.90625 39.296875 9.90625 34.5 
L 9.90625 6.6875 
C 9.90625 2.875 9.5 2.390625 3.09375 2.390625 
L 3.09375 -0.203125 
C 5.5 0 10.09375 0 12.703125 0 
C 15.59375 0 20.703125 0 23.40625 -0.203125 
L 23.40625 2.390625 
C 16.203125 2.390625 15 2.390625 15 6.875 
z
" id="CMR17-114"/>
      <path d="M 23.5 -25 
L 23.5 -21.515625 
L 14.09375 -21.515625 
L 14.09375 71 
L 23.5 71 
L 23.5 74.484375 
L 10.59375 74.484375 
L 10.59375 -25 
z
" id="CMR17-91"/>
      <path d="M 14.296875 74.484375 
L 1.40625 74.484375 
L 1.40625 71 
L 10.796875 71 
L 10.796875 -21.515625 
L 1.40625 -21.515625 
L 1.40625 -25 
L 14.296875 -25 
z
" id="CMR17-93"/>
     </defs>
     <g transform="translate(34.699721 208.2948)rotate(-90)scale(0.19 -0.19)">
      <use transform="scale(0.996264)" xlink:href="#CMR17-81"/>
      <use transform="translate(71.714788 0)scale(0.996264)" xlink:href="#CMR17-117"/>
      <use transform="translate(122.610158 0)scale(0.996264)" xlink:href="#CMR17-101"/>
      <use transform="translate(163.095819 0)scale(0.996264)" xlink:href="#CMR17-114"/>
      <use transform="translate(198.376586 0)scale(0.996264)" xlink:href="#CMR17-121"/>
      <use transform="translate(276.745469 0)scale(0.996264)" xlink:href="#CMR17-114"/>
      <use transform="translate(312.026236 0)scale(0.996264)" xlink:href="#CMR17-117"/>
      <use transform="translate(362.921606 0)scale(0.996264)" xlink:href="#CMR17-110"/>
      <use transform="translate(411.214522 0)scale(0.996264)" xlink:href="#CMR17-116"/>
      <use transform="translate(446.49529 0)scale(0.996264)" xlink:href="#CMR17-105"/>
      <use transform="translate(471.366348 0)scale(0.996264)" xlink:href="#CMR17-109"/>
      <use transform="translate(548.285938 0)scale(0.996264)" xlink:href="#CMR17-101"/>
      <use transform="translate(618.847565 0)scale(0.996264)" xlink:href="#CMR17-91"/>
      <use transform="translate(643.718624 0)scale(0.996264)" xlink:href="#CMR17-115"/>
      <use transform="translate(679.519961 0)scale(0.996264)" xlink:href="#CMR17-93"/>
     </g>
    </g>
   </g>
   <g id="LineCollection_1">
    <path clip-path="url(#p75f0598ac9)" d="M 81.525004 243.52295 
L 81.525004 229.15284 
" style="fill:none;stroke:#000000;stroke-width:2.1;"/>
    <path clip-path="url(#p75f0598ac9)" d="M 133.682398 198.006742 
L 133.682398 191.63837 
" style="fill:none;stroke:#000000;stroke-width:2.1;"/>
    <path clip-path="url(#p75f0598ac9)" d="M 185.839791 147.333742 
L 185.839791 95.596965 
" style="fill:none;stroke:#000000;stroke-width:2.1;"/>
    <path clip-path="url(#p75f0598ac9)" d="M 237.997184 212.053686 
L 237.997184 204.99961 
" style="fill:none;stroke:#000000;stroke-width:2.1;"/>
    <path clip-path="url(#p75f0598ac9)" d="M 290.154577 54.650936 
L 290.154577 34.31026 
" style="fill:none;stroke:#000000;stroke-width:2.1;"/>
    <path clip-path="url(#p75f0598ac9)" d="M 342.31197 145.874532 
L 342.31197 122.045992 
" style="fill:none;stroke:#000000;stroke-width:2.1;"/>
    <path clip-path="url(#p75f0598ac9)" d="M 394.469364 133.487613 
L 394.469364 129.596172 
" style="fill:none;stroke:#000000;stroke-width:2.1;"/>
   </g>
   <g id="LineCollection_2">
    <path clip-path="url(#p75f0598ac9)" d="M 91.956483 251.448925 
L 91.956483 249.441174 
" style="fill:none;stroke:#000000;stroke-width:2.1;"/>
    <path clip-path="url(#p75f0598ac9)" d="M 144.113876 246.16243 
L 144.113876 244.248069 
" style="fill:none;stroke:#000000;stroke-width:2.1;"/>
    <path clip-path="url(#p75f0598ac9)" d="M 196.271269 242.778959 
L 196.271269 241.182555 
" style="fill:none;stroke:#000000;stroke-width:2.1;"/>
    <path clip-path="url(#p75f0598ac9)" d="M 248.428663 239.68725 
L 248.428663 237.825279 
" style="fill:none;stroke:#000000;stroke-width:2.1;"/>
    <path clip-path="url(#p75f0598ac9)" d="M 300.586056 186.652637 
L 300.586056 175.58429 
" style="fill:none;stroke:#000000;stroke-width:2.1;"/>
    <path clip-path="url(#p75f0598ac9)" d="M 352.743449 191.912475 
L 352.743449 181.610175 
" style="fill:none;stroke:#000000;stroke-width:2.1;"/>
    <path clip-path="url(#p75f0598ac9)" d="M 404.900842 195.948562 
L 404.900842 184.023073 
" style="fill:none;stroke:#000000;stroke-width:2.1;"/>
   </g>
   <g id="LineCollection_3">
    <path clip-path="url(#p75f0598ac9)" d="M 102.387962 255.641221 
L 102.387962 248.473371 
" style="fill:none;stroke:#000000;stroke-width:2.1;"/>
    <path clip-path="url(#p75f0598ac9)" d="M 154.545355 249.878435 
L 154.545355 247.787171 
" style="fill:none;stroke:#000000;stroke-width:2.1;"/>
    <path clip-path="url(#p75f0598ac9)" d="M 206.702748 243.542092 
L 206.702748 242.837791 
" style="fill:none;stroke:#000000;stroke-width:2.1;"/>
    <path clip-path="url(#p75f0598ac9)" d="M 258.860141 242.671422 
L 258.860141 240.483969 
" style="fill:none;stroke:#000000;stroke-width:2.1;"/>
    <path clip-path="url(#p75f0598ac9)" d="M 311.017535 192.12091 
L 311.017535 185.432355 
" style="fill:none;stroke:#000000;stroke-width:2.1;"/>
    <path clip-path="url(#p75f0598ac9)" d="M 363.174928 194.31979 
L 363.174928 188.070213 
" style="fill:none;stroke:#000000;stroke-width:2.1;"/>
    <path clip-path="url(#p75f0598ac9)" d="M 415.332321 202.634473 
L 415.332321 198.296362 
" style="fill:none;stroke:#000000;stroke-width:2.1;"/>
   </g>
   <g id="line2d_20">
    <defs>
     <path d="M 3 0 
L -3 -0 
" id="m198c61287c" style="stroke:#000000;"/>
    </defs>
    <g clip-path="url(#p75f0598ac9)">
     <use style="stroke:#000000;" x="81.525004" xlink:href="#m198c61287c" y="243.52295"/>
     <use style="stroke:#000000;" x="133.682398" xlink:href="#m198c61287c" y="198.006742"/>
     <use style="stroke:#000000;" x="185.839791" xlink:href="#m198c61287c" y="147.333742"/>
     <use style="stroke:#000000;" x="237.997184" xlink:href="#m198c61287c" y="212.053686"/>
     <use style="stroke:#000000;" x="290.154577" xlink:href="#m198c61287c" y="54.650936"/>
     <use style="stroke:#000000;" x="342.31197" xlink:href="#m198c61287c" y="145.874532"/>
     <use style="stroke:#000000;" x="394.469364" xlink:href="#m198c61287c" y="133.487613"/>
    </g>
   </g>
   <g id="line2d_21">
    <g clip-path="url(#p75f0598ac9)">
     <use style="stroke:#000000;" x="81.525004" xlink:href="#m198c61287c" y="229.15284"/>
     <use style="stroke:#000000;" x="133.682398" xlink:href="#m198c61287c" y="191.63837"/>
     <use style="stroke:#000000;" x="185.839791" xlink:href="#m198c61287c" y="95.596965"/>
     <use style="stroke:#000000;" x="237.997184" xlink:href="#m198c61287c" y="204.99961"/>
     <use style="stroke:#000000;" x="290.154577" xlink:href="#m198c61287c" y="34.31026"/>
     <use style="stroke:#000000;" x="342.31197" xlink:href="#m198c61287c" y="122.045992"/>
     <use style="stroke:#000000;" x="394.469364" xlink:href="#m198c61287c" y="129.596172"/>
    </g>
   </g>
   <g id="line2d_22">
    <g clip-path="url(#p75f0598ac9)">
     <use style="stroke:#000000;" x="91.956483" xlink:href="#m198c61287c" y="251.448925"/>
     <use style="stroke:#000000;" x="144.113876" xlink:href="#m198c61287c" y="246.16243"/>
     <use style="stroke:#000000;" x="196.271269" xlink:href="#m198c61287c" y="242.778959"/>
     <use style="stroke:#000000;" x="248.428663" xlink:href="#m198c61287c" y="239.68725"/>
     <use style="stroke:#000000;" x="300.586056" xlink:href="#m198c61287c" y="186.652637"/>
     <use style="stroke:#000000;" x="352.743449" xlink:href="#m198c61287c" y="191.912475"/>
     <use style="stroke:#000000;" x="404.900842" xlink:href="#m198c61287c" y="195.948562"/>
    </g>
   </g>
   <g id="line2d_23">
    <g clip-path="url(#p75f0598ac9)">
     <use style="stroke:#000000;" x="91.956483" xlink:href="#m198c61287c" y="249.441174"/>
     <use style="stroke:#000000;" x="144.113876" xlink:href="#m198c61287c" y="244.248069"/>
     <use style="stroke:#000000;" x="196.271269" xlink:href="#m198c61287c" y="241.182555"/>
     <use style="stroke:#000000;" x="248.428663" xlink:href="#m198c61287c" y="237.825279"/>
     <use style="stroke:#000000;" x="300.586056" xlink:href="#m198c61287c" y="175.58429"/>
     <use style="stroke:#000000;" x="352.743449" xlink:href="#m198c61287c" y="181.610175"/>
     <use style="stroke:#000000;" x="404.900842" xlink:href="#m198c61287c" y="184.023073"/>
    </g>
   </g>
   <g id="line2d_24">
    <g clip-path="url(#p75f0598ac9)">
     <use style="stroke:#000000;" x="102.387962" xlink:href="#m198c61287c" y="255.641221"/>
     <use style="stroke:#000000;" x="154.545355" xlink:href="#m198c61287c" y="249.878435"/>
     <use style="stroke:#000000;" x="206.702748" xlink:href="#m198c61287c" y="243.542092"/>
     <use style="stroke:#000000;" x="258.860141" xlink:href="#m198c61287c" y="242.671422"/>
     <use style="stroke:#000000;" x="311.017535" xlink:href="#m198c61287c" y="192.12091"/>
     <use style="stroke:#000000;" x="363.174928" xlink:href="#m198c61287c" y="194.31979"/>
     <use style="stroke:#000000;" x="415.332321" xlink:href="#m198c61287c" y="202.634473"/>
    </g>
   </g>
   <g id="line2d_25">
    <g clip-path="url(#p75f0598ac9)">
     <use style="stroke:#000000;" x="102.387962" xlink:href="#m198c61287c" y="248.473371"/>
     <use style="stroke:#000000;" x="154.545355" xlink:href="#m198c61287c" y="247.787171"/>
     <use style="stroke:#000000;" x="206.702748" xlink:href="#m198c61287c" y="242.837791"/>
     <use style="stroke:#000000;" x="258.860141" xlink:href="#m198c61287c" y="240.483969"/>
     <use style="stroke:#000000;" x="311.017535" xlink:href="#m198c61287c" y="185.432355"/>
     <use style="stroke:#000000;" x="363.174928" xlink:href="#m198c61287c" y="188.070213"/>
     <use style="stroke:#000000;" x="415.332321" xlink:href="#m198c61287c" y="198.296362"/>
    </g>
   </g>
   <g id="patch_24">
    <path d="M 59.097325 259.715465 
L 59.097325 23.04 
" style="fill:none;stroke:#000000;stroke-linecap:square;stroke-linejoin:miter;stroke-width:0.8;"/>
   </g>
   <g id="patch_25">
    <path d="M 437.76 259.715465 
L 437.76 23.04 
" style="fill:none;stroke:#000000;stroke-linecap:square;stroke-linejoin:miter;stroke-width:0.8;"/>
   </g>
   <g id="patch_26">
    <path d="M 59.097325 259.715465 
L 437.76 259.715465 
" style="fill:none;stroke:#000000;stroke-linecap:square;stroke-linejoin:miter;stroke-width:0.8;"/>
   </g>
   <g id="patch_27">
    <path d="M 59.097325 23.04 
L 437.76 23.04 
" style="fill:none;stroke:#000000;stroke-linecap:square;stroke-linejoin:miter;stroke-width:0.8;"/>
   </g>
   <g id="legend_1">
    <g id="patch_28">
     <path d="M 72.397325 117.685524 
L 237.300165 117.685524 
Q 241.100165 117.685524 241.100165 113.885524 
L 241.100165 36.34 
Q 241.100165 32.54 237.300165 32.54 
L 72.397325 32.54 
Q 68.597325 32.54 68.597325 36.34 
L 68.597325 113.885524 
Q 68.597325 117.685524 72.397325 117.685524 
z
" style="fill:#ffffff;opacity:0.8;stroke:#cccccc;stroke-linejoin:miter;"/>
    </g>
    <g id="patch_29">
     <path d="M 76.197325 53.44 
L 114.197325 53.44 
L 114.197325 40.14 
L 76.197325 40.14 
z
" style="fill:#1f77b4;"/>
    </g>
    <g id="text_15">
     <!-- LFTJ -->
     <defs>
      <path d="M 54.203125 25.234375 
L 52.40625 25.234375 
C 51.59375 15.359375 50.296875 2.59375 33.203125 2.59375 
L 23.90625 2.59375 
C 19.90625 2.59375 19.703125 3.078125 19.703125 6.46875 
L 19.703125 60.90625 
C 19.703125 64.515625 19.90625 65.5 27.5 65.5 
L 29.703125 65.5 
L 29.703125 68 
C 25.59375 68 20.796875 68 16.703125 68 
C 13.59375 68 8 68 5.09375 68 
L 5.09375 65.5 
C 12 65.5 13.09375 65.5 13.09375 61.015625 
L 13.09375 7.0625 
C 13.09375 2.59375 12 2.59375 5.09375 2.59375 
L 5.09375 0 
L 51.796875 0 
z
" id="CMR17-76"/>
      <path d="M 54.40625 67.578125 
L 5.09375 67.578125 
L 5.09375 65 
C 12 65 13.09375 65 13.09375 60.53125 
L 13.09375 6.96875 
C 13.09375 2.5 12 2.5 5.09375 2.5 
L 5.09375 0 
C 8 0 13.59375 0 16.703125 0 
C 20.796875 0 25.59375 0 29.703125 0 
L 29.703125 2.5 
L 27.5 2.5 
C 19.90625 2.5 19.703125 3.484375 19.703125 7.0625 
L 19.703125 32.421875 
L 28.703125 32.421875 
C 38 32.421875 38.90625 29.140625 38.90625 20.8125 
L 40.703125 20.8125 
L 40.703125 46.671875 
L 38.90625 46.671875 
C 38.90625 38.28125 38 35 28.703125 35 
L 19.703125 35 
L 19.703125 61.109375 
C 19.703125 64.5 19.90625 65 23.90625 65 
L 36.796875 65 
C 51.90625 65 53.59375 58.828125 55 45.5625 
L 56.796875 45.5625 
z
" id="CMR17-70"/>
      <path d="M 62.203125 67.59375 
L 4.5 67.59375 
L 2.796875 45.59375 
L 4.59375 45.59375 
C 5.90625 62.125 7.296875 65 22.703125 65 
C 24.5 65 27.40625 65 28.203125 64.90625 
C 30.09375 64.609375 30.09375 63.40625 30.09375 61.125 
L 30.09375 7.171875 
C 30.09375 3.59375 29.796875 2.5 21.5 2.5 
L 18.703125 2.5 
L 18.703125 0 
C 23.5 0 28.5 0 33.40625 0 
C 38.296875 0 43.296875 0 48.09375 0 
L 48.09375 2.5 
L 45.296875 2.5 
C 37 2.5 36.703125 3.59375 36.703125 7.171875 
L 36.703125 61.125 
C 36.703125 63.3125 36.703125 64.515625 38.5 64.90625 
C 39.296875 65 42.203125 65 44 65 
C 59.296875 65 60.796875 62.125 62.09375 45.59375 
L 63.90625 45.59375 
z
" id="CMR17-84"/>
      <path d="M 29.5 14.21875 
C 29.5 5.0625 24.5 -0.40625 19.40625 -0.40625 
C 16.796875 -0.40625 10.796875 0.765625 8.203125 6.734375 
C 8.59375 6.640625 9.09375 6.53125 9.5 6.53125 
C 11.40625 6.53125 13.796875 7.828125 13.796875 10.8125 
C 13.796875 13.203125 12.09375 15 9.59375 15 
C 7.203125 15 5.296875 13.515625 5.296875 10.65625 
C 5.296875 4.03125 11.40625 -2 19.59375 -2 
C 27.40625 -2 34.59375 3.578125 35.796875 11.9375 
C 35.90625 12.640625 35.90625 12.828125 35.90625 16.21875 
L 35.90625 58.046875 
C 35.90625 59.734375 35.90625 62.515625 36.09375 63.109375 
C 36.5 65 38.796875 65 41.90625 65 
L 41.90625 67.5 
C 41.703125 67.5 34.59375 67.5 32.09375 67.5 
C 27.90625 67.5 23.296875 67.5 19.09375 67.5 
L 19.09375 65 
L 21.5 65 
C 29.296875 65 29.5 63.90625 29.5 60.328125 
z
" id="CMR17-74"/>
     </defs>
     <g transform="translate(129.397325 53.44)scale(0.19 -0.19)">
      <use transform="scale(0.996264)" xlink:href="#CMR17-76"/>
      <use transform="translate(57.381408 0)scale(0.996264)" xlink:href="#CMR17-70"/>
      <use transform="translate(117.365254 0)scale(0.996264)" xlink:href="#CMR17-84"/>
      <use transform="translate(183.875135 0)scale(0.996264)" xlink:href="#CMR17-74"/>
     </g>
    </g>
    <g id="patch_30">
     <path d="M 76.197325 79.921841 
L 114.197325 79.921841 
L 114.197325 66.621841 
L 76.197325 66.621841 
z
" style="fill:#ff7f0e;"/>
    </g>
    <g id="text_16">
     <!-- LFTJ + CSR -->
     <defs>
      <path d="M 37.703125 23 
L 64.203125 23 
C 65.59375 23 67.296875 23 67.296875 24.6875 
C 67.296875 26.484375 65.703125 26.484375 64.203125 26.484375 
L 37.703125 26.484375 
L 37.703125 52.90625 
C 37.703125 54.296875 37.703125 56 36 56 
C 34.203125 56 34.203125 54.40625 34.203125 52.90625 
L 34.203125 26.484375 
L 7.703125 26.484375 
C 6.296875 26.484375 4.59375 26.484375 4.59375 24.796875 
C 4.59375 23 6.203125 23 7.703125 23 
L 34.203125 23 
L 34.203125 -3.40625 
C 34.203125 -4.796875 34.203125 -6.5 35.90625 -6.5 
C 37.703125 -6.5 37.703125 -4.90625 37.703125 -3.40625 
z
" id="CMR17-43"/>
      <path d="M 62.09375 67.015625 
C 62.09375 68.796875 62 68.90625 61.40625 68.90625 
C 61 68.90625 60.90625 68.796875 60.203125 67.609375 
L 55.796875 59.25 
C 50.90625 65.421875 44.90625 69 37.203125 69 
C 20.09375 69 4.59375 54 4.59375 33.5625 
C 4.59375 12.90625 20.09375 -2 37.296875 -2 
C 52.59375 -2 62.09375 11.40625 62.09375 22.828125 
C 62.09375 23.8125 62.09375 24.21875 61.203125 24.21875 
C 60.40625 24.21875 60.40625 23.921875 60.296875 23.03125 
C 59.5 9.140625 49.5 0.59375 38.703125 0.59375 
C 28.5 0.59375 12.203125 7.734375 12.203125 33.546875 
C 12.203125 59.453125 28.796875 66.40625 38.5 66.40625 
C 49.796875 66.40625 58 56.6875 59.90625 42.890625 
C 60.09375 41.6875 60.09375 41.484375 61 41.484375 
C 62.09375 41.484375 62.09375 41.6875 62.09375 43.484375 
z
" id="CMR17-67"/>
      <path d="M 43.796875 67.03125 
C 43.796875 68.8125 43.703125 68.921875 43.09375 68.921875 
C 42.5 68.921875 42.296875 68.515625 41.90625 67.625 
L 38.90625 61.046875 
C 35.09375 66.515625 29.296875 69 23 69 
C 12.796875 69 4.59375 60.953125 4.59375 50.828125 
C 4.59375 47.75 5.296875 43.375 8.703125 39.21875 
C 12.40625 34.65625 15.90625 33.859375 23.90625 31.765625 
C 26.90625 30.96875 31.90625 29.671875 32.90625 29.28125 
C 38.59375 26.90625 41.59375 20.953125 41.59375 15.390625 
C 41.59375 8.234375 36.5 0.59375 27.796875 0.59375 
C 17.09375 0.59375 7.09375 6.546875 6.40625 20.484375 
C 6.296875 22.078125 6.203125 22.171875 5.5 22.171875 
C 4.703125 22.171875 4.59375 22.078125 4.59375 20.078125 
L 4.59375 -0.015625 
C 4.59375 -1.796875 4.703125 -1.90625 5.296875 -1.90625 
C 6 -1.90625 6.203125 -1.40625 7.59375 1.6875 
C 7.703125 1.984375 7.703125 2.1875 9.59375 5.953125 
C 14.59375 -0.609375 23 -2 27.796875 -2 
C 38.703125 -2 46.40625 7.046875 46.40625 17.5625 
C 46.40625 22.71875 44.5 26.6875 43.40625 28.484375 
C 39.203125 34.84375 34.703125 36.03125 29.90625 37.21875 
C 29.203125 37.53125 29 37.53125 23.40625 38.90625 
C 18 40.296875 15.703125 41 13.203125 43.6875 
C 10.40625 46.75 9.40625 49.9375 9.40625 53.109375 
C 9.40625 59.5625 14.59375 66.609375 23.09375 66.609375 
C 33.703125 66.609375 40.296875 59.15625 41.796875 46.765625 
C 42.09375 44.96875 42.203125 44.875 42.90625 44.875 
C 43.796875 44.875 43.796875 45.171875 43.796875 46.859375 
z
" id="CMR17-83"/>
      <path d="M 39.203125 33.53125 
C 48.703125 35.4375 56.703125 41.8125 56.703125 49.78125 
C 56.703125 59.140625 46.09375 67.59375 32.09375 67.59375 
L 5.203125 67.59375 
L 5.203125 65 
C 12.09375 65 13.203125 65 13.203125 60.515625 
L 13.203125 6.484375 
C 13.203125 2 12.09375 2 5.203125 2 
L 5.203125 -0.40625 
C 8.09375 -0.40625 13.296875 -0.40625 16.40625 -0.40625 
C 19.5 -0.40625 24.703125 -0.40625 27.59375 -0.40625 
L 27.59375 2 
C 20.703125 2 19.59375 2 19.59375 6.515625 
L 19.59375 33 
L 31.296875 33 
C 37 33 40.203125 30.6875 41.59375 29.390625 
C 45.59375 25.5 45.59375 22.796875 45.59375 16 
C 45.59375 9.296875 45.59375 5.890625 48.59375 2.5 
C 52.40625 -1.59375 57.5 -2 59.703125 -2 
C 67.09375 -2 68.203125 6.1875 68.203125 7.859375 
C 68.203125 8.4375 68.203125 9.140625 67.296875 9.140625 
C 66.5 9.140625 66.40625 8.546875 66.40625 8.15625 
C 65.90625 1.75 63 -0.40625 59.90625 -0.40625 
C 54.40625 -0.40625 53.796875 5.859375 53.203125 11.9375 
C 52.90625 14.03125 52.703125 15.515625 52.5 17.703125 
C 51.90625 22.6875 51.09375 29.953125 39.203125 33.53125 
z
M 31 34.59375 
L 19.59375 34.59375 
L 19.59375 61.140625 
C 19.59375 64.515625 19.796875 65 23.796875 65 
L 31.09375 65 
C 39.40625 65 49.09375 62.140625 49.09375 49.84375 
C 49.09375 37.0625 38.5 34.59375 31 34.59375 
z
" id="CMR17-82"/>
     </defs>
     <g transform="translate(129.397325 79.921841)scale(0.19 -0.19)">
      <use transform="scale(0.996264)" xlink:href="#CMR17-76"/>
      <use transform="translate(57.381408 0)scale(0.996264)" xlink:href="#CMR17-70"/>
      <use transform="translate(117.365254 0)scale(0.996264)" xlink:href="#CMR17-84"/>
      <use transform="translate(183.875135 0)scale(0.996264)" xlink:href="#CMR17-74"/>
      <use transform="translate(260.922891 0)scale(0.996264)" xlink:href="#CMR17-43"/>
      <use transform="translate(362.713646 0)scale(0.996264)" xlink:href="#CMR17-67"/>
      <use transform="translate(429.223526 0)scale(0.996264)" xlink:href="#CMR17-83"/>
      <use transform="translate(480.118896 0)scale(0.996264)" xlink:href="#CMR17-82"/>
     </g>
    </g>
    <g id="patch_31">
     <path d="M 76.197325 106.403683 
L 114.197325 106.403683 
L 114.197325 93.103683 
L 76.197325 93.103683 
z
" style="fill:#2ca02c;"/>
    </g>
    <g id="text_17">
     <!-- GraphWCOJ -->
     <defs>
      <path d="M 62.09375 19.265625 
C 62.09375 23.015625 62.40625 23.515625 68.59375 23.515625 
L 68.59375 26.09375 
C 66.203125 26 60.796875 26 58.09375 26 
C 55.296875 26 47.5 26 43.703125 26 
L 43.703125 23.515625 
L 46.703125 23.515625 
C 55.296875 23.515625 55.5 22.40625 55.5 18.765625 
L 55.5 12.09375 
C 55.5 0.984375 42.5 0.984375 39.40625 0.984375 
C 29.09375 0.984375 12.203125 7.984375 12.203125 33.75 
C 12.203125 59.5 28.796875 66.40625 38.5 66.40625 
C 49.796875 66.40625 58 56.65625 59.90625 42.828125 
C 60.09375 41.625 60.09375 41.421875 61 41.421875 
C 62.09375 41.421875 62.09375 41.625 62.09375 43.421875 
L 62.09375 67 
C 62.09375 68.78125 62 68.890625 61.40625 68.890625 
C 61 68.890625 60.90625 68.78125 60.203125 67.59375 
L 55.796875 59.234375 
C 50.90625 65.421875 44.90625 69 37.203125 69 
C 20.09375 69 4.59375 54 4.59375 33.5625 
C 4.59375 13.203125 19.796875 -2 37.40625 -2 
C 45.5 -2 53.40625 0.875 56.5 6.515625 
C 58.203125 2.46875 61 -0.3125 61.5 -0.3125 
C 62 -0.3125 62.09375 -0.203125 62.09375 1.5625 
z
" id="CMR17-71"/>
      <path d="M 22 -16.609375 
C 15.59375 -16.609375 15.203125 -16.203125 15.203125 -12.328125 
L 15.203125 6.28125 
C 18.09375 2.09375 22.296875 -0.59375 27.59375 -0.59375 
C 37.59375 -0.59375 47.703125 8.171875 47.703125 21.6875 
C 47.703125 34.234375 39 43.78125 28.703125 43.78125 
C 22.703125 43.78125 17.796875 40.5 15 36.53125 
L 15 43.78125 
L 3.09375 42.6875 
L 3.09375 40.109375 
C 9 40.109375 9.90625 39.5 9.90625 34.734375 
L 9.90625 -12.328125 
C 9.90625 -16.109375 9.5 -16.609375 3.09375 -16.609375 
L 3.09375 -19.1875 
C 5.5 -19 9.90625 -19 12.5 -19 
C 15.09375 -19 19.59375 -19 22 -19.1875 
z
M 15.203125 31.4375 
C 15.203125 32.84375 15.203125 34.921875 19.09375 38.609375 
C 19.59375 39.015625 23 42 28 42 
C 35.296875 42 41.296875 32.9375 41.296875 21.59375 
C 41.296875 10.25 34.90625 1 27 1 
C 23.40625 1 19.5 2.6875 16.5 7.375 
C 15.203125 9.5625 15.203125 10.15625 15.203125 11.75 
z
" id="CMR17-112"/>
      <path d="M 86.296875 58.8125 
C 87.203125 61.5 88.703125 65 94.5 65 
L 94.5 67.59375 
C 92.796875 67.59375 89.296875 67.59375 87.5 67.59375 
C 85 67.59375 80.59375 67.59375 78.203125 67.6875 
L 78.203125 65 
C 82.703125 65 84.59375 62.5 84.59375 60.109375 
C 84.59375 59.40625 84.5 59.015625 84.09375 57.921875 
L 68.59375 8.671875 
L 52.296875 60.515625 
C 52 61.515625 51.90625 61.921875 51.90625 62.3125 
C 51.90625 65 56.296875 65 58.203125 65 
L 58.203125 67.59375 
C 55.296875 67.59375 50.296875 67.59375 47.203125 67.59375 
C 44.703125 67.59375 40.203125 67.59375 37.90625 67.6875 
L 37.90625 65 
C 42.5 65 43.703125 64.703125 44.703125 62.921875 
C 45.09375 62.015625 46.703125 56.84375 46.703125 56.546875 
C 46.703125 56.140625 46.5 55.546875 46.40625 55.25 
L 31.703125 8.765625 
L 15.40625 60.421875 
C 14.90625 61.828125 14.90625 62.015625 14.90625 62.21875 
C 14.90625 65 19.296875 65 21.296875 65 
L 21.296875 67.59375 
C 18.40625 67.59375 13.40625 67.59375 10.296875 67.59375 
C 7.703125 67.59375 3.296875 67.59375 0.90625 67.6875 
L 0.90625 65 
C 6.90625 65 7.296875 64.40625 8.296875 61.21875 
L 27.796875 -0.3125 
C 28.296875 -1.796875 28.296875 -2 29.203125 -2 
C 30 -2 30.296875 -1.796875 30.703125 -0.40625 
L 47.703125 53.640625 
L 64.703125 -0.40625 
C 65.09375 -1.796875 65.40625 -2 66.203125 -2 
C 67.09375 -2 67.09375 -1.796875 67.59375 -0.3125 
z
" id="CMR17-87"/>
      <path d="M 67.296875 33.359375 
C 67.296875 53.703125 52.59375 69 36 69 
C 19 69 4.59375 53.5 4.59375 33.359375 
C 4.59375 13.203125 19.203125 -2 35.90625 -2 
C 53 -2 67.296875 13.5 67.296875 33.359375 
z
M 36 -0.203125 
C 24.59375 -0.203125 12.203125 11.109375 12.203125 34.640625 
C 12.203125 58.0625 25.796875 67.203125 35.90625 67.203125 
C 46.5 67.203125 59.703125 57.78125 59.703125 34.640625 
C 59.703125 10.71875 47 -0.203125 36 -0.203125 
z
" id="CMR17-79"/>
     </defs>
     <g transform="translate(129.397325 106.403683)scale(0.19 -0.19)">
      <use transform="scale(0.996264)" xlink:href="#CMR17-71"/>
      <use transform="translate(72.355346 0)scale(0.996264)" xlink:href="#CMR17-114"/>
      <use transform="translate(107.636114 0)scale(0.996264)" xlink:href="#CMR17-97"/>
      <use transform="translate(153.326591 0)scale(0.996264)" xlink:href="#CMR17-112"/>
      <use transform="translate(204.221961 0)scale(0.996264)" xlink:href="#CMR17-104"/>
      <use transform="translate(255.11733 0)scale(0.996264)" xlink:href="#CMR17-87"/>
      <use transform="translate(347.611526 0)scale(0.996264)" xlink:href="#CMR17-67"/>
      <use transform="translate(414.121407 0)scale(0.996264)" xlink:href="#CMR17-79"/>
      <use transform="translate(485.836195 0)scale(0.996264)" xlink:href="#CMR17-74"/>
     </g>
    </g>
   </g>
  </g>
 </g>
 <defs>
  <clipPath id="p75f0598ac9">
   <rect height="236.675465" width="378.662675" x="59.097325" y="23.04"/>
  </clipPath>
 </defs>
</svg>
