<?xml version="1.0" encoding="utf-8" standalone="no"?>
<!DOCTYPE svg PUBLIC "-//W3C//DTD SVG 1.1//EN"
  "http://www.w3.org/Graphics/SVG/1.1/DTD/svg11.dtd">
<!-- Created with matplotlib (http://matplotlib.org/) -->
<svg height="345pt" version="1.1" viewBox="0 0 460 345" width="460pt" xmlns="http://www.w3.org/2000/svg" xmlns:xlink="http://www.w3.org/1999/xlink">
 <defs>
  <style type="text/css">
*{stroke-linecap:butt;stroke-linejoin:round;}
  </style>
 </defs>
 <g id="figure_1">
  <g id="patch_1">
   <path d="M 0 345.6 
L 460.8 345.6 
L 460.8 0 
L 0 0 
z
" style="fill:#f0f0f0;"/>
  </g>
  <g id="axes_1">
   <g id="patch_2">
    <path d="M 53.0142 313.032304 
L 445.68 313.032304 
L 445.68 19.962938 
L 53.0142 19.962938 
z
" style="fill:#f0f0f0;"/>
   </g>
   <g id="matplotlib.axis_1">
    <g id="xtick_1">
     <g id="line2d_1"/>
     <g id="text_1">
      <!-- Clique(3) -->
      <defs>
       <path d="M 62.09375 67.015625 
C 62.09375 68.796875 62 68.90625 61.40625 68.90625 
C 61 68.90625 60.90625 68.796875 60.203125 67.609375 
L 55.796875 59.25 
C 50.90625 65.421875 44.90625 69 37.203125 69 
C 20.09375 69 4.59375 54 4.59375 33.5625 
C 4.59375 12.90625 20.09375 -2 37.296875 -2 
C 52.59375 -2 62.09375 11.40625 62.09375 22.828125 
C 62.09375 23.8125 62.09375 24.21875 61.203125 24.21875 
C 60.40625 24.21875 60.40625 23.921875 60.296875 23.03125 
C 59.5 9.140625 49.5 0.59375 38.703125 0.59375 
C 28.5 0.59375 12.203125 7.734375 12.203125 33.546875 
C 12.203125 59.453125 28.796875 66.40625 38.5 66.40625 
C 49.796875 66.40625 58 56.6875 59.90625 42.890625 
C 60.09375 41.6875 60.09375 41.484375 61 41.484375 
C 62.09375 41.484375 62.09375 41.6875 62.09375 43.484375 
z
" id="CMR17-67"/>
       <path d="M 15.296875 68.6875 
L 3.40625 67.59375 
L 3.40625 65 
C 9.296875 65 10.203125 64.40625 10.203125 59.640625 
L 10.203125 6.65625 
C 10.203125 2.875 9.796875 2.390625 3.40625 2.390625 
L 3.40625 -0.203125 
C 5.796875 0 10.203125 0 12.703125 0 
C 15.296875 0 19.703125 0 22.09375 -0.203125 
L 22.09375 2.390625 
C 15.703125 2.390625 15.296875 2.78125 15.296875 6.65625 
z
" id="CMR17-108"/>
       <path d="M 15.5 61.078125 
C 15.5 63.265625 13.703125 65.15625 11.40625 65.15625 
C 9.203125 65.15625 7.296875 63.375 7.296875 61.078125 
C 7.296875 58.890625 9.09375 57 11.40625 57 
C 13.59375 57 15.5 58.796875 15.5 61.078125 
z
M 3.796875 42.28125 
L 3.796875 39.703125 
C 9.40625 39.703125 10.203125 39.09375 10.203125 34.328125 
L 10.203125 6.671875 
C 10.203125 2.875 9.796875 2.390625 3.40625 2.390625 
L 3.40625 -0.203125 
C 5.796875 0 10.09375 0 12.59375 0 
C 15 0 19.09375 0 21.40625 -0.203125 
L 21.40625 2.390625 
C 15.5 2.390625 15.296875 2.984375 15.296875 6.5625 
L 15.296875 43.375 
z
" id="CMR17-105"/>
       <path d="M 41.09375 43.78125 
L 39.5 43.78125 
L 36.5 33.9375 
C 34.203125 39.203125 30 43.78125 23.296875 43.78125 
C 13.09375 43.78125 3.296875 34.734375 3.296875 21.609375 
C 3.296875 8.5625 12.5 -0.59375 22.5 -0.59375 
C 30.203125 -0.59375 34.5 5.28125 35.796875 7.46875 
L 35.796875 -12.328125 
C 35.796875 -16.109375 35.40625 -16.609375 29 -16.609375 
L 29 -19.1875 
C 31.40625 -19 35.796875 -19 38.40625 -19 
C 41 -19 45.5 -19 47.90625 -19.1875 
L 47.90625 -16.609375 
C 41.5 -16.609375 41.09375 -16.203125 41.09375 -12.328125 
z
M 36 13.84375 
C 36 9.5625 32.40625 5.578125 32.09375 5.28125 
C 29 1.796875 25.40625 1 23 1 
C 15.5 1 9.703125 10.453125 9.703125 21.484375 
C 9.703125 33.140625 16.296875 42 24 42 
C 32 42 36 32.9375 36 27.765625 
z
" id="CMR17-113"/>
       <path d="M 29.40625 42.078125 
L 29.40625 39.5 
C 35.296875 39.5 36.203125 38.890625 36.203125 34.15625 
L 36.203125 16.125 
C 36.203125 7.8125 31.703125 0.59375 24.296875 0.59375 
C 16.09375 0.59375 15.40625 5.4375 15.40625 10.59375 
L 15.40625 43.171875 
L 3.296875 42.078125 
L 3.296875 39.5 
C 7.296875 39.5 10 39.5 10.09375 35.53125 
L 10.09375 16.53125 
C 10.09375 9.890625 10.09375 5.640625 12.703125 2.859375 
C 14 1.578125 16.5 -1 23.703125 -1 
C 32.203125 -1 35.5 5.890625 36.296875 7.90625 
L 36.40625 7.90625 
L 36.40625 -0.984375 
L 48.296875 -0.984375 
L 48.296875 2 
C 42.40625 2 41.5 2.59375 41.5 7.390625 
L 41.5 43.171875 
z
" id="CMR17-117"/>
       <path d="M 38.09375 23 
C 38.5 23.40625 38.5 23.609375 38.5 24.625 
C 38.5 34.96875 33.09375 44 21.703125 44 
C 11.09375 44 2.703125 33.890625 2.703125 21.609375 
C 2.703125 8.609375 12.203125 -1 22.796875 -1 
C 34 -1 38.40625 9.484375 38.40625 11.5625 
C 38.40625 12.25 37.796875 12.25 37.59375 12.25 
C 36.90625 12.25 36.796875 12.046875 36.40625 10.875 
C 34.203125 4.140625 28.703125 0.796875 23.5 0.796875 
C 19.203125 0.796875 14.90625 3.171875 12.203125 7.5 
C 9.09375 12.546875 9.09375 18.375 9.09375 23 
z
M 9.203125 24.5 
C 9.90625 39.140625 17.59375 42.40625 21.59375 42.40625 
C 28.40625 42.40625 33 35.890625 33.09375 24.5 
z
" id="CMR17-101"/>
       <path d="M 30.59375 -24.390625 
C 30.59375 -24.296875 30.59375 -24.09375 30.296875 -23.796875 
C 25.703125 -19.125 13.40625 -6.359375 13.40625 24.703125 
C 13.40625 55.765625 25.5 68.421875 30.40625 73.390625 
C 30.40625 73.5 30.59375 73.703125 30.59375 74 
C 30.59375 74.296875 30.296875 74.5 29.90625 74.5 
C 28.796875 74.5 20.296875 67.125 15.40625 56.15625 
C 10.40625 45.109375 9 34.359375 9 24.8125 
C 9 17.625 9.703125 5.484375 15.703125 -7.359375 
C 20.5 -17.734375 28.703125 -25 29.90625 -25 
C 30.40625 -25 30.59375 -24.796875 30.59375 -24.390625 
z
" id="CMR17-40"/>
       <path d="M 22.09375 33.703125 
C 31 33.703125 34.90625 25.96875 34.90625 17.03125 
C 34.90625 5 28.5 0.390625 22.703125 0.390625 
C 17.40625 0.390625 8.796875 3.03125 6.09375 10.828125 
C 6.59375 10.625 7.09375 10.625 7.59375 10.625 
C 10 10.625 11.796875 12.21875 11.796875 14.8125 
C 11.796875 17.703125 9.59375 19 7.59375 19 
C 5.90625 19 3.296875 18.203125 3.296875 14.46875 
C 3.296875 5.234375 12.296875 -2 22.90625 -2 
C 34 -2 42.5 6.71875 42.5 16.953125 
C 42.5 26.671875 34.5 33.703125 25 34.796875 
C 32.59375 36.375 39.90625 43.0625 39.90625 52.015625 
C 39.90625 59.6875 32 65.296875 23 65.296875 
C 13.90625 65.296875 5.90625 59.828125 5.90625 52.015625 
C 5.90625 48.59375 8.5 48 9.796875 48 
C 11.90625 48 13.703125 49.296875 13.703125 51.890625 
C 13.703125 54.46875 11.90625 55.765625 9.796875 55.765625 
C 9.40625 55.765625 8.90625 55.765625 8.5 55.578125 
C 11.40625 61.859375 19.296875 63 22.796875 63 
C 26.296875 63 32.90625 61.328125 32.90625 51.875 
C 32.90625 49.109375 32.5 44.1875 29.09375 39.84375 
C 26.09375 36 22.703125 36 19.40625 35.6875 
C 18.90625 35.6875 16.59375 35.453125 16.203125 35.453125 
C 15.5 35.359375 15.09375 35.265625 15.09375 34.5 
C 15.09375 33.796875 15.203125 33.703125 17.203125 33.703125 
z
" id="CMR17-51"/>
       <path d="M 26.296875 24.703125 
C 26.296875 31.875 25.59375 44.015625 19.59375 56.859375 
C 14.796875 67.234375 6.59375 74.5 5.40625 74.5 
C 5.09375 74.5 4.703125 74.390625 4.703125 73.890625 
C 4.703125 73.703125 4.796875 73.59375 4.90625 73.390625 
C 9.703125 68.40625 21.90625 55.75 21.90625 24.75 
C 21.90625 -6.359375 9.796875 -19.015625 4.90625 -24.015625 
C 4.796875 -24.203125 4.703125 -24.3125 4.703125 -24.5 
C 4.703125 -25 5.09375 -25 5.40625 -25 
C 6.5 -25 15 -17.625 19.90625 -6.65625 
C 24.90625 4.390625 26.296875 15.140625 26.296875 24.703125 
z
" id="CMR17-41"/>
      </defs>
      <g transform="translate(57.853355 326.993076)scale(0.14 -0.14)">
       <use transform="scale(0.996264)" xlink:href="#CMR17-67"/>
       <use transform="translate(66.509881 0)scale(0.996264)" xlink:href="#CMR17-108"/>
       <use transform="translate(91.380939 0)scale(0.996264)" xlink:href="#CMR17-105"/>
       <use transform="translate(116.251998 0)scale(0.996264)" xlink:href="#CMR17-113"/>
       <use transform="translate(164.544913 0)scale(0.996264)" xlink:href="#CMR17-117"/>
       <use transform="translate(215.440283 0)scale(0.996264)" xlink:href="#CMR17-101"/>
       <use transform="translate(255.925944 0)scale(0.996264)" xlink:href="#CMR17-40"/>
       <use transform="translate(291.206711 0)scale(0.996264)" xlink:href="#CMR17-51"/>
       <use transform="translate(336.897189 0)scale(0.996264)" xlink:href="#CMR17-41"/>
      </g>
     </g>
    </g>
    <g id="xtick_2">
     <g id="line2d_2"/>
     <g id="text_2">
      <!-- Clique(4) -->
      <defs>
       <path d="M 33.59375 64.40625 
C 33.59375 66.5 33.5 66.5 31.703125 66.5 
L 2 19.59375 
L 2 17 
L 27.796875 17 
L 27.796875 7.140625 
C 27.796875 3.5 27.59375 2.5 20.59375 2.5 
L 18.703125 2.5 
L 18.703125 0 
C 21.90625 0 27.296875 0 30.703125 0 
C 34.09375 0 39.5 0 42.703125 0 
L 42.703125 2.5 
L 40.796875 2.5 
C 33.796875 2.5 33.59375 3.5 33.59375 7.140625 
L 33.59375 17 
L 43.796875 17 
L 43.796875 19.59375 
L 33.59375 19.59375 
z
M 28.09375 57.859375 
L 28.09375 19.59375 
L 4 19.59375 
z
" id="CMR17-52"/>
      </defs>
      <g transform="translate(123.297655 326.993076)scale(0.14 -0.14)">
       <use transform="scale(0.996264)" xlink:href="#CMR17-67"/>
       <use transform="translate(66.509881 0)scale(0.996264)" xlink:href="#CMR17-108"/>
       <use transform="translate(91.380939 0)scale(0.996264)" xlink:href="#CMR17-105"/>
       <use transform="translate(116.251998 0)scale(0.996264)" xlink:href="#CMR17-113"/>
       <use transform="translate(164.544913 0)scale(0.996264)" xlink:href="#CMR17-117"/>
       <use transform="translate(215.440283 0)scale(0.996264)" xlink:href="#CMR17-101"/>
       <use transform="translate(255.925944 0)scale(0.996264)" xlink:href="#CMR17-40"/>
       <use transform="translate(291.206711 0)scale(0.996264)" xlink:href="#CMR17-52"/>
       <use transform="translate(336.897189 0)scale(0.996264)" xlink:href="#CMR17-41"/>
      </g>
     </g>
    </g>
    <g id="xtick_3">
     <g id="line2d_3"/>
     <g id="text_3">
      <!-- Clique(5) -->
      <defs>
       <path d="M 11.40625 57.6875 
C 12.40625 57.28125 16.5 56 20.703125 56 
C 30 56 35.09375 61.109375 38 64.0625 
C 38 64.953125 38 65.5 37.40625 65.5 
C 37.296875 65.5 37.09375 65.5 36.296875 65.046875 
C 32.796875 63.40625 28.703125 62.078125 23.703125 62.078125 
C 20.703125 62.078125 16.203125 62.484375 11.296875 64.671875 
C 10.203125 65.171875 10 65.171875 9.90625 65.171875 
C 9.40625 65.171875 9.296875 65.0625 9.296875 63.078125 
L 9.296875 34.421875 
C 9.296875 32.640625 9.296875 32.140625 10.296875 32.140625 
C 10.796875 32.140625 11 32.34375 11.5 33.03125 
C 14.703125 37.515625 19.09375 39.40625 24.09375 39.40625 
C 27.59375 39.40625 35.09375 37.21875 35.09375 20.140625 
C 35.09375 16.953125 35.09375 11.171875 32.09375 6.578125 
C 29.59375 2.484375 25.703125 0.390625 21.40625 0.390625 
C 14.796875 0.390625 8.09375 5 6.296875 12.71875 
C 6.703125 12.609375 7.5 12.421875 7.90625 12.421875 
C 9.203125 12.421875 11.703125 13.125 11.703125 16.21875 
C 11.703125 18.90625 9.796875 20 7.90625 20 
C 5.59375 20 4.09375 18.59375 4.09375 15.796875 
C 4.09375 7.09375 11 -2 21.59375 -2 
C 31.90625 -2 41.703125 6.875 41.703125 19.75 
C 41.703125 31.71875 33.90625 41 24.203125 41 
C 19.09375 41 14.796875 39.109375 11.40625 35.53125 
z
" id="CMR17-53"/>
      </defs>
      <g transform="translate(188.741955 326.993076)scale(0.14 -0.14)">
       <use transform="scale(0.996264)" xlink:href="#CMR17-67"/>
       <use transform="translate(66.509881 0)scale(0.996264)" xlink:href="#CMR17-108"/>
       <use transform="translate(91.380939 0)scale(0.996264)" xlink:href="#CMR17-105"/>
       <use transform="translate(116.251998 0)scale(0.996264)" xlink:href="#CMR17-113"/>
       <use transform="translate(164.544913 0)scale(0.996264)" xlink:href="#CMR17-117"/>
       <use transform="translate(215.440283 0)scale(0.996264)" xlink:href="#CMR17-101"/>
       <use transform="translate(255.925944 0)scale(0.996264)" xlink:href="#CMR17-40"/>
       <use transform="translate(291.206711 0)scale(0.996264)" xlink:href="#CMR17-53"/>
       <use transform="translate(336.897189 0)scale(0.996264)" xlink:href="#CMR17-41"/>
      </g>
     </g>
    </g>
    <g id="xtick_4">
     <g id="line2d_4"/>
     <g id="text_4">
      <!-- Cycle(4) -->
      <defs>
       <path d="M 39 34.328125 
C 41.5 40.40625 46 40.40625 47.40625 40.40625 
L 47.40625 43 
C 45.5 43 43 43 41.09375 43 
C 39 43 35.703125 43 33.703125 43.09375 
L 33.703125 40.5 
C 37.5 40.203125 37.59375 37.40625 37.59375 36.609375 
C 37.59375 35.625 37.40625 35.125 36.90625 33.921875 
L 26 7.015625 
L 14.09375 36.03125 
C 13.59375 37.21875 13.59375 37.90625 13.59375 38.015625 
C 13.59375 40.203125 15.90625 40.40625 18.296875 40.40625 
L 18.296875 43.09375 
C 15.90625 43 11.59375 43 9.09375 43 
C 6.40625 43 3.203125 43 1 43.09375 
L 1 40.40625 
C 6.40625 40.40625 7 39.90625 8.296875 36.71875 
L 23.203125 0.234375 
C 18.703125 -11.53125 16.09375 -18.40625 9.796875 -18.40625 
C 8.703125 -18.40625 6.203125 -18.109375 4.40625 -16.3125 
C 6.703125 -16.109375 7.703125 -14.71875 7.703125 -13.015625 
C 7.703125 -11.328125 6.5 -9.828125 4.5 -9.828125 
C 2.296875 -9.828125 1.203125 -11.328125 1.203125 -13.125 
C 1.203125 -17.109375 5.296875 -20 9.796875 -20 
C 15.59375 -20 19.203125 -14.40625 21.203125 -9.4375 
z
" id="CMR17-121"/>
       <path d="M 34.90625 35 
C 33 35 30.203125 35 30.203125 31.515625 
C 30.203125 28.71875 32.5 27.921875 33.796875 27.921875 
C 34.5 27.921875 37.40625 28.234375 37.40625 31.625 
C 37.40625 38.546875 30.59375 43.796875 22.90625 43.796875 
C 12.296875 43.796875 3.296875 34.03125 3.296875 21.296875 
C 3.296875 8.0625 12.703125 -1 22.90625 -1 
C 35.296875 -1 38.40625 10.578125 38.40625 11.6875 
C 38.40625 12.09375 38.296875 12.390625 37.59375 12.390625 
C 36.90625 12.390625 36.796875 12.296875 36.40625 10.984375 
C 33.796875 2.8125 28.09375 0.796875 23.796875 0.796875 
C 17.40625 0.796875 9.703125 6.671875 9.703125 21.390625 
C 9.703125 36.53125 17.09375 42 23 42 
C 26.90625 42 32.703125 40.203125 34.90625 35 
z
" id="CMR17-99"/>
      </defs>
      <g transform="translate(256.841778 326.993076)scale(0.14 -0.14)">
       <use transform="scale(0.996264)" xlink:href="#CMR17-67"/>
       <use transform="translate(66.509881 0)scale(0.996264)" xlink:href="#CMR17-121"/>
       <use transform="translate(114.802796 0)scale(0.996264)" xlink:href="#CMR17-99"/>
       <use transform="translate(155.288457 0)scale(0.996264)" xlink:href="#CMR17-108"/>
       <use transform="translate(180.159515 0)scale(0.996264)" xlink:href="#CMR17-101"/>
       <use transform="translate(220.645176 0)scale(0.996264)" xlink:href="#CMR17-40"/>
       <use transform="translate(255.925944 0)scale(0.996264)" xlink:href="#CMR17-52"/>
       <use transform="translate(301.616421 0)scale(0.996264)" xlink:href="#CMR17-41"/>
      </g>
     </g>
    </g>
    <g id="xtick_5">
     <g id="line2d_5"/>
     <g id="text_5">
      <!-- Cycle(5) -->
      <g transform="translate(322.286078 326.993076)scale(0.14 -0.14)">
       <use transform="scale(0.996264)" xlink:href="#CMR17-67"/>
       <use transform="translate(66.509881 0)scale(0.996264)" xlink:href="#CMR17-121"/>
       <use transform="translate(114.802796 0)scale(0.996264)" xlink:href="#CMR17-99"/>
       <use transform="translate(155.288457 0)scale(0.996264)" xlink:href="#CMR17-108"/>
       <use transform="translate(180.159515 0)scale(0.996264)" xlink:href="#CMR17-101"/>
       <use transform="translate(220.645176 0)scale(0.996264)" xlink:href="#CMR17-40"/>
       <use transform="translate(255.925944 0)scale(0.996264)" xlink:href="#CMR17-53"/>
       <use transform="translate(301.616421 0)scale(0.996264)" xlink:href="#CMR17-41"/>
      </g>
     </g>
    </g>
    <g id="xtick_6">
     <g id="line2d_6"/>
     <g id="text_6">
      <!-- Cycle(6) -->
      <defs>
       <path d="M 10.59375 34 
C 10.59375 57.65625 21.796875 63 28.296875 63 
C 30.40625 63 35.5 62.640625 37.5 59 
C 35.90625 59 32.90625 59 32.90625 55.515625 
C 32.90625 52.828125 35.09375 51.921875 36.5 51.921875 
C 37.40625 51.921875 40.09375 52.3125 40.09375 55.625 
C 40.09375 61.78125 35.09375 65.296875 28.203125 65.296875 
C 16.296875 65.296875 3.796875 52.96875 3.796875 31 
C 3.796875 3.953125 15.09375 -2 23.09375 -2 
C 32.796875 -2 42 6.671875 42 20.046875 
C 42 32.515625 33.90625 41.59375 23.703125 41.59375 
C 17.59375 41.59375 13.09375 37.609375 10.59375 30.625 
z
M 23.09375 0.390625 
C 10.796875 0.390625 10.796875 18.75 10.796875 22.4375 
C 10.796875 29.625 14.203125 40 23.5 40 
C 25.203125 40 30.09375 40 33.40625 33.125 
C 35.203125 29.21875 35.203125 25.140625 35.203125 20.140625 
C 35.203125 14.75 35.203125 10.78125 33.09375 6.78125 
C 30.90625 2.671875 27.703125 0.390625 23.09375 0.390625 
z
" id="CMR17-54"/>
      </defs>
      <g transform="translate(387.730378 326.993076)scale(0.14 -0.14)">
       <use transform="scale(0.996264)" xlink:href="#CMR17-67"/>
       <use transform="translate(66.509881 0)scale(0.996264)" xlink:href="#CMR17-121"/>
       <use transform="translate(114.802796 0)scale(0.996264)" xlink:href="#CMR17-99"/>
       <use transform="translate(155.288457 0)scale(0.996264)" xlink:href="#CMR17-108"/>
       <use transform="translate(180.159515 0)scale(0.996264)" xlink:href="#CMR17-101"/>
       <use transform="translate(220.645176 0)scale(0.996264)" xlink:href="#CMR17-40"/>
       <use transform="translate(255.925944 0)scale(0.996264)" xlink:href="#CMR17-54"/>
       <use transform="translate(301.616421 0)scale(0.996264)" xlink:href="#CMR17-41"/>
      </g>
     </g>
    </g>
   </g>
   <g id="matplotlib.axis_2">
    <g id="ytick_1">
     <g id="line2d_7">
      <path clip-path="url(#p99b7e90654)" d="M 53.0142 313.032304 
L 445.68 313.032304 
" style="fill:none;stroke:#cbcbcb;"/>
     </g>
     <g id="line2d_8"/>
     <g id="text_7">
      <!-- $0$ -->
      <defs>
       <path d="M 42 31.640625 
C 42 37.75 41.90625 48.125 37.703125 56.109375 
C 34 63.109375 28.09375 65.59375 22.90625 65.59375 
C 18.09375 65.59375 12 63.40625 8.203125 56.203125 
C 4.203125 48.71875 3.796875 39.4375 3.796875 31.640625 
C 3.796875 25.953125 3.90625 17.28125 7 9.671875 
C 11.296875 -0.609375 19 -2 22.90625 -2 
C 27.5 -2 34.5 -0.109375 38.59375 9.375 
C 41.59375 16.28125 42 24.359375 42 31.640625 
z
M 22.90625 -0.40625 
C 16.5 -0.40625 12.703125 5.078125 11.296875 12.6875 
C 10.203125 18.5625 10.203125 27.15625 10.203125 32.75 
C 10.203125 40.4375 10.203125 46.828125 11.5 52.921875 
C 13.40625 61.390625 19 64 22.90625 64 
C 27 64 32.296875 61.296875 34.203125 53.125 
C 35.5 47.4375 35.59375 40.734375 35.59375 32.75 
C 35.59375 26.25 35.59375 18.265625 34.40625 12.375 
C 32.296875 1.484375 26.40625 -0.40625 22.90625 -0.40625 
z
" id="CMR17-48"/>
      </defs>
      <g transform="translate(42.685712 317.875242)scale(0.14 -0.14)">
       <use transform="scale(0.996264)" xlink:href="#CMR17-48"/>
      </g>
     </g>
    </g>
    <g id="ytick_2">
     <g id="line2d_9">
      <path clip-path="url(#p99b7e90654)" d="M 53.0142 254.418431 
L 445.68 254.418431 
" style="fill:none;stroke:#cbcbcb;"/>
     </g>
     <g id="line2d_10"/>
     <g id="text_8">
      <!-- $10$ -->
      <defs>
       <path d="M 26.59375 63.40625 
C 26.59375 65.5 26.5 65.5 25.09375 65.5 
C 21.203125 61.1875 15.296875 59.796875 9.703125 59.796875 
C 9.40625 59.796875 8.90625 59.796875 8.796875 59.5 
C 8.703125 59.296875 8.703125 59.09375 8.703125 57 
C 11.796875 57 17 57.59375 21 59.984375 
L 21 7.203125 
C 21 3.6875 20.796875 2.5 12.203125 2.5 
L 9.203125 2.5 
L 9.203125 0 
C 14 0 19 0 23.796875 0 
C 28.59375 0 33.59375 0 38.40625 0 
L 38.40625 2.5 
L 35.40625 2.5 
C 26.796875 2.5 26.59375 3.59375 26.59375 7.15625 
z
" id="CMR17-49"/>
      </defs>
      <g transform="translate(35.857223 259.261369)scale(0.14 -0.14)">
       <use transform="scale(0.996264)" xlink:href="#CMR17-49"/>
       <use transform="translate(45.690477 0)scale(0.996264)" xlink:href="#CMR17-48"/>
      </g>
     </g>
    </g>
    <g id="ytick_3">
     <g id="line2d_11">
      <path clip-path="url(#p99b7e90654)" d="M 53.0142 195.804558 
L 445.68 195.804558 
" style="fill:none;stroke:#cbcbcb;"/>
     </g>
     <g id="line2d_12"/>
     <g id="text_9">
      <!-- $20$ -->
      <defs>
       <path d="M 41.703125 15.453125 
L 39.90625 15.453125 
C 38.90625 8.375 38.09375 7.171875 37.703125 6.5625 
C 37.203125 5.765625 30 5.765625 28.59375 5.765625 
L 9.40625 5.765625 
C 13 9.671875 20 16.75 28.5 24.953125 
C 34.59375 30.734375 41.703125 37.53125 41.703125 47.421875 
C 41.703125 59.21875 32.296875 66 21.796875 66 
C 10.796875 66 4.09375 56.3125 4.09375 47.34375 
C 4.09375 43.4375 7 42.9375 8.203125 42.9375 
C 9.203125 42.9375 12.203125 43.546875 12.203125 47.03125 
C 12.203125 50.109375 9.59375 51 8.203125 51 
C 7.59375 51 7 50.90625 6.59375 50.703125 
C 8.5 59.21875 14.296875 63.40625 20.40625 63.40625 
C 29.09375 63.40625 34.796875 56.515625 34.796875 47.421875 
C 34.796875 38.734375 29.703125 31.25 24 24.75 
L 4.09375 2.28125 
L 4.09375 0 
L 39.296875 0 
z
" id="CMR17-50"/>
      </defs>
      <g transform="translate(35.857223 200.647496)scale(0.14 -0.14)">
       <use transform="scale(0.996264)" xlink:href="#CMR17-50"/>
       <use transform="translate(45.690477 0)scale(0.996264)" xlink:href="#CMR17-48"/>
      </g>
     </g>
    </g>
    <g id="ytick_4">
     <g id="line2d_13">
      <path clip-path="url(#p99b7e90654)" d="M 53.0142 137.190684 
L 445.68 137.190684 
" style="fill:none;stroke:#cbcbcb;"/>
     </g>
     <g id="line2d_14"/>
     <g id="text_10">
      <!-- $30$ -->
      <g transform="translate(35.857223 142.033623)scale(0.14 -0.14)">
       <use transform="scale(0.996264)" xlink:href="#CMR17-51"/>
       <use transform="translate(45.690477 0)scale(0.996264)" xlink:href="#CMR17-48"/>
      </g>
     </g>
    </g>
    <g id="ytick_5">
     <g id="line2d_15">
      <path clip-path="url(#p99b7e90654)" d="M 53.0142 78.576811 
L 445.68 78.576811 
" style="fill:none;stroke:#cbcbcb;"/>
     </g>
     <g id="line2d_16"/>
     <g id="text_11">
      <!-- $40$ -->
      <g transform="translate(35.857223 83.41975)scale(0.14 -0.14)">
       <use transform="scale(0.996264)" xlink:href="#CMR17-52"/>
       <use transform="translate(45.690477 0)scale(0.996264)" xlink:href="#CMR17-48"/>
      </g>
     </g>
    </g>
    <g id="ytick_6">
     <g id="line2d_17">
      <path clip-path="url(#p99b7e90654)" d="M 53.0142 19.962938 
L 445.68 19.962938 
" style="fill:none;stroke:#cbcbcb;"/>
     </g>
     <g id="line2d_18"/>
     <g id="text_12">
      <!-- $50$ -->
      <g transform="translate(35.857223 24.805876)scale(0.14 -0.14)">
       <use transform="scale(0.996264)" xlink:href="#CMR17-53"/>
       <use transform="translate(45.690477 0)scale(0.996264)" xlink:href="#CMR17-48"/>
      </g>
     </g>
    </g>
    <g id="text_13">
     <!-- Time [s] -->
     <defs>
      <path d="M 62.203125 67.59375 
L 4.5 67.59375 
L 2.796875 45.59375 
L 4.59375 45.59375 
C 5.90625 62.125 7.296875 65 22.703125 65 
C 24.5 65 27.40625 65 28.203125 64.90625 
C 30.09375 64.609375 30.09375 63.40625 30.09375 61.125 
L 30.09375 7.171875 
C 30.09375 3.59375 29.796875 2.5 21.5 2.5 
L 18.703125 2.5 
L 18.703125 0 
C 23.5 0 28.5 0 33.40625 0 
C 38.296875 0 43.296875 0 48.09375 0 
L 48.09375 2.5 
L 45.296875 2.5 
C 37 2.5 36.703125 3.59375 36.703125 7.171875 
L 36.703125 61.125 
C 36.703125 63.3125 36.703125 64.515625 38.5 64.90625 
C 39.296875 65 42.203125 65 44 65 
C 59.296875 65 60.796875 62.125 62.09375 45.59375 
L 63.90625 45.59375 
z
" id="CMR17-84"/>
      <path d="M 67.59375 30.203125 
C 67.59375 35.1875 66.703125 43.59375 54.796875 43.59375 
C 48 43.59375 43.296875 39 41.5 33.609375 
L 41.40625 33.609375 
C 40.203125 41.8125 34.296875 43.59375 28.703125 43.59375 
C 20.796875 43.59375 16.703125 37.5 15.203125 33.5 
L 15.09375 33.5 
L 15.09375 43.59375 
L 3.296875 42.5 
L 3.296875 39.90625 
C 9.203125 39.90625 10.09375 39.296875 10.09375 34.5 
L 10.09375 6.6875 
C 10.09375 2.875 9.703125 2.390625 3.296875 2.390625 
L 3.296875 -0.203125 
C 5.703125 0 10.09375 0 12.703125 0 
C 15.296875 0 19.796875 0 22.203125 -0.203125 
L 22.203125 2.390625 
C 15.796875 2.390625 15.40625 2.78125 15.40625 6.6875 
L 15.40625 25.90625 
C 15.40625 35.109375 21 42 28 42 
C 35.40625 42 36.203125 35.40625 36.203125 30.59375 
L 36.203125 6.6875 
C 36.203125 2.875 35.796875 2.390625 29.40625 2.390625 
L 29.40625 -0.203125 
C 31.796875 0 36.203125 0 38.796875 0 
C 41.40625 0 45.90625 0 48.296875 -0.203125 
L 48.296875 2.390625 
C 41.90625 2.390625 41.5 2.78125 41.5 6.6875 
L 41.5 25.90625 
C 41.5 35.109375 47.09375 42 54.09375 42 
C 61.5 42 62.296875 35.40625 62.296875 30.59375 
L 62.296875 6.6875 
C 62.296875 2.875 61.90625 2.390625 55.5 2.390625 
L 55.5 -0.203125 
C 57.90625 0 62.296875 0 64.90625 0 
C 67.5 0 72 0 74.40625 -0.203125 
L 74.40625 2.390625 
C 68 2.390625 67.59375 2.78125 67.59375 6.6875 
z
" id="CMR17-109"/>
      <path d="M 23.5 -25 
L 23.5 -21.515625 
L 14.09375 -21.515625 
L 14.09375 71 
L 23.5 71 
L 23.5 74.484375 
L 10.59375 74.484375 
L 10.59375 -25 
z
" id="CMR17-91"/>
      <path d="M 30.90625 42.140625 
C 30.90625 43.953125 30.796875 44.046875 30.203125 44.046875 
C 29.796875 44.046875 29.703125 43.953125 28.5 42.453125 
C 28.203125 42.046875 27.296875 41.03125 27 40.640625 
C 23.796875 44.046875 19.296875 44.046875 17.59375 44.046875 
C 6.5 44.046875 2.5 38.234375 2.5 32.4375 
C 2.5 23.40625 12.703125 21.328125 15.59375 20.703125 
C 21.90625 19.421875 24.09375 19.015625 26.203125 17.203125 
C 27.5 16.015625 29.703125 13.8125 29.703125 10.21875 
C 29.703125 6 27.296875 0.59375 18.09375 0.59375 
C 9.40625 0.59375 6.296875 7.1875 4.5 15.953125 
C 4.203125 17.34375 4.203125 17.453125 3.40625 17.453125 
C 2.59375 17.453125 2.5 17.34375 2.5 15.359375 
L 2.5 0.984375 
C 2.5 -0.796875 2.59375 -0.90625 3.203125 -0.90625 
C 3.703125 -0.90625 3.796875 -0.796875 4.296875 0 
C 4.90625 0.890625 6.40625 3.296875 7 4.3125 
C 9 1.609375 12.5 -1 18.09375 -1 
C 28 -1 33.296875 4.421875 33.296875 12.25 
C 33.296875 17.375 30.59375 20.078125 29.296875 21.28125 
C 26.296875 24.390625 22.796875 25.09375 18.59375 25.890625 
C 13.09375 27.109375 6.09375 28.515625 6.09375 34.640625 
C 6.09375 37.234375 7.5 42.765625 17.59375 42.765625 
C 28.296875 42.765625 28.90625 32.71875 29.09375 29.5 
C 29.203125 29 29.703125 28.890625 30 28.890625 
C 30.90625 28.890625 30.90625 29.203125 30.90625 30.90625 
z
" id="CMR17-115"/>
      <path d="M 14.296875 74.484375 
L 1.40625 74.484375 
L 1.40625 71 
L 10.796875 71 
L 10.796875 -21.515625 
L 1.40625 -21.515625 
L 1.40625 -25 
L 14.296875 -25 
z
" id="CMR17-93"/>
     </defs>
     <g transform="translate(27.672917 195.678028)rotate(-90)scale(0.168 -0.168)">
      <use transform="scale(0.996264)" xlink:href="#CMR17-84"/>
      <use transform="translate(66.509881 0)scale(0.996264)" xlink:href="#CMR17-105"/>
      <use transform="translate(91.380939 0)scale(0.996264)" xlink:href="#CMR17-109"/>
      <use transform="translate(168.300529 0)scale(0.996264)" xlink:href="#CMR17-101"/>
      <use transform="translate(238.862156 0)scale(0.996264)" xlink:href="#CMR17-91"/>
      <use transform="translate(263.733214 0)scale(0.996264)" xlink:href="#CMR17-115"/>
      <use transform="translate(299.534552 0)scale(0.996264)" xlink:href="#CMR17-93"/>
     </g>
    </g>
   </g>
   <g id="patch_3">
    <path clip-path="url(#p99b7e90654)" d="M 69.375275 313.032304 
L 85.73635 313.032304 
L 85.73635 294.979231 
L 69.375275 294.979231 
z
" style="fill:#008fd5;"/>
   </g>
   <g id="patch_4">
    <path clip-path="url(#p99b7e90654)" d="M 134.819575 313.032304 
L 151.18065 313.032304 
L 151.18065 290.465963 
L 134.819575 290.465963 
z
" style="fill:#008fd5;"/>
   </g>
   <g id="patch_5">
    <path clip-path="url(#p99b7e90654)" d="M 200.263875 313.032304 
L 216.62495 313.032304 
L 216.62495 288.297249 
L 200.263875 288.297249 
z
" style="fill:#008fd5;"/>
   </g>
   <g id="patch_6">
    <path clip-path="url(#p99b7e90654)" d="M 265.708175 313.032304 
L 282.06925 313.032304 
L 282.06925 284.311506 
L 265.708175 284.311506 
z
" style="fill:#008fd5;"/>
   </g>
   <g id="patch_7">
    <path clip-path="url(#p99b7e90654)" d="M 331.152475 313.032304 
L 347.51355 313.032304 
L 347.51355 235.955061 
L 331.152475 235.955061 
z
" style="fill:#008fd5;"/>
   </g>
   <g id="patch_8">
    <path clip-path="url(#p99b7e90654)" d="M 396.596775 313.032304 
L 412.95785 313.032304 
L 412.95785 90.299586 
L 396.596775 90.299586 
z
" style="fill:#008fd5;"/>
   </g>
   <g id="patch_9">
    <path clip-path="url(#p99b7e90654)" d="M 85.73635 313.032304 
L 102.097425 313.032304 
L 102.097425 310.160224 
L 85.73635 310.160224 
z
" style="fill:#fc4f30;"/>
   </g>
   <g id="patch_10">
    <path clip-path="url(#p99b7e90654)" d="M 151.18065 313.032304 
L 167.541725 313.032304 
L 167.541725 305.70557 
L 151.18065 305.70557 
z
" style="fill:#fc4f30;"/>
   </g>
   <g id="patch_11">
    <path clip-path="url(#p99b7e90654)" d="M 216.62495 313.032304 
L 232.986025 313.032304 
L 232.986025 299.433885 
L 216.62495 299.433885 
z
" style="fill:#fc4f30;"/>
   </g>
   <g id="patch_12">
    <path clip-path="url(#p99b7e90654)" d="M 282.06925 313.032304 
L 298.430325 313.032304 
L 298.430325 296.913489 
L 282.06925 296.913489 
z
" style="fill:#fc4f30;"/>
   </g>
   <g id="patch_13">
    <path clip-path="url(#p99b7e90654)" d="M 347.51355 313.032304 
L 363.874625 313.032304 
L 363.874625 264.500017 
L 347.51355 264.500017 
z
" style="fill:#fc4f30;"/>
   </g>
   <g id="patch_14">
    <path clip-path="url(#p99b7e90654)" d="M 412.95785 313.032304 
L 429.318925 313.032304 
L 429.318925 151.140786 
L 412.95785 151.140786 
z
" style="fill:#fc4f30;"/>
   </g>
   <g id="patch_15">
    <path d="M 53.0142 313.032304 
L 53.0142 19.962938 
" style="fill:none;stroke:#f0f0f0;stroke-linecap:square;stroke-linejoin:miter;stroke-width:3;"/>
   </g>
   <g id="patch_16">
    <path d="M 445.68 313.032304 
L 445.68 19.962938 
" style="fill:none;stroke:#f0f0f0;stroke-linecap:square;stroke-linejoin:miter;stroke-width:3;"/>
   </g>
   <g id="patch_17">
    <path d="M 53.0142 313.032304 
L 445.68 313.032304 
" style="fill:none;stroke:#f0f0f0;stroke-linecap:square;stroke-linejoin:miter;stroke-width:3;"/>
   </g>
   <g id="patch_18">
    <path d="M 53.0142 19.962938 
L 445.68 19.962938 
" style="fill:none;stroke:#f0f0f0;stroke-linecap:square;stroke-linejoin:miter;stroke-width:3;"/>
   </g>
   <g id="text_14">
    <!-- 3.08 -->
    <defs>
     <path d="M 16.59375 4.078125 
C 16.59375 6.5625 14.59375 8.15625 12.5 8.15625 
C 10.5 8.15625 8.40625 6.5625 8.40625 4.078125 
C 8.40625 1.59375 10.40625 0 12.5 0 
C 14.5 0 16.59375 1.59375 16.59375 4.078125 
z
" id="CMR17-46"/>
     <path d="M 27.203125 35.375 
C 33.5 38.546875 39.90625 43.328125 39.90625 50.984375 
C 39.90625 60.015625 31.09375 65.296875 23 65.296875 
C 13.90625 65.296875 5.90625 58.734375 5.90625 49.6875 
C 5.90625 47.203125 6.5 42.921875 10.40625 39.140625 
C 11.40625 38.15625 15.59375 35.171875 18.296875 33.28125 
C 13.796875 30.984375 3.296875 25.53125 3.296875 14.59375 
C 3.296875 4.359375 13.09375 -2 22.796875 -2 
C 33.5 -2 42.5 5.65625 42.5 15.78125 
C 42.5 24.84375 36.40625 29.015625 32.40625 31.703125 
z
M 14.09375 44.09375 
C 13.296875 44.59375 9.296875 47.671875 9.296875 52.359375 
C 9.296875 58.421875 15.59375 63 22.796875 63 
C 30.703125 63 36.5 57.4375 36.5 50.96875 
C 36.5 41.703125 26.09375 36.421875 25.59375 36.421875 
C 25.5 36.421875 25.40625 36.421875 24.59375 37.03125 
z
M 32.5 23.734375 
C 34 22.640625 38.796875 19.375 38.796875 13.296875 
C 38.796875 5.953125 31.40625 0.390625 23 0.390625 
C 13.90625 0.390625 7 6.84375 7 14.6875 
C 7 22.546875 13.09375 29.09375 20 32.1875 
z
" id="CMR17-56"/>
    </defs>
    <g transform="translate(80.555813 289.267203)scale(0.14 -0.14)">
     <use transform="scale(0.996264)" xlink:href="#CMR17-51"/>
     <use transform="translate(45.690477 0)scale(0.996264)" xlink:href="#CMR17-46"/>
     <use transform="translate(70.561536 0)scale(0.996264)" xlink:href="#CMR17-48"/>
     <use transform="translate(116.252013 0)scale(0.996264)" xlink:href="#CMR17-56"/>
    </g>
   </g>
   <g id="text_15">
    <!-- 3.85 -->
    <g transform="translate(146.000113 284.753934)scale(0.14 -0.14)">
     <use transform="scale(0.996264)" xlink:href="#CMR17-51"/>
     <use transform="translate(45.690477 0)scale(0.996264)" xlink:href="#CMR17-46"/>
     <use transform="translate(70.561536 0)scale(0.996264)" xlink:href="#CMR17-56"/>
     <use transform="translate(116.252013 0)scale(0.996264)" xlink:href="#CMR17-53"/>
    </g>
   </g>
   <g id="text_16">
    <!-- 4.22 -->
    <g transform="translate(211.444413 282.585221)scale(0.14 -0.14)">
     <use transform="scale(0.996264)" xlink:href="#CMR17-52"/>
     <use transform="translate(45.690477 0)scale(0.996264)" xlink:href="#CMR17-46"/>
     <use transform="translate(70.561536 0)scale(0.996264)" xlink:href="#CMR17-50"/>
     <use transform="translate(116.252013 0)scale(0.996264)" xlink:href="#CMR17-50"/>
    </g>
   </g>
   <g id="text_17">
    <!-- 4.9 -->
    <defs>
     <path d="M 35.203125 29.125 
C 35.203125 7.25 26.09375 0.484375 18.59375 0.484375 
C 16.296875 0.484375 10.703125 0.484375 8.40625 4.59375 
C 11 4.1875 12.90625 5.578125 12.90625 8.09375 
C 12.90625 10.8125 10.703125 11.703125 9.296875 11.703125 
C 8.40625 11.703125 5.703125 11.296875 5.703125 7.90625 
C 5.703125 1.109375 11.59375 -2 18.796875 -2 
C 30.296875 -2 42 10.53125 42 32.390625 
C 42 59.640625 30.796875 65.296875 23.203125 65.296875 
C 13.296875 65.296875 3.796875 56.6875 3.796875 43.40625 
C 3.796875 31.109375 11.90625 22 22.09375 22 
C 30.5 22 34.203125 29.734375 35.203125 33 
z
M 22.296875 23.59375 
C 19.59375 23.59375 15.796875 24.09375 12.703125 30.03125 
C 10.59375 33.890625 10.59375 38.453125 10.59375 43.296875 
C 10.59375 49.15625 10.59375 53.203125 13.40625 57.5625 
C 14.796875 59.640625 17.40625 63 23.203125 63 
C 35 63 35 45.078125 35 41.125 
C 35 34.09375 31.796875 23.59375 22.296875 23.59375 
z
" id="CMR17-57"/>
    </defs>
    <g transform="translate(276.888713 278.599478)scale(0.14 -0.14)">
     <use transform="scale(0.996264)" xlink:href="#CMR17-52"/>
     <use transform="translate(45.690477 0)scale(0.996264)" xlink:href="#CMR17-46"/>
     <use transform="translate(70.561536 0)scale(0.996264)" xlink:href="#CMR17-57"/>
    </g>
   </g>
   <g id="text_18">
    <!-- 13.15 -->
    <g transform="translate(342.333013 230.243032)scale(0.14 -0.14)">
     <use transform="scale(0.996264)" xlink:href="#CMR17-49"/>
     <use transform="translate(45.690477 0)scale(0.996264)" xlink:href="#CMR17-51"/>
     <use transform="translate(91.380954 0)scale(0.996264)" xlink:href="#CMR17-46"/>
     <use transform="translate(116.252013 0)scale(0.996264)" xlink:href="#CMR17-49"/>
     <use transform="translate(161.94249 0)scale(0.996264)" xlink:href="#CMR17-53"/>
    </g>
   </g>
   <g id="text_19">
    <!-- 38.0 -->
    <g transform="translate(407.777313 84.587558)scale(0.14 -0.14)">
     <use transform="scale(0.996264)" xlink:href="#CMR17-51"/>
     <use transform="translate(45.690477 0)scale(0.996264)" xlink:href="#CMR17-56"/>
     <use transform="translate(91.380954 0)scale(0.996264)" xlink:href="#CMR17-46"/>
     <use transform="translate(116.252013 0)scale(0.996264)" xlink:href="#CMR17-48"/>
    </g>
   </g>
   <g id="text_20">
    <!-- 0.49 -->
    <g transform="translate(96.916888 304.448196)scale(0.14 -0.14)">
     <use transform="scale(0.996264)" xlink:href="#CMR17-48"/>
     <use transform="translate(45.690477 0)scale(0.996264)" xlink:href="#CMR17-46"/>
     <use transform="translate(70.561536 0)scale(0.996264)" xlink:href="#CMR17-52"/>
     <use transform="translate(116.252013 0)scale(0.996264)" xlink:href="#CMR17-57"/>
    </g>
   </g>
   <g id="text_21">
    <!-- 1.25 -->
    <g transform="translate(162.361188 299.993541)scale(0.14 -0.14)">
     <use transform="scale(0.996264)" xlink:href="#CMR17-49"/>
     <use transform="translate(45.690477 0)scale(0.996264)" xlink:href="#CMR17-46"/>
     <use transform="translate(70.561536 0)scale(0.996264)" xlink:href="#CMR17-50"/>
     <use transform="translate(116.252013 0)scale(0.996264)" xlink:href="#CMR17-53"/>
    </g>
   </g>
   <g id="text_22">
    <!-- 2.32 -->
    <g transform="translate(227.805488 293.721857)scale(0.14 -0.14)">
     <use transform="scale(0.996264)" xlink:href="#CMR17-50"/>
     <use transform="translate(45.690477 0)scale(0.996264)" xlink:href="#CMR17-46"/>
     <use transform="translate(70.561536 0)scale(0.996264)" xlink:href="#CMR17-51"/>
     <use transform="translate(116.252013 0)scale(0.996264)" xlink:href="#CMR17-50"/>
    </g>
   </g>
   <g id="text_23">
    <!-- 2.75 -->
    <defs>
     <path d="M 45.09375 61.578125 
L 45.09375 63.765625 
L 21.59375 63.765625 
C 9.90625 63.765625 9.703125 65.078125 9.296875 67 
L 7.5 67 
L 4.59375 48.34375 
L 6.40625 48.34375 
C 6.703125 50.234375 7.40625 55.3125 8.59375 57.203125 
C 9.203125 58 16.59375 58 18.296875 58 
L 40.296875 58 
L 29.203125 41.578125 
C 21.796875 30.53125 16.703125 15.609375 16.703125 2.578125 
C 16.703125 1.390625 16.703125 -2 20.296875 -2 
C 23.90625 -2 23.90625 1.390625 23.90625 2.671875 
L 23.90625 7.265625 
C 23.90625 23.5625 26.703125 34.3125 31.296875 41.1875 
z
" id="CMR17-55"/>
    </defs>
    <g transform="translate(293.249788 291.20146)scale(0.14 -0.14)">
     <use transform="scale(0.996264)" xlink:href="#CMR17-50"/>
     <use transform="translate(45.690477 0)scale(0.996264)" xlink:href="#CMR17-46"/>
     <use transform="translate(70.561536 0)scale(0.996264)" xlink:href="#CMR17-55"/>
     <use transform="translate(116.252013 0)scale(0.996264)" xlink:href="#CMR17-53"/>
    </g>
   </g>
   <g id="text_24">
    <!-- 8.28 -->
    <g transform="translate(358.694088 258.787989)scale(0.14 -0.14)">
     <use transform="scale(0.996264)" xlink:href="#CMR17-56"/>
     <use transform="translate(45.690477 0)scale(0.996264)" xlink:href="#CMR17-46"/>
     <use transform="translate(70.561536 0)scale(0.996264)" xlink:href="#CMR17-50"/>
     <use transform="translate(116.252013 0)scale(0.996264)" xlink:href="#CMR17-56"/>
    </g>
   </g>
   <g id="text_25">
    <!-- 27.62 -->
    <g transform="translate(424.138388 145.428758)scale(0.14 -0.14)">
     <use transform="scale(0.996264)" xlink:href="#CMR17-50"/>
     <use transform="translate(45.690477 0)scale(0.996264)" xlink:href="#CMR17-55"/>
     <use transform="translate(91.380954 0)scale(0.996264)" xlink:href="#CMR17-46"/>
     <use transform="translate(116.252013 0)scale(0.996264)" xlink:href="#CMR17-54"/>
     <use transform="translate(161.94249 0)scale(0.996264)" xlink:href="#CMR17-50"/>
    </g>
   </g>
   <g id="legend_1">
    <g id="patch_19">
     <path d="M 269.066785 70.574443 
L 435.88 70.574443 
Q 438.68 70.574443 438.68 67.774443 
L 438.68 29.762938 
Q 438.68 26.962938 435.88 26.962938 
L 269.066785 26.962938 
Q 266.266785 26.962938 266.266785 29.762938 
L 266.266785 67.774443 
Q 266.266785 70.574443 269.066785 70.574443 
z
" style="fill:#f0f0f0;opacity:0.8;stroke:#cccccc;stroke-linejoin:miter;stroke-width:0.5;"/>
    </g>
    <g id="patch_20">
     <path d="M 271.866785 42.362938 
L 299.866785 42.362938 
L 299.866785 32.562938 
L 271.866785 32.562938 
z
" style="fill:#008fd5;"/>
    </g>
    <g id="text_26">
     <!-- \texttt{BroadcastHashJoin} -->
     <defs>
      <path d="M 6.59375 61 
C 5.203125 61 2.59375 61 2.59375 58.109375 
C 2.59375 55.203125 5.296875 55.203125 6.703125 55.203125 
L 9.09375 55.203125 
L 9.09375 5.796875 
L 6.703125 5.796875 
C 5.296875 5.796875 2.59375 5.796875 2.59375 2.90625 
C 2.59375 0 5.296875 0 6.59375 0 
L 30.296875 0 
C 41.40625 0 47.296875 8.828125 47.296875 16.75 
C 47.296875 23.859375 42.40625 30.390625 34.5 32.09375 
C 39.5 33.671875 45.203125 38.453125 45.203125 45.59375 
C 45.203125 52.859375 39.296875 61 28.296875 61 
z
M 15.59375 34.796875 
L 15.59375 55.203125 
L 28 55.203125 
C 36.296875 55.203125 38.703125 49.0625 38.703125 45.5 
C 38.703125 40.828125 34.796875 34.796875 26.40625 34.796875 
z
M 15.59375 5.796875 
L 15.59375 29 
L 28.703125 29 
C 38.796875 29 40.796875 20.359375 40.796875 16.953125 
C 40.796875 12.03125 37 5.796875 28.09375 5.796875 
z
" id="CMTT12-66"/>
      <path d="M 21.59375 18.9375 
C 21.59375 30.875 30 38 38.5 38 
C 39 38 39.59375 38 40.09375 37.890625 
C 40.40625 34.140625 43.203125 33.828125 43.90625 33.828125 
C 46.203125 33.828125 47.796875 35.546875 47.796875 37.78125 
C 47.796875 42.15625 43.59375 43.796875 38.59375 43.796875 
C 31.90625 43.796875 26.203125 40.734375 21.59375 35.015625 
L 21.59375 38.921875 
C 21.59375 42 21 43 17.59375 43 
L 7.5 43 
C 6.09375 43 3.5 43 3.5 40.109375 
C 3.5 37.203125 6.09375 37.203125 7.5 37.203125 
L 15.09375 37.203125 
L 15.09375 5.796875 
L 7.5 5.796875 
C 6.09375 5.796875 3.5 5.796875 3.5 2.90625 
C 3.5 0 6.09375 0 7.5 0 
L 32.09375 0 
C 33.5 0 36.09375 0 36.09375 2.90625 
C 36.09375 5.796875 33.5 5.796875 32.09375 5.796875 
L 21.59375 5.796875 
z
" id="CMTT12-114"/>
      <path d="M 45.59375 21.640625 
C 45.59375 34.109375 36.5 44 25.703125 44 
C 14.90625 44 5.796875 34.109375 5.796875 21.640625 
C 5.796875 9.078125 15 -0.5 25.703125 -0.5 
C 36.40625 -0.5 45.59375 9.078125 45.59375 21.640625 
z
M 25.703125 5.296875 
C 18.5 5.296875 12.296875 12.875 12.296875 22.34375 
C 12.296875 31.609375 18.703125 38.203125 25.703125 38.203125 
C 32.703125 38.203125 39.09375 31.609375 39.09375 22.34375 
C 39.09375 12.78125 32.90625 5.296875 25.703125 5.296875 
z
" id="CMTT12-111"/>
      <path d="M 41.40625 28.375 
C 41.40625 35.984375 35.703125 44 22.203125 44 
C 18 44 8.296875 44 8.296875 37.1875 
C 8.296875 34.53125 10.203125 33.046875 12.40625 33.046875 
C 13 33.046875 16.296875 33.046875 16.40625 37.3125 
C 16.40625 37.796875 16.5 37.90625 18.59375 38.09375 
C 19.796875 38.203125 21.09375 38.203125 22.296875 38.203125 
C 24.59375 38.203125 28 38.203125 31.296875 35.65625 
C 34.90625 32.8125 34.90625 29.9375 34.90625 27 
C 29 27 23.203125 27 17 24.984375 
C 12 23.265625 5.59375 19.625 5.59375 12.75 
C 5.59375 5.5625 11.90625 -0.5 21.203125 -0.5 
C 24.40625 -0.5 30.59375 0 35.796875 3.53125 
C 37.796875 0 42.796875 0 46.59375 0 
C 49 0 51.40625 0 51.40625 2.859375 
C 51.40625 5.703125 48.796875 5.703125 47.40625 5.703125 
C 44.796875 5.703125 42.796875 5.90625 41.40625 6.515625 
z
M 34.90625 13.296875 
C 34.90625 11 34.90625 8.890625 30.796875 7 
C 27.296875 5.296875 22.59375 5.296875 22.296875 5.296875 
C 16.40625 5.296875 12.09375 8.5 12.09375 12.59375 
C 12.09375 18.5 22.796875 21.890625 34.90625 21.890625 
z
" id="CMTT12-97"/>
      <path d="M 41.796875 56.90625 
C 41.796875 60 41.203125 61 37.796875 61 
L 31.203125 61 
C 29.796875 61 27.203125 61 27.203125 58.109375 
C 27.203125 55.203125 29.796875 55.203125 31.203125 55.203125 
L 35.296875 55.203125 
L 35.296875 38.796875 
C 33.703125 40.390625 29.59375 43.796875 23.5 43.796875 
C 12.90625 43.796875 3.703125 34.1875 3.703125 21.59375 
C 3.703125 9.296875 12.296875 -0.5 22.59375 -0.5 
C 29.09375 -0.5 33.40625 3.359375 35.296875 5.546875 
C 35.296875 1.3125 35.296875 0 39.296875 0 
L 45.90625 0 
C 47.296875 0 49.90625 0 49.90625 2.90625 
C 49.90625 5.796875 47.296875 5.796875 45.90625 5.796875 
L 41.796875 5.796875 
z
M 35.296875 19.09375 
C 35.296875 13.5 30.703125 5.296875 23.203125 5.296875 
C 16 5.296875 10.203125 12.59375 10.203125 21.59375 
C 10.203125 31.1875 17 38 24.09375 38 
C 30.59375 38 35.296875 32.09375 35.296875 26.890625 
z
" id="CMTT12-100"/>
      <path d="M 45.59375 10.96875 
C 45.59375 13.5625 43.09375 13.5625 42.296875 13.5625 
C 40 13.5625 39.59375 12.765625 39.09375 11.375 
C 36.90625 5.890625 32 5.296875 29.59375 5.296875 
C 21.09375 5.296875 13.90625 12.375 13.90625 21.640625 
C 13.90625 26.734375 16.796875 38.203125 29.90625 38.203125 
C 32.59375 38.203125 34.703125 38 35.59375 37.90625 
C 36.296875 37.703125 36.40625 37.578125 36.40625 37.078125 
C 36.703125 32.921875 39.796875 32.921875 40.40625 32.921875 
C 42.59375 32.921875 44.5 34.421875 44.5 37.109375 
C 44.5 44 34.40625 44 30 44 
C 12.90625 44 7.40625 30.03125 7.40625 21.640625 
C 7.40625 9.484375 16.703125 -0.5 28.703125 -0.5 
C 42.09375 -0.5 45.59375 9.375 45.59375 10.96875 
z
" id="CMTT12-99"/>
      <path d="M 42 40.203125 
C 42 41.796875 42 44 39.203125 44 
C 36.796875 44 36.203125 41.703125 36.203125 41.59375 
C 32.203125 44 27.59375 44 25.59375 44 
C 9.296875 44 7.09375 35.71875 7.09375 32.328125 
C 7.09375 28.234375 9.5 25.453125 12.90625 23.546875 
C 16.09375 21.75 19 21.265625 27.203125 19.96875 
C 31.09375 19.265625 39.09375 17.96875 39.09375 12.484375 
C 39.09375 8.78125 35.703125 5.296875 26.40625 5.296875 
C 20 5.296875 15.796875 7.796875 13.703125 15 
C 13.203125 16.390625 12.90625 17.5 10.40625 17.5 
C 7.09375 17.5 7.09375 15.59375 7.09375 13.59375 
L 7.09375 3.296875 
C 7.09375 1.6875 7.09375 -0.5 9.90625 -0.5 
C 11.09375 -0.5 12 -0.5 13.5 3.59375 
C 18.09375 -0.5 23.296875 -0.5 26.40625 -0.5 
C 44.90625 -0.5 44.90625 11.46875 44.90625 12.46875 
C 44.90625 22.828125 32.5 24.9375 27.703125 25.625 
C 18.90625 27.125 12.90625 28.125 12.90625 32.3125 
C 12.90625 35.015625 16 38.203125 25.40625 38.203125 
C 34.90625 38.203125 35.296875 33.703125 35.5 31.09375 
C 35.703125 29.09375 37.5 28.796875 38.703125 28.796875 
C 42 28.796875 42 30.59375 42 32.59375 
z
" id="CMTT12-115"/>
      <path d="M 21.59375 37.203125 
L 37.796875 37.203125 
C 39.203125 37.203125 41.796875 37.203125 41.796875 40.109375 
C 41.796875 43 39.203125 43 37.796875 43 
L 21.59375 43 
L 21.59375 51.328125 
C 21.59375 53.15625 21.59375 55.5 18.40625 55.5 
C 15.09375 55.5 15.09375 53.15625 15.09375 51.328125 
L 15.09375 43 
L 6.59375 43 
C 5.203125 43 2.5 43 2.5 40.109375 
C 2.5 37.203125 5.09375 37.203125 6.5 37.203125 
L 15.09375 37.203125 
L 15.09375 12.125 
C 15.09375 2.875 21.5 -0.5 28.703125 -0.5 
C 34.09375 -0.5 44 2.171875 44 12.34375 
C 44 14.34375 44 16.53125 40.703125 16.53125 
C 37.5 16.53125 37.5 14.34375 37.5 12.265625 
C 37.40625 6.296875 31.703125 5.296875 29.40625 5.296875 
C 21.59375 5.296875 21.59375 10.265625 21.59375 12.640625 
z
" id="CMTT12-116"/>
      <path d="M 42.796875 55.203125 
L 45 55.203125 
C 46.40625 55.203125 49 55.203125 49 58.109375 
C 49 61 46.5 61 45 61 
L 34.09375 61 
C 32.703125 61 30 61 30 58.109375 
C 30 55.203125 32.703125 55.203125 34.09375 55.203125 
L 36.296875 55.203125 
L 36.296875 34.796875 
L 15.09375 34.796875 
L 15.09375 55.203125 
L 17.296875 55.203125 
C 18.703125 55.203125 21.40625 55.203125 21.40625 58.109375 
C 21.40625 61 18.703125 61 17.296875 61 
L 6.40625 61 
C 4.90625 61 2.40625 61 2.40625 58.109375 
C 2.40625 55.203125 5 55.203125 6.40625 55.203125 
L 8.59375 55.203125 
L 8.59375 5.796875 
L 6.40625 5.796875 
C 5 5.796875 2.40625 5.796875 2.40625 2.90625 
C 2.40625 0 4.90625 0 6.40625 0 
L 17.296875 0 
C 18.703125 0 21.40625 0 21.40625 2.90625 
C 21.40625 5.796875 18.703125 5.796875 17.296875 5.796875 
L 15.09375 5.796875 
L 15.09375 29 
L 36.296875 29 
L 36.296875 5.796875 
L 34.09375 5.796875 
C 32.703125 5.796875 30 5.796875 30 2.90625 
C 30 0 32.703125 0 34.09375 0 
L 45 0 
C 46.5 0 49 0 49 2.90625 
C 49 5.796875 46.40625 5.796875 45 5.796875 
L 42.796875 5.796875 
z
" id="CMTT12-72"/>
      <path d="M 41.796875 29.359375 
C 41.796875 39.171875 37.203125 43.796875 29 43.796875 
C 22.203125 43.796875 17.796875 40 16.09375 38.09375 
L 16.09375 56.9375 
C 16.09375 60.015625 15.5 61 12.09375 61 
L 5.5 61 
C 4.09375 61 1.5 61 1.5 58.109375 
C 1.5 55.203125 4.09375 55.203125 5.5 55.203125 
L 9.59375 55.203125 
L 9.59375 5.796875 
L 5.5 5.796875 
C 4.09375 5.796875 1.5 5.796875 1.5 2.90625 
C 1.5 0 4.09375 0 5.5 0 
L 20.203125 0 
C 21.59375 0 24.203125 0 24.203125 2.90625 
C 24.203125 5.796875 21.59375 5.796875 20.203125 5.796875 
L 16.09375 5.796875 
L 16.09375 23.953125 
C 16.09375 33.671875 22.90625 38 28.296875 38 
C 34.09375 38 35.296875 34.671875 35.296875 28.96875 
L 35.296875 5.796875 
L 31.203125 5.796875 
C 29.796875 5.796875 27.203125 5.796875 27.203125 2.90625 
C 27.203125 0 29.796875 0 31.203125 0 
L 45.90625 0 
C 47.296875 0 49.90625 0 49.90625 2.90625 
C 49.90625 5.796875 47.296875 5.796875 45.90625 5.796875 
L 41.796875 5.796875 
z
" id="CMTT12-104"/>
      <path d="M 40 55.203125 
L 42.703125 55.203125 
C 44.09375 55.203125 46.796875 55.203125 46.796875 58.109375 
C 46.796875 61 44.09375 61 42.703125 61 
L 25.796875 61 
C 24.40625 61 21.796875 61 21.796875 58.109375 
C 21.796875 55.203125 24.40625 55.203125 25.796875 55.203125 
L 33.5 55.203125 
L 33.5 14.234375 
C 33.5 5.515625 25.40625 4.90625 23.703125 4.90625 
C 22.5 4.90625 17.5 4.90625 14.90625 7.984375 
C 15.40625 8.59375 15.703125 9.46875 15.703125 10.375 
C 15.703125 12.453125 14.09375 14.34375 11.703125 14.34375 
C 9.40625 14.34375 7.59375 12.84375 7.59375 10.0625 
C 7.59375 3.6875 14.40625 -1 23.59375 -1 
C 32 -1 40 4.265625 40 13.53125 
z
" id="CMTT12-74"/>
      <path d="M 30.203125 56.5 
C 30.203125 59 28.203125 61 25.703125 61 
C 23.203125 61 21.203125 59 21.203125 56.5 
C 21.203125 54 23.203125 52 25.703125 52 
C 28.203125 52 30.203125 54 30.203125 56.5 
z
M 13 43 
C 11.59375 43 9 43 9 40.109375 
C 9 37.203125 11.59375 37.203125 13 37.203125 
L 23.703125 37.203125 
L 23.703125 5.796875 
L 12.296875 5.796875 
C 10.90625 5.796875 8.203125 5.796875 8.203125 2.90625 
C 8.203125 0 10.90625 0 12.296875 0 
L 40.09375 0 
C 41.5 0 44.09375 0 44.09375 2.90625 
C 44.09375 5.796875 41.5 5.796875 40.09375 5.796875 
L 30.203125 5.796875 
L 30.203125 38.921875 
C 30.203125 42 29.59375 43 26.203125 43 
z
" id="CMTT12-105"/>
      <path d="M 41.796875 29.359375 
C 41.796875 39.171875 37.203125 43.796875 29 43.796875 
C 22.203125 43.796875 17.796875 40 16.09375 38.09375 
C 16.09375 41.65625 16.09375 43 12.09375 43 
L 5.5 43 
C 4.09375 43 1.5 43 1.5 40.109375 
C 1.5 37.203125 4.09375 37.203125 5.5 37.203125 
L 9.59375 37.203125 
L 9.59375 5.796875 
L 5.5 5.796875 
C 4.09375 5.796875 1.5 5.796875 1.5 2.90625 
C 1.5 0 4.09375 0 5.5 0 
L 20.203125 0 
C 21.59375 0 24.203125 0 24.203125 2.90625 
C 24.203125 5.796875 21.59375 5.796875 20.203125 5.796875 
L 16.09375 5.796875 
L 16.09375 23.953125 
C 16.09375 33.671875 22.90625 38 28.296875 38 
C 34.09375 38 35.296875 34.671875 35.296875 28.96875 
L 35.296875 5.796875 
L 31.203125 5.796875 
C 29.796875 5.796875 27.203125 5.796875 27.203125 2.90625 
C 27.203125 0 29.796875 0 31.203125 0 
L 45.90625 0 
C 47.296875 0 49.90625 0 49.90625 2.90625 
C 49.90625 5.796875 47.296875 5.796875 45.90625 5.796875 
L 41.796875 5.796875 
z
" id="CMTT12-110"/>
     </defs>
     <g transform="translate(311.066785 42.362938)scale(0.14 -0.14)">
      <use transform="scale(0.996264)" xlink:href="#CMTT12-66"/>
      <use transform="translate(51.266111 0)scale(0.996264)" xlink:href="#CMTT12-114"/>
      <use transform="translate(102.532222 0)scale(0.996264)" xlink:href="#CMTT12-111"/>
      <use transform="translate(153.798333 0)scale(0.996264)" xlink:href="#CMTT12-97"/>
      <use transform="translate(205.064443 0)scale(0.996264)" xlink:href="#CMTT12-100"/>
      <use transform="translate(256.330554 0)scale(0.996264)" xlink:href="#CMTT12-99"/>
      <use transform="translate(307.596665 0)scale(0.996264)" xlink:href="#CMTT12-97"/>
      <use transform="translate(358.862776 0)scale(0.996264)" xlink:href="#CMTT12-115"/>
      <use transform="translate(410.128887 0)scale(0.996264)" xlink:href="#CMTT12-116"/>
      <use transform="translate(461.394998 0)scale(0.996264)" xlink:href="#CMTT12-72"/>
      <use transform="translate(512.661108 0)scale(0.996264)" xlink:href="#CMTT12-97"/>
      <use transform="translate(563.927219 0)scale(0.996264)" xlink:href="#CMTT12-115"/>
      <use transform="translate(615.19333 0)scale(0.996264)" xlink:href="#CMTT12-104"/>
      <use transform="translate(666.459441 0)scale(0.996264)" xlink:href="#CMTT12-74"/>
      <use transform="translate(717.725552 0)scale(0.996264)" xlink:href="#CMTT12-111"/>
      <use transform="translate(768.991663 0)scale(0.996264)" xlink:href="#CMTT12-105"/>
      <use transform="translate(820.257774 0)scale(0.996264)" xlink:href="#CMTT12-110"/>
     </g>
    </g>
    <g id="patch_21">
     <path d="M 271.866785 61.874967 
L 299.866785 61.874967 
L 299.866785 52.074967 
L 271.866785 52.074967 
z
" style="fill:#fc4f30;"/>
    </g>
    <g id="text_27">
     <!-- \texttt{seq} -->
     <defs>
      <path d="M 41.59375 19.5 
C 43.703125 19.5 45.59375 19.5 45.59375 23.15625 
C 45.59375 34.703125 39 44 26.5 44 
C 14.90625 44 5.59375 34.015625 5.59375 21.84375 
C 5.59375 9.28125 15.703125 -0.5 28 -0.5 
C 40.90625 -0.5 45.59375 8.453125 45.59375 11.078125 
C 45.59375 11.6875 45.40625 13.921875 42.296875 13.921875 
C 40.40625 13.921875 39.796875 13.203125 39.203125 11.6875 
C 36.703125 5.796875 30.203125 5.296875 28.296875 5.296875 
C 20 5.296875 13.40625 11.6875 12.296875 19.5 
z
M 12.40625 25 
C 13.703125 33.3125 20.203125 38.203125 26.5 38.203125 
C 36.5 38.203125 38.59375 29.890625 39 25 
z
" id="CMTT12-101"/>
      <path d="M 43.796875 39.890625 
C 43.796875 41.703125 43.796875 44 40.59375 44 
C 37.296875 44 37.296875 41.796875 37.296875 39.890625 
L 37.296875 38 
C 35.40625 40 31.703125 44 24.796875 44 
C 13.90625 44 4.09375 34.546875 4.09375 21.6875 
C 4.09375 9.4375 12.90625 -0.5 23.796875 -0.5 
C 31.09375 -0.5 35.203125 3.796875 37.296875 6 
L 37.296875 -16.203125 
L 32.796875 -16.203125 
C 31.40625 -16.203125 28.703125 -16.203125 28.703125 -19.09375 
C 28.703125 -22 31.40625 -22 32.796875 -22 
L 48.296875 -22 
C 49.703125 -22 52.40625 -22 52.40625 -19.09375 
C 52.40625 -16.203125 49.703125 -16.203125 48.296875 -16.203125 
L 43.796875 -16.203125 
z
M 37.296875 19.28125 
C 37.296875 13.640625 32.40625 5.296875 24.40625 5.296875 
C 16.796875 5.296875 10.59375 12.640625 10.59375 21.6875 
C 10.59375 31.15625 17.59375 38.203125 25.40625 38.203125 
C 33 38.203125 37.296875 30.046875 37.296875 23.796875 
z
" id="CMTT12-113"/>
     </defs>
     <g transform="translate(311.066785 61.874967)scale(0.14 -0.14)">
      <use transform="scale(0.996264)" xlink:href="#CMTT12-115"/>
      <use transform="translate(51.266111 0)scale(0.996264)" xlink:href="#CMTT12-101"/>
      <use transform="translate(102.532222 0)scale(0.996264)" xlink:href="#CMTT12-113"/>
     </g>
    </g>
   </g>
  </g>
 </g>
 <defs>
  <clipPath id="p99b7e90654">
   <rect height="293.069366" width="392.6658" x="53.0142" y="19.962938"/>
  </clipPath>
 </defs>
</svg>
