<svg version="1.1" viewBox="0.0 0.0 243.2230971128609 237.002624671916" fill="none" stroke="none" stroke-linecap="square" stroke-miterlimit="10" xmlns:xlink="http://www.w3.org/1999/xlink" xmlns="http://www.w3.org/2000/svg"><clipPath id="p.0"><path d="m0 0l243.2231 0l0 237.00262l-243.2231 0l0 -237.00262z" clip-rule="nonzero"/></clipPath><g clip-path="url(#p.0)"><path fill="#000000" fill-opacity="0.0" d="m0 0l243.2231 0l0 237.00262l-243.2231 0z" fill-rule="evenodd"/><path fill="#000000" fill-opacity="0.0" d="m103.00787 108.30971l0 0c0 -12.559036 10.329178 -22.74015 23.07087 -22.74015l0 0c6.118767 0 11.986931 2.3958282 16.31356 6.660431c4.3266296 4.2646103 6.757309 10.04866 6.757309 16.07972l0 0c0 12.559044 -10.329178 22.740158 -23.07087 22.740158l0 0c-12.741692 0 -23.07087 -10.181114 -23.07087 -22.740158z" fill-rule="evenodd"/><path stroke="#000000" stroke-width="1.0" stroke-linejoin="round" stroke-linecap="butt" d="m103.00787 108.30971l0 0c0 -12.559036 10.329178 -22.74015 23.07087 -22.74015l0 0c6.118767 0 11.986931 2.3958282 16.31356 6.660431c4.3266296 4.2646103 6.757309 10.04866 6.757309 16.07972l0 0c0 12.559044 -10.329178 22.740158 -23.07087 22.740158l0 0c-12.741692 0 -23.07087 -10.181114 -23.07087 -22.740158z" fill-rule="evenodd"/><path fill="#000000" d="m118.733925 115.229706l5.125 -13.359375l1.90625 0l5.4687424 13.359375l-2.015625 0l-1.5468674 -4.046875l-5.59375 0l-1.46875 4.046875l-1.875 0zm3.859375 -5.484375l4.53125 0l-1.40625 -3.703125q-0.625 -1.6875 -0.9375 -2.765625q-0.265625 1.28125 -0.71875 2.546875l-1.46875 3.921875z" fill-rule="nonzero"/><path fill="#000000" fill-opacity="0.0" d="m166.36745 204.09973l0 0c0 -12.559036 10.329193 -22.740158 23.070877 -22.740158l0 0c6.1187744 0 11.986938 2.3958435 16.313568 6.660446c4.3266144 4.2646027 6.7572937 10.04866 6.7572937 16.079712l0 0c0 12.5590515 -10.329178 22.740158 -23.070862 22.740158l0 0c-12.741684 0 -23.070877 -10.181107 -23.070877 -22.740158z" fill-rule="evenodd"/><path stroke="#000000" stroke-width="1.0" stroke-linejoin="round" stroke-linecap="butt" d="m166.36745 204.09973l0 0c0 -12.559036 10.329193 -22.740158 23.070877 -22.740158l0 0c6.1187744 0 11.986938 2.3958435 16.313568 6.660446c4.3266144 4.2646027 6.7572937 10.04866 6.7572937 16.079712l0 0c0 12.5590515 -10.329178 22.740158 -23.070862 22.740158l0 0c-12.741684 0 -23.070877 -10.181107 -23.070877 -22.740158z" fill-rule="evenodd"/><path fill="#000000" d="m193.0935 206.33223l1.765625 0.453125q-0.5625 2.171875 -2.0 3.328125q-1.4375 1.140625 -3.53125 1.140625q-2.15625 0 -3.515625 -0.875q-1.34375 -0.890625 -2.0625 -2.546875q-0.703125 -1.671875 -0.703125 -3.59375q0 -2.078125 0.796875 -3.625q0.796875 -1.5625 2.265625 -2.359375q1.484375 -0.8125 3.25 -0.8125q2.0 0 3.359375 1.015625q1.375 1.015625 1.90625 2.875l-1.734375 0.40625q-0.46875 -1.453125 -1.359375 -2.109375q-0.875 -0.671875 -2.203125 -0.671875q-1.546875 0 -2.578125 0.734375q-1.03125 0.734375 -1.453125 1.984375q-0.421875 1.234375 -0.421875 2.5625q0 1.703125 0.5 2.96875q0.5 1.265625 1.546875 1.90625q1.046875 0.625 2.265625 0.625q1.484375 0 2.515625 -0.859375q1.03125 -0.859375 1.390625 -2.546875z" fill-rule="nonzero"/><path fill="#000000" fill-opacity="0.0" d="m38.687664 204.09973l0 0c0 -12.559036 10.329178 -22.740158 23.070866 -22.740158l0 0c6.1187744 0 11.986938 2.3958435 16.313568 6.660446c4.326622 4.2646027 6.7573013 10.04866 6.7573013 16.079712l0 0c0 12.5590515 -10.329178 22.740158 -23.07087 22.740158l0 0c-12.741688 0 -23.070866 -10.181107 -23.070866 -22.740158z" fill-rule="evenodd"/><path stroke="#000000" stroke-width="1.0" stroke-linejoin="round" stroke-linecap="butt" d="m38.687664 204.09973l0 0c0 -12.559036 10.329178 -22.740158 23.070866 -22.740158l0 0c6.1187744 0 11.986938 2.3958435 16.313568 6.660446c4.326622 4.2646027 6.7573013 10.04866 6.7573013 16.079712l0 0c0 12.5590515 -10.329178 22.740158 -23.07087 22.740158l0 0c-12.741688 0 -23.070866 -10.181107 -23.070866 -22.740158z" fill-rule="evenodd"/><path fill="#000000" d="m55.80434 211.01973l0 -13.359375l5.015625 0q1.53125 0 2.453125 0.40625q0.9218712 0.40625 1.4374962 1.25q0.53125 0.84375 0.53125 1.765625q0 0.859375 -0.46875 1.625q-0.453125 0.75 -1.3906212 1.203125q1.2031212 0.359375 1.8593712 1.21875q0.65625 0.859375 0.65625 2.015625q0 0.9375 -0.40625 1.75q-0.390625 0.796875 -0.984375 1.234375q-0.5781212 0.4375 -1.4531212 0.671875q-0.875 0.21875 -2.15625 0.21875l-5.09375 0zm1.78125 -7.75l2.875 0q1.1875 0 1.6875 -0.140625q0.671875 -0.203125 1.015625 -0.671875q0.34375 -0.46875 0.34375 -1.171875q0 -0.65625 -0.328125 -1.15625q-0.3125 -0.515625 -0.90625 -0.703125q-0.59375 -0.1875 -2.03125 -0.1875l-2.65625 0l0 4.03125zm0 6.171875l3.3125 0q0.859375 0 1.203125 -0.0625q0.609375 -0.109375 1.015625 -0.359375q0.421875 -0.265625 0.6875 -0.75q0.2656212 -0.484375 0.2656212 -1.125q0 -0.75 -0.3906212 -1.296875q-0.375 -0.546875 -1.0625 -0.765625q-0.671875 -0.234375 -1.953125 -0.234375l-3.078125 0l0 4.59375z" fill-rule="nonzero"/><path fill="#000000" fill-opacity="0.0" d="m109.765175 124.38943l-48.0 56.976387" fill-rule="evenodd"/><path stroke="#000000" stroke-width="1.0" stroke-linejoin="round" stroke-linecap="butt" d="m109.765175 124.389435l-44.134247 52.387695" fill-rule="evenodd"/><path fill="#000000" stroke="#000000" stroke-width="1.0" stroke-linecap="butt" d="m64.367714 175.71294l-1.6606483 4.534851l4.187069 -2.4064484z" fill-rule="evenodd"/><path fill="#000000" fill-opacity="0.0" d="m142.3923 124.38943l47.055115 56.976387" fill-rule="evenodd"/><path stroke="#000000" stroke-width="1.0" stroke-linejoin="round" stroke-linecap="butt" d="m142.3923 124.389435l43.23442 52.350113" fill-rule="evenodd"/><path fill="#000000" stroke="#000000" stroke-width="1.0" stroke-linecap="butt" d="m184.35318 177.79135l4.16333 2.4472656l-1.6162262 -4.5508575z" fill-rule="evenodd"/><path fill="#000000" fill-opacity="0.0" d="m84.8294 204.09973l81.5433 0" fill-rule="evenodd"/><path stroke="#000000" stroke-width="1.0" stroke-linejoin="round" stroke-linecap="butt" d="m84.8294 204.09973l75.5433 0" fill-rule="evenodd"/><path fill="#000000" stroke="#000000" stroke-width="1.0" stroke-linecap="butt" d="m160.37271 205.75146l4.538086 -1.6517334l-4.538086 -1.6517334z" fill-rule="evenodd"/><path fill="#000000" fill-opacity="0.0" d="m102.77165 32.057743l0 0c0 -12.559042 10.329178 -22.740158 23.07087 -22.740158l0 0c6.118767 0 11.986931 2.395831 16.31356 6.6604385c4.3266296 4.2646065 6.757309 10.048655 6.757309 16.07972l0 0c0 12.55904 -10.329178 22.740158 -23.07087 22.740158l0 0c-12.741692 0 -23.07087 -10.181118 -23.07087 -22.740158z" fill-rule="evenodd"/><path stroke="#000000" stroke-width="1.0" stroke-linejoin="round" stroke-linecap="butt" d="m102.77165 32.057743l0 0c0 -12.559042 10.329178 -22.740158 23.07087 -22.740158l0 0c6.118767 0 11.986931 2.395831 16.31356 6.6604385c4.3266296 4.2646065 6.757309 10.048655 6.757309 16.07972l0 0c0 12.55904 -10.329178 22.740158 -23.07087 22.740158l0 0c-12.741692 0 -23.07087 -10.181118 -23.07087 -22.740158z" fill-rule="evenodd"/><path fill="#000000" d="m119.9977 38.97774l0 -13.359375l9.656258 0l0 1.578125l-7.8750076 0l0 4.09375l7.3750076 0l0 1.5625l-7.3750076 0l0 4.546875l8.187508 0l0 1.578125l-9.968758 0z" fill-rule="nonzero"/><path fill="#000000" fill-opacity="0.0" d="m126.07874 85.56956l-0.22047424 -30.771656" fill-rule="evenodd"/><path stroke="#000000" stroke-width="1.0" stroke-linejoin="round" stroke-linecap="butt" d="m126.07874 85.56956l-0.1774826 -24.771812" fill-rule="evenodd"/><path fill="#000000" stroke="#000000" stroke-width="1.0" stroke-linecap="butt" d="m127.55295 60.78591l-1.6842041 -4.526146l-1.6191788 4.549816z" fill-rule="evenodd"/></g></svg>