<svg version="1.1" viewBox="0.0 0.0 243.2230971128609 237.002624671916" fill="none" stroke="none" stroke-linecap="square" stroke-miterlimit="10" xmlns:xlink="http://www.w3.org/1999/xlink" xmlns="http://www.w3.org/2000/svg"><clipPath id="p.0"><path d="m0 0l243.2231 0l0 237.00262l-243.2231 0l0 -237.00262z" clip-rule="nonzero"/></clipPath><g clip-path="url(#p.0)"><path fill="#000000" fill-opacity="0.0" d="m0 0l243.2231 0l0 237.00262l-243.2231 0z" fill-rule="evenodd"/><path fill="#000000" fill-opacity="0.0" d="m29.858267 206.29396l0 0c0 -12.559036 10.32918 -22.740158 23.070868 -22.740158l0 0c6.1187744 0 11.986942 2.3958282 16.313564 6.660446c4.3266296 4.2646027 6.7573013 10.048645 6.7573013 16.079712l0 0c0 12.5590515 -10.329178 22.740158 -23.070866 22.740158l0 0c-12.741688 0 -23.070868 -10.181107 -23.070868 -22.740158z" fill-rule="evenodd"/><path stroke="#000000" stroke-width="1.0" stroke-linejoin="round" stroke-linecap="butt" d="m29.858267 206.29396l0 0c0 -12.559036 10.32918 -22.740158 23.070868 -22.740158l0 0c6.1187744 0 11.986942 2.3958282 16.313564 6.660446c4.3266296 4.2646027 6.7573013 10.048645 6.7573013 16.079712l0 0c0 12.5590515 -10.329178 22.740158 -23.070866 22.740158l0 0c-12.741688 0 -23.070868 -10.181107 -23.070868 -22.740158z" fill-rule="evenodd"/><path fill="#000000" d="m45.584316 213.21396l5.125 -13.359375l1.90625 0l5.46875 13.359375l-2.015625 0l-1.546875 -4.046875l-5.59375 0l-1.46875 4.046875l-1.875 0zm3.859375 -5.484375l4.53125 0l-1.40625 -3.703125q-0.625 -1.6875 -0.9375 -2.765625q-0.265625 1.28125 -0.71875 2.546875l-1.46875 3.921875z" fill-rule="nonzero"/><path fill="#000000" fill-opacity="0.0" d="m69.2427 190.21425l125.00788 -85.29134" fill-rule="evenodd"/><path stroke="#000000" stroke-width="1.0" stroke-linejoin="round" stroke-linecap="butt" d="m69.2427 190.21423l120.0516 -81.90972" fill-rule="evenodd"/><path fill="#000000" stroke="#000000" stroke-width="1.0" stroke-linecap="butt" d="m190.22522 109.668915l2.817749 -3.922081l-4.679596 1.1932678z" fill-rule="evenodd"/><path fill="#000000" fill-opacity="0.0" d="m52.929134 183.5538l-23.086615 -71.9685" fill-rule="evenodd"/><path stroke="#000000" stroke-width="1.0" stroke-linejoin="round" stroke-linecap="butt" d="m52.929134 183.5538l-21.253878 -66.255264" fill-rule="evenodd"/><path fill="#000000" stroke="#000000" stroke-width="1.0" stroke-linecap="butt" d="m33.248047 116.79401l-2.9589806 -3.8166733l-0.18659973 4.825737z" fill-rule="evenodd"/><path fill="#000000" fill-opacity="0.0" d="m210.5748 66.08924l-76.755905 -21.826775" fill-rule="evenodd"/><path stroke="#000000" stroke-width="1.0" stroke-linejoin="round" stroke-linecap="butt" d="m210.5748 66.08924l-70.98471 -20.185642" fill-rule="evenodd"/><path fill="#000000" stroke="#000000" stroke-width="1.0" stroke-linecap="butt" d="m140.04187 44.314854l-4.816818 0.34747696l3.9132538 2.8300133z" fill-rule="evenodd"/><path fill="#000000" fill-opacity="0.0" d="m94.438324 28.167978l0 0c0 -12.559041 10.329178 -22.740156 23.070862 -22.740156l0 0c6.1187744 0 11.986938 2.395831 16.313568 6.660438c4.3266296 4.2646074 6.7572937 10.0486555 6.7572937 16.07972l0 0c0 12.559042 -10.329178 22.74016 -23.070862 22.74016l0 0c-12.741684 0 -23.070862 -10.181118 -23.070862 -22.74016z" fill-rule="evenodd"/><path stroke="#000000" stroke-width="1.0" stroke-linejoin="round" stroke-linecap="butt" d="m94.438324 28.167978l0 0c0 -12.559041 10.329178 -22.740156 23.070862 -22.740156l0 0c6.1187744 0 11.986938 2.395831 16.313568 6.660438c4.3266296 4.2646074 6.7572937 10.0486555 6.7572937 16.07972l0 0c0 12.559042 -10.329178 22.74016 -23.070862 22.74016l0 0c-12.741684 0 -23.070862 -10.181118 -23.070862 -22.74016z" fill-rule="evenodd"/><path fill="#000000" d="m111.66437 35.08798l0 -13.359377l9.65625 0l0 1.578125l-7.875 0l0 4.09375l7.375 0l0 1.5625l-7.375 0l0 4.546877l8.1875 0l0 1.578125l-9.96875 0z" fill-rule="nonzero"/><path fill="#000000" fill-opacity="0.0" d="m29.858267 66.08924l71.338585 -21.826775" fill-rule="evenodd"/><path stroke="#000000" stroke-width="1.0" stroke-linejoin="round" stroke-linecap="butt" d="m29.858267 66.08924l65.60112 -20.071339" fill-rule="evenodd"/><path fill="#000000" stroke="#000000" stroke-width="1.0" stroke-linecap="butt" d="m95.94264 47.59736l3.8562775 -2.9071808l-4.8227844 -0.2517357z" fill-rule="evenodd"/><path fill="#000000" fill-opacity="0.0" d="m187.50394 88.8294l0 0c0 -12.559044 10.329178 -22.740158 23.070862 -22.740158l0 0c6.1187744 0 11.986938 2.3958282 16.313568 6.6604385c4.3266296 4.2646027 6.757309 10.048653 6.757309 16.07972l0 0c0 12.559036 -10.329178 22.740158 -23.070877 22.740158l0 0c-12.741684 0 -23.070862 -10.181122 -23.070862 -22.740158z" fill-rule="evenodd"/><path stroke="#000000" stroke-width="1.0" stroke-linejoin="round" stroke-linecap="butt" d="m187.50394 88.8294l0 0c0 -12.559044 10.329178 -22.740158 23.070862 -22.740158l0 0c6.1187744 0 11.986938 2.3958282 16.313568 6.6604385c4.3266296 4.2646027 6.757309 10.048653 6.757309 16.07972l0 0c0 12.559036 -10.329178 22.740158 -23.070877 22.740158l0 0c-12.741684 0 -23.070862 -10.181122 -23.070862 -22.740158z" fill-rule="evenodd"/><path fill="#000000" d="m204.69873 95.7494l0 -13.359375l4.609375 0q1.546875 0 2.375 0.203125q1.140625 0.25 1.953125 0.953125q1.0625 0.890625 1.578125 2.28125q0.53125 1.390625 0.53125 3.171875q0 1.515625 -0.359375 2.703125q-0.359375 1.171875 -0.921875 1.9375q-0.546875 0.765625 -1.203125 1.21875q-0.65625 0.4375 -1.59375 0.671875q-0.9375 0.21875 -2.140625 0.21875l-4.828125 0zm1.765625 -1.578125l2.859375 0q1.3125 0 2.0625 -0.234375q0.75 -0.25 1.203125 -0.703125q0.625 -0.625 0.96875 -1.6875q0.359375 -1.0625 0.359375 -2.578125q0 -2.09375 -0.6875 -3.21875q-0.6875 -1.125 -1.671875 -1.5q-0.703125 -0.28125 -2.28125 -0.28125l-2.8125 0l0 10.203125z" fill-rule="nonzero"/><path fill="#000000" fill-opacity="0.0" d="m6.7874017 88.8294l0 0c0 -12.559044 10.32918 -22.740158 23.070866 -22.740158l0 0c6.1187763 0 11.98694 2.3958282 16.313566 6.6604385c4.326626 4.2646027 6.7573013 10.048653 6.7573013 16.07972l0 0c0 12.559036 -10.329178 22.740158 -23.070868 22.740158l0 0c-12.741686 0 -23.070866 -10.181122 -23.070866 -22.740158z" fill-rule="evenodd"/><path stroke="#000000" stroke-width="1.0" stroke-linejoin="round" stroke-linecap="butt" d="m6.7874017 88.8294l0 0c0 -12.559044 10.32918 -22.740158 23.070866 -22.740158l0 0c6.1187763 0 11.98694 2.3958282 16.313566 6.6604385c4.326626 4.2646027 6.7573013 10.048653 6.7573013 16.07972l0 0c0 12.559036 -10.329178 22.740158 -23.070868 22.740158l0 0c-12.741686 0 -23.070866 -10.181122 -23.070866 -22.740158z" fill-rule="evenodd"/><path fill="#000000" d="m33.51345 91.0619l1.765625 0.453125q-0.5625 2.171875 -2.0 3.328125q-1.4374981 1.140625 -3.531248 1.140625q-2.15625 0 -3.515625 -0.875q-1.34375 -0.890625 -2.0625 -2.546875q-0.703125 -1.671875 -0.703125 -3.59375q0 -2.078125 0.796875 -3.625q0.796875 -1.5625 2.265625 -2.359375q1.484375 -0.8125 3.25 -0.8125q2.0 0 3.359373 1.015625q1.375 1.015625 1.90625 2.875l-1.734375 0.40625q-0.46875 -1.453125 -1.3593731 -2.109375q-0.875 -0.671875 -2.203125 -0.671875q-1.546875 0 -2.578125 0.734375q-1.03125 0.734375 -1.453125 1.984375q-0.421875 1.234375 -0.421875 2.5625q0 1.703125 0.5 2.96875q0.5 1.265625 1.546875 1.90625q1.046875 0.625 2.265625 0.625q1.484375 0 2.515623 -0.859375q1.03125 -0.859375 1.390625 -2.546875z" fill-rule="nonzero"/><path fill="#000000" fill-opacity="0.0" d="m159.0 206.29396l0 0c0 -12.559036 10.329178 -22.740158 23.070862 -22.740158l0 0c6.1187744 0 11.986938 2.3958282 16.313568 6.660446c4.3266296 4.2646027 6.757309 10.048645 6.757309 16.079712l0 0c0 12.5590515 -10.329178 22.740158 -23.070877 22.740158l0 0c-12.741684 0 -23.070862 -10.181107 -23.070862 -22.740158z" fill-rule="evenodd"/><path stroke="#000000" stroke-width="1.0" stroke-linejoin="round" stroke-linecap="butt" d="m159.0 206.29396l0 0c0 -12.559036 10.329178 -22.740158 23.070862 -22.740158l0 0c6.1187744 0 11.986938 2.3958282 16.313568 6.660446c4.3266296 4.2646027 6.757309 10.048645 6.757309 16.079712l0 0c0 12.5590515 -10.329178 22.740158 -23.070877 22.740158l0 0c-12.741684 0 -23.070862 -10.181107 -23.070862 -22.740158z" fill-rule="evenodd"/><path fill="#000000" d="m176.11667 213.21396l0 -13.359375l5.015625 0q1.53125 0 2.453125 0.40625q0.921875 0.40625 1.4375 1.25q0.53125 0.84375 0.53125 1.765625q0 0.859375 -0.46875 1.625q-0.453125 0.75 -1.390625 1.203125q1.203125 0.359375 1.859375 1.21875q0.65625 0.859375 0.65625 2.015625q0 0.9375 -0.40625 1.75q-0.390625 0.796875 -0.984375 1.234375q-0.578125 0.4375 -1.453125 0.671875q-0.875 0.21875 -2.15625 0.21875l-5.09375 0zm1.78125 -7.75l2.875 0q1.1875 0 1.6875 -0.140625q0.671875 -0.203125 1.015625 -0.671875q0.34375 -0.46875 0.34375 -1.171875q0 -0.65625 -0.328125 -1.15625q-0.3125 -0.515625 -0.90625 -0.703125q-0.59375 -0.1875 -2.03125 -0.1875l-2.65625 0l0 4.03125zm0 6.171875l3.3125 0q0.859375 0 1.203125 -0.0625q0.609375 -0.109375 1.015625 -0.359375q0.421875 -0.265625 0.6875 -0.75q0.265625 -0.484375 0.265625 -1.125q0 -0.75 -0.390625 -1.296875q-0.375 -0.546875 -1.0625 -0.765625q-0.671875 -0.234375 -1.953125 -0.234375l-3.078125 0l0 4.59375z" fill-rule="nonzero"/><path fill="#000000" fill-opacity="0.0" d="m182.07086 183.5538l28.503937 -71.9685" fill-rule="evenodd"/><path stroke="#000000" stroke-width="1.0" stroke-linejoin="round" stroke-linecap="butt" d="m182.07086 183.5538l26.29454 -66.3901" fill-rule="evenodd"/><path fill="#000000" stroke="#000000" stroke-width="1.0" stroke-linecap="butt" d="m209.9011 117.77193l0.13539124 -4.827446l-3.2067413 3.6110077z" fill-rule="evenodd"/><path fill="#000000" fill-opacity="0.0" d="m76.0 206.29396l82.99213 0" fill-rule="evenodd"/><path stroke="#000000" stroke-width="1.0" stroke-linejoin="round" stroke-linecap="butt" d="m76.0 206.29396l76.99213 0" fill-rule="evenodd"/><path fill="#000000" stroke="#000000" stroke-width="1.0" stroke-linecap="butt" d="m152.99213 207.9457l4.538101 -1.6517334l-4.538101 -1.6517334z" fill-rule="evenodd"/><path fill="#000000" fill-opacity="0.0" d="m165.7573 190.21425l-119.590546 -85.29134" fill-rule="evenodd"/><path stroke="#000000" stroke-width="1.0" stroke-linejoin="round" stroke-linecap="butt" d="m165.7573 190.21423l-114.70563 -81.80743" fill-rule="evenodd"/><path fill="#000000" stroke="#000000" stroke-width="1.0" stroke-linecap="butt" d="m52.010746 107.062035l-4.6537857 -1.2902832l2.73563 3.9798126z" fill-rule="evenodd"/><path fill="#000000" fill-opacity="0.0" d="m52.929134 88.8294l134.58267 0" fill-rule="evenodd"/><path stroke="#000000" stroke-width="1.0" stroke-linejoin="round" stroke-linecap="butt" d="m52.929134 88.8294l128.58267 0" fill-rule="evenodd"/><path fill="#000000" stroke="#000000" stroke-width="1.0" stroke-linecap="butt" d="m181.51181 90.48113l4.538101 -1.6517334l-4.538101 -1.6517334z" fill-rule="evenodd"/><path fill="#000000" fill-opacity="0.0" d="m165.7573 190.21425l-48.25196 -139.3071" fill-rule="evenodd"/><path stroke="#000000" stroke-width="1.0" stroke-linejoin="round" stroke-linecap="butt" d="m165.7573 190.21423l-46.288193 -133.63754" fill-rule="evenodd"/><path fill="#000000" stroke="#000000" stroke-width="1.0" stroke-linecap="butt" d="m121.029854 56.03609l-3.046051 -3.7475471l-0.07546997 4.8287506z" fill-rule="evenodd"/><path fill="#000000" fill-opacity="0.0" d="m69.2427 190.21425l48.25197 -139.3071" fill-rule="evenodd"/><path stroke="#000000" stroke-width="1.0" stroke-linejoin="round" stroke-linecap="butt" d="m69.2427 190.21423l46.2882 -133.63754" fill-rule="evenodd"/><path fill="#000000" stroke="#000000" stroke-width="1.0" stroke-linecap="butt" d="m117.09167 57.117294l-0.07546997 -4.8287506l-3.046051 3.7475471z" fill-rule="evenodd"/></g></svg>