<svg version="1.1" viewBox="0.0 0.0 243.2230971128609 237.002624671916" fill="none" stroke="none" stroke-linecap="square" stroke-miterlimit="10" xmlns:xlink="http://www.w3.org/1999/xlink" xmlns="http://www.w3.org/2000/svg"><clipPath id="p.0"><path d="m0 0l243.2231 0l0 237.00262l-243.2231 0l0 -237.00262z" clip-rule="nonzero"/></clipPath><g clip-path="url(#p.0)"><path fill="#000000" fill-opacity="0.0" d="m0 0l243.2231 0l0 237.00262l-243.2231 0z" fill-rule="evenodd"/><path fill="#000000" fill-opacity="0.0" d="m29.38845 102.25722l0 0c0 -12.559044 10.329178 -22.740158 23.070866 -22.740158l0 0c6.1187744 0 11.986942 2.3958359 16.313564 6.6604385c4.3266296 4.2646103 6.7573013 10.048653 6.7573013 16.07972l0 0c0 12.559044 -10.329178 22.740158 -23.070866 22.740158l0 0c-12.741688 0 -23.070866 -10.181114 -23.070866 -22.740158z" fill-rule="evenodd"/><path stroke="#000000" stroke-width="1.0" stroke-linejoin="round" stroke-linecap="butt" d="m29.38845 102.25722l0 0c0 -12.559044 10.329178 -22.740158 23.070866 -22.740158l0 0c6.1187744 0 11.986942 2.3958359 16.313564 6.6604385c4.3266296 4.2646103 6.7573013 10.048653 6.7573013 16.07972l0 0c0 12.559044 -10.329178 22.740158 -23.070866 22.740158l0 0c-12.741688 0 -23.070866 -10.181114 -23.070866 -22.740158z" fill-rule="evenodd"/><path fill="#000000" d="m45.114502 109.177216l5.125 -13.359375l1.90625 0l5.46875 13.359375l-2.015625 0l-1.546875 -4.046875l-5.59375 0l-1.46875 4.046875l-1.875 0zm3.859375 -5.484375l4.53125 0l-1.40625 -3.703125q-0.625 -1.6875 -0.9375 -2.765625q-0.265625 1.28125 -0.71875 2.546875l-1.46875 3.921875z" fill-rule="nonzero"/><path fill="#000000" fill-opacity="0.0" d="m100.7874 50.94488l0 0c0 -12.55904 10.329178 -22.740156 23.07087 -22.740156l0 0c6.118767 0 11.986931 2.3958302 16.31356 6.6604366c4.3266296 4.2646065 6.757309 10.048656 6.757309 16.07972l0 0c0 12.559044 -10.329178 22.740154 -23.07087 22.740154l0 0c-12.741692 0 -23.07087 -10.18111 -23.07087 -22.740154z" fill-rule="evenodd"/><path stroke="#000000" stroke-width="1.0" stroke-linejoin="round" stroke-linecap="butt" d="m100.7874 50.94488l0 0c0 -12.55904 10.329178 -22.740156 23.07087 -22.740156l0 0c6.118767 0 11.986931 2.3958302 16.31356 6.6604366c4.3266296 4.2646065 6.757309 10.048656 6.757309 16.07972l0 0c0 12.559044 -10.329178 22.740154 -23.07087 22.740154l0 0c-12.741692 0 -23.07087 -10.18111 -23.07087 -22.740154z" fill-rule="evenodd"/><path fill="#000000" d="m118.01345 57.86488l0 -13.359375l9.65625 0l0 1.578125l-7.875 0l0 4.09375l7.375 0l0 1.5625l-7.375 0l0 4.546875l8.1875 0l0 1.578125l-9.96875 0z" fill-rule="nonzero"/><path fill="#000000" fill-opacity="0.0" d="m171.42783 102.25722l0 0c0 -12.559044 10.329178 -22.740158 23.070862 -22.740158l0 0c6.1187744 0 11.986938 2.3958359 16.313568 6.6604385c4.3266296 4.2646103 6.7572937 10.048653 6.7572937 16.07972l0 0c0 12.559044 -10.329178 22.740158 -23.070862 22.740158l0 0c-12.741684 0 -23.070862 -10.181114 -23.070862 -22.740158z" fill-rule="evenodd"/><path stroke="#000000" stroke-width="1.0" stroke-linejoin="round" stroke-linecap="butt" d="m171.42783 102.25722l0 0c0 -12.559044 10.329178 -22.740158 23.070862 -22.740158l0 0c6.1187744 0 11.986938 2.3958359 16.313568 6.6604385c4.3266296 4.2646103 6.7572937 10.048653 6.7572937 16.07972l0 0c0 12.559044 -10.329178 22.740158 -23.070862 22.740158l0 0c-12.741684 0 -23.070862 -10.181114 -23.070862 -22.740158z" fill-rule="evenodd"/><path fill="#000000" d="m188.62262 109.177216l0 -13.359375l4.609375 0q1.546875 0 2.375 0.203125q1.140625 0.25 1.953125 0.953125q1.0625 0.890625 1.578125 2.28125q0.53125 1.390625 0.53125 3.171875q0 1.515625 -0.359375 2.703125q-0.359375 1.171875 -0.921875 1.9375q-0.546875 0.765625 -1.203125 1.21875q-0.65625 0.4375 -1.59375 0.671875q-0.9375 0.21875 -2.140625 0.21875l-4.828125 0zm1.765625 -1.578125l2.859375 0q1.3125 0 2.0625 -0.234375q0.75 -0.25 1.203125 -0.703125q0.625 -0.625 0.96875 -1.6875q0.359375 -1.0625 0.359375 -2.578125q0 -2.09375 -0.6875 -3.21875q-0.6875 -1.125 -1.671875 -1.5q-0.703125 -0.28125 -2.28125 -0.28125l-2.8125 0l0 10.203125z" fill-rule="nonzero"/><path fill="#000000" fill-opacity="0.0" d="m146.93964 177.45407l0 0c0 -12.5590515 10.329178 -22.740158 23.070862 -22.740158l0 0c6.1187744 0 11.986938 2.3958282 16.313568 6.660431c4.3266296 4.264618 6.7572937 10.04866 6.7572937 16.079727l0 0c0 12.559036 -10.329178 22.740158 -23.070862 22.740158l0 0c-12.741684 0 -23.070862 -10.181122 -23.070862 -22.740158z" fill-rule="evenodd"/><path stroke="#000000" stroke-width="1.0" stroke-linejoin="round" stroke-linecap="butt" d="m146.93964 177.45407l0 0c0 -12.5590515 10.329178 -22.740158 23.070862 -22.740158l0 0c6.1187744 0 11.986938 2.3958282 16.313568 6.660431c4.3266296 4.264618 6.7572937 10.04866 6.7572937 16.079727l0 0c0 12.559036 -10.329178 22.740158 -23.070862 22.740158l0 0c-12.741684 0 -23.070862 -10.181122 -23.070862 -22.740158z" fill-rule="evenodd"/><path fill="#000000" d="m173.66568 179.68657l1.765625 0.453125q-0.5625 2.171875 -2.0 3.328125q-1.4375 1.140625 -3.53125 1.140625q-2.15625 0 -3.515625 -0.875q-1.34375 -0.890625 -2.0625 -2.546875q-0.703125 -1.671875 -0.703125 -3.59375q0 -2.078125 0.796875 -3.625q0.796875 -1.5625 2.265625 -2.359375q1.484375 -0.8125 3.25 -0.8125q2.0 0 3.359375 1.015625q1.375 1.015625 1.90625 2.875l-1.734375 0.40625q-0.46875 -1.453125 -1.359375 -2.109375q-0.875 -0.671875 -2.203125 -0.671875q-1.546875 0 -2.578125 0.734375q-1.03125 0.734375 -1.453125 1.984375q-0.421875 1.234375 -0.421875 2.5625q0 1.703125 0.5 2.96875q0.5 1.265625 1.546875 1.90625q1.046875 0.625 2.265625 0.625q1.484375 0 2.515625 -0.859375q1.03125 -0.859375 1.390625 -2.546875z" fill-rule="nonzero"/><path fill="#000000" fill-opacity="0.0" d="m61.480316 177.45407l0 0c0 -12.5590515 10.329178 -22.740158 23.070862 -22.740158l0 0c6.1187744 0 11.986946 2.3958282 16.313568 6.660431c4.3266296 4.264618 6.7573013 10.04866 6.7573013 16.079727l0 0c0 12.559036 -10.329178 22.740158 -23.07087 22.740158l0 0c-12.741684 0 -23.070862 -10.181122 -23.070862 -22.740158z" fill-rule="evenodd"/><path stroke="#000000" stroke-width="1.0" stroke-linejoin="round" stroke-linecap="butt" d="m61.480316 177.45407l0 0c0 -12.5590515 10.329178 -22.740158 23.070862 -22.740158l0 0c6.1187744 0 11.986946 2.3958282 16.313568 6.660431c4.3266296 4.264618 6.7573013 10.04866 6.7573013 16.079727l0 0c0 12.559036 -10.329178 22.740158 -23.07087 22.740158l0 0c-12.741684 0 -23.070862 -10.181122 -23.070862 -22.740158z" fill-rule="evenodd"/><path fill="#000000" d="m78.59699 184.37407l0 -13.359375l5.015625 0q1.53125 0 2.453125 0.40625q0.921875 0.40625 1.4375 1.25q0.53125 0.84375 0.53125 1.765625q0 0.859375 -0.46875 1.625q-0.453125 0.75 -1.390625 1.203125q1.203125 0.359375 1.859375 1.21875q0.65625 0.859375 0.65625 2.015625q0 0.9375 -0.40625 1.75q-0.390625 0.796875 -0.984375 1.234375q-0.578125 0.4375 -1.453125 0.671875q-0.875 0.21875 -2.15625 0.21875l-5.09375 0zm1.78125 -7.75l2.875 0q1.1875 0 1.6875 -0.140625q0.671875 -0.203125 1.015625 -0.671875q0.34375 -0.46875 0.34375 -1.171875q0 -0.65625 -0.328125 -1.15625q-0.3125 -0.515625 -0.90625 -0.703125q-0.59375 -0.1875 -2.03125 -0.1875l-2.65625 0l0 4.03125zm0 6.171875l3.3125 0q0.859375 0 1.203125 -0.0625q0.609375 -0.109375 1.015625 -0.359375q0.421875 -0.265625 0.6875 -0.75q0.265625 -0.484375 0.265625 -1.125q0 -0.75 -0.390625 -1.296875q-0.375 -0.546875 -1.0625 -0.765625q-0.671875 -0.234375 -1.953125 -0.234375l-3.078125 0l0 4.59375z" fill-rule="nonzero"/><path fill="#000000" fill-opacity="0.0" d="m194.49869 79.51706l-47.55905 -28.566929" fill-rule="evenodd"/><path stroke="#000000" stroke-width="1.0" stroke-linejoin="round" stroke-linecap="butt" d="m194.49869 79.51706l-42.415604 -25.477448" fill-rule="evenodd"/><path fill="#000000" stroke="#000000" stroke-width="1.0" stroke-linecap="butt" d="m152.93358 52.623676l-4.740738 -0.9207916l3.0397491 3.7526588z" fill-rule="evenodd"/><path fill="#000000" fill-opacity="0.0" d="m170.0105 154.71391l24.503937 -29.70079" fill-rule="evenodd"/><path stroke="#000000" stroke-width="1.0" stroke-linejoin="round" stroke-linecap="butt" d="m170.0105 154.71391l20.685577 -25.072617" fill-rule="evenodd"/><path fill="#000000" stroke="#000000" stroke-width="1.0" stroke-linecap="butt" d="m191.97015 130.69246l1.6139374 -4.5516815l-4.1621094 2.4493713z" fill-rule="evenodd"/><path fill="#000000" fill-opacity="0.0" d="m52.459316 79.51706l48.31496 -28.566929" fill-rule="evenodd"/><path stroke="#000000" stroke-width="1.0" stroke-linejoin="round" stroke-linecap="butt" d="m52.459316 79.51706l43.15021 -25.513187" fill-rule="evenodd"/><path fill="#000000" stroke="#000000" stroke-width="1.0" stroke-linecap="butt" d="m96.45018 55.425667l3.0657043 -3.731491l-4.747017 0.8878937z" fill-rule="evenodd"/><path fill="#000000" fill-opacity="0.0" d="m52.459316 124.997375l32.094486 29.732285" fill-rule="evenodd"/><path stroke="#000000" stroke-width="1.0" stroke-linejoin="round" stroke-linecap="butt" d="m52.459316 124.997375l27.692959 25.654709" fill-rule="evenodd"/><path fill="#000000" stroke="#000000" stroke-width="1.0" stroke-linecap="butt" d="m79.02977 151.86378l4.451599 1.8723755l-2.206581 -4.295761z" fill-rule="evenodd"/><path fill="#000000" fill-opacity="0.0" d="m107.62205 177.45407l39.30709 0" fill-rule="evenodd"/><path stroke="#000000" stroke-width="1.0" stroke-linejoin="round" stroke-linecap="butt" d="m107.62205 177.45407l33.30709 0" fill-rule="evenodd"/><path fill="#000000" stroke="#000000" stroke-width="1.0" stroke-linecap="butt" d="m140.92914 179.1058l4.538086 -1.6517334l-4.538086 -1.6517334z" fill-rule="evenodd"/></g></svg>