<?xml version="1.0" encoding="utf-8" standalone="no"?>
<!DOCTYPE svg PUBLIC "-//W3C//DTD SVG 1.1//EN"
  "http://www.w3.org/Graphics/SVG/1.1/DTD/svg11.dtd">
<!-- Created with matplotlib (http://matplotlib.org/) -->
<svg height="345pt" version="1.1" viewBox="0 0 460 345" width="460pt" xmlns="http://www.w3.org/2000/svg" xmlns:xlink="http://www.w3.org/1999/xlink">
 <defs>
  <style type="text/css">
*{stroke-linecap:butt;stroke-linejoin:round;}
  </style>
 </defs>
 <g id="figure_1">
  <g id="patch_1">
   <path d="M 0 345.6 
L 460.8 345.6 
L 460.8 0 
L 0 0 
z
" style="fill:#f0f0f0;"/>
  </g>
  <g id="axes_1">
   <g id="patch_2">
    <path d="M 56.807805 285.755305 
L 445.68 285.755305 
L 445.68 15.12 
L 56.807805 15.12 
z
" style="fill:#f0f0f0;"/>
   </g>
   <g id="matplotlib.axis_1">
    <g id="xtick_1">
     <g id="line2d_1"/>
     <g id="text_1">
      <!-- 3-clique -->
      <defs>
       <path d="M 22.09375 33.703125 
C 31 33.703125 34.90625 25.96875 34.90625 17.03125 
C 34.90625 5 28.5 0.390625 22.703125 0.390625 
C 17.40625 0.390625 8.796875 3.03125 6.09375 10.828125 
C 6.59375 10.625 7.09375 10.625 7.59375 10.625 
C 10 10.625 11.796875 12.21875 11.796875 14.8125 
C 11.796875 17.703125 9.59375 19 7.59375 19 
C 5.90625 19 3.296875 18.203125 3.296875 14.46875 
C 3.296875 5.234375 12.296875 -2 22.90625 -2 
C 34 -2 42.5 6.71875 42.5 16.953125 
C 42.5 26.671875 34.5 33.703125 25 34.796875 
C 32.59375 36.375 39.90625 43.0625 39.90625 52.015625 
C 39.90625 59.6875 32 65.296875 23 65.296875 
C 13.90625 65.296875 5.90625 59.828125 5.90625 52.015625 
C 5.90625 48.59375 8.5 48 9.796875 48 
C 11.90625 48 13.703125 49.296875 13.703125 51.890625 
C 13.703125 54.46875 11.90625 55.765625 9.796875 55.765625 
C 9.40625 55.765625 8.90625 55.765625 8.5 55.578125 
C 11.40625 61.859375 19.296875 63 22.796875 63 
C 26.296875 63 32.90625 61.328125 32.90625 51.875 
C 32.90625 49.109375 32.5 44.1875 29.09375 39.84375 
C 26.09375 36 22.703125 36 19.40625 35.6875 
C 18.90625 35.6875 16.59375 35.453125 16.203125 35.453125 
C 15.5 35.359375 15.09375 35.265625 15.09375 34.5 
C 15.09375 33.796875 15.203125 33.703125 17.203125 33.703125 
z
" id="CMR17-51"/>
       <path d="M 25.5 19 
L 25.5 23.375 
L 0.40625 23.375 
L 0.40625 19 
z
" id="CMR17-45"/>
       <path d="M 34.90625 35 
C 33 35 30.203125 35 30.203125 31.515625 
C 30.203125 28.71875 32.5 27.921875 33.796875 27.921875 
C 34.5 27.921875 37.40625 28.234375 37.40625 31.625 
C 37.40625 38.546875 30.59375 43.796875 22.90625 43.796875 
C 12.296875 43.796875 3.296875 34.03125 3.296875 21.296875 
C 3.296875 8.0625 12.703125 -1 22.90625 -1 
C 35.296875 -1 38.40625 10.578125 38.40625 11.6875 
C 38.40625 12.09375 38.296875 12.390625 37.59375 12.390625 
C 36.90625 12.390625 36.796875 12.296875 36.40625 10.984375 
C 33.796875 2.8125 28.09375 0.796875 23.796875 0.796875 
C 17.40625 0.796875 9.703125 6.671875 9.703125 21.390625 
C 9.703125 36.53125 17.09375 42 23 42 
C 26.90625 42 32.703125 40.203125 34.90625 35 
z
" id="CMR17-99"/>
       <path d="M 15.296875 68.6875 
L 3.40625 67.59375 
L 3.40625 65 
C 9.296875 65 10.203125 64.40625 10.203125 59.640625 
L 10.203125 6.65625 
C 10.203125 2.875 9.796875 2.390625 3.40625 2.390625 
L 3.40625 -0.203125 
C 5.796875 0 10.203125 0 12.703125 0 
C 15.296875 0 19.703125 0 22.09375 -0.203125 
L 22.09375 2.390625 
C 15.703125 2.390625 15.296875 2.78125 15.296875 6.65625 
z
" id="CMR17-108"/>
       <path d="M 15.5 61.078125 
C 15.5 63.265625 13.703125 65.15625 11.40625 65.15625 
C 9.203125 65.15625 7.296875 63.375 7.296875 61.078125 
C 7.296875 58.890625 9.09375 57 11.40625 57 
C 13.59375 57 15.5 58.796875 15.5 61.078125 
z
M 3.796875 42.28125 
L 3.796875 39.703125 
C 9.40625 39.703125 10.203125 39.09375 10.203125 34.328125 
L 10.203125 6.671875 
C 10.203125 2.875 9.796875 2.390625 3.40625 2.390625 
L 3.40625 -0.203125 
C 5.796875 0 10.09375 0 12.59375 0 
C 15 0 19.09375 0 21.40625 -0.203125 
L 21.40625 2.390625 
C 15.5 2.390625 15.296875 2.984375 15.296875 6.5625 
L 15.296875 43.375 
z
" id="CMR17-105"/>
       <path d="M 41.09375 43.78125 
L 39.5 43.78125 
L 36.5 33.9375 
C 34.203125 39.203125 30 43.78125 23.296875 43.78125 
C 13.09375 43.78125 3.296875 34.734375 3.296875 21.609375 
C 3.296875 8.5625 12.5 -0.59375 22.5 -0.59375 
C 30.203125 -0.59375 34.5 5.28125 35.796875 7.46875 
L 35.796875 -12.328125 
C 35.796875 -16.109375 35.40625 -16.609375 29 -16.609375 
L 29 -19.1875 
C 31.40625 -19 35.796875 -19 38.40625 -19 
C 41 -19 45.5 -19 47.90625 -19.1875 
L 47.90625 -16.609375 
C 41.5 -16.609375 41.09375 -16.203125 41.09375 -12.328125 
z
M 36 13.84375 
C 36 9.5625 32.40625 5.578125 32.09375 5.28125 
C 29 1.796875 25.40625 1 23 1 
C 15.5 1 9.703125 10.453125 9.703125 21.484375 
C 9.703125 33.140625 16.296875 42 24 42 
C 32 42 36 32.9375 36 27.765625 
z
" id="CMR17-113"/>
       <path d="M 29.40625 42.078125 
L 29.40625 39.5 
C 35.296875 39.5 36.203125 38.890625 36.203125 34.15625 
L 36.203125 16.125 
C 36.203125 7.8125 31.703125 0.59375 24.296875 0.59375 
C 16.09375 0.59375 15.40625 5.4375 15.40625 10.59375 
L 15.40625 43.171875 
L 3.296875 42.078125 
L 3.296875 39.5 
C 7.296875 39.5 10 39.5 10.09375 35.53125 
L 10.09375 16.53125 
C 10.09375 9.890625 10.09375 5.640625 12.703125 2.859375 
C 14 1.578125 16.5 -1 23.703125 -1 
C 32.203125 -1 35.5 5.890625 36.296875 7.90625 
L 36.40625 7.90625 
L 36.40625 -0.984375 
L 48.296875 -0.984375 
L 48.296875 2 
C 42.40625 2 41.5 2.59375 41.5 7.390625 
L 41.5 43.171875 
z
" id="CMR17-117"/>
       <path d="M 38.09375 23 
C 38.5 23.40625 38.5 23.609375 38.5 24.625 
C 38.5 34.96875 33.09375 44 21.703125 44 
C 11.09375 44 2.703125 33.890625 2.703125 21.609375 
C 2.703125 8.609375 12.203125 -1 22.796875 -1 
C 34 -1 38.40625 9.484375 38.40625 11.5625 
C 38.40625 12.25 37.796875 12.25 37.59375 12.25 
C 36.90625 12.25 36.796875 12.046875 36.40625 10.875 
C 34.203125 4.140625 28.703125 0.796875 23.5 0.796875 
C 19.203125 0.796875 14.90625 3.171875 12.203125 7.5 
C 9.09375 12.546875 9.09375 18.375 9.09375 23 
z
M 9.203125 24.5 
C 9.90625 39.140625 17.59375 42.40625 21.59375 42.40625 
C 28.40625 42.40625 33 35.890625 33.09375 24.5 
z
" id="CMR17-101"/>
      </defs>
      <g transform="translate(91.653431 328.562306)rotate(-45)scale(0.14 -0.14)">
       <use transform="scale(0.996264)" xlink:href="#CMR17-51"/>
       <use transform="translate(45.690477 0)scale(0.996264)" xlink:href="#CMR17-45"/>
       <use transform="translate(75.766443 0)scale(0.996264)" xlink:href="#CMR17-99"/>
       <use transform="translate(116.252104 0)scale(0.996264)" xlink:href="#CMR17-108"/>
       <use transform="translate(141.123162 0)scale(0.996264)" xlink:href="#CMR17-105"/>
       <use transform="translate(165.994221 0)scale(0.996264)" xlink:href="#CMR17-113"/>
       <use transform="translate(214.287137 0)scale(0.996264)" xlink:href="#CMR17-117"/>
       <use transform="translate(265.182507 0)scale(0.996264)" xlink:href="#CMR17-101"/>
      </g>
     </g>
    </g>
    <g id="xtick_2">
     <g id="line2d_2"/>
     <g id="text_2">
      <!-- kite -->
      <defs>
       <path d="M 26.09375 26.140625 
C 26 26.34375 25.5 26.9375 25.5 27.234375 
C 25.5 27.4375 32.59375 33.921875 33.5 34.71875 
C 39.203125 39.5 42.796875 40 45.40625 40 
L 45.40625 42.703125 
C 44.796875 42.703125 44.59375 42.703125 44.5 42.5 
L 39.59375 42.5 
C 36.796875 42.5 32.5 42.5 29.796875 42.703125 
L 29.796875 40.09375 
C 31.203125 39.984375 32.203125 39.1875 32.203125 37.796875 
C 32.203125 35.796875 30.203125 33.90625 30.09375 33.90625 
L 15 20.140625 
L 15 68.6875 
L 3.09375 67.59375 
L 3.09375 65 
C 9 65 9.90625 64.40625 9.90625 59.640625 
L 9.90625 6.65625 
C 9.90625 2.875 9.5 2.390625 3.09375 2.390625 
L 3.09375 -0.203125 
C 5.5 0 9.90625 0 12.40625 0 
C 14.90625 0 19.296875 0 21.703125 -0.203125 
L 21.703125 2.390625 
C 15.296875 2.390625 14.90625 2.78125 14.90625 6.6875 
L 14.90625 17.65625 
L 21.796875 23.9375 
L 31.90625 8.96875 
C 33.09375 7.171875 34.09375 5.765625 34.09375 4.46875 
C 34.09375 2.6875 32.296875 2.390625 31.09375 2.390625 
L 31.09375 -0.203125 
C 33.5 0 37.796875 0 40.296875 0 
C 42.09375 0 45.796875 0 47.5 0 
L 47.5 2.390625 
C 42.796875 2.390625 41.703125 3.28125 38.703125 7.671875 
z
" id="CMR17-107"/>
       <path d="M 15.09375 40 
L 29.09375 40 
L 29.09375 42.578125 
L 15.09375 42.578125 
L 15.09375 61 
L 13.296875 61 
C 13.09375 50.703125 9.59375 41.6875 1.09375 41.6875 
L 1.09375 40 
L 9.796875 40 
L 9.796875 12.046875 
C 9.796875 10.15625 9.796875 -1 21.40625 -1 
C 27.296875 -1 30.703125 4.78125 30.703125 12.140625 
L 30.703125 17.8125 
L 28.90625 17.8125 
L 28.90625 12.234375 
C 28.90625 5.375 26.203125 0.796875 22 0.796875 
C 19.09375 0.796875 15.09375 2.78125 15.09375 11.84375 
z
" id="CMR17-116"/>
      </defs>
      <g transform="translate(197.187179 311.930908)rotate(-45)scale(0.14 -0.14)">
       <use transform="scale(0.996264)" xlink:href="#CMR17-107"/>
       <use transform="translate(48.292916 0)scale(0.996264)" xlink:href="#CMR17-105"/>
       <use transform="translate(73.163974 0)scale(0.996264)" xlink:href="#CMR17-116"/>
       <use transform="translate(108.444742 0)scale(0.996264)" xlink:href="#CMR17-101"/>
      </g>
     </g>
    </g>
    <g id="xtick_3">
     <g id="line2d_3"/>
     <g id="text_3">
      <!-- 4-clique -->
      <defs>
       <path d="M 33.59375 64.40625 
C 33.59375 66.5 33.5 66.5 31.703125 66.5 
L 2 19.59375 
L 2 17 
L 27.796875 17 
L 27.796875 7.140625 
C 27.796875 3.5 27.59375 2.5 20.59375 2.5 
L 18.703125 2.5 
L 18.703125 0 
C 21.90625 0 27.296875 0 30.703125 0 
C 34.09375 0 39.5 0 42.703125 0 
L 42.703125 2.5 
L 40.796875 2.5 
C 33.796875 2.5 33.59375 3.5 33.59375 7.140625 
L 33.59375 17 
L 43.796875 17 
L 43.796875 19.59375 
L 33.59375 19.59375 
z
M 28.09375 57.859375 
L 28.09375 19.59375 
L 4 19.59375 
z
" id="CMR17-52"/>
      </defs>
      <g transform="translate(286.089528 328.562306)rotate(-45)scale(0.14 -0.14)">
       <use transform="scale(0.996264)" xlink:href="#CMR17-52"/>
       <use transform="translate(45.690477 0)scale(0.996264)" xlink:href="#CMR17-45"/>
       <use transform="translate(75.766443 0)scale(0.996264)" xlink:href="#CMR17-99"/>
       <use transform="translate(116.252104 0)scale(0.996264)" xlink:href="#CMR17-108"/>
       <use transform="translate(141.123162 0)scale(0.996264)" xlink:href="#CMR17-105"/>
       <use transform="translate(165.994221 0)scale(0.996264)" xlink:href="#CMR17-113"/>
       <use transform="translate(214.287137 0)scale(0.996264)" xlink:href="#CMR17-117"/>
       <use transform="translate(265.182507 0)scale(0.996264)" xlink:href="#CMR17-101"/>
      </g>
     </g>
    </g>
    <g id="xtick_4">
     <g id="line2d_4"/>
     <g id="text_4">
      <!-- 5-clique -->
      <defs>
       <path d="M 11.40625 57.6875 
C 12.40625 57.28125 16.5 56 20.703125 56 
C 30 56 35.09375 61.109375 38 64.0625 
C 38 64.953125 38 65.5 37.40625 65.5 
C 37.296875 65.5 37.09375 65.5 36.296875 65.046875 
C 32.796875 63.40625 28.703125 62.078125 23.703125 62.078125 
C 20.703125 62.078125 16.203125 62.484375 11.296875 64.671875 
C 10.203125 65.171875 10 65.171875 9.90625 65.171875 
C 9.40625 65.171875 9.296875 65.0625 9.296875 63.078125 
L 9.296875 34.421875 
C 9.296875 32.640625 9.296875 32.140625 10.296875 32.140625 
C 10.796875 32.140625 11 32.34375 11.5 33.03125 
C 14.703125 37.515625 19.09375 39.40625 24.09375 39.40625 
C 27.59375 39.40625 35.09375 37.21875 35.09375 20.140625 
C 35.09375 16.953125 35.09375 11.171875 32.09375 6.578125 
C 29.59375 2.484375 25.703125 0.390625 21.40625 0.390625 
C 14.796875 0.390625 8.09375 5 6.296875 12.71875 
C 6.703125 12.609375 7.5 12.421875 7.90625 12.421875 
C 9.203125 12.421875 11.703125 13.125 11.703125 16.21875 
C 11.703125 18.90625 9.796875 20 7.90625 20 
C 5.59375 20 4.09375 18.59375 4.09375 15.796875 
C 4.09375 7.09375 11 -2 21.59375 -2 
C 31.90625 -2 41.703125 6.875 41.703125 19.75 
C 41.703125 31.71875 33.90625 41 24.203125 41 
C 19.09375 41 14.796875 39.109375 11.40625 35.53125 
z
" id="CMR17-53"/>
      </defs>
      <g transform="translate(383.307577 328.562306)rotate(-45)scale(0.14 -0.14)">
       <use transform="scale(0.996264)" xlink:href="#CMR17-53"/>
       <use transform="translate(45.690477 0)scale(0.996264)" xlink:href="#CMR17-45"/>
       <use transform="translate(75.766443 0)scale(0.996264)" xlink:href="#CMR17-99"/>
       <use transform="translate(116.252104 0)scale(0.996264)" xlink:href="#CMR17-108"/>
       <use transform="translate(141.123162 0)scale(0.996264)" xlink:href="#CMR17-105"/>
       <use transform="translate(165.994221 0)scale(0.996264)" xlink:href="#CMR17-113"/>
       <use transform="translate(214.287137 0)scale(0.996264)" xlink:href="#CMR17-117"/>
       <use transform="translate(265.182507 0)scale(0.996264)" xlink:href="#CMR17-101"/>
      </g>
     </g>
    </g>
   </g>
   <g id="matplotlib.axis_2">
    <g id="ytick_1">
     <g id="line2d_5">
      <path clip-path="url(#pa2e0d6fc6f)" d="M 56.807805 285.755305 
L 445.68 285.755305 
" style="fill:none;stroke:#cbcbcb;"/>
     </g>
     <g id="line2d_6"/>
     <g id="text_5">
      <!-- $0.0$ -->
      <defs>
       <path d="M 42 31.640625 
C 42 37.75 41.90625 48.125 37.703125 56.109375 
C 34 63.109375 28.09375 65.59375 22.90625 65.59375 
C 18.09375 65.59375 12 63.40625 8.203125 56.203125 
C 4.203125 48.71875 3.796875 39.4375 3.796875 31.640625 
C 3.796875 25.953125 3.90625 17.28125 7 9.671875 
C 11.296875 -0.609375 19 -2 22.90625 -2 
C 27.5 -2 34.5 -0.109375 38.59375 9.375 
C 41.59375 16.28125 42 24.359375 42 31.640625 
z
M 22.90625 -0.40625 
C 16.5 -0.40625 12.703125 5.078125 11.296875 12.6875 
C 10.203125 18.5625 10.203125 27.15625 10.203125 32.75 
C 10.203125 40.4375 10.203125 46.828125 11.5 52.921875 
C 13.40625 61.390625 19 64 22.90625 64 
C 27 64 32.296875 61.296875 34.203125 53.125 
C 35.5 47.4375 35.59375 40.734375 35.59375 32.75 
C 35.59375 26.25 35.59375 18.265625 34.40625 12.375 
C 32.296875 1.484375 26.40625 -0.40625 22.90625 -0.40625 
z
" id="CMR17-48"/>
       <path d="M 18.40625 4.796875 
C 18.40625 7.6875 16 9.671875 13.59375 9.671875 
C 10.703125 9.671875 8.703125 7.28125 8.703125 4.890625 
C 8.703125 2 11.09375 0 13.5 0 
C 16.40625 0 18.40625 2.390625 18.40625 4.796875 
z
" id="CMMI12-58"/>
      </defs>
      <g transform="translate(35.857223 290.598243)scale(0.14 -0.14)">
       <use transform="scale(0.996264)" xlink:href="#CMR17-48"/>
       <use transform="translate(45.690477 0)scale(0.996264)" xlink:href="#CMMI12-58"/>
       <use transform="translate(72.787654 0)scale(0.996264)" xlink:href="#CMR17-48"/>
      </g>
     </g>
    </g>
    <g id="ytick_2">
     <g id="line2d_7">
      <path clip-path="url(#pa2e0d6fc6f)" d="M 56.807805 253.189342 
L 445.68 253.189342 
" style="fill:none;stroke:#cbcbcb;"/>
     </g>
     <g id="line2d_8"/>
     <g id="text_6">
      <!-- $0.5$ -->
      <g transform="translate(35.857223 258.03228)scale(0.14 -0.14)">
       <use transform="scale(0.996264)" xlink:href="#CMR17-48"/>
       <use transform="translate(45.690477 0)scale(0.996264)" xlink:href="#CMMI12-58"/>
       <use transform="translate(72.787654 0)scale(0.996264)" xlink:href="#CMR17-53"/>
      </g>
     </g>
    </g>
    <g id="ytick_3">
     <g id="line2d_9">
      <path clip-path="url(#pa2e0d6fc6f)" d="M 56.807805 220.623378 
L 445.68 220.623378 
" style="fill:none;stroke:#cbcbcb;"/>
     </g>
     <g id="line2d_10"/>
     <g id="text_7">
      <!-- $1.0$ -->
      <defs>
       <path d="M 26.59375 63.40625 
C 26.59375 65.5 26.5 65.5 25.09375 65.5 
C 21.203125 61.1875 15.296875 59.796875 9.703125 59.796875 
C 9.40625 59.796875 8.90625 59.796875 8.796875 59.5 
C 8.703125 59.296875 8.703125 59.09375 8.703125 57 
C 11.796875 57 17 57.59375 21 59.984375 
L 21 7.203125 
C 21 3.6875 20.796875 2.5 12.203125 2.5 
L 9.203125 2.5 
L 9.203125 0 
C 14 0 19 0 23.796875 0 
C 28.59375 0 33.59375 0 38.40625 0 
L 38.40625 2.5 
L 35.40625 2.5 
C 26.796875 2.5 26.59375 3.59375 26.59375 7.15625 
z
" id="CMR17-49"/>
      </defs>
      <g transform="translate(35.857223 225.466316)scale(0.14 -0.14)">
       <use transform="scale(0.996264)" xlink:href="#CMR17-49"/>
       <use transform="translate(45.690477 0)scale(0.996264)" xlink:href="#CMMI12-58"/>
       <use transform="translate(72.787654 0)scale(0.996264)" xlink:href="#CMR17-48"/>
      </g>
     </g>
    </g>
    <g id="ytick_4">
     <g id="line2d_11">
      <path clip-path="url(#pa2e0d6fc6f)" d="M 56.807805 188.057415 
L 445.68 188.057415 
" style="fill:none;stroke:#cbcbcb;"/>
     </g>
     <g id="line2d_12"/>
     <g id="text_8">
      <!-- $1.5$ -->
      <g transform="translate(35.857223 192.900353)scale(0.14 -0.14)">
       <use transform="scale(0.996264)" xlink:href="#CMR17-49"/>
       <use transform="translate(45.690477 0)scale(0.996264)" xlink:href="#CMMI12-58"/>
       <use transform="translate(72.787654 0)scale(0.996264)" xlink:href="#CMR17-53"/>
      </g>
     </g>
    </g>
    <g id="ytick_5">
     <g id="line2d_13">
      <path clip-path="url(#pa2e0d6fc6f)" d="M 56.807805 155.491451 
L 445.68 155.491451 
" style="fill:none;stroke:#cbcbcb;"/>
     </g>
     <g id="line2d_14"/>
     <g id="text_9">
      <!-- $2.0$ -->
      <defs>
       <path d="M 41.703125 15.453125 
L 39.90625 15.453125 
C 38.90625 8.375 38.09375 7.171875 37.703125 6.5625 
C 37.203125 5.765625 30 5.765625 28.59375 5.765625 
L 9.40625 5.765625 
C 13 9.671875 20 16.75 28.5 24.953125 
C 34.59375 30.734375 41.703125 37.53125 41.703125 47.421875 
C 41.703125 59.21875 32.296875 66 21.796875 66 
C 10.796875 66 4.09375 56.3125 4.09375 47.34375 
C 4.09375 43.4375 7 42.9375 8.203125 42.9375 
C 9.203125 42.9375 12.203125 43.546875 12.203125 47.03125 
C 12.203125 50.109375 9.59375 51 8.203125 51 
C 7.59375 51 7 50.90625 6.59375 50.703125 
C 8.5 59.21875 14.296875 63.40625 20.40625 63.40625 
C 29.09375 63.40625 34.796875 56.515625 34.796875 47.421875 
C 34.796875 38.734375 29.703125 31.25 24 24.75 
L 4.09375 2.28125 
L 4.09375 0 
L 39.296875 0 
z
" id="CMR17-50"/>
      </defs>
      <g transform="translate(35.857223 160.33439)scale(0.14 -0.14)">
       <use transform="scale(0.996264)" xlink:href="#CMR17-50"/>
       <use transform="translate(45.690477 0)scale(0.996264)" xlink:href="#CMMI12-58"/>
       <use transform="translate(72.787654 0)scale(0.996264)" xlink:href="#CMR17-48"/>
      </g>
     </g>
    </g>
    <g id="ytick_6">
     <g id="line2d_15">
      <path clip-path="url(#pa2e0d6fc6f)" d="M 56.807805 122.925488 
L 445.68 122.925488 
" style="fill:none;stroke:#cbcbcb;"/>
     </g>
     <g id="line2d_16"/>
     <g id="text_10">
      <!-- $2.5$ -->
      <g transform="translate(35.857223 127.768426)scale(0.14 -0.14)">
       <use transform="scale(0.996264)" xlink:href="#CMR17-50"/>
       <use transform="translate(45.690477 0)scale(0.996264)" xlink:href="#CMMI12-58"/>
       <use transform="translate(72.787654 0)scale(0.996264)" xlink:href="#CMR17-53"/>
      </g>
     </g>
    </g>
    <g id="ytick_7">
     <g id="line2d_17">
      <path clip-path="url(#pa2e0d6fc6f)" d="M 56.807805 90.359525 
L 445.68 90.359525 
" style="fill:none;stroke:#cbcbcb;"/>
     </g>
     <g id="line2d_18"/>
     <g id="text_11">
      <!-- $3.0$ -->
      <g transform="translate(35.857223 95.202463)scale(0.14 -0.14)">
       <use transform="scale(0.996264)" xlink:href="#CMR17-51"/>
       <use transform="translate(45.690477 0)scale(0.996264)" xlink:href="#CMMI12-58"/>
       <use transform="translate(72.787654 0)scale(0.996264)" xlink:href="#CMR17-48"/>
      </g>
     </g>
    </g>
    <g id="ytick_8">
     <g id="line2d_19">
      <path clip-path="url(#pa2e0d6fc6f)" d="M 56.807805 57.793561 
L 445.68 57.793561 
" style="fill:none;stroke:#cbcbcb;"/>
     </g>
     <g id="line2d_20"/>
     <g id="text_12">
      <!-- $3.5$ -->
      <g transform="translate(35.857223 62.6365)scale(0.14 -0.14)">
       <use transform="scale(0.996264)" xlink:href="#CMR17-51"/>
       <use transform="translate(45.690477 0)scale(0.996264)" xlink:href="#CMMI12-58"/>
       <use transform="translate(72.787654 0)scale(0.996264)" xlink:href="#CMR17-53"/>
      </g>
     </g>
    </g>
    <g id="ytick_9">
     <g id="line2d_21">
      <path clip-path="url(#pa2e0d6fc6f)" d="M 56.807805 25.227598 
L 445.68 25.227598 
" style="fill:none;stroke:#cbcbcb;"/>
     </g>
     <g id="line2d_22"/>
     <g id="text_13">
      <!-- $4.0$ -->
      <g transform="translate(35.857223 30.070536)scale(0.14 -0.14)">
       <use transform="scale(0.996264)" xlink:href="#CMR17-52"/>
       <use transform="translate(45.690477 0)scale(0.996264)" xlink:href="#CMMI12-58"/>
       <use transform="translate(72.787654 0)scale(0.996264)" xlink:href="#CMR17-48"/>
      </g>
     </g>
    </g>
    <g id="text_14">
     <!-- Time [s] -->
     <defs>
      <path d="M 62.203125 67.59375 
L 4.5 67.59375 
L 2.796875 45.59375 
L 4.59375 45.59375 
C 5.90625 62.125 7.296875 65 22.703125 65 
C 24.5 65 27.40625 65 28.203125 64.90625 
C 30.09375 64.609375 30.09375 63.40625 30.09375 61.125 
L 30.09375 7.171875 
C 30.09375 3.59375 29.796875 2.5 21.5 2.5 
L 18.703125 2.5 
L 18.703125 0 
C 23.5 0 28.5 0 33.40625 0 
C 38.296875 0 43.296875 0 48.09375 0 
L 48.09375 2.5 
L 45.296875 2.5 
C 37 2.5 36.703125 3.59375 36.703125 7.171875 
L 36.703125 61.125 
C 36.703125 63.3125 36.703125 64.515625 38.5 64.90625 
C 39.296875 65 42.203125 65 44 65 
C 59.296875 65 60.796875 62.125 62.09375 45.59375 
L 63.90625 45.59375 
z
" id="CMR17-84"/>
      <path d="M 67.59375 30.203125 
C 67.59375 35.1875 66.703125 43.59375 54.796875 43.59375 
C 48 43.59375 43.296875 39 41.5 33.609375 
L 41.40625 33.609375 
C 40.203125 41.8125 34.296875 43.59375 28.703125 43.59375 
C 20.796875 43.59375 16.703125 37.5 15.203125 33.5 
L 15.09375 33.5 
L 15.09375 43.59375 
L 3.296875 42.5 
L 3.296875 39.90625 
C 9.203125 39.90625 10.09375 39.296875 10.09375 34.5 
L 10.09375 6.6875 
C 10.09375 2.875 9.703125 2.390625 3.296875 2.390625 
L 3.296875 -0.203125 
C 5.703125 0 10.09375 0 12.703125 0 
C 15.296875 0 19.796875 0 22.203125 -0.203125 
L 22.203125 2.390625 
C 15.796875 2.390625 15.40625 2.78125 15.40625 6.6875 
L 15.40625 25.90625 
C 15.40625 35.109375 21 42 28 42 
C 35.40625 42 36.203125 35.40625 36.203125 30.59375 
L 36.203125 6.6875 
C 36.203125 2.875 35.796875 2.390625 29.40625 2.390625 
L 29.40625 -0.203125 
C 31.796875 0 36.203125 0 38.796875 0 
C 41.40625 0 45.90625 0 48.296875 -0.203125 
L 48.296875 2.390625 
C 41.90625 2.390625 41.5 2.78125 41.5 6.6875 
L 41.5 25.90625 
C 41.5 35.109375 47.09375 42 54.09375 42 
C 61.5 42 62.296875 35.40625 62.296875 30.59375 
L 62.296875 6.6875 
C 62.296875 2.875 61.90625 2.390625 55.5 2.390625 
L 55.5 -0.203125 
C 57.90625 0 62.296875 0 64.90625 0 
C 67.5 0 72 0 74.40625 -0.203125 
L 74.40625 2.390625 
C 68 2.390625 67.59375 2.78125 67.59375 6.6875 
z
" id="CMR17-109"/>
      <path d="M 23.5 -25 
L 23.5 -21.515625 
L 14.09375 -21.515625 
L 14.09375 71 
L 23.5 71 
L 23.5 74.484375 
L 10.59375 74.484375 
L 10.59375 -25 
z
" id="CMR17-91"/>
      <path d="M 30.90625 42.140625 
C 30.90625 43.953125 30.796875 44.046875 30.203125 44.046875 
C 29.796875 44.046875 29.703125 43.953125 28.5 42.453125 
C 28.203125 42.046875 27.296875 41.03125 27 40.640625 
C 23.796875 44.046875 19.296875 44.046875 17.59375 44.046875 
C 6.5 44.046875 2.5 38.234375 2.5 32.4375 
C 2.5 23.40625 12.703125 21.328125 15.59375 20.703125 
C 21.90625 19.421875 24.09375 19.015625 26.203125 17.203125 
C 27.5 16.015625 29.703125 13.8125 29.703125 10.21875 
C 29.703125 6 27.296875 0.59375 18.09375 0.59375 
C 9.40625 0.59375 6.296875 7.1875 4.5 15.953125 
C 4.203125 17.34375 4.203125 17.453125 3.40625 17.453125 
C 2.59375 17.453125 2.5 17.34375 2.5 15.359375 
L 2.5 0.984375 
C 2.5 -0.796875 2.59375 -0.90625 3.203125 -0.90625 
C 3.703125 -0.90625 3.796875 -0.796875 4.296875 0 
C 4.90625 0.890625 6.40625 3.296875 7 4.3125 
C 9 1.609375 12.5 -1 18.09375 -1 
C 28 -1 33.296875 4.421875 33.296875 12.25 
C 33.296875 17.375 30.59375 20.078125 29.296875 21.28125 
C 26.296875 24.390625 22.796875 25.09375 18.59375 25.890625 
C 13.09375 27.109375 6.09375 28.515625 6.09375 34.640625 
C 6.09375 37.234375 7.5 42.765625 17.59375 42.765625 
C 28.296875 42.765625 28.90625 32.71875 29.09375 29.5 
C 29.203125 29 29.703125 28.890625 30 28.890625 
C 30.90625 28.890625 30.90625 29.203125 30.90625 30.90625 
z
" id="CMR17-115"/>
      <path d="M 14.296875 74.484375 
L 1.40625 74.484375 
L 1.40625 71 
L 10.796875 71 
L 10.796875 -21.515625 
L 1.40625 -21.515625 
L 1.40625 -25 
L 14.296875 -25 
z
" id="CMR17-93"/>
     </defs>
     <g transform="translate(27.672917 179.618059)rotate(-90)scale(0.168 -0.168)">
      <use transform="scale(0.996264)" xlink:href="#CMR17-84"/>
      <use transform="translate(66.509881 0)scale(0.996264)" xlink:href="#CMR17-105"/>
      <use transform="translate(91.380939 0)scale(0.996264)" xlink:href="#CMR17-109"/>
      <use transform="translate(168.300529 0)scale(0.996264)" xlink:href="#CMR17-101"/>
      <use transform="translate(238.862156 0)scale(0.996264)" xlink:href="#CMR17-91"/>
      <use transform="translate(263.733214 0)scale(0.996264)" xlink:href="#CMR17-115"/>
      <use transform="translate(299.534552 0)scale(0.996264)" xlink:href="#CMR17-93"/>
     </g>
    </g>
   </g>
   <g id="patch_3">
    <path clip-path="url(#pa2e0d6fc6f)" d="M 81.112317 285.755305 
L 105.41683 285.755305 
L 105.41683 247.978787 
L 81.112317 247.978787 
z
" style="fill:#008fd5;"/>
   </g>
   <g id="patch_4">
    <path clip-path="url(#pa2e0d6fc6f)" d="M 178.330366 285.755305 
L 202.634878 285.755305 
L 202.634878 139.859789 
L 178.330366 139.859789 
z
" style="fill:#008fd5;"/>
   </g>
   <g id="patch_5">
    <path clip-path="url(#pa2e0d6fc6f)" d="M 275.548415 285.755305 
L 299.852927 285.755305 
L 299.852927 116.412295 
L 275.548415 116.412295 
z
" style="fill:#008fd5;"/>
   </g>
   <g id="patch_6">
    <path clip-path="url(#pa2e0d6fc6f)" d="M 372.766463 285.755305 
L 397.070976 285.755305 
L 397.070976 29.135514 
L 372.766463 29.135514 
z
" style="fill:#008fd5;"/>
   </g>
   <g id="patch_7">
    <path clip-path="url(#pa2e0d6fc6f)" d="M 105.41683 285.755305 
L 129.721342 285.755305 
L 129.721342 251.886703 
L 105.41683 251.886703 
z
" style="fill:#fc4f30;"/>
   </g>
   <g id="patch_8">
    <path clip-path="url(#pa2e0d6fc6f)" d="M 202.634878 285.755305 
L 226.93939 285.755305 
L 226.93939 158.096729 
L 202.634878 158.096729 
z
" style="fill:#fc4f30;"/>
   </g>
   <g id="patch_9">
    <path clip-path="url(#pa2e0d6fc6f)" d="M 299.852927 285.755305 
L 324.157439 285.755305 
L 324.157439 164.609921 
L 299.852927 164.609921 
z
" style="fill:#fc4f30;"/>
   </g>
   <g id="patch_10">
    <path clip-path="url(#pa2e0d6fc6f)" d="M 397.070976 285.755305 
L 421.375488 285.755305 
L 421.375488 123.576807 
L 397.070976 123.576807 
z
" style="fill:#fc4f30;"/>
   </g>
   <g id="LineCollection_1">
    <path clip-path="url(#pa2e0d6fc6f)" d="M 93.264574 260.353854 
L 93.264574 235.603721 
" style="fill:none;stroke:#000000;stroke-width:4;"/>
    <path clip-path="url(#pa2e0d6fc6f)" d="M 190.482622 141.672985 
L 190.482622 138.046593 
" style="fill:none;stroke:#000000;stroke-width:4;"/>
    <path clip-path="url(#pa2e0d6fc6f)" d="M 287.700671 118.955778 
L 287.700671 113.868812 
" style="fill:none;stroke:#000000;stroke-width:4;"/>
    <path clip-path="url(#pa2e0d6fc6f)" d="M 384.91872 30.263632 
L 384.91872 28.007395 
" style="fill:none;stroke:#000000;stroke-width:4;"/>
   </g>
   <g id="LineCollection_2">
    <path clip-path="url(#pa2e0d6fc6f)" d="M 117.569086 256.480698 
L 117.569086 247.292709 
" style="fill:none;stroke:#000000;stroke-width:4;"/>
    <path clip-path="url(#pa2e0d6fc6f)" d="M 214.787134 159.224847 
L 214.787134 156.96861 
" style="fill:none;stroke:#000000;stroke-width:4;"/>
    <path clip-path="url(#pa2e0d6fc6f)" d="M 312.005183 165.471536 
L 312.005183 163.748307 
" style="fill:none;stroke:#000000;stroke-width:4;"/>
    <path clip-path="url(#pa2e0d6fc6f)" d="M 409.223232 124.140866 
L 409.223232 123.012748 
" style="fill:none;stroke:#000000;stroke-width:4;"/>
   </g>
   <g id="line2d_23">
    <defs>
     <path d="M 5 0 
L -5 -0 
" id="m07777415d3" style="stroke:#000000;"/>
    </defs>
    <g clip-path="url(#pa2e0d6fc6f)">
     <use style="stroke:#000000;" x="93.264574" xlink:href="#m07777415d3" y="260.353854"/>
     <use style="stroke:#000000;" x="190.482622" xlink:href="#m07777415d3" y="141.672985"/>
     <use style="stroke:#000000;" x="287.700671" xlink:href="#m07777415d3" y="118.955778"/>
     <use style="stroke:#000000;" x="384.91872" xlink:href="#m07777415d3" y="30.263632"/>
    </g>
   </g>
   <g id="line2d_24">
    <g clip-path="url(#pa2e0d6fc6f)">
     <use style="stroke:#000000;" x="93.264574" xlink:href="#m07777415d3" y="235.603721"/>
     <use style="stroke:#000000;" x="190.482622" xlink:href="#m07777415d3" y="138.046593"/>
     <use style="stroke:#000000;" x="287.700671" xlink:href="#m07777415d3" y="113.868812"/>
     <use style="stroke:#000000;" x="384.91872" xlink:href="#m07777415d3" y="28.007395"/>
    </g>
   </g>
   <g id="line2d_25">
    <g clip-path="url(#pa2e0d6fc6f)">
     <use style="stroke:#000000;" x="117.569086" xlink:href="#m07777415d3" y="256.480698"/>
     <use style="stroke:#000000;" x="214.787134" xlink:href="#m07777415d3" y="159.224847"/>
     <use style="stroke:#000000;" x="312.005183" xlink:href="#m07777415d3" y="165.471536"/>
     <use style="stroke:#000000;" x="409.223232" xlink:href="#m07777415d3" y="124.140866"/>
    </g>
   </g>
   <g id="line2d_26">
    <g clip-path="url(#pa2e0d6fc6f)">
     <use style="stroke:#000000;" x="117.569086" xlink:href="#m07777415d3" y="247.292709"/>
     <use style="stroke:#000000;" x="214.787134" xlink:href="#m07777415d3" y="156.96861"/>
     <use style="stroke:#000000;" x="312.005183" xlink:href="#m07777415d3" y="163.748307"/>
     <use style="stroke:#000000;" x="409.223232" xlink:href="#m07777415d3" y="123.012748"/>
    </g>
   </g>
   <g id="patch_11">
    <path d="M 56.807805 285.755305 
L 56.807805 15.12 
" style="fill:none;stroke:#f0f0f0;stroke-linecap:square;stroke-linejoin:miter;stroke-width:3;"/>
   </g>
   <g id="patch_12">
    <path d="M 445.68 285.755305 
L 445.68 15.12 
" style="fill:none;stroke:#f0f0f0;stroke-linecap:square;stroke-linejoin:miter;stroke-width:3;"/>
   </g>
   <g id="patch_13">
    <path d="M 56.807805 285.755305 
L 445.68 285.755305 
" style="fill:none;stroke:#f0f0f0;stroke-linecap:square;stroke-linejoin:miter;stroke-width:3;"/>
   </g>
   <g id="patch_14">
    <path d="M 56.807805 15.12 
L 445.68 15.12 
" style="fill:none;stroke:#f0f0f0;stroke-linecap:square;stroke-linejoin:miter;stroke-width:3;"/>
   </g>
   <g id="text_15">
    <!-- 0.58 -->
    <defs>
     <path d="M 16.59375 4.078125 
C 16.59375 6.5625 14.59375 8.15625 12.5 8.15625 
C 10.5 8.15625 8.40625 6.5625 8.40625 4.078125 
C 8.40625 1.59375 10.40625 0 12.5 0 
C 14.5 0 16.59375 1.59375 16.59375 4.078125 
z
" id="CMR17-46"/>
     <path d="M 27.203125 35.375 
C 33.5 38.546875 39.90625 43.328125 39.90625 50.984375 
C 39.90625 60.015625 31.09375 65.296875 23 65.296875 
C 13.90625 65.296875 5.90625 58.734375 5.90625 49.6875 
C 5.90625 47.203125 6.5 42.921875 10.40625 39.140625 
C 11.40625 38.15625 15.59375 35.171875 18.296875 33.28125 
C 13.796875 30.984375 3.296875 25.53125 3.296875 14.59375 
C 3.296875 4.359375 13.09375 -2 22.796875 -2 
C 33.5 -2 42.5 5.65625 42.5 15.78125 
C 42.5 24.84375 36.40625 29.015625 32.40625 31.703125 
z
M 14.09375 44.09375 
C 13.296875 44.59375 9.296875 47.671875 9.296875 52.359375 
C 9.296875 58.421875 15.59375 63 22.796875 63 
C 30.703125 63 36.5 57.4375 36.5 50.96875 
C 36.5 41.703125 26.09375 36.421875 25.59375 36.421875 
C 25.5 36.421875 25.40625 36.421875 24.59375 37.03125 
z
M 32.5 23.734375 
C 34 22.640625 38.796875 19.375 38.796875 13.296875 
C 38.796875 5.953125 31.40625 0.390625 23 0.390625 
C 13.90625 0.390625 7 6.84375 7 14.6875 
C 7 22.546875 13.09375 29.09375 20 32.1875 
z
" id="CMR17-56"/>
    </defs>
    <g transform="translate(96.264574 242.266759)scale(0.14 -0.14)">
     <use transform="scale(0.996264)" xlink:href="#CMR17-48"/>
     <use transform="translate(45.690477 0)scale(0.996264)" xlink:href="#CMR17-46"/>
     <use transform="translate(70.561536 0)scale(0.996264)" xlink:href="#CMR17-53"/>
     <use transform="translate(116.252013 0)scale(0.996264)" xlink:href="#CMR17-56"/>
    </g>
   </g>
   <g id="text_16">
    <!-- 2.24 -->
    <g transform="translate(193.482622 134.147761)scale(0.14 -0.14)">
     <use transform="scale(0.996264)" xlink:href="#CMR17-50"/>
     <use transform="translate(45.690477 0)scale(0.996264)" xlink:href="#CMR17-46"/>
     <use transform="translate(70.561536 0)scale(0.996264)" xlink:href="#CMR17-50"/>
     <use transform="translate(116.252013 0)scale(0.996264)" xlink:href="#CMR17-52"/>
    </g>
   </g>
   <g id="text_17">
    <!-- 2.60 -->
    <defs>
     <path d="M 10.59375 34 
C 10.59375 57.65625 21.796875 63 28.296875 63 
C 30.40625 63 35.5 62.640625 37.5 59 
C 35.90625 59 32.90625 59 32.90625 55.515625 
C 32.90625 52.828125 35.09375 51.921875 36.5 51.921875 
C 37.40625 51.921875 40.09375 52.3125 40.09375 55.625 
C 40.09375 61.78125 35.09375 65.296875 28.203125 65.296875 
C 16.296875 65.296875 3.796875 52.96875 3.796875 31 
C 3.796875 3.953125 15.09375 -2 23.09375 -2 
C 32.796875 -2 42 6.671875 42 20.046875 
C 42 32.515625 33.90625 41.59375 23.703125 41.59375 
C 17.59375 41.59375 13.09375 37.609375 10.59375 30.625 
z
M 23.09375 0.390625 
C 10.796875 0.390625 10.796875 18.75 10.796875 22.4375 
C 10.796875 29.625 14.203125 40 23.5 40 
C 25.203125 40 30.09375 40 33.40625 33.125 
C 35.203125 29.21875 35.203125 25.140625 35.203125 20.140625 
C 35.203125 14.75 35.203125 10.78125 33.09375 6.78125 
C 30.90625 2.671875 27.703125 0.390625 23.09375 0.390625 
z
" id="CMR17-54"/>
    </defs>
    <g transform="translate(290.700671 110.700267)scale(0.14 -0.14)">
     <use transform="scale(0.996264)" xlink:href="#CMR17-50"/>
     <use transform="translate(45.690477 0)scale(0.996264)" xlink:href="#CMR17-46"/>
     <use transform="translate(70.561536 0)scale(0.996264)" xlink:href="#CMR17-54"/>
     <use transform="translate(116.252013 0)scale(0.996264)" xlink:href="#CMR17-48"/>
    </g>
   </g>
   <g id="text_18">
    <!-- 3.94 -->
    <defs>
     <path d="M 35.203125 29.125 
C 35.203125 7.25 26.09375 0.484375 18.59375 0.484375 
C 16.296875 0.484375 10.703125 0.484375 8.40625 4.59375 
C 11 4.1875 12.90625 5.578125 12.90625 8.09375 
C 12.90625 10.8125 10.703125 11.703125 9.296875 11.703125 
C 8.40625 11.703125 5.703125 11.296875 5.703125 7.90625 
C 5.703125 1.109375 11.59375 -2 18.796875 -2 
C 30.296875 -2 42 10.53125 42 32.390625 
C 42 59.640625 30.796875 65.296875 23.203125 65.296875 
C 13.296875 65.296875 3.796875 56.6875 3.796875 43.40625 
C 3.796875 31.109375 11.90625 22 22.09375 22 
C 30.5 22 34.203125 29.734375 35.203125 33 
z
M 22.296875 23.59375 
C 19.59375 23.59375 15.796875 24.09375 12.703125 30.03125 
C 10.59375 33.890625 10.59375 38.453125 10.59375 43.296875 
C 10.59375 49.15625 10.59375 53.203125 13.40625 57.5625 
C 14.796875 59.640625 17.40625 63 23.203125 63 
C 35 63 35 45.078125 35 41.125 
C 35 34.09375 31.796875 23.59375 22.296875 23.59375 
z
" id="CMR17-57"/>
    </defs>
    <g transform="translate(387.91872 23.423485)scale(0.14 -0.14)">
     <use transform="scale(0.996264)" xlink:href="#CMR17-51"/>
     <use transform="translate(45.690477 0)scale(0.996264)" xlink:href="#CMR17-46"/>
     <use transform="translate(70.561536 0)scale(0.996264)" xlink:href="#CMR17-57"/>
     <use transform="translate(116.252013 0)scale(0.996264)" xlink:href="#CMR17-52"/>
    </g>
   </g>
   <g id="text_19">
    <!-- 0.52 -->
    <g transform="translate(120.569086 246.174675)scale(0.14 -0.14)">
     <use transform="scale(0.996264)" xlink:href="#CMR17-48"/>
     <use transform="translate(45.690477 0)scale(0.996264)" xlink:href="#CMR17-46"/>
     <use transform="translate(70.561536 0)scale(0.996264)" xlink:href="#CMR17-53"/>
     <use transform="translate(116.252013 0)scale(0.996264)" xlink:href="#CMR17-50"/>
    </g>
   </g>
   <g id="text_20">
    <!-- 1.96 -->
    <g transform="translate(217.787134 152.3847)scale(0.14 -0.14)">
     <use transform="scale(0.996264)" xlink:href="#CMR17-49"/>
     <use transform="translate(45.690477 0)scale(0.996264)" xlink:href="#CMR17-46"/>
     <use transform="translate(70.561536 0)scale(0.996264)" xlink:href="#CMR17-57"/>
     <use transform="translate(116.252013 0)scale(0.996264)" xlink:href="#CMR17-54"/>
    </g>
   </g>
   <g id="text_21">
    <!-- 1.86 -->
    <g transform="translate(315.005183 158.897893)scale(0.14 -0.14)">
     <use transform="scale(0.996264)" xlink:href="#CMR17-49"/>
     <use transform="translate(45.690477 0)scale(0.996264)" xlink:href="#CMR17-46"/>
     <use transform="translate(70.561536 0)scale(0.996264)" xlink:href="#CMR17-56"/>
     <use transform="translate(116.252013 0)scale(0.996264)" xlink:href="#CMR17-54"/>
    </g>
   </g>
   <g id="text_22">
    <!-- 2.49 -->
    <g transform="translate(412.223232 117.864779)scale(0.14 -0.14)">
     <use transform="scale(0.996264)" xlink:href="#CMR17-50"/>
     <use transform="translate(45.690477 0)scale(0.996264)" xlink:href="#CMR17-46"/>
     <use transform="translate(70.561536 0)scale(0.996264)" xlink:href="#CMR17-52"/>
     <use transform="translate(116.252013 0)scale(0.996264)" xlink:href="#CMR17-57"/>
    </g>
   </g>
   <g id="legend_1">
    <g id="patch_15">
     <path d="M 66.607805 65.344057 
L 154.471293 65.344057 
Q 157.271293 65.344057 157.271293 62.544057 
L 157.271293 24.92 
Q 157.271293 22.12 154.471293 22.12 
L 66.607805 22.12 
Q 63.807805 22.12 63.807805 24.92 
L 63.807805 62.544057 
Q 63.807805 65.344057 66.607805 65.344057 
z
" style="fill:#f0f0f0;opacity:0.8;stroke:#cccccc;stroke-linejoin:miter;stroke-width:0.5;"/>
    </g>
    <g id="patch_16">
     <path d="M 69.407805 37.52 
L 97.407805 37.52 
L 97.407805 27.72 
L 69.407805 27.72 
z
" style="fill:#008fd5;"/>
    </g>
    <g id="text_23">
     <!-- \texttt{No Mat} -->
     <defs>
      <path d="M 18.703125 57.609375 
C 17.5 61 15.5 61 13.40625 61 
L 6.90625 61 
C 5.40625 61 2.90625 61 2.90625 58.109375 
C 2.90625 55.203125 5.5 55.203125 6.90625 55.203125 
L 9.09375 55.203125 
L 9.09375 5.796875 
L 6.90625 5.796875 
C 5.5 5.796875 2.90625 5.796875 2.90625 2.90625 
C 2.90625 0 5.40625 0 6.90625 0 
L 16.90625 0 
C 18.296875 0 21 0 21 2.90625 
C 21 5.796875 18.296875 5.796875 16.90625 5.796875 
L 14.703125 5.796875 
L 14.703125 54.109375 
L 14.796875 54.109375 
C 15.09375 53 16 50.40625 17.796875 45.328125 
L 32.703125 3.40625 
C 33.90625 0 35.90625 0 38.09375 0 
C 41.09375 0 42.296875 0.296875 42.296875 4.09375 
L 42.296875 55.203125 
L 44.5 55.203125 
C 45.90625 55.203125 48.5 55.203125 48.5 58.109375 
C 48.5 61 46 61 44.5 61 
L 34.5 61 
C 33.09375 61 30.40625 61 30.40625 58.109375 
C 30.40625 55.203125 33.09375 55.203125 34.5 55.203125 
L 36.703125 55.203125 
L 36.703125 6.890625 
L 36.59375 6.890625 
C 36.296875 7.984375 35.40625 10.578125 33.59375 15.671875 
z
" id="CMTT12-78"/>
      <path d="M 45.59375 21.640625 
C 45.59375 34.109375 36.5 44 25.703125 44 
C 14.90625 44 5.796875 34.109375 5.796875 21.640625 
C 5.796875 9.078125 15 -0.5 25.703125 -0.5 
C 36.40625 -0.5 45.59375 9.078125 45.59375 21.640625 
z
M 25.703125 5.296875 
C 18.5 5.296875 12.296875 12.875 12.296875 22.34375 
C 12.296875 31.609375 18.703125 38.203125 25.703125 38.203125 
C 32.703125 38.203125 39.09375 31.609375 39.09375 22.34375 
C 39.09375 12.78125 32.90625 5.296875 25.703125 5.296875 
z
" id="CMTT12-111"/>
      <path d="M 29.203125 39.34375 
C 27.90625 35.234375 26.296875 30.453125 25.703125 27.15625 
L 25.59375 27.15625 
C 24.796875 32.15625 16.09375 58.3125 15.90625 58.703125 
C 14.796875 61 12.796875 61 11.09375 61 
L 5.796875 61 
C 4.40625 61 1.703125 61 1.703125 58.109375 
C 1.703125 55.203125 4.203125 55.203125 6.796875 55.203125 
L 6.796875 5.796875 
C 4.203125 5.796875 1.703125 5.796875 1.703125 2.90625 
C 1.703125 0 4.40625 0 5.796875 0 
L 13.40625 0 
C 14.796875 0 17.5 0 17.5 2.90625 
C 17.5 5.796875 15 5.796875 12.40625 5.796875 
L 12.40625 54 
L 12.5 54 
C 13.09375 50.90625 13.40625 49.8125 14.59375 46.21875 
L 21.703125 23.96875 
C 21.90625 23.171875 22.796875 20.375 25.703125 20.375 
C 26.90625 20.375 28.59375 21.171875 29.40625 22.96875 
C 29.90625 24.46875 39 52.46875 39 53.875 
L 39 5.796875 
C 36.40625 5.796875 33.90625 5.796875 33.90625 2.90625 
C 33.90625 0 36.59375 0 38 0 
L 45.59375 0 
C 47 0 49.703125 0 49.703125 2.90625 
C 49.703125 5.796875 47.203125 5.796875 44.59375 5.796875 
L 44.59375 55.203125 
C 47.203125 55.203125 49.703125 55.203125 49.703125 58.109375 
C 49.703125 61 47 61 45.59375 61 
L 40.296875 61 
C 36.40625 61 35.796875 59.8125 35 57.203125 
z
" id="CMTT12-77"/>
      <path d="M 41.40625 28.375 
C 41.40625 35.984375 35.703125 44 22.203125 44 
C 18 44 8.296875 44 8.296875 37.1875 
C 8.296875 34.53125 10.203125 33.046875 12.40625 33.046875 
C 13 33.046875 16.296875 33.046875 16.40625 37.3125 
C 16.40625 37.796875 16.5 37.90625 18.59375 38.09375 
C 19.796875 38.203125 21.09375 38.203125 22.296875 38.203125 
C 24.59375 38.203125 28 38.203125 31.296875 35.65625 
C 34.90625 32.8125 34.90625 29.9375 34.90625 27 
C 29 27 23.203125 27 17 24.984375 
C 12 23.265625 5.59375 19.625 5.59375 12.75 
C 5.59375 5.5625 11.90625 -0.5 21.203125 -0.5 
C 24.40625 -0.5 30.59375 0 35.796875 3.53125 
C 37.796875 0 42.796875 0 46.59375 0 
C 49 0 51.40625 0 51.40625 2.859375 
C 51.40625 5.703125 48.796875 5.703125 47.40625 5.703125 
C 44.796875 5.703125 42.796875 5.90625 41.40625 6.515625 
z
M 34.90625 13.296875 
C 34.90625 11 34.90625 8.890625 30.796875 7 
C 27.296875 5.296875 22.59375 5.296875 22.296875 5.296875 
C 16.40625 5.296875 12.09375 8.5 12.09375 12.59375 
C 12.09375 18.5 22.796875 21.890625 34.90625 21.890625 
z
" id="CMTT12-97"/>
      <path d="M 21.59375 37.203125 
L 37.796875 37.203125 
C 39.203125 37.203125 41.796875 37.203125 41.796875 40.109375 
C 41.796875 43 39.203125 43 37.796875 43 
L 21.59375 43 
L 21.59375 51.328125 
C 21.59375 53.15625 21.59375 55.5 18.40625 55.5 
C 15.09375 55.5 15.09375 53.15625 15.09375 51.328125 
L 15.09375 43 
L 6.59375 43 
C 5.203125 43 2.5 43 2.5 40.109375 
C 2.5 37.203125 5.09375 37.203125 6.5 37.203125 
L 15.09375 37.203125 
L 15.09375 12.125 
C 15.09375 2.875 21.5 -0.5 28.703125 -0.5 
C 34.09375 -0.5 44 2.171875 44 12.34375 
C 44 14.34375 44 16.53125 40.703125 16.53125 
C 37.5 16.53125 37.5 14.34375 37.5 12.265625 
C 37.40625 6.296875 31.703125 5.296875 29.40625 5.296875 
C 21.59375 5.296875 21.59375 10.265625 21.59375 12.640625 
z
" id="CMTT12-116"/>
     </defs>
     <g transform="translate(108.607805 37.52)scale(0.14 -0.14)">
      <use transform="scale(0.996264)" xlink:href="#CMTT12-78"/>
      <use transform="translate(51.266111 0)scale(0.996264)" xlink:href="#CMTT12-111"/>
      <use transform="translate(153.798333 0)scale(0.996264)" xlink:href="#CMTT12-77"/>
      <use transform="translate(205.064443 0)scale(0.996264)" xlink:href="#CMTT12-97"/>
      <use transform="translate(256.330554 0)scale(0.996264)" xlink:href="#CMTT12-116"/>
     </g>
    </g>
    <g id="patch_17">
     <path d="M 69.407805 57.032028 
L 97.407805 57.032028 
L 97.407805 47.232028 
L 69.407805 47.232028 
z
" style="fill:#fc4f30;"/>
    </g>
    <g id="text_24">
     <!-- \texttt{mat} -->
     <defs>
      <path d="M 45.296875 30.359375 
C 45.296875 32.5625 45.296875 43.796875 36.5 43.796875 
C 33 43.796875 29.59375 42.1875 26.90625 38.484375 
C 26.296875 39.984375 24.09375 43.796875 19.296875 43.796875 
C 14.796875 43.796875 11.703125 40.828125 10.90625 39.921875 
C 10.796875 43 8.703125 43 6.90625 43 
L 3.90625 43 
C 2.5 43 -0.09375 43 -0.09375 40.109375 
C -0.09375 37.203125 2.203125 37.203125 5.296875 37.203125 
L 5.296875 5.796875 
C 2.09375 5.796875 -0.09375 5.796875 -0.09375 2.90625 
C -0.09375 0 2.5 0 3.90625 0 
L 12.296875 0 
C 13.703125 0 16.296875 0 16.296875 2.90625 
C 16.296875 5.796875 14 5.796875 10.90625 5.796875 
L 10.90625 24.25 
C 10.90625 32.671875 14.5 38 18.90625 38 
C 21.703125 38 22.5 34.484375 22.5 29.765625 
L 22.5 5.796875 
C 20.796875 5.796875 18.09375 5.796875 18.09375 2.90625 
C 18.09375 0 20.796875 0 22.203125 0 
L 29.5 0 
C 30.90625 0 33.5 0 33.5 2.90625 
C 33.5 5.796875 31.203125 5.796875 28.09375 5.796875 
L 28.09375 24.25 
C 28.09375 32.671875 31.703125 38 36.09375 38 
C 38.90625 38 39.703125 34.484375 39.703125 29.765625 
L 39.703125 5.796875 
C 38 5.796875 35.296875 5.796875 35.296875 2.90625 
C 35.296875 0 38 0 39.40625 0 
L 46.703125 0 
C 48.09375 0 50.703125 0 50.703125 2.90625 
C 50.703125 5.796875 48.40625 5.796875 45.296875 5.796875 
z
" id="CMTT12-109"/>
     </defs>
     <g transform="translate(108.607805 57.032028)scale(0.14 -0.14)">
      <use transform="scale(0.996264)" xlink:href="#CMTT12-109"/>
      <use transform="translate(51.266111 0)scale(0.996264)" xlink:href="#CMTT12-97"/>
      <use transform="translate(102.532222 0)scale(0.996264)" xlink:href="#CMTT12-116"/>
     </g>
    </g>
   </g>
  </g>
 </g>
 <defs>
  <clipPath id="pa2e0d6fc6f">
   <rect height="270.635305" width="388.872195" x="56.807805" y="15.12"/>
  </clipPath>
 </defs>
</svg>
