<?xml version="1.0" encoding="utf-8" standalone="no"?>
<!DOCTYPE svg PUBLIC "-//W3C//DTD SVG 1.1//EN"
  "http://www.w3.org/Graphics/SVG/1.1/DTD/svg11.dtd">
<!-- Created with matplotlib (http://matplotlib.org/) -->
<svg height="345pt" version="1.1" viewBox="0 0 460 345" width="460pt" xmlns="http://www.w3.org/2000/svg" xmlns:xlink="http://www.w3.org/1999/xlink">
 <defs>
  <style type="text/css">
*{stroke-linecap:butt;stroke-linejoin:round;}
  </style>
 </defs>
 <g id="figure_1">
  <g id="patch_1">
   <path d="M 0 345.6 
L 460.8 345.6 
L 460.8 0 
L 0 0 
z
" style="fill:#ffffff;"/>
  </g>
  <g id="axes_1">
   <g id="patch_2">
    <path d="M 70.857835 280.426021 
L 427.258214 280.426021 
L 427.258214 23.04 
L 70.857835 23.04 
z
" style="fill:#ffffff;"/>
   </g>
   <g id="patch_3">
    <path clip-path="url(#pe7d13fca84)" d="M 70.857835 280.426021 
L 70.857835 280.426021 
L 72.639837 280.426021 
L 72.639837 280.426021 
L 74.421838 280.426021 
L 74.421838 277.466826 
L 76.20384 277.466826 
L 76.20384 272.553233 
L 77.985842 272.553233 
L 77.985842 265.738052 
L 79.767844 265.738052 
L 79.767844 256.580892 
L 81.549846 256.580892 
L 81.549846 245.256667 
L 83.331848 245.256667 
L 83.331848 231.584727 
L 85.11385 231.584727 
L 85.11385 216.219327 
L 86.895852 216.219327 
L 86.895852 199.633115 
L 88.677854 199.633115 
L 88.677854 182.210568 
L 90.459856 182.210568 
L 90.459856 164.799252 
L 92.241857 164.799252 
L 92.241857 147.858195 
L 94.023859 147.858195 
L 94.023859 132.18574 
L 95.805861 132.18574 
L 95.805861 118.044974 
L 97.587863 118.044974 
L 97.587863 105.691339 
L 99.369865 105.691339 
L 99.369865 94.880146 
L 101.151867 94.880146 
L 101.151867 85.403505 
L 102.933869 85.403505 
L 102.933869 77.50515 
L 104.715871 77.50515 
L 104.715871 70.661295 
L 106.497873 70.661295 
L 106.497873 64.900375 
L 108.279875 64.900375 
L 108.279875 60.276633 
L 110.061876 60.276633 
L 110.061876 56.477517 
L 111.843878 56.477517 
L 111.843878 53.246155 
L 113.62588 53.246155 
L 113.62588 50.585412 
L 115.407882 50.585412 
L 115.407882 48.358131 
L 117.189884 48.358131 
L 117.189884 46.482588 
L 118.971886 46.482588 
L 118.971886 45.006814 
L 120.753888 45.006814 
L 120.753888 43.676323 
L 122.53589 43.676323 
L 122.53589 42.488726 
L 124.317892 42.488726 
L 124.317892 41.632318 
L 126.099893 41.632318 
L 126.099893 40.798133 
L 127.881895 40.798133 
L 127.881895 40.175899 
L 129.663897 40.175899 
L 129.663897 39.691302 
L 131.445899 39.691302 
L 131.445899 39.151985 
L 133.227901 39.151985 
L 133.227901 38.715657 
L 135.009903 38.715657 
L 135.009903 38.328314 
L 136.791905 38.328314 
L 136.791905 38.041331 
L 138.573907 38.041331 
L 138.573907 37.724241 
L 140.355909 37.724241 
L 140.355909 37.46187 
L 142.137911 37.46187 
L 142.137911 37.244662 
L 143.919912 37.244662 
L 143.919912 37.084324 
L 145.701914 37.084324 
L 145.701914 36.945492 
L 147.483916 36.945492 
L 147.483916 36.860425 
L 149.265918 36.860425 
L 149.265918 36.718248 
L 151.04792 36.718248 
L 151.04792 36.60833 
L 152.829922 36.60833 
L 152.829922 36.52159 
L 154.611924 36.52159 
L 154.611924 36.441062 
L 156.393926 36.441062 
L 156.393926 36.375589 
L 158.175928 36.375589 
L 158.175928 36.301275 
L 159.95793 36.301275 
L 159.95793 36.242731 
L 161.739931 36.242731 
L 161.739931 36.191356 
L 163.521933 36.191356 
L 163.521933 36.15623 
L 165.303935 36.15623 
L 165.303935 36.114175 
L 167.085937 36.114175 
L 167.085937 36.081677 
L 168.867939 36.081677 
L 168.867939 36.04679 
L 170.649941 36.04679 
L 170.649941 36.00784 
L 172.431943 36.00784 
L 172.431943 35.976299 
L 174.213945 35.976299 
L 174.213945 35.949536 
L 175.995947 35.949536 
L 175.995947 35.928508 
L 177.777948 35.928508 
L 177.777948 35.909153 
L 179.55995 35.909153 
L 179.55995 35.897922 
L 181.341952 35.897922 
L 181.341952 35.877372 
L 183.123954 35.877372 
L 183.123954 35.866619 
L 184.905956 35.866619 
L 184.905956 35.849893 
L 186.687958 35.849893 
L 186.687958 35.837706 
L 188.46996 35.837706 
L 188.46996 35.831493 
L 190.251962 35.831493 
L 190.251962 35.813333 
L 192.033964 35.813333 
L 192.033964 35.789437 
L 193.815966 35.789437 
L 193.815966 35.77749 
L 195.597967 35.77749 
L 195.597967 35.757179 
L 197.379969 35.757179 
L 197.379969 35.742364 
L 199.161971 35.742364 
L 199.161971 35.735673 
L 200.943973 35.735673 
L 200.943973 35.721814 
L 202.725975 35.721814 
L 202.725975 35.704609 
L 204.507977 35.704609 
L 204.507977 35.698157 
L 206.289979 35.698157 
L 206.289979 35.685254 
L 208.071981 35.685254 
L 208.071981 35.676652 
L 209.853983 35.676652 
L 209.853983 35.655624 
L 211.635985 35.655624 
L 211.635985 35.637463 
L 213.417986 35.637463 
L 213.417986 35.619542 
L 215.199988 35.619542 
L 215.199988 35.609506 
L 216.98199 35.609506 
L 216.98199 35.593496 
L 218.763992 35.593496 
L 218.763992 35.588239 
L 220.545994 35.588239 
L 220.545994 35.582026 
L 222.327996 35.582026 
L 222.327996 35.570078 
L 224.109998 35.570078 
L 224.109998 35.562432 
L 225.892 35.562432 
L 225.892 35.549767 
L 227.674002 35.549767 
L 227.674002 35.5469 
L 229.456003 35.5469 
L 229.456003 35.530412 
L 231.238005 35.530412 
L 231.238005 35.524438 
L 233.020007 35.524438 
L 233.020007 35.514402 
L 234.802009 35.514402 
L 234.802009 35.502694 
L 236.584011 35.502694 
L 236.584011 35.493852 
L 238.366013 35.493852 
L 238.366013 35.477604 
L 240.148015 35.477604 
L 240.148015 35.468284 
L 241.930017 35.468284 
L 241.930017 35.466373 
L 243.712019 35.466373 
L 243.712019 35.458726 
L 245.494021 35.458726 
L 245.494021 35.45323 
L 247.276022 35.45323 
L 247.276022 35.44654 
L 249.058024 35.44654 
L 249.058024 35.439132 
L 250.840026 35.439132 
L 250.840026 35.436743 
L 252.622028 35.436743 
L 252.622028 35.43053 
L 254.40403 35.43053 
L 254.40403 35.420733 
L 256.186032 35.420733 
L 256.186032 35.418821 
L 257.968034 35.418821 
L 257.968034 35.415715 
L 259.750036 35.415715 
L 259.750036 35.409024 
L 261.532038 35.409024 
L 261.532038 35.404962 
L 263.31404 35.404962 
L 263.31404 35.399466 
L 265.096041 35.399466 
L 265.096041 35.390864 
L 266.878043 35.390864 
L 266.878043 35.388713 
L 268.660045 35.388713 
L 268.660045 35.386562 
L 270.442047 35.386562 
L 270.442047 35.382022 
L 272.224049 35.382022 
L 272.224049 35.378677 
L 274.006051 35.378677 
L 274.006051 35.375093 
L 275.788053 35.375093 
L 275.788053 35.366013 
L 277.570055 35.366013 
L 277.570055 35.361233 
L 279.352057 35.361233 
L 279.352057 35.355738 
L 281.134058 35.355738 
L 281.134058 35.353109 
L 282.91606 35.353109 
L 282.91606 35.350003 
L 284.698062 35.350003 
L 284.698062 35.349525 
L 286.480064 35.349525 
L 286.480064 35.34833 
L 288.262066 35.34833 
L 288.262066 35.346179 
L 290.044068 35.346179 
L 290.044068 35.342356 
L 291.82607 35.342356 
L 291.82607 35.342356 
L 293.608072 35.342356 
L 293.608072 35.337816 
L 295.390074 35.337816 
L 295.390074 35.327541 
L 297.172076 35.327541 
L 297.172076 35.326824 
L 298.954077 35.326824 
L 298.954077 35.323479 
L 300.736079 35.323479 
L 300.736079 35.315832 
L 302.518081 35.315832 
L 302.518081 35.313682 
L 304.300083 35.313682 
L 304.300083 35.313682 
L 306.082085 35.313682 
L 306.082085 35.313682 
L 307.864087 35.313682 
L 307.864087 35.313443 
L 309.646089 35.313443 
L 309.646089 35.313204 
L 311.428091 35.313204 
L 311.428091 35.310814 
L 313.210093 35.310814 
L 313.210093 35.307947 
L 314.992095 35.307947 
L 314.992095 35.307947 
L 316.774096 35.307947 
L 316.774096 35.307947 
L 318.556098 35.307947 
L 318.556098 35.307947 
L 320.3381 35.307947 
L 320.3381 35.306035 
L 322.120102 35.306035 
L 322.120102 35.305079 
L 323.902104 35.305079 
L 323.902104 35.305079 
L 325.684106 35.305079 
L 325.684106 35.305079 
L 327.466108 35.305079 
L 327.466108 35.305079 
L 329.24811 35.305079 
L 329.24811 35.305079 
L 331.030112 35.305079 
L 331.030112 35.305079 
L 332.812113 35.305079 
L 332.812113 35.304363 
L 334.594115 35.304363 
L 334.594115 35.304363 
L 336.376117 35.304363 
L 336.376117 35.304363 
L 338.158119 35.304363 
L 338.158119 35.301734 
L 339.940121 35.301734 
L 339.940121 35.301734 
L 341.722123 35.301734 
L 341.722123 35.301734 
L 343.504125 35.301734 
L 343.504125 35.301734 
L 345.286127 35.301734 
L 345.286127 35.301734 
L 347.068129 35.301734 
L 347.068129 35.301495 
L 348.850131 35.301495 
L 348.850131 35.301495 
L 350.632132 35.301495 
L 350.632132 35.301495 
L 352.414134 35.301495 
L 352.414134 35.300539 
L 354.196136 35.300539 
L 354.196136 35.300539 
L 355.978138 35.300539 
L 355.978138 35.300539 
L 357.76014 35.300539 
L 357.76014 35.300539 
L 359.542142 35.300539 
L 359.542142 35.300539 
L 361.324144 35.300539 
L 361.324144 35.300061 
L 363.106146 35.300061 
L 363.106146 35.300061 
L 364.888148 35.300061 
L 364.888148 35.300061 
L 366.67015 35.300061 
L 366.67015 35.299584 
L 368.452151 35.299584 
L 368.452151 35.299584 
L 370.234153 35.299584 
L 370.234153 35.299584 
L 372.016155 35.299584 
L 372.016155 35.299584 
L 373.798157 35.299584 
L 373.798157 35.299584 
L 375.580159 35.299584 
L 375.580159 35.299584 
L 377.362161 35.299584 
L 377.362161 35.299584 
L 379.144163 35.299584 
L 379.144163 35.299584 
L 380.926165 35.299584 
L 380.926165 35.299106 
L 382.708167 35.299106 
L 382.708167 35.299106 
L 384.490169 35.299106 
L 384.490169 35.299106 
L 386.27217 35.299106 
L 386.27217 35.299106 
L 388.054172 35.299106 
L 388.054172 35.29815 
L 389.836174 35.29815 
L 389.836174 35.29815 
L 391.618176 35.29815 
L 391.618176 35.29815 
L 393.400178 35.29815 
L 393.400178 35.29815 
L 395.18218 35.29815 
L 395.18218 35.29815 
L 396.964182 35.29815 
L 396.964182 35.29815 
L 398.746184 35.29815 
L 398.746184 35.29815 
L 400.528186 35.29815 
L 400.528186 35.29815 
L 402.310187 35.29815 
L 402.310187 35.29815 
L 404.092189 35.29815 
L 404.092189 35.29815 
L 405.874191 35.29815 
L 405.874191 35.29815 
L 407.656193 35.29815 
L 407.656193 35.29815 
L 409.438195 35.29815 
L 409.438195 35.29815 
L 411.220197 35.29815 
L 411.220197 35.29815 
L 413.002199 35.29815 
L 413.002199 35.29815 
L 414.784201 35.29815 
L 414.784201 35.29815 
L 416.566203 35.29815 
L 416.566203 35.297194 
L 418.348205 35.297194 
L 418.348205 35.297194 
L 420.130206 35.297194 
L 420.130206 35.297194 
L 421.912208 35.297194 
L 421.912208 35.296477 
L 423.69421 35.296477 
L 423.69421 35.296477 
L 425.476212 35.296477 
L 425.476212 35.296477 
L 427.258214 35.296477 
L 427.258214 280.426021 
L 425.476212 280.426021 
L 425.476212 280.426021 
L 423.69421 280.426021 
L 423.69421 280.426021 
L 421.912208 280.426021 
L 421.912208 280.426021 
L 420.130206 280.426021 
L 420.130206 280.426021 
L 418.348205 280.426021 
L 418.348205 280.426021 
L 416.566203 280.426021 
L 416.566203 280.426021 
L 414.784201 280.426021 
L 414.784201 280.426021 
L 413.002199 280.426021 
L 413.002199 280.426021 
L 411.220197 280.426021 
L 411.220197 280.426021 
L 409.438195 280.426021 
L 409.438195 280.426021 
L 407.656193 280.426021 
L 407.656193 280.426021 
L 405.874191 280.426021 
L 405.874191 280.426021 
L 404.092189 280.426021 
L 404.092189 280.426021 
L 402.310187 280.426021 
L 402.310187 280.426021 
L 400.528186 280.426021 
L 400.528186 280.426021 
L 398.746184 280.426021 
L 398.746184 280.426021 
L 396.964182 280.426021 
L 396.964182 280.426021 
L 395.18218 280.426021 
L 395.18218 280.426021 
L 393.400178 280.426021 
L 393.400178 280.426021 
L 391.618176 280.426021 
L 391.618176 280.426021 
L 389.836174 280.426021 
L 389.836174 280.426021 
L 388.054172 280.426021 
L 388.054172 280.426021 
L 386.27217 280.426021 
L 386.27217 280.426021 
L 384.490169 280.426021 
L 384.490169 280.426021 
L 382.708167 280.426021 
L 382.708167 280.426021 
L 380.926165 280.426021 
L 380.926165 280.426021 
L 379.144163 280.426021 
L 379.144163 280.426021 
L 377.362161 280.426021 
L 377.362161 280.426021 
L 375.580159 280.426021 
L 375.580159 280.426021 
L 373.798157 280.426021 
L 373.798157 280.426021 
L 372.016155 280.426021 
L 372.016155 280.426021 
L 370.234153 280.426021 
L 370.234153 280.426021 
L 368.452151 280.426021 
L 368.452151 280.426021 
L 366.67015 280.426021 
L 366.67015 280.426021 
L 364.888148 280.426021 
L 364.888148 280.426021 
L 363.106146 280.426021 
L 363.106146 280.426021 
L 361.324144 280.426021 
L 361.324144 280.426021 
L 359.542142 280.426021 
L 359.542142 280.426021 
L 357.76014 280.426021 
L 357.76014 280.426021 
L 355.978138 280.426021 
L 355.978138 280.426021 
L 354.196136 280.426021 
L 354.196136 280.426021 
L 352.414134 280.426021 
L 352.414134 280.426021 
L 350.632132 280.426021 
L 350.632132 280.426021 
L 348.850131 280.426021 
L 348.850131 280.426021 
L 347.068129 280.426021 
L 347.068129 280.426021 
L 345.286127 280.426021 
L 345.286127 280.426021 
L 343.504125 280.426021 
L 343.504125 280.426021 
L 341.722123 280.426021 
L 341.722123 280.426021 
L 339.940121 280.426021 
L 339.940121 280.426021 
L 338.158119 280.426021 
L 338.158119 280.426021 
L 336.376117 280.426021 
L 336.376117 280.426021 
L 334.594115 280.426021 
L 334.594115 280.426021 
L 332.812113 280.426021 
L 332.812113 280.426021 
L 331.030112 280.426021 
L 331.030112 280.426021 
L 329.24811 280.426021 
L 329.24811 280.426021 
L 327.466108 280.426021 
L 327.466108 280.426021 
L 325.684106 280.426021 
L 325.684106 280.426021 
L 323.902104 280.426021 
L 323.902104 280.426021 
L 322.120102 280.426021 
L 322.120102 280.426021 
L 320.3381 280.426021 
L 320.3381 280.426021 
L 318.556098 280.426021 
L 318.556098 280.426021 
L 316.774096 280.426021 
L 316.774096 280.426021 
L 314.992095 280.426021 
L 314.992095 280.426021 
L 313.210093 280.426021 
L 313.210093 280.426021 
L 311.428091 280.426021 
L 311.428091 280.426021 
L 309.646089 280.426021 
L 309.646089 280.426021 
L 307.864087 280.426021 
L 307.864087 280.426021 
L 306.082085 280.426021 
L 306.082085 280.426021 
L 304.300083 280.426021 
L 304.300083 280.426021 
L 302.518081 280.426021 
L 302.518081 280.426021 
L 300.736079 280.426021 
L 300.736079 280.426021 
L 298.954077 280.426021 
L 298.954077 280.426021 
L 297.172076 280.426021 
L 297.172076 280.426021 
L 295.390074 280.426021 
L 295.390074 280.426021 
L 293.608072 280.426021 
L 293.608072 280.426021 
L 291.82607 280.426021 
L 291.82607 280.426021 
L 290.044068 280.426021 
L 290.044068 280.426021 
L 288.262066 280.426021 
L 288.262066 280.426021 
L 286.480064 280.426021 
L 286.480064 280.426021 
L 284.698062 280.426021 
L 284.698062 280.426021 
L 282.91606 280.426021 
L 282.91606 280.426021 
L 281.134058 280.426021 
L 281.134058 280.426021 
L 279.352057 280.426021 
L 279.352057 280.426021 
L 277.570055 280.426021 
L 277.570055 280.426021 
L 275.788053 280.426021 
L 275.788053 280.426021 
L 274.006051 280.426021 
L 274.006051 280.426021 
L 272.224049 280.426021 
L 272.224049 280.426021 
L 270.442047 280.426021 
L 270.442047 280.426021 
L 268.660045 280.426021 
L 268.660045 280.426021 
L 266.878043 280.426021 
L 266.878043 280.426021 
L 265.096041 280.426021 
L 265.096041 280.426021 
L 263.31404 280.426021 
L 263.31404 280.426021 
L 261.532038 280.426021 
L 261.532038 280.426021 
L 259.750036 280.426021 
L 259.750036 280.426021 
L 257.968034 280.426021 
L 257.968034 280.426021 
L 256.186032 280.426021 
L 256.186032 280.426021 
L 254.40403 280.426021 
L 254.40403 280.426021 
L 252.622028 280.426021 
L 252.622028 280.426021 
L 250.840026 280.426021 
L 250.840026 280.426021 
L 249.058024 280.426021 
L 249.058024 280.426021 
L 247.276022 280.426021 
L 247.276022 280.426021 
L 245.494021 280.426021 
L 245.494021 280.426021 
L 243.712019 280.426021 
L 243.712019 280.426021 
L 241.930017 280.426021 
L 241.930017 280.426021 
L 240.148015 280.426021 
L 240.148015 280.426021 
L 238.366013 280.426021 
L 238.366013 280.426021 
L 236.584011 280.426021 
L 236.584011 280.426021 
L 234.802009 280.426021 
L 234.802009 280.426021 
L 233.020007 280.426021 
L 233.020007 280.426021 
L 231.238005 280.426021 
L 231.238005 280.426021 
L 229.456003 280.426021 
L 229.456003 280.426021 
L 227.674002 280.426021 
L 227.674002 280.426021 
L 225.892 280.426021 
L 225.892 280.426021 
L 224.109998 280.426021 
L 224.109998 280.426021 
L 222.327996 280.426021 
L 222.327996 280.426021 
L 220.545994 280.426021 
L 220.545994 280.426021 
L 218.763992 280.426021 
L 218.763992 280.426021 
L 216.98199 280.426021 
L 216.98199 280.426021 
L 215.199988 280.426021 
L 215.199988 280.426021 
L 213.417986 280.426021 
L 213.417986 280.426021 
L 211.635985 280.426021 
L 211.635985 280.426021 
L 209.853983 280.426021 
L 209.853983 280.426021 
L 208.071981 280.426021 
L 208.071981 280.426021 
L 206.289979 280.426021 
L 206.289979 280.426021 
L 204.507977 280.426021 
L 204.507977 280.426021 
L 202.725975 280.426021 
L 202.725975 280.426021 
L 200.943973 280.426021 
L 200.943973 280.426021 
L 199.161971 280.426021 
L 199.161971 280.426021 
L 197.379969 280.426021 
L 197.379969 280.426021 
L 195.597967 280.426021 
L 195.597967 280.426021 
L 193.815966 280.426021 
L 193.815966 280.426021 
L 192.033964 280.426021 
L 192.033964 280.426021 
L 190.251962 280.426021 
L 190.251962 280.426021 
L 188.46996 280.426021 
L 188.46996 280.426021 
L 186.687958 280.426021 
L 186.687958 280.426021 
L 184.905956 280.426021 
L 184.905956 280.426021 
L 183.123954 280.426021 
L 183.123954 280.426021 
L 181.341952 280.426021 
L 181.341952 280.426021 
L 179.55995 280.426021 
L 179.55995 280.426021 
L 177.777948 280.426021 
L 177.777948 280.426021 
L 175.995947 280.426021 
L 175.995947 280.426021 
L 174.213945 280.426021 
L 174.213945 280.426021 
L 172.431943 280.426021 
L 172.431943 280.426021 
L 170.649941 280.426021 
L 170.649941 280.426021 
L 168.867939 280.426021 
L 168.867939 280.426021 
L 167.085937 280.426021 
L 167.085937 280.426021 
L 165.303935 280.426021 
L 165.303935 280.426021 
L 163.521933 280.426021 
L 163.521933 280.426021 
L 161.739931 280.426021 
L 161.739931 280.426021 
L 159.95793 280.426021 
L 159.95793 280.426021 
L 158.175928 280.426021 
L 158.175928 280.426021 
L 156.393926 280.426021 
L 156.393926 280.426021 
L 154.611924 280.426021 
L 154.611924 280.426021 
L 152.829922 280.426021 
L 152.829922 280.426021 
L 151.04792 280.426021 
L 151.04792 280.426021 
L 149.265918 280.426021 
L 149.265918 280.426021 
L 147.483916 280.426021 
L 147.483916 280.426021 
L 145.701914 280.426021 
L 145.701914 280.426021 
L 143.919912 280.426021 
L 143.919912 280.426021 
L 142.137911 280.426021 
L 142.137911 280.426021 
L 140.355909 280.426021 
L 140.355909 280.426021 
L 138.573907 280.426021 
L 138.573907 280.426021 
L 136.791905 280.426021 
L 136.791905 280.426021 
L 135.009903 280.426021 
L 135.009903 280.426021 
L 133.227901 280.426021 
L 133.227901 280.426021 
L 131.445899 280.426021 
L 131.445899 280.426021 
L 129.663897 280.426021 
L 129.663897 280.426021 
L 127.881895 280.426021 
L 127.881895 280.426021 
L 126.099893 280.426021 
L 126.099893 280.426021 
L 124.317892 280.426021 
L 124.317892 280.426021 
L 122.53589 280.426021 
L 122.53589 280.426021 
L 120.753888 280.426021 
L 120.753888 280.426021 
L 118.971886 280.426021 
L 118.971886 280.426021 
L 117.189884 280.426021 
L 117.189884 280.426021 
L 115.407882 280.426021 
L 115.407882 280.426021 
L 113.62588 280.426021 
L 113.62588 280.426021 
L 111.843878 280.426021 
L 111.843878 280.426021 
L 110.061876 280.426021 
L 110.061876 280.426021 
L 108.279875 280.426021 
L 108.279875 280.426021 
L 106.497873 280.426021 
L 106.497873 280.426021 
L 104.715871 280.426021 
L 104.715871 280.426021 
L 102.933869 280.426021 
L 102.933869 280.426021 
L 101.151867 280.426021 
L 101.151867 280.426021 
L 99.369865 280.426021 
L 99.369865 280.426021 
L 97.587863 280.426021 
L 97.587863 280.426021 
L 95.805861 280.426021 
L 95.805861 280.426021 
L 94.023859 280.426021 
L 94.023859 280.426021 
L 92.241857 280.426021 
L 92.241857 280.426021 
L 90.459856 280.426021 
L 90.459856 280.426021 
L 88.677854 280.426021 
L 88.677854 280.426021 
L 86.895852 280.426021 
L 86.895852 280.426021 
L 85.11385 280.426021 
L 85.11385 280.426021 
L 83.331848 280.426021 
L 83.331848 280.426021 
L 81.549846 280.426021 
L 81.549846 280.426021 
L 79.767844 280.426021 
L 79.767844 280.426021 
L 77.985842 280.426021 
L 77.985842 280.426021 
L 76.20384 280.426021 
L 76.20384 280.426021 
L 74.421838 280.426021 
L 74.421838 280.426021 
L 72.639837 280.426021 
L 72.639837 280.426021 
z
" style="fill:#1f77b4;"/>
   </g>
   <g id="matplotlib.axis_1">
    <g id="xtick_1">
     <g id="line2d_1">
      <defs>
       <path d="M 0 0 
L 0 3.5 
" id="m531f42dbfe" style="stroke:#000000;stroke-width:1.1;"/>
      </defs>
      <g>
       <use style="stroke:#000000;stroke-width:1.1;" x="70.857835" xlink:href="#m531f42dbfe" y="280.426021"/>
      </g>
     </g>
     <g id="text_1">
      <!-- $0$ -->
      <defs>
       <path d="M 42 31.640625 
C 42 37.75 41.90625 48.125 37.703125 56.109375 
C 34 63.109375 28.09375 65.59375 22.90625 65.59375 
C 18.09375 65.59375 12 63.40625 8.203125 56.203125 
C 4.203125 48.71875 3.796875 39.4375 3.796875 31.640625 
C 3.796875 25.953125 3.90625 17.28125 7 9.671875 
C 11.296875 -0.609375 19 -2 22.90625 -2 
C 27.5 -2 34.5 -0.109375 38.59375 9.375 
C 41.59375 16.28125 42 24.359375 42 31.640625 
z
M 22.90625 -0.40625 
C 16.5 -0.40625 12.703125 5.078125 11.296875 12.6875 
C 10.203125 18.5625 10.203125 27.15625 10.203125 32.75 
C 10.203125 40.4375 10.203125 46.828125 11.5 52.921875 
C 13.40625 61.390625 19 64 22.90625 64 
C 27 64 32.296875 61.296875 34.203125 53.125 
C 35.5 47.4375 35.59375 40.734375 35.59375 32.75 
C 35.59375 26.25 35.59375 18.265625 34.40625 12.375 
C 32.296875 1.484375 26.40625 -0.40625 22.90625 -0.40625 
z
" id="CMR17-48"/>
      </defs>
      <g transform="translate(66.517239 300.571169)scale(0.19 -0.19)">
       <use transform="scale(0.996264)" xlink:href="#CMR17-48"/>
      </g>
     </g>
    </g>
    <g id="xtick_2">
     <g id="line2d_2">
      <g>
       <use style="stroke:#000000;stroke-width:1.1;" x="159.95793" xlink:href="#m531f42dbfe" y="280.426021"/>
      </g>
     </g>
     <g id="text_2">
      <!-- $50$ -->
      <defs>
       <path d="M 11.40625 57.6875 
C 12.40625 57.28125 16.5 56 20.703125 56 
C 30 56 35.09375 61.109375 38 64.0625 
C 38 64.953125 38 65.5 37.40625 65.5 
C 37.296875 65.5 37.09375 65.5 36.296875 65.046875 
C 32.796875 63.40625 28.703125 62.078125 23.703125 62.078125 
C 20.703125 62.078125 16.203125 62.484375 11.296875 64.671875 
C 10.203125 65.171875 10 65.171875 9.90625 65.171875 
C 9.40625 65.171875 9.296875 65.0625 9.296875 63.078125 
L 9.296875 34.421875 
C 9.296875 32.640625 9.296875 32.140625 10.296875 32.140625 
C 10.796875 32.140625 11 32.34375 11.5 33.03125 
C 14.703125 37.515625 19.09375 39.40625 24.09375 39.40625 
C 27.59375 39.40625 35.09375 37.21875 35.09375 20.140625 
C 35.09375 16.953125 35.09375 11.171875 32.09375 6.578125 
C 29.59375 2.484375 25.703125 0.390625 21.40625 0.390625 
C 14.796875 0.390625 8.09375 5 6.296875 12.71875 
C 6.703125 12.609375 7.5 12.421875 7.90625 12.421875 
C 9.203125 12.421875 11.703125 13.125 11.703125 16.21875 
C 11.703125 18.90625 9.796875 20 7.90625 20 
C 5.59375 20 4.09375 18.59375 4.09375 15.796875 
C 4.09375 7.09375 11 -2 21.59375 -2 
C 31.90625 -2 41.703125 6.875 41.703125 19.75 
C 41.703125 31.71875 33.90625 41 24.203125 41 
C 19.09375 41 14.796875 39.109375 11.40625 35.53125 
z
" id="CMR17-53"/>
      </defs>
      <g transform="translate(151.276739 300.571169)scale(0.19 -0.19)">
       <use transform="scale(0.996264)" xlink:href="#CMR17-53"/>
       <use transform="translate(45.690477 0)scale(0.996264)" xlink:href="#CMR17-48"/>
      </g>
     </g>
    </g>
    <g id="xtick_3">
     <g id="line2d_3">
      <g>
       <use style="stroke:#000000;stroke-width:1.1;" x="249.058024" xlink:href="#m531f42dbfe" y="280.426021"/>
      </g>
     </g>
     <g id="text_3">
      <!-- $100$ -->
      <defs>
       <path d="M 26.59375 63.40625 
C 26.59375 65.5 26.5 65.5 25.09375 65.5 
C 21.203125 61.1875 15.296875 59.796875 9.703125 59.796875 
C 9.40625 59.796875 8.90625 59.796875 8.796875 59.5 
C 8.703125 59.296875 8.703125 59.09375 8.703125 57 
C 11.796875 57 17 57.59375 21 59.984375 
L 21 7.203125 
C 21 3.6875 20.796875 2.5 12.203125 2.5 
L 9.203125 2.5 
L 9.203125 0 
C 14 0 19 0 23.796875 0 
C 28.59375 0 33.59375 0 38.40625 0 
L 38.40625 2.5 
L 35.40625 2.5 
C 26.796875 2.5 26.59375 3.59375 26.59375 7.15625 
z
" id="CMR17-49"/>
      </defs>
      <g transform="translate(236.036238 300.571169)scale(0.19 -0.19)">
       <use transform="scale(0.996264)" xlink:href="#CMR17-49"/>
       <use transform="translate(45.690477 0)scale(0.996264)" xlink:href="#CMR17-48"/>
       <use transform="translate(91.380954 0)scale(0.996264)" xlink:href="#CMR17-48"/>
      </g>
     </g>
    </g>
    <g id="xtick_4">
     <g id="line2d_4">
      <g>
       <use style="stroke:#000000;stroke-width:1.1;" x="338.158119" xlink:href="#m531f42dbfe" y="280.426021"/>
      </g>
     </g>
     <g id="text_4">
      <!-- $150$ -->
      <g transform="translate(325.136333 300.571169)scale(0.19 -0.19)">
       <use transform="scale(0.996264)" xlink:href="#CMR17-49"/>
       <use transform="translate(45.690477 0)scale(0.996264)" xlink:href="#CMR17-53"/>
       <use transform="translate(91.380954 0)scale(0.996264)" xlink:href="#CMR17-48"/>
      </g>
     </g>
    </g>
    <g id="xtick_5">
     <g id="line2d_5">
      <g>
       <use style="stroke:#000000;stroke-width:1.1;" x="427.258214" xlink:href="#m531f42dbfe" y="280.426021"/>
      </g>
     </g>
     <g id="text_5">
      <!-- $200$ -->
      <defs>
       <path d="M 41.703125 15.453125 
L 39.90625 15.453125 
C 38.90625 8.375 38.09375 7.171875 37.703125 6.5625 
C 37.203125 5.765625 30 5.765625 28.59375 5.765625 
L 9.40625 5.765625 
C 13 9.671875 20 16.75 28.5 24.953125 
C 34.59375 30.734375 41.703125 37.53125 41.703125 47.421875 
C 41.703125 59.21875 32.296875 66 21.796875 66 
C 10.796875 66 4.09375 56.3125 4.09375 47.34375 
C 4.09375 43.4375 7 42.9375 8.203125 42.9375 
C 9.203125 42.9375 12.203125 43.546875 12.203125 47.03125 
C 12.203125 50.109375 9.59375 51 8.203125 51 
C 7.59375 51 7 50.90625 6.59375 50.703125 
C 8.5 59.21875 14.296875 63.40625 20.40625 63.40625 
C 29.09375 63.40625 34.796875 56.515625 34.796875 47.421875 
C 34.796875 38.734375 29.703125 31.25 24 24.75 
L 4.09375 2.28125 
L 4.09375 0 
L 39.296875 0 
z
" id="CMR17-50"/>
      </defs>
      <g transform="translate(414.236428 300.571169)scale(0.19 -0.19)">
       <use transform="scale(0.996264)" xlink:href="#CMR17-50"/>
       <use transform="translate(45.690477 0)scale(0.996264)" xlink:href="#CMR17-48"/>
       <use transform="translate(91.380954 0)scale(0.996264)" xlink:href="#CMR17-48"/>
      </g>
     </g>
    </g>
    <g id="text_6">
     <!-- Size -->
     <defs>
      <path d="M 43.796875 67.03125 
C 43.796875 68.8125 43.703125 68.921875 43.09375 68.921875 
C 42.5 68.921875 42.296875 68.515625 41.90625 67.625 
L 38.90625 61.046875 
C 35.09375 66.515625 29.296875 69 23 69 
C 12.796875 69 4.59375 60.953125 4.59375 50.828125 
C 4.59375 47.75 5.296875 43.375 8.703125 39.21875 
C 12.40625 34.65625 15.90625 33.859375 23.90625 31.765625 
C 26.90625 30.96875 31.90625 29.671875 32.90625 29.28125 
C 38.59375 26.90625 41.59375 20.953125 41.59375 15.390625 
C 41.59375 8.234375 36.5 0.59375 27.796875 0.59375 
C 17.09375 0.59375 7.09375 6.546875 6.40625 20.484375 
C 6.296875 22.078125 6.203125 22.171875 5.5 22.171875 
C 4.703125 22.171875 4.59375 22.078125 4.59375 20.078125 
L 4.59375 -0.015625 
C 4.59375 -1.796875 4.703125 -1.90625 5.296875 -1.90625 
C 6 -1.90625 6.203125 -1.40625 7.59375 1.6875 
C 7.703125 1.984375 7.703125 2.1875 9.59375 5.953125 
C 14.59375 -0.609375 23 -2 27.796875 -2 
C 38.703125 -2 46.40625 7.046875 46.40625 17.5625 
C 46.40625 22.71875 44.5 26.6875 43.40625 28.484375 
C 39.203125 34.84375 34.703125 36.03125 29.90625 37.21875 
C 29.203125 37.53125 29 37.53125 23.40625 38.90625 
C 18 40.296875 15.703125 41 13.203125 43.6875 
C 10.40625 46.75 9.40625 49.9375 9.40625 53.109375 
C 9.40625 59.5625 14.59375 66.609375 23.09375 66.609375 
C 33.703125 66.609375 40.296875 59.15625 41.796875 46.765625 
C 42.09375 44.96875 42.203125 44.875 42.90625 44.875 
C 43.796875 44.875 43.796875 45.171875 43.796875 46.859375 
z
" id="CMR17-83"/>
      <path d="M 15.5 61.078125 
C 15.5 63.265625 13.703125 65.15625 11.40625 65.15625 
C 9.203125 65.15625 7.296875 63.375 7.296875 61.078125 
C 7.296875 58.890625 9.09375 57 11.40625 57 
C 13.59375 57 15.5 58.796875 15.5 61.078125 
z
M 3.796875 42.28125 
L 3.796875 39.703125 
C 9.40625 39.703125 10.203125 39.09375 10.203125 34.328125 
L 10.203125 6.671875 
C 10.203125 2.875 9.796875 2.390625 3.40625 2.390625 
L 3.40625 -0.203125 
C 5.796875 0 10.09375 0 12.59375 0 
C 15 0 19.09375 0 21.40625 -0.203125 
L 21.40625 2.390625 
C 15.5 2.390625 15.296875 2.984375 15.296875 6.5625 
L 15.296875 43.375 
z
" id="CMR17-105"/>
      <path d="M 36.09375 40.703125 
C 36.90625 41.71875 36.90625 41.90625 36.90625 42.109375 
C 36.90625 43 36.5 43 34.703125 43 
L 4.296875 43 
L 3.296875 27.5 
L 5.09375 27.5 
C 5.796875 37.203125 6.90625 41.40625 18.40625 41.40625 
L 30.59375 41.40625 
L 2 1.5 
C 2 0 2.09375 0 4.203125 0 
L 35.796875 0 
L 37.203125 18 
L 35.40625 18 
C 34.59375 6.90625 33.296875 1.796875 21.09375 1.796875 
L 8.296875 1.796875 
z
" id="CMR17-122"/>
      <path d="M 38.09375 23 
C 38.5 23.40625 38.5 23.609375 38.5 24.625 
C 38.5 34.96875 33.09375 44 21.703125 44 
C 11.09375 44 2.703125 33.890625 2.703125 21.609375 
C 2.703125 8.609375 12.203125 -1 22.796875 -1 
C 34 -1 38.40625 9.484375 38.40625 11.5625 
C 38.40625 12.25 37.796875 12.25 37.59375 12.25 
C 36.90625 12.25 36.796875 12.046875 36.40625 10.875 
C 34.203125 4.140625 28.703125 0.796875 23.5 0.796875 
C 19.203125 0.796875 14.90625 3.171875 12.203125 7.5 
C 9.09375 12.546875 9.09375 18.375 9.09375 23 
z
M 9.203125 24.5 
C 9.90625 39.140625 17.59375 42.40625 21.59375 42.40625 
C 28.40625 42.40625 33 35.890625 33.09375 24.5 
z
" id="CMR17-101"/>
     </defs>
     <g transform="translate(234.167955 321.398159)scale(0.19 -0.19)">
      <use transform="scale(0.996264)" xlink:href="#CMR17-83"/>
      <use transform="translate(50.89537 0)scale(0.996264)" xlink:href="#CMR17-105"/>
      <use transform="translate(75.766428 0)scale(0.996264)" xlink:href="#CMR17-122"/>
      <use transform="translate(116.252089 0)scale(0.996264)" xlink:href="#CMR17-101"/>
     </g>
    </g>
   </g>
   <g id="matplotlib.axis_2">
    <g id="ytick_1">
     <g id="line2d_6">
      <defs>
       <path d="M 0 0 
L -3.5 0 
" id="mdceece70d5" style="stroke:#000000;stroke-width:1.1;"/>
      </defs>
      <g>
       <use style="stroke:#000000;stroke-width:1.1;" x="70.857835" xlink:href="#mdceece70d5" y="280.426021"/>
      </g>
     </g>
     <g id="text_7">
      <!-- $0.0$ -->
      <defs>
       <path d="M 18.40625 4.796875 
C 18.40625 7.6875 16 9.671875 13.59375 9.671875 
C 10.703125 9.671875 8.703125 7.28125 8.703125 4.890625 
C 8.703125 2 11.09375 0 13.5 0 
C 16.40625 0 18.40625 2.390625 18.40625 4.796875 
z
" id="CMMI12-58"/>
      </defs>
      <g transform="translate(41.34699 286.998595)scale(0.19 -0.19)">
       <use transform="scale(0.996264)" xlink:href="#CMR17-48"/>
       <use transform="translate(45.690477 0)scale(0.996264)" xlink:href="#CMMI12-58"/>
       <use transform="translate(72.787654 0)scale(0.996264)" xlink:href="#CMR17-48"/>
      </g>
     </g>
    </g>
    <g id="ytick_2">
     <g id="line2d_7">
      <g>
       <use style="stroke:#000000;stroke-width:1.1;" x="70.857835" xlink:href="#mdceece70d5" y="231.400112"/>
      </g>
     </g>
     <g id="text_8">
      <!-- $0.2$ -->
      <g transform="translate(41.34699 237.972686)scale(0.19 -0.19)">
       <use transform="scale(0.996264)" xlink:href="#CMR17-48"/>
       <use transform="translate(45.690477 0)scale(0.996264)" xlink:href="#CMMI12-58"/>
       <use transform="translate(72.787654 0)scale(0.996264)" xlink:href="#CMR17-50"/>
      </g>
     </g>
    </g>
    <g id="ytick_3">
     <g id="line2d_8">
      <g>
       <use style="stroke:#000000;stroke-width:1.1;" x="70.857835" xlink:href="#mdceece70d5" y="182.374203"/>
      </g>
     </g>
     <g id="text_9">
      <!-- $0.4$ -->
      <defs>
       <path d="M 33.59375 64.40625 
C 33.59375 66.5 33.5 66.5 31.703125 66.5 
L 2 19.59375 
L 2 17 
L 27.796875 17 
L 27.796875 7.140625 
C 27.796875 3.5 27.59375 2.5 20.59375 2.5 
L 18.703125 2.5 
L 18.703125 0 
C 21.90625 0 27.296875 0 30.703125 0 
C 34.09375 0 39.5 0 42.703125 0 
L 42.703125 2.5 
L 40.796875 2.5 
C 33.796875 2.5 33.59375 3.5 33.59375 7.140625 
L 33.59375 17 
L 43.796875 17 
L 43.796875 19.59375 
L 33.59375 19.59375 
z
M 28.09375 57.859375 
L 28.09375 19.59375 
L 4 19.59375 
z
" id="CMR17-52"/>
      </defs>
      <g transform="translate(41.34699 188.946777)scale(0.19 -0.19)">
       <use transform="scale(0.996264)" xlink:href="#CMR17-48"/>
       <use transform="translate(45.690477 0)scale(0.996264)" xlink:href="#CMMI12-58"/>
       <use transform="translate(72.787654 0)scale(0.996264)" xlink:href="#CMR17-52"/>
      </g>
     </g>
    </g>
    <g id="ytick_4">
     <g id="line2d_9">
      <g>
       <use style="stroke:#000000;stroke-width:1.1;" x="70.857835" xlink:href="#mdceece70d5" y="133.348295"/>
      </g>
     </g>
     <g id="text_10">
      <!-- $0.6$ -->
      <defs>
       <path d="M 10.59375 34 
C 10.59375 57.65625 21.796875 63 28.296875 63 
C 30.40625 63 35.5 62.640625 37.5 59 
C 35.90625 59 32.90625 59 32.90625 55.515625 
C 32.90625 52.828125 35.09375 51.921875 36.5 51.921875 
C 37.40625 51.921875 40.09375 52.3125 40.09375 55.625 
C 40.09375 61.78125 35.09375 65.296875 28.203125 65.296875 
C 16.296875 65.296875 3.796875 52.96875 3.796875 31 
C 3.796875 3.953125 15.09375 -2 23.09375 -2 
C 32.796875 -2 42 6.671875 42 20.046875 
C 42 32.515625 33.90625 41.59375 23.703125 41.59375 
C 17.59375 41.59375 13.09375 37.609375 10.59375 30.625 
z
M 23.09375 0.390625 
C 10.796875 0.390625 10.796875 18.75 10.796875 22.4375 
C 10.796875 29.625 14.203125 40 23.5 40 
C 25.203125 40 30.09375 40 33.40625 33.125 
C 35.203125 29.21875 35.203125 25.140625 35.203125 20.140625 
C 35.203125 14.75 35.203125 10.78125 33.09375 6.78125 
C 30.90625 2.671875 27.703125 0.390625 23.09375 0.390625 
z
" id="CMR17-54"/>
      </defs>
      <g transform="translate(41.34699 139.920869)scale(0.19 -0.19)">
       <use transform="scale(0.996264)" xlink:href="#CMR17-48"/>
       <use transform="translate(45.690477 0)scale(0.996264)" xlink:href="#CMMI12-58"/>
       <use transform="translate(72.787654 0)scale(0.996264)" xlink:href="#CMR17-54"/>
      </g>
     </g>
    </g>
    <g id="ytick_5">
     <g id="line2d_10">
      <g>
       <use style="stroke:#000000;stroke-width:1.1;" x="70.857835" xlink:href="#mdceece70d5" y="84.322386"/>
      </g>
     </g>
     <g id="text_11">
      <!-- $0.8$ -->
      <defs>
       <path d="M 27.203125 35.375 
C 33.5 38.546875 39.90625 43.328125 39.90625 50.984375 
C 39.90625 60.015625 31.09375 65.296875 23 65.296875 
C 13.90625 65.296875 5.90625 58.734375 5.90625 49.6875 
C 5.90625 47.203125 6.5 42.921875 10.40625 39.140625 
C 11.40625 38.15625 15.59375 35.171875 18.296875 33.28125 
C 13.796875 30.984375 3.296875 25.53125 3.296875 14.59375 
C 3.296875 4.359375 13.09375 -2 22.796875 -2 
C 33.5 -2 42.5 5.65625 42.5 15.78125 
C 42.5 24.84375 36.40625 29.015625 32.40625 31.703125 
z
M 14.09375 44.09375 
C 13.296875 44.59375 9.296875 47.671875 9.296875 52.359375 
C 9.296875 58.421875 15.59375 63 22.796875 63 
C 30.703125 63 36.5 57.4375 36.5 50.96875 
C 36.5 41.703125 26.09375 36.421875 25.59375 36.421875 
C 25.5 36.421875 25.40625 36.421875 24.59375 37.03125 
z
M 32.5 23.734375 
C 34 22.640625 38.796875 19.375 38.796875 13.296875 
C 38.796875 5.953125 31.40625 0.390625 23 0.390625 
C 13.90625 0.390625 7 6.84375 7 14.6875 
C 7 22.546875 13.09375 29.09375 20 32.1875 
z
" id="CMR17-56"/>
      </defs>
      <g transform="translate(41.34699 90.89496)scale(0.19 -0.19)">
       <use transform="scale(0.996264)" xlink:href="#CMR17-48"/>
       <use transform="translate(45.690477 0)scale(0.996264)" xlink:href="#CMMI12-58"/>
       <use transform="translate(72.787654 0)scale(0.996264)" xlink:href="#CMR17-56"/>
      </g>
     </g>
    </g>
    <g id="ytick_6">
     <g id="line2d_11">
      <g>
       <use style="stroke:#000000;stroke-width:1.1;" x="70.857835" xlink:href="#mdceece70d5" y="35.296477"/>
      </g>
     </g>
     <g id="text_12">
      <!-- $1.0$ -->
      <g transform="translate(41.34699 41.869051)scale(0.19 -0.19)">
       <use transform="scale(0.996264)" xlink:href="#CMR17-49"/>
       <use transform="translate(45.690477 0)scale(0.996264)" xlink:href="#CMMI12-58"/>
       <use transform="translate(72.787654 0)scale(0.996264)" xlink:href="#CMR17-48"/>
      </g>
     </g>
    </g>
    <g id="text_13">
     <!-- CDF -->
     <defs>
      <path d="M 62.09375 67.015625 
C 62.09375 68.796875 62 68.90625 61.40625 68.90625 
C 61 68.90625 60.90625 68.796875 60.203125 67.609375 
L 55.796875 59.25 
C 50.90625 65.421875 44.90625 69 37.203125 69 
C 20.09375 69 4.59375 54 4.59375 33.5625 
C 4.59375 12.90625 20.09375 -2 37.296875 -2 
C 52.59375 -2 62.09375 11.40625 62.09375 22.828125 
C 62.09375 23.8125 62.09375 24.21875 61.203125 24.21875 
C 60.40625 24.21875 60.40625 23.921875 60.296875 23.03125 
C 59.5 9.140625 49.5 0.59375 38.703125 0.59375 
C 28.5 0.59375 12.203125 7.734375 12.203125 33.546875 
C 12.203125 59.453125 28.796875 66.40625 38.5 66.40625 
C 49.796875 66.40625 58 56.6875 59.90625 42.890625 
C 60.09375 41.6875 60.09375 41.484375 61 41.484375 
C 62.09375 41.484375 62.09375 41.6875 62.09375 43.484375 
z
" id="CMR17-67"/>
      <path d="M 5.203125 68 
L 5.203125 65.40625 
C 12.09375 65.40625 13.203125 65.40625 13.203125 60.9375 
L 13.203125 7.0625 
C 13.203125 2.59375 12.09375 2.59375 5.203125 2.59375 
L 5.203125 0 
L 37 0 
C 53.09375 0 66 14.734375 66 33.453125 
C 66 52.28125 53.296875 68 37 68 
z
M 23.796875 2.59375 
C 19.796875 2.59375 19.59375 3.078125 19.59375 6.46875 
L 19.59375 61.53125 
C 19.59375 64.921875 19.796875 65.40625 23.796875 65.40625 
L 35 65.40625 
C 43.296875 65.40625 58.59375 60.53125 58.59375 33.453125 
C 58.59375 19.40625 54.5 13.734375 52.59375 11.046875 
C 50.203125 7.96875 44.5 2.59375 35 2.59375 
z
" id="CMR17-68"/>
      <path d="M 54.40625 67.578125 
L 5.09375 67.578125 
L 5.09375 65 
C 12 65 13.09375 65 13.09375 60.53125 
L 13.09375 6.96875 
C 13.09375 2.5 12 2.5 5.09375 2.5 
L 5.09375 0 
C 8 0 13.59375 0 16.703125 0 
C 20.796875 0 25.59375 0 29.703125 0 
L 29.703125 2.5 
L 27.5 2.5 
C 19.90625 2.5 19.703125 3.484375 19.703125 7.0625 
L 19.703125 32.421875 
L 28.703125 32.421875 
C 38 32.421875 38.90625 29.140625 38.90625 20.8125 
L 40.703125 20.8125 
L 40.703125 46.671875 
L 38.90625 46.671875 
C 38.90625 38.28125 38 35 28.703125 35 
L 19.703125 35 
L 19.703125 61.109375 
C 19.703125 64.5 19.90625 65 23.90625 65 
L 36.796875 65 
C 51.90625 65 53.59375 58.828125 55 45.5625 
L 56.796875 45.5625 
z
" id="CMR17-70"/>
     </defs>
     <g transform="translate(33.665148 170.437299)rotate(-90)scale(0.19 -0.19)">
      <use transform="scale(0.996264)" xlink:href="#CMR17-67"/>
      <use transform="translate(66.509881 0)scale(0.996264)" xlink:href="#CMR17-68"/>
      <use transform="translate(136.903436 0)scale(0.996264)" xlink:href="#CMR17-70"/>
     </g>
    </g>
   </g>
   <g id="patch_4">
    <path d="M 70.857835 280.426021 
L 70.857835 23.04 
" style="fill:none;stroke:#000000;stroke-linecap:square;stroke-linejoin:miter;stroke-width:0.8;"/>
   </g>
   <g id="patch_5">
    <path d="M 427.258214 280.426021 
L 427.258214 23.04 
" style="fill:none;stroke:#000000;stroke-linecap:square;stroke-linejoin:miter;stroke-width:0.8;"/>
   </g>
   <g id="patch_6">
    <path d="M 70.857835 280.426021 
L 427.258214 280.426021 
" style="fill:none;stroke:#000000;stroke-linecap:square;stroke-linejoin:miter;stroke-width:0.8;"/>
   </g>
   <g id="patch_7">
    <path d="M 70.857835 23.04 
L 427.258214 23.04 
" style="fill:none;stroke:#000000;stroke-linecap:square;stroke-linejoin:miter;stroke-width:0.8;"/>
   </g>
  </g>
 </g>
 <defs>
  <clipPath id="pe7d13fca84">
   <rect height="257.386021" width="356.400379" x="70.857835" y="23.04"/>
  </clipPath>
 </defs>
</svg>
